<svg version="1.1" xmlns="http://www.w3.org/2000/svg" xmlns:xlink="http://www.w3.org/1999/xlink" width="322.97667" height="348.91182" viewBox="0,0,322.97667,348.91182"><g transform="translate(-35.26361,-0.75)"><g data-paper-data="{&quot;isPaintingLayer&quot;:true}" fill-rule="nonzero" stroke-miterlimit="10" stroke-dasharray="" stroke-dashoffset="0" style="mix-blend-mode: normal"><path d="M238.56474,126.64802c32.04041,14.82188 55.47178,32.0679 52.33545,38.52008c-3.13632,6.45217 -31.65271,-0.33279 -63.69313,-15.15467c-32.04041,-14.82188 -55.47178,-32.0679 -52.33545,-38.52008c3.13632,-6.45217 31.65271,0.33279 63.69313,15.15467z" fill="#ebffa0" stroke="#000000" stroke-width="0.5" stroke-linecap="butt" stroke-linejoin="miter"/><path d="M183.5,161.54722c0,48.43198 -22.60962,87.69386 -50.5,87.69386c-27.89038,0 -50.5,-39.26188 -50.5,-87.69386c0,-48.43198 22.60962,-87.69386 50.5,-87.69386c27.89038,0 50.5,39.26188 50.5,87.69386z" fill="#000000" stroke="#000000" stroke-width="0.5" stroke-linecap="butt" stroke-linejoin="miter"/><path d="M189.77941,53.61632c0,29.05919 -25.80617,52.61632 -57.6397,52.61632c-31.83353,0 -57.63971,-23.55713 -57.63971,-52.61632c0,-29.05919 25.80618,-52.61632 57.63971,-52.61632c31.83353,0 57.6397,23.55713 57.6397,52.61632z" fill="#ebffa0" stroke="#000000" stroke-width="0.5" stroke-linecap="butt" stroke-linejoin="miter"/><path d="M48.13789,160.56132c11.98958,-33.36603 27.24375,-58.69626 34.07116,-56.57663c6.8274,2.11962 2.64264,30.88643 -9.34694,64.25246c-11.98958,33.36603 -27.24375,58.69626 -34.07116,56.57663c-6.82739,-2.11962 -2.64264,-30.88643 9.34694,-64.25246z" fill="#ebffa0" stroke="#000000" stroke-width="0.5" stroke-linecap="butt" stroke-linejoin="miter"/><path d="M79.53326,284.28732c2.80333,-35.17818 10.88127,-63.32147 18.0426,-62.85981c7.16134,0.46166 10.6942,29.35345 7.89087,64.53163c-2.80333,35.17818 -10.88127,63.32147 -18.0426,62.85981c-7.16134,-0.46166 -10.6942,-29.35345 -7.89087,-64.53163z" fill="#000000" stroke="#000000" stroke-width="0.5" stroke-linecap="butt" stroke-linejoin="miter"/><path d="M151.468,286.35975c-1.58719,-35.25398 2.93307,-64.18261 10.09629,-64.61389c7.16322,-0.43128 14.25684,27.79808 15.84403,63.05207c1.58719,35.25398 -2.93307,64.18261 -10.09629,64.61389c-7.16322,0.43128 -14.25684,-27.79808 -15.84403,-63.05207z" fill="#000000" stroke="#000000" stroke-width="0.5" stroke-linecap="butt" stroke-linejoin="miter"/><path d="M196.26488,339.10712c0.5344,3.51706 -7.22928,7.03532 -17.34067,7.85827c-10.11139,0.82295 -18.74149,-1.36106 -19.2759,-4.87811c-0.5344,-3.51706 7.22928,-7.03532 17.34067,-7.85827c10.11139,-0.82295 18.74149,1.36106 19.2759,4.87811z" data-paper-data="{&quot;index&quot;:null}" fill="#000000" stroke="#000000" stroke-width="0.5" stroke-linecap="butt" stroke-linejoin="miter"/><path d="M79.72148,340.57849c0.2478,-3.03334 9.75154,-4.57689 21.2272,-3.44761c11.47566,1.12928 20.57763,4.50375 20.32983,7.5371c-0.2478,3.03334 -9.75154,4.57689 -21.2272,3.44761c-11.47566,-1.12928 -20.57763,-4.50375 -20.32983,-7.5371z" data-paper-data="{&quot;index&quot;:null}" fill="#000000" stroke="#000000" stroke-width="0.5" stroke-linecap="butt" stroke-linejoin="miter"/><path d="M178.25,112c0,2.21009 -1.02832,3.39186 -2.12804,4.02378c-0.29942,0.85799 -0.65845,1.67694 -1.26321,2.33498c-0.95002,1.03373 -2.6662,0.94543 -3.86153,1.68183c-1.01106,0.62287 -1.56265,1.94423 -2.67948,2.34784c-1.2076,0.43641 -6.06825,0.36157 -7.81775,0.36157c-10,0 -20,0 -30,0c-5.34315,0 -11.01531,0.50901 -16.33673,-0.01195c-2.34581,-0.22965 -4.65139,-0.80104 -7,-1c-2.73808,-0.23195 -5.52335,0.36488 -8.24365,-0.02364c-2.74501,-0.39205 -5.31456,-1.34214 -7.92171,-2.20816c0,0 -4.50625,-1.50208 -3.00417,-6.00833c1.50208,-4.50625 6.00833,-3.00417 6.00833,-3.00417c1.60305,0.53645 4.4417,1.55796 6.07829,1.79184c2.55946,0.36577 5.17955,-0.23501 7.75635,-0.02364c2.34914,0.1927 4.6552,0.76025 7,1c5.08199,0.51963 10.55785,-0.01195 15.66327,-0.01195c10,0 20,0 30,0c1,0 2.00371,-0.08613 3,0c0.41057,0.03549 0.81599,0.55044 1.18225,0.36157c0.62661,-0.32312 0.70792,-1.3032 1.32052,-1.65216c0.6262,-0.3567 1.55752,0.10828 2.13847,-0.31817c0.30976,-0.22738 -0.09833,-0.76221 -0.14749,-1.14333l5.50625,-3.24792c0,0 4.75,0 4.75,4.75z" fill="#676767" stroke="none" stroke-width="0.5" stroke-linecap="butt" stroke-linejoin="miter"/><path d="M85.5,141.25c1.44523,0 2.45075,0.43973 3.15032,1.0516c3.51538,0.11817 6.81472,0.44087 10.43005,0.98399c6.77581,1.01792 14.54968,-0.03559 21.41963,-0.03559c11.66666,0 23.33334,0 35,0c4.63813,0 9.83582,0.67157 14.41963,0.03559c1.60899,-0.22324 3.13826,-1.0371 4.76266,-1.03209c2.29671,0.00709 4.52141,1.03998 6.81771,0.9965c0,0 4.75,0 4.75,4.75c0,4.75 -4.75,4.75 -4.75,4.75c-1.58695,-0.02044 -3.18904,0.15827 -4.76086,-0.06134c-0.85775,-0.11984 -1.55534,-0.9461 -2.42142,-0.94216c-1.1263,0.00512 -2.12304,0.80389 -3.23734,0.96791c-4.95452,0.72925 -10.56677,0.03559 -15.58037,0.03559c-11.66666,0 -23.33334,0 -35,0c-7.31431,0 -15.33926,0.95365 -22.58037,-0.03559c-1.36172,-0.18603 -2.64088,-0.79582 -4,-1c-2.63357,-0.39563 -5.75419,0.03559 -8.41963,0.03559l-4.75,-5.75c0,0 0,-4.75 4.75,-4.75z" fill="#676767" stroke="none" stroke-width="0.5" stroke-linecap="butt" stroke-linejoin="miter"/><path d="M187.25,181c0,4.75 -4.75,4.75 -4.75,4.75c-8.66666,0 -20.33334,0 -29,0c-6,0 -12,0 -18,0c-2.9285,0 -6.37681,-0.57416 -9.23914,-0.06134c-1.03757,0.18589 -1.95563,0.85718 -3,1c-3.55393,0.48602 -7.17385,0.06134 -10.76086,0.06134c-8.66666,0 -17.33334,0 -26,0c0,0 -4.75,0 -4.75,-4.75c0,-4.75 4.75,-4.75 4.75,-4.75c8.66666,0 17.33334,0 26,0c3.07978,0 6.19363,0.51953 9.23914,0.06134c1.04236,-0.15682 1.95866,-0.83653 3,-1c3.42202,-0.53719 7.29326,-0.06134 10.76086,-0.06134c6,0 12,0 18,0c8.66666,0 17.33334,0 26,0h3c0,0 4.75,0 4.75,4.75z" fill="#676767" stroke="none" stroke-width="0.5" stroke-linecap="butt" stroke-linejoin="miter"/><path d="M171.63574,122.02043c-3.45909,-3.13173 -5.91423,-7.54716 -7.16349,-12.8831c8.92913,-8.14781 17.65463,-7.99185 24.88773,-7.12798c9.08267,1.48489 26.01084,4.93965 26.01084,4.93965c-4.19837,10.06954 -9.03929,19.96599 -14.46579,29.57289c0,0 -24.11661,-9.8873 -29.26929,-14.50148z" data-paper-data="{&quot;index&quot;:null}" fill="#ffffff" stroke="#000000" stroke-width="1.2" stroke-linecap="round" stroke-linejoin="round"/><path d="M91.34617,108.81838c-0.58455,6.89196 -11.35178,30.62877 -11.35178,30.62877c-10.53829,-3.26859 -20.84909,-7.14954 -30.81104,-11.59717c0,0 9.94857,-14.12531 15.53931,-21.43581c4.67081,-5.58994 10.9132,-11.68842 22.99946,-11.8841c2.75097,4.73974 3.99304,9.63677 3.62406,14.28832z" data-paper-data="{&quot;index&quot;:null}" fill="#ffffff" stroke="#000000" stroke-width="1.2" stroke-linecap="round" stroke-linejoin="round"/><path d="M81.5,253v-65h97v65z" fill="#000000" stroke="#000000" stroke-width="0.5" stroke-linecap="butt" stroke-linejoin="miter"/><path d="M156.20548,76.93344c0,2.97172 -2.97172,2.97172 -2.97172,2.97172h-1.87687c-4.17541,0 -8.86992,0.60817 -12.9885,-0.03837c-0.65149,-0.10227 -1.22475,-0.52751 -1.87687,-0.62562c-1.951,-0.29352 -4.43921,0.03837 -6.40586,0.03837c-4.79646,0 -9.59291,0 -14.38936,0c0,0 -2.97172,0 -2.97172,-2.97172c0,-2.97172 2.97172,-2.97172 2.97172,-2.97172c4.79646,0 9.59291,0 14.38936,0c2.32805,0 5.06051,-0.2758 7.35788,0.03837c0.65338,0.08936 1.22774,0.50932 1.87687,0.62562c1.28078,0.22947 2.60218,-0.03837 3.90336,-0.03837c2.71104,0 5.42208,0 8.13312,0h1.87687c0,0 2.97172,0 2.97172,2.97172z" fill="#000000" stroke="none" stroke-width="0.5" stroke-linecap="butt" stroke-linejoin="miter"/><path d="M123.82941,52.22127c0,7.77427 -5.60203,14.07655 -12.51249,14.07655c-6.91045,0 -12.51249,-6.30229 -12.51249,-14.07655c0,-7.77427 5.60204,-14.07655 12.51249,-14.07655c6.91046,0 12.51249,6.30229 12.51249,14.07655z" fill="#ffffff" stroke="#000000" stroke-width="0.5" stroke-linecap="butt" stroke-linejoin="miter"/><path d="M169.5,52.22127c0,7.77427 -5.60204,14.07655 -12.51249,14.07655c-6.91045,0 -12.51249,-6.30229 -12.51249,-14.07655c0,-7.77427 5.60204,-14.07655 12.51249,-14.07655c6.91045,0 12.51249,6.30229 12.51249,14.07655z" fill="#ffffff" stroke="#000000" stroke-width="0.5" stroke-linecap="butt" stroke-linejoin="miter"/><path d="M107.71958,52.53408c0,-1.64123 1.33048,-2.97172 2.97172,-2.97172c1.64123,0 2.97172,1.33048 2.97172,2.97172c0,1.64123 -1.33048,2.97172 -2.97172,2.97172c-1.64123,0 -2.97172,-1.33048 -2.97172,-2.97172z" fill="#080808" stroke="none" stroke-width="0.5" stroke-linecap="butt" stroke-linejoin="miter"/><path d="M154.01579,51.90845c0,-1.64123 1.33048,-2.97172 2.97172,-2.97172c1.64123,0 2.97172,1.33048 2.97172,2.97172c0,1.64123 -1.33048,2.97172 -2.97172,2.97172c-1.64123,0 -2.97172,-1.33048 -2.97172,-2.97172z" fill="#080808" stroke="none" stroke-width="0.5" stroke-linecap="butt" stroke-linejoin="miter"/><path d="M139.47002,49.24955c0,0 -1.24776,0 -2.12624,-0.80853c-0.75131,0.25572 -2.61575,0.62842 -3.65987,-1.45982c-1.32899,-2.65798 1.32899,-3.98697 1.32899,-3.98697l1.6405,-0.78686c2.30291,-0.61378 2.73359,-2.12433 5.46872,-2.61662c0.64463,-0.11603 1.94382,0.07606 3.18609,0.14376c0.73919,-0.70618 1.47304,-1.32408 1.98385,-1.61518c1.47071,-0.83813 2.63293,-0.91001 3.84171,-0.90291c1.47236,-0.52512 3.06134,-0.77834 4.60248,-0.79216c0.06829,-0.00061 0.13612,-0.0019 0.20352,-0.00382c0.59361,-0.25544 1.18921,-0.50048 1.82296,-0.58344c0.21307,-0.02789 1.99774,-0.03622 3.60414,-0.03837c0.62546,-0.00567 1.60862,-0.56515 1.8767,-0.00038c0.27823,0.00018 0.49613,0.00038 0.6258,0.00038h1.87687c1.64123,0 2.97172,1.33048 2.97172,2.97172c0,0.18647 -0.01717,0.36892 -0.05002,0.54588c0.2052,0.26729 0.3846,0.60123 0.52315,1.01688c0.93974,2.81922 -1.87948,3.75896 -1.87948,3.75896c-2.80328,0.88598 -5.20401,0.27449 -7.97122,0.73975c-2.8483,0.47889 -3.81656,2.65305 -6.49673,3.66461c-0.50017,0.18878 -1.10513,-0.299 -1.6008,-0.0987c-0.54688,0.221 -0.69389,1.05819 -1.25125,1.25125c-1.81994,0.6304 -4.80766,0.22621 -6.76785,0.22621h-0.62562c0,0 -1.04875,0 -1.90021,-0.62303c-0.48045,0.00027 -0.90829,-0.0026 -1.22791,-0.0026z" fill="#080808" stroke="none" stroke-width="0.5" stroke-linecap="butt" stroke-linejoin="miter"/><path d="M100.08556,33.9938c1.64841,-2.47262 4.12103,-0.8242 4.12103,-0.8242c1.12497,0.77315 2.49527,1.12245 3.66766,1.8216c0.5066,0.30211 0.75282,0.93583 1.25125,1.25125c1.11452,0.70529 2.61188,0.59116 3.75375,1.25125c0.51066,0.2952 0.75282,0.93583 1.25125,1.25125c1.56025,0.98735 3.992,0.92963 5.63062,1.87687c0.85567,0.49464 1.55052,1.33101 2.50554,1.58555l1.6405,0.78686c0,0 2.13077,1.06538 1.62286,3.19615l1.89674,3.21558c0,0 0,2.97172 -2.97172,2.97172c-1.33986,0 -2.07562,-0.6041 -2.47964,-1.26757c-3.97338,-1.21122 -8.34399,-2.21546 -11.96411,-4.03961c-0.5334,-0.26877 -0.86441,-0.8918 -1.4324,-1.07658c-0.59493,-0.19354 -1.28449,0.2012 -1.87687,0c-0.85986,-0.29205 -1.50662,-1.02482 -2.32134,-1.42592c-0.67806,-0.33381 -1.48737,-0.37531 -2.13357,-0.76727c-1.17071,-0.71012 -2.06937,-1.80667 -3.21421,-2.55777c0,0 -2.47262,-1.64841 -0.8242,-4.12103c0.40808,-0.61212 0.86668,-0.97168 1.32576,-1.16621c-0.06431,-0.56703 0.06196,-1.22818 0.55111,-1.96191z" fill="#080808" stroke="none" stroke-width="0.5" stroke-linecap="butt" stroke-linejoin="miter"/><path d="M308.21331,105.6127c4.47097,2.7519 1.71907,7.22287 1.71907,7.22287l0.00977,-0.31492c-2.12913,6.5337 -6.05179,12.03908 -9.64157,17.87136c-1.31857,2.14226 -3.42,4.57578 -4.33446,6.91281c-0.3841,0.98162 -0.31342,2.10686 -0.7209,3.07901c-1.03542,2.47029 -2.82242,5.00143 -4.40425,7.37704c1.0508,0.64677 2.10159,1.29354 3.1524,1.94031l1.70323,1.04834c0,0 4.47097,2.7519 1.71907,7.22287c-2.7519,4.47097 -7.22287,1.71907 -7.22287,1.71907c-5.39355,-3.31974 -12.49033,-7.68784 -17.88388,-11.00758c0,0 -4.47097,-2.7519 -1.71907,-7.22287c2.7519,-4.47097 7.22287,-1.71907 7.22287,-1.71907c1.37185,0.84438 2.74369,1.68875 4.11555,2.53313c1.32463,-1.89584 2.86044,-3.97891 3.60887,-5.89161c1.27141,-3.24927 2.37229,-5.89133 4.249,-8.9404c3.5582,-5.78096 8.16748,-11.59217 10.1462,-18.09313l1.05811,-2.01814c0,0 2.7519,-4.47097 7.22287,-1.71907z" fill="#000000" stroke="none" stroke-width="0.5" stroke-linecap="butt" stroke-linejoin="miter"/><path d="M268.95003,165.11076c1.51983,-2.46924 4.75362,-3.2389 7.22287,-1.71907c2.46924,1.51983 3.2389,4.75362 1.71907,7.22287c-1.51983,2.46924 -4.75362,3.2389 -7.22287,1.71907c-2.46924,-1.51983 -3.2389,-4.75362 -1.71907,-7.22287z" fill="#000000" stroke="none" stroke-width="0.5" stroke-linecap="butt" stroke-linejoin="miter"/><path d="M279.36808,303.85516c-5.22964,-0.46189 -4.76775,-5.69153 -4.76775,-5.69153l0.50253,-3.58713c1.96702,-5.24342 4.5381,-9.47527 7.46347,-14.22809c0.474,-0.77052 9.74511,-15.83791 9.78423,-15.91789c1.53907,-3.14652 2.18908,-6.67916 3.7371,-9.82128c1.52176,-3.08883 3.74721,-5.78357 5.43073,-8.7873c2.05805,-3.67195 2.25518,-8.11893 3.67673,-12.081c1.10403,-3.07708 3.01873,-5.87244 3.76887,-9.05436c0.61027,-2.58865 -0.16914,-5.348 0.24579,-7.97504c0.26518,-1.67886 1.50402,-3.10339 1.76924,-4.78224c0.4084,-2.58529 -0.15588,-5.25947 0.22613,-7.84879c0.35418,-2.40072 1.60416,-4.61006 1.96597,-7.00963c0.36657,-2.43112 0.15261,-4.91494 0.20266,-7.37303c0.1853,-9.09925 -0.04826,-17.61694 -3.43265,-26.12966c0,0 -1.92564,-4.8841 2.95846,-6.80974c4.8841,-1.92564 6.80974,2.95846 6.80974,2.95846c4.64666,11.87104 5.67443,26.32277 3.83911,38.95439c-0.34893,2.40149 -1.61002,4.60918 -1.96597,7.00963c-0.40448,2.7277 0.13238,5.54363 -0.29935,8.26716c-0.26611,1.67871 -1.50309,3.10353 -1.76924,4.78224c-0.42518,2.68174 0.35125,5.49999 -0.27969,8.14091c-0.86697,3.62892 -2.90264,6.87906 -4.14886,10.39582c-1.50213,4.23896 -1.86555,8.92696 -4.00126,12.88474c-1.68904,3.13002 -4.00585,5.90569 -5.57685,9.09658c-1.54475,3.13759 -2.18617,6.66824 -3.72978,9.8064c-0.32215,0.65494 -9.24825,15.13779 -10.2685,16.7963c-2.56572,4.16849 -4.88356,7.76275 -6.55842,12.36866l0.10907,0.86766c0,0 -0.46189,5.22964 -5.69153,4.76775z" fill="#000000" stroke="none" stroke-width="0.5" stroke-linecap="butt" stroke-linejoin="miter"/><path d="M248.25656,258.3492c-4.47097,-2.7519 -1.71907,-7.22287 -1.71907,-7.22287l1.04834,-1.70323c2.86305,-4.65156 6.29393,-9.2634 8.72707,-14.15356c1.62012,-3.25613 2.42606,-6.86794 3.94375,-10.17306c1.25191,-2.72631 3.4368,-4.95164 4.71753,-7.66452c1.86928,-3.95956 2.45022,-8.64469 4.25938,-12.64348c0.52221,-1.15424 1.50196,-2.0639 2.01635,-3.22165c1.21836,-2.74218 1.74237,-6.33463 2.42915,-9.28529c0,0 1.19683,-5.11176 6.30859,-3.91493c5.11176,1.19683 3.91493,6.30859 3.91493,6.30859c-0.82004,3.4844 -1.54462,7.61138 -2.94458,10.892c-0.54944,1.28753 -1.59331,2.3189 -2.17701,3.59126c-1.82765,3.98396 -2.38483,8.67294 -4.25938,12.64348c-1.28078,2.71285 -3.48491,4.92944 -4.71753,7.66452c-1.56816,3.47963 -2.4852,7.24016 -4.18155,10.65912c-2.53702,5.11329 -6.10326,9.94109 -9.09473,14.8013l-1.04834,1.70323c0,0 -2.7519,4.47097 -7.22287,1.71907z" fill="#000000" stroke="none" stroke-width="0.5" stroke-linecap="butt" stroke-linejoin="miter"/><path d="M331.32121,314.1727c-4.47097,-2.7519 -1.71907,-7.22287 -1.71907,-7.22287l0.19846,1.09076c-0.5125,-3.30025 -0.32314,-6.79283 0.67289,-9.95682c0.43096,-1.36901 1.69028,-2.35647 2.21459,-3.69251c0.98231,-2.50312 1.73896,-5.10474 2.27205,-7.74034c2.23186,-11.03435 2.65595,-22.55091 3.7995,-33.73392c1.05084,-10.27651 3.64539,-20.42275 5.83716,-30.49404c0.29228,-6.80654 0.29869,-10.45572 1.03853,-16.87509c0.76048,-6.59847 2.72849,-14.33821 1.96748,-21.111c-0.40802,-3.63136 -1.93282,-7.05897 -2.56869,-10.65743c-0.35462,-2.00681 -0.25434,-4.08792 -0.72619,-6.07045c-0.47185,-1.98253 -1.49806,-3.79557 -2.08635,-5.74673c-0.52248,-1.73291 -0.70556,-3.55716 -1.24017,-5.28637c-1.08689,-3.51551 -3.86632,-6.70705 -5.72087,-9.8202c-0.55767,-0.93613 -0.81727,-2.09386 -1.60276,-2.84907c-0.91223,-0.87707 -2.21824,-1.21975 -3.30447,-1.869c-3.71659,-2.22142 -7.38252,-4.54396 -11.07097,-6.81422c0,0 -4.47097,-2.7519 -1.71907,-7.22287c2.7519,-4.47097 7.22287,-1.71907 7.22287,-1.71907c3.68908,2.27064 7.40698,4.50493 11.07097,6.81422c1.75058,1.10332 3.73065,1.92757 5.21167,3.37271c1.35511,1.32229 2.09295,3.15595 3.11347,4.75074c2.40102,3.75218 5.31433,7.65841 6.72457,11.93091c0.61475,1.86246 0.81473,3.84165 1.37937,5.71991c0.64225,2.13643 1.71989,4.13764 2.23642,6.30788c0.51653,2.17024 0.45681,4.44221 0.84501,6.63904c0.32536,1.8413 2.50679,9.83635 2.6704,11.35511c0.82687,7.67594 -1.092,15.89379 -1.96707,23.43694c-0.6974,6.01166 -0.77086,10.79802 -1.06077,17.06004c-2.14723,10.03671 -4.79475,20.19545 -5.82923,30.43128c-1.15908,11.46858 -1.54263,23.35996 -3.95307,34.64705c-0.71453,3.34585 -1.73629,6.63238 -2.95417,9.82957c-1.25379,3.29146 -3.18658,4.33608 -2.04488,8.10606l-1.68471,5.67069c0,0 -2.7519,4.47097 -7.22287,1.71907z" fill="#000000" stroke="none" stroke-width="0.5" stroke-linecap="butt" stroke-linejoin="miter"/></g></g></svg>