<svg version="1.1" xmlns="http://www.w3.org/2000/svg" xmlns:xlink="http://www.w3.org/1999/xlink" width="174.53826" height="351.31778" viewBox="0,0,174.53826,351.31778"><g transform="translate(-64.5356,-0.75)"><g data-paper-data="{&quot;isPaintingLayer&quot;:true}" stroke-miterlimit="10" stroke-dasharray="" stroke-dashoffset="0" style="mix-blend-mode: normal"><path d="M189.16213,162.52233c-20.71155,-28.58859 -32.72737,-55.08528 -26.83808,-59.18203c5.88928,-4.09675 27.45355,15.75778 48.16511,44.34637c20.71155,28.58859 32.72737,55.08528 26.83808,59.18203c-5.88928,4.09675 -27.45355,-15.75778 -48.16511,-44.34637z" fill="#86a840" fill-rule="nonzero" stroke="#000000" stroke-width="0.5" stroke-linecap="butt" stroke-linejoin="miter"/><path d="M183.5,161.54722c0,48.43198 -22.60962,87.69386 -50.5,87.69386c-27.89038,0 -50.5,-39.26188 -50.5,-87.69386c0,-48.43198 22.60962,-87.69386 50.5,-87.69386c27.89038,0 50.5,39.26188 50.5,87.69386z" fill="#86a840" fill-rule="nonzero" stroke="#000000" stroke-width="0.5" stroke-linecap="butt" stroke-linejoin="miter"/><path d="M189.77941,53.61632c0,29.05919 -25.80617,52.61632 -57.6397,52.61632c-31.83353,0 -57.63971,-23.55713 -57.63971,-52.61632c0,-29.05919 25.80618,-52.61632 57.63971,-52.61632c31.83353,0 57.6397,23.55713 57.6397,52.61632z" fill="#86a840" fill-rule="nonzero" stroke="#000000" stroke-width="0.5" stroke-linecap="butt" stroke-linejoin="miter"/><path d="M79.53326,284.28732c2.80333,-35.17818 10.88127,-63.32147 18.0426,-62.85981c7.16134,0.46166 10.6942,29.35345 7.89087,64.53163c-2.80333,35.17818 -10.88127,63.32147 -18.0426,62.85981c-7.16134,-0.46166 -10.6942,-29.35345 -7.89087,-64.53163z" fill="#86a840" fill-rule="nonzero" stroke="#000000" stroke-width="0.5" stroke-linecap="butt" stroke-linejoin="miter"/><path d="M149.468,286.35975c-1.58719,-35.25398 2.93307,-64.18261 10.09629,-64.61389c7.16322,-0.43128 14.25684,27.79808 15.84403,63.05207c1.58719,35.25398 -2.93307,64.18261 -10.09629,64.61389c-7.16322,0.43128 -14.25684,-27.79808 -15.84403,-63.05207z" fill="#86a840" fill-rule="nonzero" stroke="#000000" stroke-width="0.5" stroke-linecap="butt" stroke-linejoin="miter"/><path d="M175.95077,340.90625c0.95538,3.42674 -6.32641,7.85714 -16.26432,9.8956c-9.93791,2.03845 -18.76866,0.91302 -19.72404,-2.51371c-0.95538,-3.42674 6.32641,-7.85714 16.26432,-9.8956c9.93791,-2.03845 18.76866,-0.91302 19.72404,2.51371z" data-paper-data="{&quot;index&quot;:null}" fill="#86a840" fill-rule="nonzero" stroke="#000000" stroke-width="0.5" stroke-linecap="butt" stroke-linejoin="miter"/><path d="M79.72148,340.57849c0.2478,-3.03334 9.75154,-4.57689 21.2272,-3.44761c11.47566,1.12928 20.57763,4.50375 20.32983,7.5371c-0.2478,3.03334 -9.75154,4.57689 -21.2272,3.44761c-11.47566,-1.12928 -20.57763,-4.50375 -20.32983,-7.5371z" data-paper-data="{&quot;index&quot;:null}" fill="#86a840" fill-rule="nonzero" stroke="#000000" stroke-width="0.5" stroke-linecap="butt" stroke-linejoin="miter"/><path d="M174.85912,189.01315c-14.24958,1.99999 -28.76664,3.03422 -43.3291,3.08685c-17.81933,0 -41.48018,-2.14117 -49.22421,-4.28234c-1.08032,-14.23185 -0.74912,-28.49565 0.99145,-42.69845c2.09009,-18.57463 -3.91221,-36.68534 -5.3592,-42.41296c4.80808,-1.84604 10.07037,-3.10873 15.54167,-3.7292c2.92076,4.87116 12.80848,18.44973 37.94311,18.44973c25.13463,0 35.26351,-13.57857 37.94311,-18.44973c3.66605,0.46267 7.25577,1.16185 10.71839,2.08764c-4.82897,4.89036 -7.60457,10.55213 -8.03879,16.39777c0,12.61505 3.02795,27.54969 3.37629,38.8265c0.26796,8.52898 -0.26796,25.0695 -0.56272,32.72418z" fill="#ffee26" fill-rule="nonzero" stroke="none" stroke-width="1" stroke-linecap="butt" stroke-linejoin="miter"/><path d="M179.57521,145.11922c1.78735,14.17078 2.1812,28.40423 1.17902,42.60923c-1.91567,0.49937 -3.88662,0.89906 -5.89512,1.19549c0.29476,-7.65467 0.83068,-24.10598 0.56272,-32.63496c-0.34835,-11.27682 -3.37629,-26.21146 -3.37629,-38.8265c0.43422,-5.84565 3.20983,-11.50742 8.03879,-16.39777c1.72287,0.4473 3.38194,0.99669 4.95726,1.64156c-1.44698,5.72762 -7.47608,23.83833 -5.46638,42.41296z" fill="#fff8bb" fill-rule="nonzero" stroke="none" stroke-width="1" stroke-linecap="butt" stroke-linejoin="miter"/><path d="M93.58691,98.9949c2.38484,-0.32118 7.47608,-0.83862 10.42364,-1.01705c0,0 4.44813,13.20387 27.51947,13.20387c23.07134,0 27.73384,-13.07897 27.73384,-13.07897c2.92076,0.16059 7.82443,0.57098 10.20927,0.89215c-2.78678,4.87116 -12.80848,18.46757 -37.94311,18.46757c-25.10783,0 -35.12953,-13.5072 -37.94311,-18.46757z" fill="#ff7bd0" fill-rule="nonzero" stroke="none" stroke-width="1" stroke-linecap="butt" stroke-linejoin="miter"/><path d="M179.57521,145.20843c1.78735,14.17078 2.1812,28.40423 1.17902,42.60923c-7.71724,2.14117 -31.40489,4.28234 -49.22421,4.28234c-17.81933,0 -41.48018,-2.14117 -49.22421,-4.28234c-1.02685,-14.2342 -0.64193,-28.49801 1.15223,-42.69845c2.09009,-18.57463 -3.91221,-36.68534 -5.3592,-42.41296c4.80808,-1.84604 10.07038,-3.10873 15.54167,-3.7292c2.35805,-0.32118 7.47608,-0.83862 10.39684,-1.01705c0,0 4.44813,13.20387 27.51947,13.20387c23.07134,0 27.73384,-13.07897 27.73384,-13.07897c2.92076,0.16059 7.79763,0.57098 10.18247,0.89215c5.47867,0.62319 10.74906,1.88564 15.56846,3.7292c-1.44698,5.72762 -7.47608,23.83833 -5.46638,42.50218z" fill="none" fill-rule="evenodd" stroke="#db20a5" stroke-width="1.2" stroke-linecap="round" stroke-linejoin="round"/><path d="M153.96833,102.0035c11.65067,-3.12402 19.33044,1.02087 25.24599,5.18083c7.55284,5.3005 20.0527,16.74222 20.0527,16.74222c-8.02707,6.84384 -16.57343,13.22546 -25.52249,19.05781c0,0 -16.90704,-19.84239 -19.36584,-26.3073c-1.61346,-4.35578 -1.75409,-9.3845 -0.41036,-14.67356z" fill="#ffffff" fill-rule="nonzero" stroke="#db20a5" stroke-width="1.2" stroke-linecap="round" stroke-linejoin="round"/><g stroke-linecap="butt" stroke-linejoin="miter"><path d="M110.11825,151.855c0.57827,2.1894 3.0082,4.0411 6.41689,4.89c8.03984,1.74 13.55786,3 16.82872,6c2.12232,2.025 3.17099,5.43 -0.37453,5.43c-2.67162,0 -2.89634,-1.62 -5.99242,-3.42c-3.09609,-1.8 -7.9899,-2.34 -13.90742,-3.63c-7.24834,-1.4677 -12.15713,-5.53 -12.23453,-10.125h0.37453c2.55111,0.2278 4.9266,-0.8299 5.30579,-2.3625c0.37919,-1.5326 -1.38142,-2.9597 -3.93253,-3.1875c0.5573,-0.6945 1.24409,-1.3487 2.04741,-1.95c1.63959,1.0366 4.31837,1.1607 6.20299,0.2873c1.88478,-0.8733 2.36534,-2.4613 1.11276,-3.6773c1.09079,-0.3211 2.21703,-0.5968 3.37074,-0.825c0.43079,1.4257 2.6067,2.416 5.008,2.2792c2.40113,-0.1369 4.22832,-1.3552 4.20535,-2.8042c0,-0.075 0,-0.225 0,-0.225c1.32532,0.0229 2.64499,0.1132 3.94501,0.27c-0.49537,0.8521 -0.27016,1.7957 0.60407,2.5297c0.87423,0.7341 2.28811,1.1669 3.79037,1.1603c1.65574,-0.0065 3.18331,-0.5366 4.01992,-1.395c0.8977,0.43 1.68803,0.9352 2.34703,1.5c1.32366,-2.4152 1.74146,-4.9764 1.22345,-7.5c-0.1072,-1.9022 -1.49844,-3.6963 -3.8533,-4.9696c-2.35486,-1.2732 -5.47075,-1.916 -8.63092,-1.7804c-6.54173,0 -7.0411,1.815 -9.98737,4.005c-1.59598,1.2525 -3.63391,2.277 -5.96746,3l1.22345,-3.93c-0.64918,0.495 -4.29457,3.255 -6.19217,4.365c-0.85775,-0.0493 -1.67322,-0.2473 -2.34703,-0.57c-3.12105,-1.485 -3.22093,-4.185 0,-6.45c4.25179,-3.1115 9.90248,-5.4233 16.27942,-6.66c6.89129,-1.335 17.20325,-0.765 22.97096,2.295c5.76771,3.06 9.76266,7.515 9.21335,14.7c-0.54931,7.185 -2.372,12.405 -3.22093,16.5h-11.23579c0,0 0.07491,-0.87 0.29962,-2.19c0.27465,-2.115 -4.39444,-2.265 -4.99369,0c-0.54931,1.8 -0.54931,2.175 -0.54931,2.175h-9.51297c0,0 0.09987,-0.645 0.32459,-2.265c0.06209,-0.8284 -1.00556,-1.5302 -2.38449,-1.5675c-1.37892,-0.0373 -2.54711,0.6041 -2.6092,1.4325c-0.39949,1.53 -0.59924,2.4 -0.59924,2.4h-4.99369" fill="#14be48" fill-rule="nonzero" stroke="#14601e" stroke-width="0.795"/><path d="M104.47821,150.1291c-0.88039,0.5176 -2.06689,0.8039 -3.29866,0.7959h-0.37453c0,-0.21 0,-0.435 0,-0.66c-0.02031,-1.652 0.59491,-3.2844 1.79773,-4.77c1.9477,0.3622 3.27436,1.4452 3.27086,2.67c-0.01315,0.74 -0.51518,1.4465 -1.3954,1.9641z" fill="#14601e" fill-rule="nonzero" stroke="#14601e" stroke-width="0.795"/><path d="M112.56516,141.505c-0.01415,1.1221 -1.14006,2.1312 -2.86255,2.5653c-1.72249,0.4342 -3.70981,0.2098 -5.05245,-0.5703c1.95187,-1.456 4.41608,-2.6342 7.21588,-3.45c0.46541,0.45 0.70777,0.9703 0.69912,1.5z" fill="#14601e" fill-rule="nonzero" stroke="#14601e" stroke-width="0.795"/><path d="M115.28671,139.3c2.65781,-0.5039 5.42764,-0.7619 8.21461,-0.765h0.9488c0,0.075 0,0.225 0,0.225c0,1.5409 -2.0792,2.79 -4.64413,2.79c-2.20088,-0.0163 -4.084,-0.9538 -4.51929,-2.25z" fill="#14601e" fill-rule="nonzero" stroke="#14601e" stroke-width="0.795"/><path d="M132.88946,142.48c-1.49611,0.0049 -2.90366,-0.4259 -3.77656,-1.1559c-0.8729,-0.73 -1.10311,-1.6688 -0.61789,-2.5191c3.0345,0.3363 5.8829,1.1197 8.28952,2.28c-0.83661,0.8584 -2.36418,1.3885 -4.01992,1.395z" fill="#14601e" fill-rule="nonzero" stroke="#14601e" stroke-width="0.795"/><path d="M104.89985,131.425c0,-0.82843 1.11788,-1.5 2.49684,-1.5c1.37896,0 2.49684,0.67157 2.49684,1.5c0,0.82843 -1.11788,1.5 -2.49684,1.5c-1.37896,0 -2.49684,-0.67157 -2.49684,-1.5z" fill="#14601e" fill-rule="nonzero" stroke="#14601e" stroke-width="0.6"/><path d="M149.01907,137.71c0.05443,0.5295 0.05443,1.0605 0,1.59" fill="none" fill-rule="evenodd" stroke="#d3ff7d" stroke-width="1.59"/><path d="M139.581,125.95c4.23015,1.6708 7.24667,4.2442 8.43933,7.2c0.27465,0.66 0.49937,1.29 0.64918,1.905" fill="none" fill-rule="evenodd" stroke="#d3ff7d" stroke-width="1.59"/></g><path d="M193.52165,254.5174c-9.19445,2.3152 -18.86056,3.8587 -28.76233,4.6304c-9.43043,0.6174 -18.86071,0.7718 -28.29098,0.4631c-1.4145,-11.8848 -6.12979,-40.1305 -6.12979,-40.1305c0,0 -1.17867,28.4 -2.59332,40.2848c-10.6091,0.3087 -21.2182,0 -31.8273,-0.7717c-9.66595,-0.7718 -19.33205,-2.3152 -28.76233,-4.6305c0,0 4.47931,-17.2869 8.95878,-31.1782c3.53632,-11.2674 8.95878,-24.0783 9.66595,-25.6218c0.70732,0.3087 1.65032,0.4631 2.59347,0.4631c2.12182,0 4.71514,-0.9261 7.30846,-0.7718c2.12182,0 4.71514,1.5435 6.83696,1.5435c2.12182,0 4.71514,-0.9261 7.07278,-0.9261c2.35749,0 4.71514,1.3892 7.07263,1.3892c2.35765,0 4.71514,-1.0805 7.07278,-1.0805c2.35749,0 4.71514,1.2348 7.07278,1.2348c2.35749,0 4.71514,-1.2348 7.07263,-1.2348c2.35765,0 4.71514,1.0805 7.07278,1.0805c2.35749,0 4.47931,-1.3892 6.83696,-1.3892c2.35765,0 4.47947,0.9261 7.07278,0.9261c2.59332,0 4.71514,-1.3891 6.83696,-1.5435c2.59332,-0.1543 5.18664,0.9261 7.07263,0.7718c0.94315,0 1.88615,-0.1544 2.59347,-0.4631c0.70717,1.5435 6.12964,14.3544 9.66595,25.6218c4.47947,13.8913 8.95878,31.3326 8.48728,31.3326z" fill="#f05822" fill-rule="nonzero" stroke="none" stroke-width="1" stroke-linecap="butt" stroke-linejoin="miter"/><g stroke="#ffffff" stroke-linecap="round" stroke-linejoin="round"><path d="M119.25795,206.9783c-6.36546,-0.1544 -5.42231,-3.7044 0.23583,-4.7848c3.77214,-0.7718 7.77996,-0.7718 11.31642,0c-2.35765,2.7782 -6.60129,4.6304 -11.55225,4.7848z" fill="none" fill-rule="evenodd" stroke-width="1.24"/><path d="M130.8102,202.1935c0,0 -0.70732,6.7913 -11.55225,12.9652" fill="none" fill-rule="evenodd" stroke-width="1.24"/><path d="M116.90043,215.1587c0,-0.85244 1.05552,-1.54348 2.35758,-1.54348c1.30205,0 2.35758,0.69103 2.35758,1.54348c0,0.85244 -1.05552,1.54348 -2.35758,1.54348c-1.30205,0 -2.35758,-0.69104 -2.35758,-1.54348z" fill="#ffffff" fill-rule="nonzero" stroke-width="0.62"/><path d="M130.8102,202.1935c3.53632,-0.7718 7.54413,-0.7718 11.31627,0c5.65829,1.0804 6.60129,4.6304 0.23583,4.7848c-4.95096,-0.1544 -9.1946,-2.0066 -11.5521,-4.7848z" fill="none" fill-rule="evenodd" stroke-width="1.24"/><path d="M142.3623,215.1587c-10.84493,-6.1739 -11.5521,-12.9652 -11.5521,-12.9652" fill="none" fill-rule="evenodd" stroke-width="1.24"/><path d="M140.00468,215.1587c0,-0.85244 1.05553,-1.54348 2.35758,-1.54348c1.30205,0 2.35758,0.69103 2.35758,1.54348c0,0.85244 -1.05552,1.54348 -2.35758,1.54348c-1.30205,0 -2.35758,-0.69104 -2.35758,-1.54348z" fill="#ffffff" fill-rule="nonzero" stroke-width="0.62"/></g><g fill="#ffff4f" fill-rule="nonzero" stroke="none" stroke-width="1" stroke-linecap="butt" stroke-linejoin="miter"><path d="M76.58588,246.337l-1.65032,-2.4696c1.17882,0.1543 2.35749,0.3087 3.30064,0.7717c0.943,0.4631 1.88599,0.9261 2.59332,1.5435z"/><path d="M70.22039,247.57174l5.65818,-0.46304l2.35758,3.55l-5.65818,0.3087z"/><path d="M78.7077,251.1217l2.12182,2.9326l-0.23583,0.1544l-0.4715,0.463l-4.71514,0.3087l-2.35765,-3.3956z"/><path d="M75.64288,255.5978l3.53632,-0.1543c-0.70732,0.6174 -1.65032,1.2348 -2.59332,1.6978z"/><path d="M69.98459,246.9543l-1.4145,-2.0065c1.4145,-0.7717 3.30064,-1.0804 5.18664,-1.0804l1.88615,2.6239z"/><path d="M81.30102,246.8c0.943,1.0804 1.4145,2.3152 1.17882,3.55l-3.06497,0.1543l-2.35749,-3.3956z"/><path d="M79.6507,251.1217l2.59332,-0.1543c-0.23567,0.7717 -0.70732,1.5435 -1.17882,2.3152z"/><path d="M94.97495,232.13696l-0.23576,-1.54348l3.30061,0.61739l2.35758,0.46304l0.23576,3.70435l-5.42243,-1.08044h-0.23576z"/><path d="M101.10472,237.8478c-2.12182,0.3087 -4.00797,0 -5.65829,-0.6174l-0.23567,-2.3152l5.42231,1.0805z"/><path d="M90.73129,233.6804c-0.70732,-1.2347 -0.4715,-2.6239 0.23583,-3.7043l2.82899,0.463l0.23583,3.7044z"/><path d="M92.38162,235.5326c-0.70732,-0.463 -0.943,-0.9261 -1.4145,-1.3891l3.06482,0.6174l0.23567,2.1608c-0.70717,-0.3087 -1.4145,-0.7717 -1.88599,-1.3891z"/><path d="M110.0635,226.5804c0.70717,0.6174 1.4145,1.2348 1.65032,2.0066l-4.00797,-0.7718l-0.23567,-2.7782c0.943,0.463 1.88599,0.926 2.59332,1.5434z"/><path d="M106.9986,232.13696l-5.65819,-1.08043l-0.23576,-3.70435l5.65819,0.92609z"/><path d="M105.81986,236.3043l-4.47947,-0.7717l-0.23567,-3.7043l5.65814,1.0804l0.23567,3.087l-0.23567,0.1543z"/><path d="M104.87671,236.7674c-0.943,0.463 -2.12182,0.7717 -3.30049,0.9261v-1.5435z"/><path d="M96.15376,238.3109c0.23567,0 0.4715,0.1543 0.70732,0.1543c-0.23583,0.9261 -0.47165,1.8522 -0.47165,2.7783c-0.4715,-0.3087 -0.943,-0.7718 -1.17867,-1.0805c-0.23583,-0.3087 -0.4715,-0.463 -0.70732,-0.7717c-0.23583,-0.3087 -0.4715,-0.6174 -0.70732,-0.9261c-0.23567,0 -0.23567,-0.1543 -0.4715,-0.1543c-0.23567,0 -0.4715,0 -0.4715,0.1543c-0.70732,0.9261 -1.17882,2.0065 -1.65032,3.087c-0.23567,-0.3087 -0.4715,-0.7718 -0.70717,-1.2348c0,-0.3087 -0.23583,-0.4631 -0.23583,-0.7717c-0.23583,-0.9261 -0.4715,-1.8522 0,-2.624c0.23583,-0.1543 0,-0.1543 0,-0.3087c0,-0.1543 -0.23583,-0.1543 -0.23583,-0.1543h-0.23567c-1.4145,0.1543 -2.59332,-0.1544 -3.77214,-0.463c-0.4715,0 -0.943,-0.1544 -1.17882,-0.3087c-0.70717,-0.3087 -1.17882,-0.6174 -1.65032,-0.7718c0.4715,0 1.17882,0 1.65032,0v0c1.17882,0 2.35765,-0.1543 3.53647,-0.3087c0,-0.1543 0.23567,-0.1543 0.23567,-0.3087c0,-0.1543 0,-0.3087 -0.23567,-0.3087c-0.47165,-0.1543 -0.70732,-0.463 -1.17882,-0.6174c-0.23583,-0.3087 -0.70732,-0.463 -0.943,-0.6174c-0.47165,-0.3086 -0.94315,-0.6173 -1.41465,-0.926c1.41465,0.3087 3.06482,0.3087 4.47947,0.3087c0,0.463 0.23567,1.0804 0.4715,1.6978c0.4715,0.7717 1.17882,1.5435 1.88599,2.1609c0.70732,0.6173 1.65032,1.2347 2.82914,1.6978c0,0 1.17882,0.463 1.65032,0.6174z"/><path d="M93.56044,239.237c0.23567,0.3087 0.4715,0.6173 0.70717,0.926c-0.23567,0.4631 -0.4715,0.7718 -0.4715,1.2348c-0.4715,-0.3087 -0.70717,-0.7717 -0.943,-1.0804c0,-0.4631 0.23583,-0.7717 0.70732,-1.0804z"/><path d="M89.7883,240.163c-0.23583,0.4631 -0.70732,0.7718 -0.943,1.2348c-0.94315,-0.9261 -1.17882,-2.1608 -0.70732,-3.2413c0.23583,-0.1543 0,-0.3087 0,-0.3087c0,-0.1543 -0.23583,-0.1543 -0.23583,-0.1543h-0.23567c-1.88615,0 -3.53632,-0.3087 -4.71514,-1.0805c0.70717,0 1.4145,-0.1543 2.12182,-0.3087c1.17882,0.3087 2.59332,0.7718 4.24364,0.7718c-0.4715,1.0804 -0.23583,2.1609 0.4715,3.0869z"/><path d="M106.99853,227.6609l-5.65814,-0.9261l-0.23567,-2.1609c1.65017,-0.3087 3.77199,-0.1543 5.42231,0.3087z"/><path d="M85.54466,234.1435c-0.4715,-0.1544 -0.943,-0.4631 -1.4145,-0.7718c0.4715,0 1.17867,0 1.88599,0c0.4715,0.1544 0.70732,0.4631 1.17882,0.6174c-0.70732,0.1544 -1.17882,0.1544 -1.65032,0.1544z"/><path d="M96.86108,225.8087c0.943,-0.463 2.12182,-0.7717 3.30049,-1.0804v1.6978z"/><path d="M94.73919,228.12392l-0.23576,-1.23479l0.70727,-0.3087l0.23576,-0.3087l4.71516,0.92609l0.23576,3.70435l-2.12182,-0.3087l-3.53637,-0.77174z"/><path d="M93.56044,228.1239v1.5435l-2.35765,-0.4631c0.70732,-0.6173 1.41465,-1.2347 2.35765,-1.8521z"/><path d="M107.70585,228.587l4.24364,0.7717c0.23583,1.2348 0,2.4696 -0.943,3.55l-3.06482,-0.6174z"/><path d="M110.535,233.3717c-0.70732,0.6174 -1.41465,1.2348 -2.35765,1.8522l-0.23567,-2.3152z"/><path d="M90.96707,207.13261l5.18668,-1.54348l0.70727,3.55v0.15435l-3.06485,0.92609l-2.12182,0.77174l-0.47152,-2.31522z"/><path d="M99.4544,204.5087c1.17867,1.0804 1.65032,2.3152 1.4145,3.55l-3.06482,0.9261l-0.70732,-3.7044z"/><path d="M97.56825,212.3804c-1.4145,0.7718 -3.30064,1.2348 -5.18664,1.2348l-0.4715,-2.0065l5.18664,-1.6978z"/><path d="M98.51125,211.763l-0.4715,-2.0065l2.82914,-0.9261c-0.23583,0.4631 -0.4715,1.0805 -0.943,1.5435c-0.4715,0.4631 -0.943,0.9261 -1.41465,1.3891z"/><path d="M83.89434,204.66305l5.18667,-1.69783l0.94304,3.8587l-5.18668,1.54348z"/><path d="M90.02397,202.6565l4.24364,-1.3891c0,0.1543 0.23583,0.1543 0.23583,0.1543l0.70732,0.3087l0.70717,3.087l-5.18664,1.6978z"/><path d="M97.09675,204.5087l-0.4715,-2.3152c0.943,0.463 1.88599,1.0804 2.59332,1.6978z"/><path d="M102.04772,207.287c0,-0.1544 0,-0.3087 0,-0.4631c1.4145,-0.1543 2.59332,-0.463 4.00781,-0.7717c-0.4715,0.3087 -0.70717,0.7717 -1.17882,1.0804c-0.4715,0.1544 -0.70717,0.4631 -0.943,0.6174c-0.4715,0.3087 -0.70717,0.463 -1.17882,0.7717c-0.23567,0 -0.23567,0.1544 -0.23567,0.3087c0.23567,0 0.23567,0.1544 0.4715,0.1544c1.65032,0.1543 3.30064,0 4.95096,-0.1544c-0.4715,0.3087 -0.94315,0.6174 -1.41465,0.9261c-0.23567,0.1544 -0.70717,0.3087 -0.943,0.4631c-0.943,0.463 -2.35749,0.9261 -3.53632,0.9261c-0.23583,0 -0.4715,0 -0.4715,0.1543v0.1543v0.1544c0.4715,0.7717 0.70717,1.6978 0.70717,2.4696c0,0.3087 0,0.463 0,0.7717c0,0.463 0,0.9261 -0.23567,1.2348c-0.23583,-0.3087 -0.4715,-0.6174 -0.70732,-0.9261v0c-0.4715,-0.7717 -1.17882,-1.3891 -1.88599,-2.0065c0,-0.1544 -0.23583,-0.1544 -0.4715,-0.1544c0,0.1544 -0.23583,0.1544 -0.23583,0.3087c0,0.3087 0,0.6174 -0.23583,0.9261c-0.23567,0.1544 -0.23567,0.4631 -0.4715,0.7717c-0.23567,0.4631 -0.4715,0.7718 -0.70717,1.2348c-0.23583,-0.9261 -0.70732,-1.8521 -1.41465,-2.7782c0.94315,-0.1544 1.65032,-0.4631 2.35765,-0.9261c0.943,-0.6174 1.65032,-1.2348 2.35749,-2.0065c0.47165,-0.6174 0.94315,-1.5435 1.17882,-2.3153c0.23583,0 0.23583,-0.7717 0.23583,-0.926z"/><path d="M105.34836,207.5957c0.70717,-0.1544 1.17867,-0.1544 1.88599,-0.3087c-0.4715,0.463 -0.70732,0.7717 -1.17882,1.0804c-0.4715,0 -1.17882,0 -1.65032,0c0.4715,-0.1544 0.70732,-0.4631 0.94315,-0.7717z"/><path d="M106.99853,210.2196c0.70732,0.1543 1.41465,0.1543 2.12182,0.1543c-0.943,0.9261 -2.59332,1.5435 -4.24364,1.6978c0,0 -0.23567,0 -0.23567,0.1544v0.1543v0.1544c0.70732,1.0804 0.70732,2.1609 0.23567,3.2413c-0.4715,-0.3087 -0.943,-0.7718 -1.4145,-1.0804c0.23583,-0.9261 0,-2.0066 -0.4715,-2.9327c1.65032,-0.3087 3.06482,-0.7717 4.00781,-1.5434z"/><path d="M100.63307,215.313c-0.23567,0.3087 -0.4715,0.7718 -0.70717,1.0805c-0.23583,-0.4631 -0.4715,-0.7718 -0.70732,-1.2348c0.23583,-0.3087 0.4715,-0.6174 0.4715,-0.9261c0.23583,0.3087 0.4715,0.6174 0.943,1.0804z"/><path d="M83.89434,209.4478l0.4715,2.3152c-0.943,-0.463 -1.88599,-0.926 -2.82914,-1.5434z"/><path d="M90.73131,211.14565l-2.35758,0.92609l-1.65031,0.46304l-0.70727,-0.15435l-0.47151,-0.15435l-0.70728,-3.08696l5.18668,-1.69782l0.23576,1.38913z"/><path d="M91.20279,213.4609c-1.17882,-0.1544 -2.35749,-0.3087 -3.53632,-0.6174l1.17882,-0.3087l2.12182,-0.6174z"/><path d="M89.7883,202.1935l-0.23583,-1.6978c1.17882,0 2.35765,0.3086 3.53647,0.6173z"/><path d="M153.20713,226.42609l-2.35758,-0.46304l0.23576,-3.85869l5.18667,1.23478h0.23576v2.31522l-0.23576,1.54348z"/><path d="M151.32108,221.3326h-0.23583v-1.8522c1.88615,-0.1543 3.77214,0.1544 5.42246,0.9261v2.3152z"/><path d="M157.45071,223.4935l3.30064,0.7717c0.4715,1.2348 0.23583,2.6239 -0.70732,3.7044l-2.82899,-0.6174z"/><path d="M159.33686,222.1043c0.4715,0.4631 0.943,1.0805 1.17882,1.5435l-3.06497,-0.7717v-2.0065c0.70732,0.3087 1.41465,0.7717 1.88615,1.2347z"/><path d="M139.06166,228.4326l4.00781,0.9261v2.7783c-0.943,-0.4631 -1.65017,-1.0805 -2.35749,-1.6979c-0.4715,-0.6174 -0.943,-1.2348 -1.65032,-2.0065z"/><path d="M149.90651,226.27174v3.8587l-5.65819,-1.23479l0.23576,-3.85869z"/><path d="M150.14226,225.6543l-5.42246,-1.2347v-3.087l0.23583,-0.1543l0.70732,-0.3087l4.47931,1.0804z"/><path d="M149.90658,221.1783l-3.30064,-0.7718c1.17882,-0.3087 2.35749,-0.6174 3.53632,-0.7717z"/><path d="M165.93799,226.7348c-1.4145,-0.3087 -3.06482,-0.4631 -4.47931,-0.4631c0,-0.6174 0,-1.2347 -0.23583,-1.8521c-0.4715,-0.9261 -0.943,-1.6979 -1.65032,-2.3153c-0.70717,-0.7717 -1.65032,-1.3891 -2.59332,-1.8521c0,-0.1544 -0.943,-0.4631 -1.4145,-0.6174c-0.23583,0 -0.4715,-0.1544 -0.70732,-0.1544c0.4715,-0.9261 0.943,-1.8521 0.943,-2.7782c0.23583,0.3087 0.70732,0.6174 0.94315,1.0804c0.23567,0.3087 0.23567,0.4631 0.4715,0.7717c0,0.3087 0.23567,0.6174 0.4715,0.9261c0.23567,0 0.23567,0.1544 0.4715,0.1544c0.23583,0 0.4715,0 0.4715,-0.1544c0.943,-0.9261 1.65032,-2.0065 2.12182,-3.0869c0,0.3087 0.23583,0.7717 0.4715,1.2348c0,0.3087 0.23583,0.463 0.23583,0.7717c0.23567,0.9261 0.23567,1.8522 -0.23583,2.6239c0,0.1544 0,0.1544 0,0.3087c0,0.1544 0.23583,0.1544 0.23583,0.1544h0.23567c1.41465,0 2.59332,0.1543 3.77214,0.6173c0.4715,0.1544 0.943,0.3087 1.17882,0.4631c0.70732,0.3087 1.17882,0.463 1.65032,0.7717c-0.4715,0 -1.17882,0 -1.65032,0v0c-1.17882,0 -2.35765,0 -3.53632,0.1544c-0.23583,0.1543 -0.4715,0.1543 -0.4715,0.3087c0,0.1543 0,0.3087 0.23567,0.3087c0.4715,0.1543 0.70732,0.463 1.17882,0.6174c0.23567,0.1543 0.70732,0.463 0.943,0.6174c0.4715,0.3086 0.943,0.6173 0.943,1.3891z"/><path d="M158.62954,218.7087c-0.23567,-0.3087 -0.4715,-0.6174 -0.70732,-0.9261c0.23583,-0.463 0.23583,-0.7717 0.47165,-1.2348c0.4715,0.3087 0.70717,0.6174 0.943,1.0805c-0.23583,0.3087 -0.4715,0.6174 -0.70732,1.0804z"/><path d="M168.76714,221.6413c-0.70732,0 -1.4145,0.1544 -2.12182,0.3087c-1.17882,-0.6174 -2.59332,-0.9261 -4.24364,-1.0804c0.4715,-1.0805 0.23583,-2.1609 0,-3.087c0.4715,-0.463 0.943,-0.7717 1.17882,-1.2348c0.943,0.9261 0.943,2.1609 0.4715,3.2413c0,0.1544 0,0.1544 0,0.3087c0.23567,0 0.23567,0.1544 0.4715,0.1544c-0.23583,0 -0.23583,0 0,0c1.65032,0.1543 3.30064,0.6174 4.24364,1.3891z"/><path d="M144.24829,229.513l5.42246,1.2348v2.1609c-1.88599,0.3087 -3.77214,0.1543 -5.42246,-0.463z"/><path d="M167.11682,224.7283c-0.4715,-0.1544 -1.17882,-0.1544 -1.88599,-0.1544c-0.23583,-0.1543 -0.4715,-0.463 -0.94315,-0.6174c0.70732,0 1.17882,0 1.88615,0c0.4715,0.3087 0.943,0.4631 0.943,0.7718z"/><path d="M154.3859,231.8283c-1.17882,0.3087 -2.35749,0.6174 -3.53632,0.926v-1.6978z"/><path d="M155.32895,231.36522l-4.4794,-1.08043v-3.70435l2.12182,0.46304l3.3006,0.77174v1.85218v1.23478l-0.70727,0.3087z"/><path d="M157.21504,228.1239l2.35749,0.4631c-0.70717,0.7717 -1.4145,1.3891 -2.35749,1.8521v-0.7717z"/><path d="M140.71198,224.2652l3.06482,0.6174l-0.23567,3.7044l-4.24364,-0.9261c-0.23583,-1.2348 0.23567,-2.4696 1.4145,-3.3957z"/><path d="M143.54112,221.95v2.3152l-2.59347,-0.6174c0.70732,-0.6174 1.65032,-1.2348 2.59347,-1.6978z"/><path d="M172.77502,206.05218l-4.4794,2.31521l-1.88606,-3.55v0l2.59333,-1.38913l1.88606,-0.92609l1.17879,2.16087z"/><path d="M162.87318,206.5152l2.82914,-1.3891l1.88599,3.55v0.1543l-2.35749,1.0805c-1.65032,-0.9261 -2.35765,-2.1609 -2.35765,-3.3957z"/><path d="M169.94596,199.8783l0.943,1.8521l-4.71514,2.3153l-1.17882,-2.1609c1.17882,-0.9261 2.82914,-1.6978 4.95096,-2.0065z"/><path d="M164.28767,202.5022l0.94315,2.0065l-2.59332,1.2348c0,-0.6174 0.23567,-1.0805 0.4715,-1.6978c0.23567,-0.4631 0.70717,-1.0805 1.17867,-1.5435z"/><path d="M174.89677,210.0652l-3.77199,1.8522c-0.23583,0 -0.47165,0 -0.47165,0l-0.70717,-0.1544l-1.41465,-2.9326l4.71529,-2.1608z"/><path d="M167.58832,209.4478l1.17882,2.1609c-1.17882,-0.3087 -2.12182,-0.7717 -3.06482,-1.2348z"/><path d="M158.62954,207.4413c-0.4715,0.1544 -1.17882,0.3087 -1.65032,0.463c0,-0.3086 0.4715,-0.7717 0.70732,-1.0804c0.4715,-0.1543 1.17882,-0.3087 1.65032,-0.3087c-0.4715,0.3087 -0.4715,0.6174 -0.70732,0.9261z"/><path d="M155.80039,204.9717c-0.70717,0 -1.4145,0 -2.12182,0.1544c0.94315,-0.9261 2.12182,-1.6978 3.77214,-2.1609c0,0 0.23583,0 0.23583,-0.1543v-0.1544c0,-0.1543 0,-0.1543 0,-0.1543c-0.943,-0.7718 -1.4145,-2.0065 -1.17882,-3.087c0.4715,0.3087 1.17882,0.6174 1.65032,0.9261c0.23583,0.9261 0.4715,1.8522 1.4145,2.7783c-1.4145,0.463 -2.59332,1.0804 -3.77214,1.8521z"/><path d="M171.36046,201.4217l-0.70732,-1.5434c1.41465,0 2.59347,0 3.77214,0.1543l-0.943,0.4631z"/><path d="M176.31142,212.5348c-1.17882,0.1543 -2.59332,0 -3.77214,-0.1544l2.82914,-1.3891z"/><path d="M112.42102,253.74565l2.8291,-3.2413v-0.15435l3.3006,0.46304l2.35758,0.3087l-1.6503,1.85218l-1.17879,1.38913z"/><path d="M108.64885,253.1283c0,-1.2348 0.70732,-2.4696 2.12182,-3.3957l3.53647,0.4631l-2.82914,3.3956z"/><path d="M117.37196,247.8804c1.88599,0 3.77214,0.3087 5.42246,1.0805l-1.41465,1.6978l-5.65814,-0.7717z"/><path d="M116.42896,247.7261l-1.65032,1.8522l-3.06482,-0.3087c0.70717,-0.3087 1.4145,-0.6174 2.12182,-0.9261c0.70717,-0.1544 1.65017,-0.3087 2.59332,-0.6174z"/><path d="M124.20892,255.75217l-2.59333,3.39565l-5.89395,-0.77174l2.82909,-3.24131z"/><path d="M114.77864,258.2217l-4.71514,-0.6174c-0.23583,0 -0.23583,-0.1543 -0.23583,-0.1543l-0.23567,-0.463l2.35749,-2.7783l5.65814,0.7717z"/><path d="M111.0065,254.2087l-1.65032,2.0065c-0.4715,-0.7717 -0.70732,-1.5435 -0.70732,-2.3152z"/><path d="M109.35618,250.35c-1.17882,-0.3087 -2.59332,-0.7717 -4.00781,-0.9261c0.70717,-0.1543 1.17867,-0.3087 1.88599,-0.463c0.23583,0 0.70732,-0.1544 1.17882,-0.1544c0.70717,0 1.17882,-0.1543 1.65032,-0.1543c0.23567,0 0.4715,0 0.4715,-0.1544c0,-0.1543 0,-0.1543 -0.23583,-0.3087c-1.17882,-0.7717 -2.82899,-1.3891 -4.24364,-1.8521c0.4715,0 1.17882,-0.1544 1.88615,-0.1544c0.23567,0 0.70717,0 1.17867,0c1.41465,0 2.59347,0.1544 3.77214,0.6174c0.23583,0 0.23583,0 0.4715,0c0.23583,0 0.23583,-0.1543 0.23583,-0.1543v-0.1544c0.23583,-0.9261 0.943,-1.6978 1.65032,-2.3152c0.23567,-0.1544 0.4715,-0.4631 0.70732,-0.6174c0.4715,-0.463 0.943,-0.6174 1.4145,-0.9261c0,0.3087 -0.23583,0.7717 -0.23583,1.0804v0c-0.23567,0.7718 -0.23567,1.5435 -0.23567,2.3153c0,0.1543 0,0.3087 0.23567,0.3087c0.23583,0.1543 0.23583,0.1543 0.4715,0c0.47165,-0.1544 0.70732,-0.4631 1.17882,-0.6174c0.23583,-0.1544 0.4715,-0.3087 0.943,-0.4631c0.47165,-0.1543 0.94315,-0.463 1.65032,-0.6174c-0.70717,0.9261 -1.17867,1.8522 -1.4145,2.7783c-0.943,-0.1544 -1.88599,-0.1544 -2.82914,-0.1544c-1.4145,0 -2.59332,0.3087 -3.77214,0.6174c-1.17867,0.3087 -2.12182,0.7718 -3.06482,1.3892c-0.23567,0 -0.943,0.6174 -1.17882,0.9261c0,0.1543 -0.23567,0.1543 0.23583,0.1543z"/><path d="M106.76286,248.3435c-0.4715,-0.1544 -0.943,-0.3087 -1.65032,-0.4631c0.70732,-0.1543 1.17882,-0.1543 1.88599,-0.3087c0.47165,0.1544 0.94315,0.4631 1.41465,0.6174c-0.4715,0 -0.943,0.1544 -1.65032,0.1544z"/><path d="M111.94949,244.7935c0.23583,-1.0805 1.4145,-2.1609 2.59332,-2.7783c-0.23567,0.4631 0,0.9261 0,1.3891c-0.943,0.7718 -1.65032,1.6979 -2.12182,2.624c-1.4145,-0.4631 -3.06482,-0.4631 -4.47931,-0.4631c-0.4715,-0.3087 -1.17882,-0.6174 -1.65032,-0.9261c1.65032,-0.3087 3.30064,-0.1543 4.95081,0.3087c0.23583,0 0.47165,0 0.70732,-0.1543c-0.23567,0.1543 -0.23567,0.1543 0,0z"/><path d="M125.15191,255.9065l3.30064,0.4631c0,1.2347 -0.4715,2.4695 -1.65032,3.3956l-4.24364,-0.463z"/><path d="M118.78645,244.7935c-0.4715,0.3087 -0.70717,0.463 -1.17882,0.6174c0,-0.4631 0.23583,-0.7718 0.23583,-1.2348c0.4715,-0.1544 0.943,-0.4631 1.4145,-0.6174c-0.23567,0.463 -0.4715,0.9261 -0.4715,1.2348z"/><path d="M125.85924,255.2891l1.65032,-2.0065c0.4715,0.7717 0.70717,1.5435 0.943,2.3152z"/><path d="M124.68043,251.58478l1.88606,0.15435l0.23576,0.46305l0.23576,0.3087l-2.35758,2.77826l-5.42242,-0.77174l0.94303,-1.23478l1.65031,-2.00653z"/><path d="M122.32292,250.6587l1.17867,-1.3891c0.94315,0.463 1.65032,1.0804 2.35765,1.8521l-1.17882,-0.1543z"/><path d="M162.40168,254.2087l1.88606,1.08043l-3.06486,1.08043l-1.88606,0.92609l-4.4794,-2.46956l4.95092,-2.00652z"/><path d="M156.50772,250.813l2.59332,1.5435l-4.71514,2.0065h-0.23567l-2.35765,-1.2347c1.17882,-1.0805 2.82914,-1.8522 4.71514,-2.3153z"/><path d="M165.23082,254.9804l-4.47947,-2.4695l3.06482,-1.2348c1.65032,0.463 3.06497,1.3891 3.77214,2.6239z"/><path d="M160.04403,250.6587c0.94315,0 1.88615,0.1543 2.59347,0.3087l-2.82914,1.0804l-2.35765,-1.3891c0.94315,0 1.88615,-0.1544 2.59332,0z"/><path d="M158.62954,257.6043l-4.95096,2.0066l-3.53632,-2.0066c0,-0.1543 0,-0.3086 0,-0.3086v-0.4631l4.00797,-1.6978z"/><path d="M153.20707,254.8261l-3.06482,1.2348c0.23583,-0.7718 0.70732,-1.5435 1.17882,-2.3152z"/><path d="M167.58832,249.7326c0.70732,0 1.41465,0 2.12182,0c-1.17882,0.4631 -2.35749,1.0804 -3.30064,1.8522c-0.70717,-0.3087 -1.4145,-0.6174 -2.35749,-0.9261c-1.17882,-0.3087 -2.59332,-0.6174 -3.77214,-0.6174c-1.17882,-0.1543 -2.59332,0 -3.77214,0.1544c0,0 -1.17882,0.3086 -1.65032,0.463c-0.23567,0.1543 -0.4715,0.1543 -0.70717,0.3087c-0.94315,-0.7717 -1.88615,-1.5435 -2.82914,-2.1609c0.4715,0 1.17882,0 1.88599,0.1544c0.23583,0.1543 0.70732,0.1543 1.17882,0.3087c0.4715,0 0.943,0.1543 1.4145,0.3087c0.23583,0.1543 0.23583,0.1543 0.47165,0c0.23567,0 0.23567,-0.1544 0.23567,-0.3087c-0.70732,-1.0805 -1.4145,-2.0066 -2.35749,-2.9326c0.70717,0.1543 1.17867,0.3087 1.88599,0.463c0.4715,0 0.70732,0.1543 1.17882,0.3087c1.17882,0.3087 2.12182,0.9261 2.82899,1.6978c0.23583,0.1544 0.23583,0.1544 0.47165,0.1544h0.23567c0.23583,-0.1544 0.23583,-0.1544 0.23583,-0.1544c0.70717,-0.6174 1.88599,-1.0804 3.06482,-1.3891c0.4715,-0.1544 0.70732,-0.1544 1.17882,-0.3087c0.70717,-0.1544 1.4145,-0.3087 1.88599,-0.3087c-0.23567,0.1543 -0.70732,0.463 -0.943,0.7717v0c-0.70732,0.6174 -1.4145,1.2348 -1.88615,1.8522c-0.23567,0.1544 0,0.1544 0,0.3087c0,0.1544 0.23583,0.1544 0.47165,0.1544c0.4715,0 0.943,-0.1544 1.4145,-0.1544c0.4715,0 0.943,0 1.4145,0z"/><path d="M154.15022,248.3435c-0.47165,-0.4631 -0.70732,-0.7718 -1.17882,-1.0805c0.70717,0.1544 1.17882,0.1544 1.88599,0.3087c0.23583,0.4631 0.4715,0.7718 0.70732,1.0805c-0.4715,-0.1544 -0.943,-0.1544 -1.4145,-0.3087z"/><path d="M156.27204,244.7935c1.65017,0.3087 3.06482,0.9261 4.00781,1.8522c0.23583,0.1543 0.23583,0.1543 0.4715,0.1543h0.23583c0.23567,0 0.23567,0 0.23567,0c1.17882,-0.9261 2.82914,-1.3891 4.47947,-1.5435c-0.23583,0.3087 -0.70732,0.7718 -0.943,1.2348c-1.41465,0.3087 -2.82914,0.7717 -4.00797,1.5435c-0.70732,-0.7718 -2.12182,-1.3891 -3.53632,-1.8522c-0.23583,-0.463 -0.4715,-0.7717 -0.943,-1.3891z"/><path d="M166.40949,248.1891c0.70732,0 1.17882,0 1.88615,0c-0.4715,0.3087 -0.943,0.6174 -1.4145,0.9261c-0.47165,0.1544 -0.94315,0.1544 -1.41465,0.1544c0.4715,-0.4631 0.70732,-0.7718 0.943,-1.0805z"/><path d="M168.05981,254.5174c0.4715,0.7717 0.70732,1.5435 0.70732,2.3152l-0.943,-0.463l-1.88615,-1.0805z"/><path d="M185.03437,239.0826c-2.12182,0 -3.77214,-0.6174 -5.18664,-1.5435l1.88615,-1.5434l5.42231,1.2347z"/><path d="M178.66891,226.2717l4.24364,0.9261l-3.53632,3.087l-3.06482,-0.7718c0,-1.2347 0.943,-2.3152 2.35749,-3.2413z"/><path d="M184.56288,241.5522c0,0.3087 -0.23567,0.7717 -0.4715,1.0804c-0.4715,0.1544 -1.17882,0.3087 -1.65032,0.4631c0.23583,-0.4631 0.4715,-0.7718 0.70732,-1.2348c0.4715,-0.1544 0.943,-0.1544 1.4145,-0.3087z"/><path d="M178.43324,230.9022l-2.12182,1.8521c-0.23583,-0.7717 -0.23583,-1.6978 -0.23583,-2.4695z"/><path d="M178.90472,234.76087l-1.88606,-0.46305l-0.23576,-0.46304v-0.3087l2.82909,-2.46956l5.42243,1.23478l-1.41455,1.08043l-2.12182,1.85218z"/><path d="M180.79073,235.8413l-1.4145,1.2348c-0.70732,-0.7718 -1.4145,-1.3891 -1.88599,-2.1609l1.17867,0.3087z"/><path d="M83.89434,204.0457l-0.23583,-1.0805c0.47165,-0.7717 0.70732,-1.5435 0.94315,-2.1609c1.17867,-0.463 2.59332,-0.463 4.00781,-0.463l0.4715,2.0065z"/><path d="M83.89434,208.8304l-3.06482,0.9261c0.70717,-1.6978 1.4145,-3.2413 1.88599,-4.6304l0.23583,-0.1544z"/><path d="M71.87074,251.7391l2.35749,3.3957l-3.53632,0.1543c-0.943,-0.1543 -1.88615,-0.463 -2.82914,-0.6174l-0.4715,-0.7717c0,-0.463 0.23583,-1.0804 0.4715,-2.0065l1.65032,-0.1544z"/><path d="M69.04159,251.2761h-1.17882c0.23583,-1.0804 0.4715,-2.3152 0.943,-3.7044h0.23583l2.35765,3.3957z"/><path d="M115.25014,258.8391l5.65814,0.7718l-0.23567,0.3087c-1.88615,0 -4.00797,0 -6.12979,0z"/><path d="M111.0065,258.3761l3.53632,0.463l-0.943,1.0805c-0.4715,0 -0.70732,0 -1.17882,0c-0.4715,-0.4631 -1.17882,-0.9261 -1.4145,-1.5435z"/><path d="M159.10103,258.0674l2.59332,1.3891c-2.12182,0.1544 -4.47931,0.1544 -6.83696,0.3087z"/><path d="M149.90658,258.5304l2.59332,1.3892c-0.70732,0 -1.65032,0 -2.35765,0c-0.23567,-0.4631 -0.23567,-1.0805 -0.23567,-1.3892z"/><path d="M166.88114,257.1413l1.4145,0.7717v0.4631v0.3087l-1.17882,0.463c-0.70732,0 -1.4145,0.1544 -2.12182,0.1544c-0.70732,0.1543 -1.4145,0.1543 -2.12182,0.1543l-2.82914,-1.6978l1.88615,-0.7717l3.06482,-1.2348z"/><path d="M184.3272,227.0435l1.65032,-1.2348c0,0.463 0.23567,1.0804 0.4715,1.6978z"/><path d="M179.61206,225.8087c0.943,-0.3087 1.88599,-0.7717 3.06482,-0.9261c0.943,-0.3087 1.88599,-0.3087 2.82899,-0.3087c0,0.1544 0,0.1544 0,0.3087l-2.12182,1.8522z"/><path d="M186.6847,231.9826l0.943,-0.7717c0,0.3087 0.23583,0.7717 0.23583,1.0804z"/><path d="M183.8557,227.5065l2.82899,0.6174c0.23583,0.7718 0.4715,1.5435 0.70732,2.3152l-1.65032,1.3892l-5.42246,-1.2348z"/><path d="M189.04234,237.0761l0.23567,-0.3087c0,0 0,0.1543 0,0.3087z"/><path d="M185.97752,232.6l2.12182,0.463c0.4715,0.9261 0.70717,2.0066 0.943,2.9327l-0.943,0.7717l-3.30064,-0.7717l-2.35765,-0.4631l2.12182,-1.8522z"/><path d="M186.92052,242.9413c-0.23583,0.1544 -0.70732,0.3087 -0.943,0.463c-0.70732,0.3087 -1.17882,0.6174 -1.65032,0.7718c0.23567,-0.4631 0.23567,-0.7718 0.4715,-1.0804v0c0.23567,-0.6174 0.4715,-1.3892 0.70717,-2.1609c0,-0.1544 0,-0.3087 -0.23567,-0.3087c0,0 -0.23583,0 -0.4715,0c-0.23583,0.1543 -0.70732,0.3087 -1.17882,0.463c-0.4715,0.1544 -0.70732,0.3087 -1.17882,0.4631c-0.70717,0.1543 -1.17882,0.3087 -1.88599,0.463c0.943,-0.7717 1.65032,-1.6978 2.12182,-2.6239c0.70717,0.3087 1.65032,0.463 2.59332,0.463c1.17882,0 2.59332,0 3.77214,-0.3086c0.23567,0 0.4715,-0.1544 0.70717,-0.1544c0.23583,0.463 0.23583,1.0804 0.47165,1.5435c-0.23583,-0.1544 -0.47165,-0.1544 -0.70732,-0.3087c-0.23583,0 -0.23583,0 -0.4715,0c0,0 0,0 -0.23583,0.1543c0.23583,-0.1543 0.23583,0 0,0c-0.23567,0.7718 -1.17882,1.5435 -1.88599,2.1609z"/><path d="M188.33502,237.5391l1.17882,0.3087c0,0.3087 0.23567,0.6174 0.23567,0.9261c-0.4715,0 -0.70717,0.1544 -0.943,0.1544c-0.943,0.1543 -1.65032,0.3087 -2.59332,0.3087z"/><path d="M190.69266,242.4783c0,-0.1544 -0.23583,-0.1544 -0.23583,-0.1544c-0.23567,0 -0.23567,0 -0.4715,0c0,0.1544 -0.23583,0.1544 -0.23583,0.1544c0,0.1543 0,0.1543 0,0.1543c-0.4715,1.0804 -1.88599,2.0065 -3.30049,2.4696c0.23567,-0.4631 0.23567,-0.9261 0.23567,-1.3892c1.17882,-0.6173 2.12182,-1.3891 2.82914,-2.3152c0.23567,0.1544 0.70732,0.1544 0.943,0.3087c0.23583,0.3087 0.23583,0.6174 0.23583,0.7718z"/><path d="M176.0756,210.5283l3.77214,-1.8522c0.4715,0.9261 0.70732,2.0065 1.17882,2.9326c-1.17882,0.463 -2.35765,0.7717 -3.77214,0.9261z"/><path d="M173.95378,206.2065l4.24364,-2.0065c0.4715,1.2348 0.943,2.4696 1.41465,3.8587l-3.77214,1.8522z"/><path d="M174.1896,201.113l1.4145,-0.7717l0.70732,0.1544h0.23567c0.4715,0.926 0.94315,2.0065 1.41465,3.2413l-4.24364,2.0065l-0.70732,-1.3892l-1.17882,-2.3152z"/><path d="M162.16585,200.3413c-0.4715,-0.3087 -0.70717,-0.6174 -1.17867,-0.9261c0,-0.3087 0.23567,-0.6174 0.23567,-0.9261h0.23583c0.23567,0.3087 0.70717,0.6174 0.943,0.9261c0,0.3087 0,0.6174 -0.23583,0.9261z"/><path d="M159.10103,200.187c0,-0.3087 0,-0.7718 0,-1.0805h0.23583c0.23567,0.1544 0.4715,0.4631 0.70717,0.6174v0c0.70732,0.6174 1.41465,1.2348 2.35765,1.6978c0,0 0.23583,0 0.4715,0c0.23583,0 0.23583,-0.1543 0.23583,-0.3087c0,-0.3087 0,-0.6173 0,-0.926c0.23567,-0.3087 0.23567,-0.6174 0.23567,-0.9261c0.23583,-0.4631 0.23583,-0.9261 0.23583,-1.3892c0.4715,0.9261 1.17882,1.8522 2.12182,2.624c-0.70732,0.3086 -1.41465,0.7717 -1.88615,1.2347c-0.70717,0.7718 -1.17867,1.5435 -1.65032,2.3153c-0.4715,0.7717 -0.4715,1.6978 -0.4715,2.4695c0,0 0.23583,0.7718 0.23583,1.0805c0,0.1543 0.23567,0.3086 0.23567,0.463c-1.4145,0.3087 -2.59332,0.7717 -3.77199,1.2348c0.23567,-0.4631 0.4715,-0.7718 0.70717,-1.2348c0.23583,-0.3087 0.4715,-0.463 0.70732,-0.7717c0.4715,-0.3087 0.70732,-0.6174 0.943,-0.9261c0,0 0,-0.1544 0,-0.3087c0,-0.1544 -0.23567,-0.1544 -0.4715,-0.1544c-1.65032,0.1544 -3.30064,0.3087 -4.95096,0.7718c0.4715,-0.3087 0.70732,-0.7718 1.17882,-1.0805c0.23583,-0.1543 0.4715,-0.463 0.70732,-0.6174c0.943,-0.6174 2.12182,-1.2347 3.30064,-1.3891c0,0 0.23567,0 0.23567,-0.1543v-0.1544v-0.1543c-0.70732,-0.6174 -1.17882,-1.5435 -1.4145,-2.3153c-0.23583,-0.3086 -0.23583,-0.463 -0.23583,-0.6173z"/></g><g stroke="#a80054" stroke-linecap="round" stroke-linejoin="round"><path d="M198.51976,254.5174c-9.70364,2.3152 -19.90505,3.8587 -30.35518,4.6304c-9.95268,0.6174 -19.90521,0.7718 -29.85773,0.4631c-1.49283,-11.8848 -6.46925,-40.1305 -6.46925,-40.1305c0,0 -1.24395,28.4 -2.73694,40.2848c-11.19663,0.3087 -22.39326,0 -33.58988,-0.7717c-10.20125,-0.7718 -20.40266,-2.3152 -30.35518,-4.6305c0,0 4.72738,-17.2869 9.45491,-31.1782c3.73216,-11.2674 9.45491,-24.0783 10.20125,-25.6218c0.7465,0.3087 1.74172,0.4631 2.7371,0.4631c2.23933,0 4.97626,-0.9261 7.7132,-0.7718c2.23933,0 4.97626,1.5435 7.21559,1.5435c2.23933,0 4.97626,-0.9261 7.46447,-0.9261c2.48805,0 4.97626,1.3892 7.46431,1.3892c2.48821,0 4.97626,-1.0805 7.46447,-1.0805c2.48805,0 4.97626,1.2348 7.46447,1.2348c2.48805,0 4.97626,-1.2348 7.46431,-1.2348c2.48821,0 4.97626,1.0805 7.46447,1.0805c2.48805,0 4.72738,-1.3892 7.21559,-1.3892c2.48821,0 4.72754,0.9261 7.46447,0.9261c2.73694,0 4.97626,-1.3891 7.21559,-1.5435c2.73694,-0.1543 5.47387,0.9261 7.46431,0.7718c0.99538,0 1.9906,-0.1544 2.7371,-0.4631c0.74634,1.5435 6.46909,14.3544 10.20125,25.6218c4.72754,13.8913 9.45491,31.3326 8.9573,31.3326z" fill="none" fill-rule="evenodd" stroke-width="1.24"/><path d="M87.54886,197.8717c-0.99538,0 -1.74172,-0.1543 -2.7371,-0.3087v-0.1543l3.48343,-6.1739c0,0 22.39326,1.3891 43.79129,1.3891c21.39804,0 44.78651,-1.3891 44.78651,-1.3891l2.48821,6.1739v0.1543c-0.7465,0.3087 -1.74172,0.4631 -2.7371,0.4631c-1.99044,0.1543 -4.72738,-0.9261 -7.46431,-0.7718c-2.23933,0 -4.97626,1.5435 -7.21559,1.5435c-2.23933,0 -5.22515,-0.9261 -7.46447,-0.9261c-2.23933,0 -4.72754,1.3892 -7.21559,1.3892c-2.48821,0 -4.97626,-1.0805 -7.46447,-1.0805c-2.48805,0 -4.97626,1.2348 -7.46431,1.2348c-2.48821,0 -4.97642,-1.2348 -7.46447,-1.2348c-2.48821,0 -4.72754,1.0805 -7.46447,1.0805c-2.73694,0 -4.97626,-1.3892 -7.46431,-1.3892c-2.48821,0 -4.72754,0.9261 -7.46447,0.9261c-2.73694,0 -4.97626,-1.3891 -7.21559,-1.5435c-2.73694,-0.1543 -5.47387,0.7718 -7.7132,0.6174z" fill="#ffff4f" fill-rule="nonzero" stroke-width="1.24"/><path d="M132.33537,199.5696v-6.7913" fill="none" fill-rule="evenodd" stroke-width="0.8215"/><path d="M140.04857,198.1804v-5.4021" fill="none" fill-rule="evenodd" stroke-width="0.8215"/><path d="M147.76176,192.6239l0.49761,6.4826" fill="none" fill-rule="evenodd" stroke-width="0.8215"/><path d="M155.47496,192.4696l0.49761,5.5565" fill="none" fill-rule="evenodd" stroke-width="0.8215"/><path d="M163.93465,198.3348l-0.99522,-6.1739" fill="none" fill-rule="evenodd" stroke-width="0.8215"/><path d="M170.40391,191.8522l1.24395,5.4021" fill="none" fill-rule="evenodd" stroke-width="0.8215"/><path d="M124.1244,192.7783v5.4021" fill="none" fill-rule="evenodd" stroke-width="0.8215"/><path d="M115.91359,198.9522l0.49761,-6.3283" fill="none" fill-rule="evenodd" stroke-width="0.8215"/><path d="M108.2004,197.8717l0.49761,-5.4021" fill="none" fill-rule="evenodd" stroke-width="0.8215"/><path d="M101.23354,192.1609l-0.99522,6.0195" fill="none" fill-rule="evenodd" stroke-width="0.8215"/><path d="M92.52512,197.2543l1.24395,-5.4021" fill="none" fill-rule="evenodd" stroke-width="0.8215"/></g><path d="M126.20774,40.81294c0,7.07639 -7.33745,12.81294 -16.38865,12.81294c-9.0512,0 -16.38865,-5.73655 -16.38865,-12.81294c0,-7.07639 7.33745,-12.81294 16.38865,-12.81294c9.0512,0 16.38865,5.73655 16.38865,12.81294z" fill="#efff00" fill-rule="nonzero" stroke="#000000" stroke-width="0.5" stroke-linecap="butt" stroke-linejoin="miter"/><path d="M171.5,42.00485c0,7.07639 -7.33745,12.81294 -16.38864,12.81294c-9.0512,0 -16.38864,-5.73655 -16.38864,-12.81294c0,-7.07639 7.33745,-12.81294 16.38864,-12.81294c9.0512,0 16.38864,5.73655 16.38864,12.81295z" fill="#efff00" fill-rule="nonzero" stroke="#000000" stroke-width="0.5" stroke-linecap="butt" stroke-linejoin="miter"/><path d="M158.98504,69.71656c0,7.89923 -11.60651,14.30282 -25.92386,14.30282c-14.31735,0 -25.92385,-6.40359 -25.92385,-14.30282c0,-7.89923 11.6065,-14.30282 25.92385,-14.30282c14.31735,0 25.92386,6.40359 25.92386,14.30282z" fill="#860000" fill-rule="nonzero" stroke="#000000" stroke-width="0.5" stroke-linecap="butt" stroke-linejoin="miter"/><path d="M104.75352,42.00485c0,2.13938 -1.86771,3.87368 -4.17165,3.87368c-2.30394,0 -4.17166,-1.7343 -4.17166,-3.87368c0,-2.13938 1.86772,-3.87368 4.17166,-3.87368c2.30394,0 4.17165,1.73431 4.17165,3.87368z" fill="#000000" fill-rule="nonzero" stroke="#000000" stroke-width="0.5" stroke-linecap="butt" stroke-linejoin="miter"/><path d="M166.7324,47.3684c0,2.13938 -1.86771,3.87368 -4.17165,3.87368c-2.30394,0 -4.17166,-1.73431 -4.17166,-3.87368c0,-2.13938 1.86771,-3.87368 4.17166,-3.87368c2.30394,0 4.17165,1.7343 4.17165,3.87368z" fill="#000000" fill-rule="nonzero" stroke="#000000" stroke-width="0.5" stroke-linecap="butt" stroke-linejoin="miter"/><path d="M125.31643,68.54396l-0.20267,-12.45914l9.13671,-0.14862l0.20267,12.45914z" fill="#c1bb00" fill-rule="nonzero" stroke="#000000" stroke-width="0.5" stroke-linecap="butt" stroke-linejoin="miter"/><path d="M137.05259,84.04794l-2.09223,-12.28388l9.00818,-1.53431l2.09223,12.28389z" fill="#c1bb00" fill-rule="nonzero" stroke="#000000" stroke-width="0.5" stroke-linecap="butt" stroke-linejoin="miter"/><path d="M131.82108,158.03114c-31.14636,-16.93948 -53.85295,-35.87942 -50.71656,-42.30354c3.13639,-6.42412 30.92805,2.10026 62.07441,19.03974c31.14636,16.93948 53.85295,35.87942 50.71656,42.30354c-3.13638,6.42411 -30.92805,-2.10026 -62.07441,-19.03974z" fill="#86a840" fill-rule="nonzero" stroke="#000000" stroke-width="0.5" stroke-linecap="butt" stroke-linejoin="miter"/><path d="M86.56999,102.31234c6.62141,1.99943 27.61316,17.44987 27.61316,17.44987c-5.38055,9.6327 -11.31305,18.916 -17.7277,27.74065c0,0 -11.75827,-12.65866 -17.75219,-19.64241c-4.50122,-5.72738 -9.17442,-13.09759 -6.86237,-24.96227c5.20677,-1.70954 10.25488,-1.91033 14.72911,-0.58585z" fill="#ffffff" fill-rule="nonzero" stroke="#db20a5" stroke-width="1.2" stroke-linecap="round" stroke-linejoin="round"/></g></g></svg>