<svg version="1.1" xmlns="http://www.w3.org/2000/svg" xmlns:xlink="http://www.w3.org/1999/xlink" width="318.83645" height="290.7094" viewBox="0,0,318.83645,290.7094"><g transform="translate(2.32745,-31.23947)"><g data-paper-data="{&quot;isPaintingLayer&quot;:true}" fill-rule="nonzero" stroke="none" stroke-width="0.5" stroke-linecap="butt" stroke-linejoin="miter" stroke-miterlimit="10" stroke-dasharray="" stroke-dashoffset="0" style="mix-blend-mode: normal"><path d="M33.75,160c0,-8.75 8.75,-8.75 8.75,-8.75h1c0.9336,0 1.87228,-0.09391 2.80183,-0.01871c0.2563,-0.40195 0.57324,-0.79181 0.68225,-1.24163c0.00902,-0.0372 0.01434,-0.07517 0.01659,-0.11376c-1.905,-0.42715 -3.6074,-1.80146 -5.51099,-2.35997c-1.91726,-0.56252 -3.99158,0.23407 -5.98966,0.23407c-1,0 -2.00582,0.10774 -3,0c-0.1979,-0.02145 -0.28698,-0.46573 -0.46439,-0.37544c-0.76503,0.38933 -1.20954,1.28291 -1.99577,1.62744c-1.25881,0.55163 -2.7042,0.54196 -4,1c-1.34567,0.47567 -1.99286,2.06622 -3.15499,2.8948c-1.87284,1.3353 -3.92201,2.40418 -5.88302,3.60627c0,0 -0.6026,0.36156 -1.56871,0.70897c0.14019,1.28487 0.33638,2.56908 0.6001,3.8524c1.13063,5.50175 2.75131,5.50714 5.45469,11.36408c0.85954,1.8622 1.02046,4.00385 1.928,5.84313c2.63167,5.33355 10.81598,15.22979 13.30057,18.78015c1.74016,2.48661 2.99748,5.29633 4.80855,7.73177c6.68394,8.98821 15.87967,16.47473 25.9071,21.39974c3.46809,1.70337 7.51414,3.39921 11.75593,5.0508c1.66917,-0.08735 3.36327,-0.27654 4.84753,0.39134c2.05551,0.92493 4.13898,2.08594 5.85323,3.59155c4.65861,1.68121 9.17655,3.275 13.06925,4.73479c2.6601,0.99756 5.32725,2.03041 8.00331,3.06448c0.35246,-6.97528 1.09459,-13.87717 1.83289,-20.89553c0.43317,-4.11776 0.14155,-8.36846 1.24675,-12.35871c3.60359,-13.01049 12.75395,-25.29753 23.0741,-33.65881c3.21769,-2.60694 7.15279,-4.1821 10.6221,-6.44341c6.62303,-4.31693 12.94838,-9.21549 20.09182,-12.60251c2.63053,-1.24725 5.48485,-1.9612 8.17341,-3.07787c2.57614,-1.06998 7.11757,-4.01212 9.48719,-4.49534c2.70799,-0.55222 5.53468,0.02785 8.28863,-0.20426c6.175,-0.52043 10.30288,-3.09825 17.07018,-0.36376c3.06983,1.24044 4.84385,4.51522 7.26577,6.77283c2.21294,7.4006 3.15329,13.56317 3.13575,21.31111c-0.01122,4.95628 0.55128,9.89147 -1.748,14.53984c-3.35291,6.77847 -10.38659,9.96725 -17.60041,11.09717c-1.11751,0.17504 -2.29498,-0.39977 -3.39126,-0.12109c-1.44476,0.36727 -2.56404,1.5997 -4,2c-1.15938,0.3232 -2.4111,0.00157 -3.60874,0.12109c-2.14663,0.21422 -4.36176,1.55027 -6.41193,0.87891c-2.83165,-0.92726 -4.78456,-3.5525 -7.17685,-5.32874l-2.63905,-4.27407c0,0 -3.91312,-7.82624 3.91312,-11.73936c6.51754,-3.25877 10.32123,1.62398 11.4111,3.34808c0.16816,0.01553 0.33309,0.00885 0.49169,-0.03777c1.43019,-0.42045 2.55258,-1.64337 4,-2c2.0366,-0.50179 4.26922,-0.07628 6.24335,-0.78505c0.71141,-0.25542 2.0859,-0.91849 2.87993,-1.05708c0.09236,-0.23488 0.19456,-0.47243 0.20262,-0.71104c0.06675,-1.97596 -0.05977,-3.95382 -0.06556,-5.9309c-0.01175,-4.01491 -0.5932,-7.58296 -0.80891,-11.44449c-0.56395,0.07871 -1.17277,0.06451 -1.71938,0.16467c-1.99438,0.36544 -3.97708,0.86255 -6,1c-1.90062,0.12914 -3.82519,-0.47143 -5.71137,-0.20426c-2.44093,0.34575 -4.23817,2.554 -6.51281,3.50466c-2.56939,1.07385 -5.30294,1.74479 -7.82659,2.92213c-8.51278,3.97138 -9.49627,5.94612 -17.90818,11.39749c-3.04919,1.97604 -6.52321,3.3087 -9.3779,5.55659c-3.16435,2.49173 -5.96197,5.45382 -8.53729,8.55053c-2.28801,2.75122 -7.63808,12.97971 -8.38861,15.79066c-0.83156,3.11445 -0.45134,6.4319 -0.75325,9.64129c-0.8049,8.55631 -1.82283,16.88651 -1.9438,25.45182c2.52272,0.8187 5.05649,1.5759 7.60277,2.24449c7.61629,1.99986 15.59783,2.57863 23.08306,5.02376c5.73743,1.87419 11.33212,4.16 16.99818,6.24c11.25804,4.20543 25.94744,7.6666 38.13356,8.42987c10.12034,0.63388 20.28122,-0.15295 30.42051,-0.01921c4.48948,0.05922 9.12265,1.51924 13.46439,0.37544c3.48127,-0.91711 6.14295,-3.82838 8.81224,-6.24402c8.83975,-7.99974 17.34695,-18.8549 20.2553,-30.58464c1.1441,-4.61431 0.79482,-9.52628 2.03123,-14.11672c1.14337,-4.245 3.83354,-7.95879 5.05239,-12.18273c1.3897,-4.81602 2.00643,-9.82764 2.73012,-14.78763c3.13008,-21.45275 1.84556,-43.36088 1.93416,-64.988c-0.85084,-5.25794 -2.53637,-8.86154 -5.0192,-13.63949c-1.30673,-2.51467 -2.23627,-5.28385 -4.00022,-7.50187c-1.47005,-1.84846 -3.8361,-2.78836 -5.50913,-4.45533c-1.60535,-1.59953 -2.775,-3.58732 -4.27113,-5.28945c-2.09679,-2.3855 -4.82574,-4.13072 -7.21315,-6.22534c-1.305,-1.14495 -2.29795,-2.62673 -3.65184,-3.71342c-0.0213,-0.0171 -0.04286,-0.03421 -0.06467,-0.05133c0.12878,0.65167 0.19953,1.36772 0.19953,2.15453c0,8.75 -8.75,8.75 -8.75,8.75c-1.00133,-0.47855 -2.12522,0.75723 -3.00478,1.43403c-4.85305,3.73427 -6.38731,6.16493 -8.91128,12.16445c-4.83556,11.49426 -2.20309,25.3769 -2.33395,37.65152c-0.00177,0.16636 -0.00724,0.33291 -0.01529,0.4996c1.80865,-2.84371 3.75186,-5.61857 5.11814,-8.69122c1.91003,-4.2955 1.4358,-8.33668 1.39715,-12.80838c0,-1.65712 0,-3.31425 0,-4.97137c-1.30118,-2.34305 -2.37356,-6.27943 1.56282,-10.21581c6.18718,-6.18718 12.37437,0 12.37437,0l3.56282,7.18718c0,2.66667 0,5.33333 0,8c-0.04842,7.37248 0.49263,11.77574 -2.60285,19.19162c-2.00871,4.8123 -4.94509,9.19714 -7.80023,13.56078c-5.02624,7.68181 -9.8493,15.49865 -21.6954,12.33155c-3.55212,-0.94968 -4.94679,-5.52298 -6.73547,-8.73547c-3.69626,-6.63854 -2.66605,-14.14125 -2.66605,-21.34848c0,-6.33333 -0.03688,-12.66677 0,-19c0.01631,-2.80074 -0.40842,-5.64977 0.11298,-8.40159c2.72925,-14.40426 11.75931,-29.92145 26.30135,-35.03091c0.10303,-0.0362 0.2068,-0.06876 0.31124,-0.09801c-1.78819,-0.796 -3.5881,-1.55876 -5.46885,-2.08223c-4.65541,-1.29574 -9.48284,-1.86628 -14.22273,-2.80717c-9.99543,-1.98414 -19.99351,-3.99666 -29.96603,-5.99328c-2.62214,-0.52498 -5.13917,-1.53557 -7.77949,-1.95973c-7.70632,-1.23801 -13.68458,-0.87893 -21.53846,-0.87707c-9.9143,0.00234 -19.82789,-0.42463 -29.72694,-0.97441c-7.63608,-0.01732 -15.52811,0.21117 -23.34979,-0.11284c-0.34723,3.84272 -3.67327,6.33725 -3.67327,6.33725c-3.82894,2.42928 -5.37341,7.05272 -7.53535,11.12876c-1.85931,3.50547 -8.28089,16.30094 -9.22115,19.9743c-0.85919,3.35667 -0.33119,6.93519 -0.86643,10.35848c-0.02289,0.14639 -0.04807,0.29232 -0.07528,0.43782l2.59457,-6.1798c1.77267,-1.03137 3.36452,-2.46965 5.31802,-3.09412c1.76162,-0.56314 3.6876,-0.30268 5.53561,-0.37544c6.65577,-0.26206 12.03289,-0.3937 16.95368,5.43881c4.59621,5.44779 3.37202,17.50427 1.44737,23.75759c-0.54058,1.7564 -0.99053,3.59125 -1.95786,5.15376c-0.94646,1.5288 -2.45097,2.6315 -3.67645,3.94726c-6.50515,9.35375 -19.60407,15.59652 -30.61107,10.31286c-3.5017,-1.68091 -5.74401,-3.90689 -8.34286,-6.67307c-1.58068,-1.68246 -3.64286,-3.07945 -4.59303,-5.18335c-2.57239,-5.69583 -2.82493,-15.80104 -1.90422,-22.07294c0.41834,-2.84977 1.60431,-5.54798 2.05737,-8.39243c0.61327,-3.85033 0.13511,-7.87268 1.13357,-11.64152c1.24861,-4.71306 3.54145,-9.08988 5.53721,-13.53835c3.79008,-8.44796 5.12706,-10.1496 9.24164,-17.48735c0.88916,-1.58568 1.47776,-3.3751 2.51536,-4.85545c-0.75277,-0.19187 -1.50192,-0.39651 -2.24709,-0.61474c-3.29628,-0.96531 -11.9054,-2.95269 -12.45041,-4.01619c-0.2228,-0.43476 -0.4257,-0.86125 -0.60943,-1.27967c-1.28705,0.68915 -2.52695,1.42648 -3.70447,2.21773c-4.32175,2.90406 -7.59341,7.22635 -12,10c-3.04323,1.9155 -6.83138,2.57202 -9.67309,4.77545c-4.28827,3.32508 -7.52725,7.8215 -11.4322,11.58935c-4.075,3.93194 -8.48534,7.51041 -12.50065,11.50327c-11.39022,11.32656 -11.53967,11.75099 -19.33511,25.70682c-1.24679,2.23207 -2.67556,4.44665 -3.29091,6.92818c-0.38282,1.5438 -0.02715,3.16569 0.12528,4.76608c0.88835,-0.59371 1.80657,-1.13754 2.77753,-1.59407c1.24375,-0.5848 2.73347,-0.46635 4,-1c1.42972,-0.60241 2.5134,-1.94311 4.00423,-2.37256c3.34934,-0.96479 8.97346,-0.45874 12.53561,-0.37544c2.00442,0.04687 4.05659,-0.21622 6.01034,0.23407c1.79647,0.41405 3.29573,1.67162 5.02544,2.30943c5.15297,1.90012 6.5047,0.26773 10.9179,5.8953c7.6394,9.7415 1.19065,25.49687 -9.41807,29.68575c-1.12222,0.44311 -6.61197,0.37544 -8.53561,0.37544h-1c0,0 -8.75,0 -8.75,-8.75zM117.75345,122.71588c-0.25726,-0.02957 -0.49686,-0.06595 -0.72157,-0.10111c-1.13221,2.10473 -3.31679,4.13523 -7.53187,4.13523c-6.67427,0 -8.25758,-5.09095 -8.63318,-7.50637c-0.27537,0.93186 -0.52673,1.86874 -0.68237,2.82548c-0.49291,3.02992 0.02414,6.13946 0.03574,9.20919c0.00342,0.90617 -0.28734,1.88092 0.06003,2.71787c0.20787,0.50084 0.99568,0.46324 1.40697,0.81665c0.8547,0.73443 1.52663,1.66212 2.36022,2.42044c0.54672,0.49735 1.19994,1.41824 1.89138,1.15715c4.88794,-1.8457 6.24773,-1.8779 8.79447,-5.93781c2.41185,-2.13075 2.62436,-2.31875 3.0823,-5.5217c0.19891,-1.39124 -0.01974,-2.80672 -0.06211,-4.21502zM12.64637,320.28044c-7.28044,-4.85363 -2.42681,-12.13407 -2.42681,-12.13407l2,-3c1.76799,-2.64696 4.763,-4.85632 4.53044,-8.14637c0,0 0,-3.75001 2.45496,-6.34011c-2.03263,-3.3935 -3.65796,-7.032 -4.91146,-10.62411c-2.13926,-6.13042 -1.90941,-13.0305 -1.53452,-19.43228c0.56677,-9.67829 1.14959,-21.55519 4.5797,-30.75872c1.09104,-2.92744 3.04279,-5.45733 4.56419,-8.18599c0,0 2.49517,-4.36655 7.01259,-4.58714c-0.48818,-0.61186 -0.96842,-1.2303 -1.44051,-1.85521c-1.96166,-2.59662 -3.3249,-5.60243 -5.19145,-8.26823c-5.53475,-7.90474 -10.44149,-12.795 -14.69943,-21.21985c-0.97674,-1.93259 -1.16463,-4.19076 -2.072,-6.15687c-2.23944,-4.85244 -5.3973,-9.4164 -6.54531,-14.63592c-2.15059,-9.77789 -1.18799,-19.55055 -0.2059,-29.37144c0.0606,-2.79671 -0.51402,-5.68068 0.18179,-8.39012c1.02725,-4.00006 2.95358,-7.73658 4.8957,-11.38129c2.96577,-5.56576 6.01155,-11.14125 9.79449,-16.18732c7.49009,-9.99101 16.51292,-17.01984 25.4344,-25.54439c4.51196,-4.31122 8.39001,-9.32876 13.31654,-13.15938c3.04547,-2.368 7.04862,-3.19105 10.32691,-5.22455c4.42472,-2.74462 7.65992,-7.12341 12,-10c8.95825,-5.93749 20.35298,-9.60557 30.7277,-12.18075c10.24097,-2.54198 20.61873,-2.24634 31.0616,-2.24634c0,0 8.75,0 8.75,8.75c0,8.75 -8.75,8.75 -8.75,8.75c-5.0632,0 -10.14462,-0.14993 -15.19202,0.11285c8.64587,0.61836 17.27742,0.39577 25.97284,0.42011c13.91739,0.77343 27.7277,0.33849 41.61568,0.97603c13.62883,0.62564 27.16258,4.30106 40.44547,7.18709c4.53496,0.98533 23.53068,4.56978 25.65132,5.16667c1.22546,0.34493 15.97298,6.30768 18.49017,7.59658c4.0079,2.05219 7.35726,5.21953 10.74956,8.18045c2.94639,2.57171 6.17418,4.86454 8.78685,7.77466c1.33785,1.49016 2.31527,3.29204 3.72887,4.71055c2.00862,2.0156 4.74274,3.2994 6.49087,5.54467c6.79685,8.72978 11.15841,20.10437 12.98058,30.85864c0.0784,22.93392 1.32881,46.27727 -2.06584,69.012c-0.86245,5.77603 -1.67922,11.59309 -3.26988,17.21237c-1.16313,4.10894 -3.83787,7.69358 -4.94761,11.81727c-1.21464,4.51348 -0.7543,9.36976 -1.96877,13.88328c-3.64283,13.53844 -6.89512,17.57209 -15.70943,28.35405c-3.15094,3.85434 -6.1957,7.8924 -10.03528,11.06131c-4.64067,3.83007 -9.42512,8.02473 -15.18776,9.75598c-5.91848,1.77807 -12.35619,0.30626 -18.53561,0.37544c-1.15006,0.01288 -31.41678,-0.00844 -31.57949,-0.01921c-14.06475,-0.93114 -29.87764,-4.67601 -43.02443,-9.47044c-5.28128,-1.95323 -10.49744,-4.09244 -15.84383,-5.85969c-7.42203,-2.45335 -15.3587,-2.98166 -22.91694,-4.97624c-11.64396,-3.07279 -23.04949,-7.85982 -34.32188,-12.08687c-1.44473,-0.54176 -2.97135,-1.10123 -4.55721,-1.67629c-0.00343,0.11449 -0.00554,0.22743 -0.00622,0.33875c-0.11411,18.70406 -11.37972,37.77578 -27.24816,47.50306c-2.38872,1.30981 -4.51873,3.28702 -7.16617,3.92944c-3.34964,0.81281 -6.8898,0.23546 -10.33567,0.31749c-1.16233,0.02767 -6.85153,-0.01495 -7.40159,-0.11298c-2.389,-0.42576 -4.61136,-1.16327 -6.67415,-2.15455c-0.27894,0.74397 -0.65789,1.57843 -1.17368,2.57847c-1.45477,2.82058 -3.71235,5.1503 -5.47013,7.79269l-2,3c0,0 -4.85363,7.28044 -12.13407,2.42681zM37.09713,230.34122c-1.14527,1.938 -2.6393,3.70852 -3.43581,5.81401c-1.16116,3.06938 -2.1251,11.57805 -2.46183,14.78366c-0.71509,6.80752 -1.46749,14.08956 -1.01504,20.99202c0.14499,2.21193 1.80212,4.10289 2.52205,6.03332c0.4176,1.11977 0.4031,2.36709 0.79551,3.49594c0.50614,1.45603 2.10528,2.25266 3.18518,3.35266c0.99403,1.01254 1.81834,2.20581 2.92903,3.08882c2.41562,1.92042 5.07723,1.24553 7.88379,1.34837c1.88981,0.06925 3.81225,0.69955 5.66433,0.31749c1.14577,-0.23636 1.88922,-1.38037 2.83383,-2.07056c7.54592,-4.38742 11.91674,-11.21692 15.51974,-19.08143c0.3179,-0.69391 3.21201,-8.0011 3.34509,-8.8171c0.56123,-3.44149 -0.40356,-6.98961 -0.0704,-10.46061c0.01231,-0.12822 0.0231,-0.25758 0.03295,-0.3878l-0.32553,0c0,0 -4.69102,0 -7.20353,-3.43476c-2.76543,-1.15475 -5.37917,-2.32445 -7.72862,-3.49854c-7.78021,-3.88802 -14.99284,-8.8714 -21.36709,-14.76472c-0.31794,1.91429 -1.10363,3.28925 -1.10363,3.28925z" fill="#ff00d7"/><path d="M117.86444,126.92039c-0.45794,3.20295 -0.6769,3.4279 -3.08875,5.55865c-2.54675,4.05991 -3.96394,4.11337 -8.85188,5.95908c-0.69144,0.26109 -1.35486,-0.6643 -1.90157,-1.16165c-0.83358,-0.75832 -1.51894,-1.69742 -2.37364,-2.43185c-0.41128,-0.35341 -1.20346,-0.32202 -1.41134,-0.82286c-0.34738,-0.83695 -0.0618,-1.82381 -0.06523,-2.72998c-0.0116,-3.06973 -0.52005,-6.22334 -0.02714,-9.25326c0.15564,-0.95674 0.41437,-1.90129 0.68974,-2.83315c0.3756,2.41542 2.00415,7.49638 8.67841,7.49638c4.21508,0 6.34697,-1.95176 7.47918,-4.05649c0.22471,0.03516 0.54502,0.01254 0.80228,0.04211c0.04237,1.4083 0.26884,2.84179 0.06993,4.23303z" data-paper-data="{&quot;noHover&quot;:false,&quot;origItem&quot;:[&quot;Path&quot;,{&quot;applyMatrix&quot;:true,&quot;segments&quot;:[[[117.75345,122.71588],[0.04237,1.4083],[-0.25726,-0.02957]],[[117.03187,122.61477],[0.22471,0.03516],[-1.13221,2.10473]],[[109.5,126.75],[4.21508,0],[-6.67427,0]],[[100.86682,119.24363],[0.3756,2.41542],[-0.27537,0.93186]],[[100.18444,122.0691],[0.15564,-0.95674],[-0.49291,3.02992]],[[100.22019,131.2783],[-0.0116,-3.06973],[0.00342,0.90617]],[[100.28022,133.99616],[-0.34738,-0.83695],[0.20787,0.50084]],[[101.68718,134.81282],[-0.41128,-0.35341],[0.8547,0.73443]],[[104.0474,137.23326],[-0.83358,-0.75832],[0.54672,0.49735]],[[105.93878,138.39041],[-0.69144,0.26109],[4.88794,-1.8457]],[[114.73326,132.4526],[-2.54675,4.05991],[2.41185,-2.13075]],[[117.81556,126.9309],[-0.45794,3.20295],[0.19891,-1.39124]]],&quot;closed&quot;:true}]}" fill="#ff9df0"/><path d="M38.17994,227.00651c6.37425,5.89332 13.62723,10.87613 21.40744,14.76415c2.34944,1.17409 4.9811,2.35669 7.74653,3.51143c2.51251,3.43476 7.21189,3.44783 7.21189,3.44783l0.32564,0.00025c-0.00985,0.13021 -0.02037,0.26023 -0.03267,0.38845c-0.33316,3.471 0.63537,7.04103 0.07414,10.48252c-0.13307,0.81601 -3.03292,8.14385 -3.35082,8.83775c-3.603,7.86451 -8.01212,14.72026 -15.55804,19.10768c-0.94461,0.69019 -1.69296,1.83454 -2.83873,2.0709c-1.85208,0.38206 -3.78358,-0.24889 -5.67339,-0.31814c-2.80656,-0.10284 -5.48016,0.56851 -7.89578,-1.35191c-1.11069,-0.883 -1.94066,-2.0792 -2.93469,-3.09174c-1.0799,-1.1 -2.68514,-1.90094 -3.19128,-3.35697c-0.39241,-1.12884 -0.38167,-2.37961 -0.79927,-3.49937c-0.71993,-1.93043 -2.38424,-3.8306 -2.52923,-6.04253c-0.45245,-6.90246 0.29549,-14.22686 1.01058,-21.03438c0.33673,-3.20561 1.31551,-11.73593 2.47667,-14.80531c0.79651,-2.10548 2.29879,-3.8817 3.44406,-5.8197c0,0 0.789,-1.37663 1.10695,-3.29091z" data-paper-data="{&quot;noHover&quot;:false,&quot;origItem&quot;:[&quot;Path&quot;,{&quot;applyMatrix&quot;:true,&quot;segments&quot;:[[[37.09713,230.34122],[0,0],[-1.14527,1.938]],[[33.66132,236.15522],[0.79651,-2.10548],[-1.16116,3.06938]],[[31.19948,250.93888],[0.33673,-3.20561],[-0.71509,6.80752]],[[30.18444,271.9309],[-0.45245,-6.90246],[0.14499,2.21193]],[[32.70649,277.96422],[-0.71993,-1.93043],[0.4176,1.11977]],[[33.502,281.46016],[-0.39241,-1.12884],[0.50614,1.45603]],[[36.68718,284.81282],[-1.0799,-1.1],[0.99403,1.01254]],[[39.61621,287.90163],[-1.11069,-0.883],[2.41562,1.92042]],[[47.5,289.25],[-2.80656,-0.10284],[1.88981,0.06925]],[[53.16433,289.56749],[-1.85208,0.38206],[1.14577,-0.23636]],[[55.99816,287.49694],[-0.94461,0.69019],[7.54592,-4.38742]],[[71.5179,268.41551],[-3.603,7.86451],[0.3179,-0.69391]],[[74.86298,259.59841],[-0.13307,0.81601],[0.56123,-3.44149]],[[74.79258,249.1378],[-0.33316,3.471],[0.01231,-0.12822]],[[74.82553,248.75],[-0.00985,0.13021],[0,0]],[74.5,248.75],[[67.29647,245.31524],[2.51251,3.43476],[-2.76543,-1.15475]],[[59.56785,241.81669],[2.34944,1.17409],[-7.78021,-3.88802]],[[38.20076,227.05197],[6.37425,5.89332],[-0.31794,1.91429]]],&quot;closed&quot;:true}]}" fill="#ff9df0"/><path d="M42.54997,168.7484l1,-0.00001c1.92364,0 7.31344,0.07084 8.43566,-0.37227c10.60872,-4.18888 17.05925,-19.9591 9.41985,-29.7006c-4.4132,-5.62757 -5.76459,-3.99638 -10.91756,-5.8965c-1.72972,-0.63782 -3.13336,-1.86611 -4.92983,-2.28015c-1.95374,-0.4503 -4.00574,-0.18781 -6.01015,-0.23468c-3.56215,-0.08329 -9.18588,-0.59075 -12.53522,0.37404c-1.49083,0.42944 -2.57422,1.76898 -4.00394,2.37139c-1.26653,0.53365 -2.7561,0.41455 -3.99985,0.99935c-0.97096,0.45653 -1.9869,0.97916 -2.87525,1.57287c-0.15243,-1.6004 -0.50775,-3.22384 -0.12493,-4.76764c0.61536,-2.48153 2.0448,-4.69863 3.29159,-6.9307c7.79543,-13.95583 7.94925,-14.39052 19.33947,-25.71708c4.01531,-3.99287 8.42899,-7.57649 12.50399,-11.50843c3.90495,-3.76786 7.14791,-8.26901 11.43617,-11.59409c2.84171,-2.20343 6.63272,-2.86272 9.67594,-4.77823c4.40659,-2.77365 7.68305,-7.09974 12.0048,-10.0038c1.17752,-0.79125 2.41883,-1.52952 3.70587,-2.21867c0.18374,0.41842 0.38658,0.84495 0.60937,1.27971c0.545,1.06351 9.15718,3.04905 12.45346,4.01437c0.74518,0.21822 1.54202,0.51075 2.29479,0.70263c-1.03759,1.48036 -1.62443,3.26878 -2.51359,4.85447c-4.11459,7.33775 -5.44483,9.03466 -9.23491,17.48261c-1.99576,4.44847 -4.28375,8.82066 -5.53236,13.53372c-0.99846,3.76884 -0.51699,7.78718 -1.13026,11.6375c-0.45305,2.84446 -1.63647,5.53886 -2.05481,8.38863c-0.9207,6.27191 -0.66327,16.36634 1.90913,22.06217c0.95018,2.1039 3.01306,3.49846 4.59374,5.18092c2.59885,2.76618 4.74368,4.97016 8.24538,6.65107c11.007,5.28367 24.11495,-0.9797 30.62009,-10.33345c1.22548,-1.31575 2.7349,-2.42411 3.68136,-3.95291c0.96733,-1.56251 1.4222,-3.40165 1.96279,-5.15804c1.92465,-6.25332 3.19982,-18.22449 -1.3964,-23.67228c-4.9208,-5.83251 -10.29003,-5.70535 -16.9458,-5.4433c-1.84801,0.07276 -3.77147,-0.18956 -5.5331,0.37357c-1.95349,0.62447 -3.54235,2.06016 -5.31502,3.09154l-2.59169,6.17688c0.02721,-0.1455 -0.02141,-0.35891 0.00148,-0.50531c0.53525,-3.42329 0.01084,-7.00535 0.87003,-10.36201c0.94025,-3.67336 7.37076,-16.47516 9.23008,-19.98063c2.16194,-4.07604 3.71186,-8.70209 7.5408,-11.13137c0,0 3.32865,-2.49551 3.67587,-6.33823c7.82169,0.32402 15.72467,0.09309 23.36075,0.11042c9.89905,0.54978 19.82764,0.97742 29.74194,0.97509c7.85388,-0.00185 13.84191,-0.35793 21.54823,0.88008c2.64032,0.42416 5.16073,1.43633 7.78287,1.96131c9.97252,1.99661 19.98092,4.01621 29.97635,6.00035c4.73989,0.94089 9.57085,1.5149 14.22627,2.81064c1.88075,0.52347 3.68201,1.28775 5.4702,2.08375c-0.10443,0.02925 -0.20823,0.06177 -0.31127,0.09797c-14.54203,5.10946 -23.56874,20.63107 -26.29798,35.03533c-0.5214,2.75182 -0.09447,5.60444 -0.11078,8.40518c-0.03688,6.33323 0.00434,12.67697 0.00434,19.0103c0,7.20723 -1.02817,14.72425 2.66809,21.36279c1.78867,3.21249 3.08365,7.78009 6.63577,8.72976c11.84609,3.16711 16.66887,-4.64259 21.69512,-12.3244c2.85514,-4.36363 5.79207,-8.74254 7.80078,-13.55484c3.09548,-7.41588 2.55622,-11.8115 2.60464,-19.18398c0,-2.66667 0.00105,-5.33037 0.00105,-7.99704l-3.56151,-7.18415c0,0 -6.09769,-6.23173 -12.28487,-0.04455c-3.93638,3.93638 -2.86227,7.87636 -1.56109,10.21942c0,1.65712 0.00084,3.31632 0.00084,4.97345c0.03865,4.47169 0.51464,8.51854 -1.39539,12.81404c-1.36628,3.07266 -3.30868,5.85143 -5.11733,8.69514c0.00804,-0.16669 -0.08513,-0.31681 -0.08335,-0.48317c0.13085,-12.27462 -2.49562,-26.14062 2.33994,-37.63488c2.52396,-5.99952 4.05956,-8.42801 8.9126,-12.16228c0.87956,-0.6768 2.0875,-1.96676 3.08883,-1.48821c0,0 8.66639,0.05485 8.66639,-8.69515c0,-0.78681 -0.07036,-1.50228 -0.19913,-2.15395c0.02181,0.01712 0.12567,-0.02257 0.14697,-0.00547c1.35389,1.0867 2.34788,2.57003 3.65288,3.71499c2.38741,2.09462 5.11801,3.84265 7.2148,6.22815c1.49613,1.70213 2.66687,3.69202 4.27222,5.29155c1.67304,1.66697 4.04002,2.60889 5.51006,4.45735c1.76395,2.21801 2.69457,4.98991 4.0013,7.50457c2.48282,4.77795 4.16984,8.38631 5.02067,13.64425c-0.08859,21.62712 1.19648,43.55772 -1.9336,65.01047c-0.72369,4.96 -1.34174,9.97669 -2.73144,14.79271c-1.21885,4.22394 -3.91061,7.94205 -5.05398,12.18704c-1.23641,4.59044 -0.88915,9.50663 -2.03325,14.12095c-2.90835,11.72974 -11.42271,22.59501 -20.26246,30.59475c-2.66929,2.41563 -5.33349,5.32947 -8.81476,6.24658c-4.34174,1.14379 -8.9775,-0.31394 -13.46699,-0.37315c-10.13929,-0.13374 -20.30832,0.65855 -30.42866,0.02467c-12.18612,-0.76327 -26.88971,-4.21941 -38.14775,-8.42484c-5.66606,-2.08 -11.26922,-4.36493 -17.00664,-6.23911c-7.48523,-2.44512 -15.4797,-3.02535 -23.09599,-5.0252c-2.54628,-0.66859 -5.08432,-1.42705 -7.60704,-2.24575c0.12096,-8.56531 1.13427,-16.89736 1.93918,-25.45367c0.30191,-3.20939 -0.081,-6.52817 0.75056,-9.64262c0.75053,-2.81095 6.14774,-13.12763 8.43575,-15.87885c2.57533,-3.0967 5.36692,-6.06152 8.53128,-8.55325c2.85469,-2.2479 6.31098,-3.58374 9.36017,-5.55978c8.41191,-5.45138 9.34976,-7.39615 17.86254,-11.36753c2.52365,-1.17733 5.2539,-1.83764 7.82329,-2.91149c2.27463,-0.95066 4.07103,-3.15172 6.51196,-3.49747c1.88618,-0.26717 3.81074,0.33346 5.71136,0.20432c2.02292,-0.13745 4.00558,-0.63314 5.99996,-0.99857c0.54662,-0.10016 1.25542,-0.08473 1.81938,-0.16343c0.21571,3.86153 0.7956,7.44146 0.80735,11.45637c0.00579,1.97708 0.13056,3.96042 0.06382,5.93637c-0.00806,0.23862 -0.11052,0.47684 -0.20289,0.71173c-0.79403,0.13859 -2.16936,0.80364 -2.88077,1.05906c-1.97412,0.70877 -4.20847,0.28672 -6.24507,0.78851c-1.44742,0.35663 -2.57219,1.58347 -4.00238,2.00392c-0.1586,0.04663 -0.40628,-0.00285 -0.57443,-0.01837c-1.08986,-1.72411 -4.81499,-6.54532 -11.33253,-3.28655c-7.82624,3.91312 -3.92577,11.74956 -3.92577,11.74956l2.58954,4.18718c2.39228,1.77625 4.34208,4.40342 7.17373,5.33068c2.05017,0.67136 4.26084,-0.66131 6.40748,-0.87553c1.19764,-0.11952 2.44742,0.20385 3.60681,-0.11935c1.43596,-0.4003 2.55255,-1.62999 3.99731,-1.99725c1.09627,-0.27868 2.27251,0.29754 3.39002,0.1225c7.21381,-1.12992 14.23976,-4.30609 17.59267,-11.08455c2.29928,-4.64837 1.73365,-9.57316 1.74487,-14.52945c0.01754,-7.74794 -0.92307,-13.89375 -3.13601,-21.29435c-2.42192,-2.25761 -4.1944,-5.52559 -7.26423,-6.76603c-6.7673,-2.73449 -10.89321,-0.15127 -17.06821,0.36916c-2.75395,0.23211 -5.57853,-0.34365 -8.28652,0.20857c-2.36963,0.48322 -6.91032,3.42665 -9.48646,4.49663c-2.68856,1.11667 -5.53973,1.83533 -8.17026,3.08258c-7.14343,3.38701 -13.38387,8.23368 -20.0069,12.55061c-3.4693,2.26131 -7.40559,3.83419 -10.62327,6.44113c-10.32015,8.36128 -19.47961,20.63641 -23.0832,33.6469c-1.1052,3.99025 -0.81761,8.23746 -1.25078,12.35522c-0.7383,7.01836 -1.48564,13.91671 -1.83809,20.89199c-2.67606,-1.03407 -5.39806,-1.98343 -8.05816,-2.98099c-3.89269,-1.45979 -8.41592,-3.058 -13.07453,-4.73921c-1.71426,-1.50561 -3.80009,-2.66905 -5.8556,-3.59398c-1.48426,-0.66788 -3.17951,-0.48 -4.84868,-0.39265c-4.24179,-1.65158 -8.29104,-3.35163 -11.75913,-5.055c-10.02743,-4.92501 -19.22912,-12.42344 -25.91306,-21.41164c-1.81108,-2.43544 -3.06943,-5.24857 -4.80959,-7.73518c-2.48459,-3.55036 -10.67033,-13.45452 -13.302,-18.78807c-0.90754,-1.83928 -1.06863,-3.98313 -1.92817,-5.84533c-2.70339,-5.85694 -4.32411,-5.86646 -5.45475,-11.36821c-0.26373,-1.28331 -0.45986,-2.56887 -0.60005,-3.85375c0.96611,-0.34741 1.56872,-0.70926 1.56872,-0.70926c1.96101,-1.20209 4.01029,-2.27243 5.88313,-3.60773c1.16213,-0.82858 1.80944,-2.42032 3.15511,-2.89599c1.2958,-0.45804 2.74126,-0.44893 4.00007,-1.00056c0.78622,-0.34454 1.23083,-1.23884 1.99587,-1.62818c0.17741,-0.09028 0.36552,0.36789 0.56342,0.38933c0.99418,0.10774 1.90098,-0.01393 2.90098,-0.01393c1.99808,0 4.17134,-0.78204 6.0886,-0.21952c1.90359,0.55851 3.60609,1.93215 5.51109,2.3593c-0.00225,0.03859 -0.00756,0.0765 -0.01658,0.11371c-0.109,0.44983 -0.42587,0.8391 -0.68217,1.24105c-0.92954,-0.0752 -1.8682,0.01855 -2.80181,0.01855l-0.99999,-0.00005c0,0 -8.74968,-0.00393 -8.74968,8.74607c0,8.75 8.75002,8.74635 8.75002,8.74635z" data-paper-data="{&quot;noHover&quot;:false,&quot;origItem&quot;:[&quot;Path&quot;,{&quot;applyMatrix&quot;:true,&quot;segments&quot;:[[[33.75,160],[0,8.75],[0,-8.75]],[42.5,151.25],[[43.5,151.25],[0,0],[0.9336,0]],[[46.30183,151.23129],[-0.92954,-0.0752],[0.2563,-0.40195]],[[46.98407,149.98966],[-0.109,0.44983],[0.00902,-0.0372]],[[47.00066,149.8759],[-0.00225,0.03859],[-1.905,-0.42715]],[[41.48966,147.51593],[1.90359,0.55851],[-1.91726,-0.56252]],[[35.5,147.75],[1.99808,0],[-1,0]],[[32.5,147.75],[0.99418,0.10774],[-0.1979,-0.02145]],[[32.03561,147.37456],[0.17741,-0.09028],[-0.76503,0.38933]],[[30.03984,149.002],[0.78622,-0.34454],[-1.25881,0.55163]],[[26.03984,150.002],[1.2958,-0.45804],[-1.34567,0.47567]],[[22.88486,152.8968],[1.16213,-0.82858],[-1.87284,1.3353]],[[17.00184,156.50306],[1.96101,-1.20209],[0,0]],[[15.43313,157.21204],[0.96611,-0.34741],[0.14019,1.28487]],[[16.03323,161.06443],[-0.26373,-1.28331],[1.13063,5.50175]],[[21.48793,172.42851],[-2.70339,-5.85694],[0.85954,1.8622]],[[23.41592,178.27164],[-0.90754,-1.83928],[2.63167,5.33355]],[[36.71649,197.0518],[-2.48459,-3.55036],[1.74016,2.48661]],[[41.52505,204.78357],[-1.81108,-2.43544],[6.68394,8.98821]],[[67.43215,226.18331],[-10.02743,-4.92501],[3.46809,1.70337]],[[79.18808,231.2341],[-4.24179,-1.65158],[1.66917,-0.08735]],[[84.03561,231.62544],[-1.48426,-0.66788],[2.05551,0.92493]],[[89.88885,235.21699],[-1.71426,-1.50561],[4.65861,1.68121]],[[102.95809,239.95178],[-3.89269,-1.45979],[2.6601,0.99756]],[[110.9614,243.01626],[-2.67606,-1.03407],[0.35246,-6.97528]],[[112.79429,222.12072],[-0.7383,7.01836],[0.43317,-4.11776]],[[114.04104,209.76202],[-1.1052,3.99025],[3.60359,-13.01049]],[[137.11514,176.1032],[-10.32015,8.36128],[3.21769,-2.60694]],[[147.73724,169.65979],[-3.4693,2.26131],[6.62303,-4.31693]],[[167.82906,157.05729],[-7.14343,3.38701],[2.63053,-1.24725]],[[176.00247,153.97942],[-2.68856,1.11667],[2.57614,-1.06998]],[[185.48966,149.48407],[-2.36963,0.48322],[2.70799,-0.55222]],[[193.7783,149.27981],[-2.75395,0.23211],[6.175,-0.52043]],[[210.84848,148.91605],[-6.7673,-2.73449],[3.06983,1.24044]],[[218.11425,155.68889],[-2.42192,-2.25761],[2.21294,7.4006]],[[221.25,177],[0.01754,-7.74794],[-0.01122,4.95628]],[[219.502,191.53984],[2.29928,-4.64837],[-3.35291,6.77847]],[[201.90159,202.63702],[7.21381,-1.12992],[-1.11751,0.17504]],[[198.51034,202.51593],[1.09627,-0.27868],[-1.44476,0.36727]],[[194.51034,204.51593],[1.43596,-0.4003],[-1.15938,0.3232]],[[190.90159,204.63702],[1.19764,-0.11952],[-2.14663,0.21422]],[[184.48966,205.51593],[2.05017,0.67136],[-2.83165,-0.92726]],[[177.31282,200.18718],[2.39228,1.77625],[0,0]],[174.67376,195.91312],[[178.58688,184.17376],[-7.82624,3.91312],[6.51754,-3.25877]],[[189.99798,187.52184],[-1.08986,-1.72411],[0.16816,0.01553]],[[190.48966,187.48407],[-0.1586,0.04663],[1.43019,-0.42045]],[[194.48966,185.48407],[-1.44742,0.35663],[2.0366,-0.50179]],[[200.73301,184.69902],[-1.97412,0.70877],[0.71141,-0.25542]],[[203.61294,183.64194],[-0.79403,0.13859],[0.09236,-0.23488]],[[203.81556,182.9309],[-0.00806,0.23862],[0.06675,-1.97596]],[[203.75,177],[0.00579,1.97708],[-0.01175,-4.01491]],[[202.94109,165.55551],[0.21571,3.86153],[-0.56395,0.07871]],[[201.2217,165.72019],[0.54662,-0.10016],[-1.99438,0.36544]],[[195.2217,166.72019],[2.02292,-0.13745],[-1.90062,0.12914]],[[189.51034,166.51593],[1.88618,-0.26717],[-2.44093,0.34575]],[[182.99753,170.02058],[2.27463,-0.95066],[-2.56939,1.07385]],[[175.17094,172.94271],[2.52365,-1.17733],[-8.51278,3.97138]],[[157.26276,184.34021],[8.41191,-5.45138],[-3.04919,1.97604]],[[147.88486,189.8968],[2.85469,-2.2479],[-3.16435,2.49173]],[[139.34757,198.44732],[2.57533,-3.0967],[-2.28801,2.75122]],[[130.95896,214.23798],[0.75053,-2.81095],[-0.83156,3.11445]],[[130.20571,223.87928],[0.30191,-3.20939],[-0.8049,8.55631]],[[128.26191,249.3311],[0.12096,-8.56531],[2.52272,0.8187]],[[135.86469,251.57559],[-2.54628,-0.66859],[7.61629,1.99986]],[[158.94774,256.59934],[-7.48523,-2.44512],[5.73743,1.87419]],[[175.94593,262.83934],[-5.66606,-2.08],[11.25804,4.20543]],[[214.07949,271.26921],[-12.18612,-0.76327],[10.12034,0.63388]],[[244.5,271.25],[-10.13929,-0.13374],[4.48948,0.05922]],[[257.96439,271.62544],[-4.34174,1.14379],[3.48127,-0.91711]],[[266.77663,265.38143],[-2.66929,2.41563],[8.83975,-7.99974]],[[287.03192,234.79679],[-2.90835,11.72974],[1.1441,-4.61431]],[[289.06315,220.68007],[-1.23641,4.59044],[1.14337,-4.245]],[[294.11554,208.49734],[-1.21885,4.22394],[1.3897,-4.81602]],[[296.84566,193.7097],[-0.72369,4.96],[3.13008,-21.45275]],[[298.77981,128.7217],[-0.08859,21.62712],[-0.85084,-5.25794]],[[293.76062,115.08221],[2.48282,4.77795],[-1.30673,-2.51467]],[[289.7604,107.58034],[1.76395,2.21801],[-1.47005,-1.84846]],[[284.25126,103.12501],[1.67304,1.66697],[-1.60535,-1.59953]],[[279.98013,97.83556],[1.49613,1.70213],[-2.09679,-2.3855]],[[272.76698,91.61022],[2.38741,2.09462],[-1.305,-1.14495]],[[269.11514,87.8968],[1.35389,1.0867],[-0.0213,-0.0171]],[[269.05047,87.84547],[0.02181,0.01712],[0.12878,0.65167]],[[269.25,90],[0,-0.78681],[0,8.75]],[[260.5,98.75],[0,0],[-1.00133,-0.47855]],[[257.49522,100.18403],[0.87956,-0.6768],[-4.85305,3.73427]],[[248.58395,112.34848],[2.52396,-5.99952],[-4.83556,11.49426]],[[246.25,150],[0.13085,-12.27462],[-0.00177,0.16636]],[[246.23471,150.4996],[0.00804,-0.16669],[1.80865,-2.84371]],[[251.35285,141.80838],[-1.36628,3.07266],[1.91003,-4.2955]],[[252.75,129],[0.03865,4.47169],[0,-1.65712]],[[252.75,124.02863],[0,1.65712],[-1.30118,-2.34305]],[[254.31282,113.81282],[-3.93638,3.93638],[6.18718,-6.18718]],[266.68718,113.81282],[[270.25,121],[0,0],[0,2.66667]],[[270.25,129],[0,-2.66667],[-0.04842,7.37248]],[[267.64715,148.19162],[3.09548,-7.41588],[-2.00871,4.8123]],[[259.84692,161.7524],[2.85514,-4.36363],[-5.02624,7.68181]],[[238.15152,174.08395],[11.84609,3.16711],[-3.55212,-0.94968]],[[231.41605,165.34848],[1.78867,3.21249],[-3.69626,-6.63854]],[[228.75,144],[0,7.20723],[0,-6.33333]],[[228.75,125],[-0.03688,6.33323],[0.01631,-2.80074]],[[228.86298,116.59841],[-0.5214,2.75182],[2.72925,-14.40426]],[[255.16433,81.56749],[-14.54203,5.10946],[0.10303,-0.0362]],[[255.47557,81.46948],[-0.10443,0.02925],[-1.78819,-0.796]],[[250.00672,79.38725],[1.88075,0.52347],[-4.65541,-1.29574]],[[235.78398,76.58008],[4.73989,0.94089],[-9.99543,-1.98414]],[[205.81795,70.58681],[9.97252,1.99661],[-2.62214,-0.52498]],[[198.03846,68.62707],[2.64032,0.42416],[-7.70632,-1.23801]],[[176.5,67.75],[7.85388,-0.00185],[-9.9143,0.00234]],[[146.77306,66.77559],[9.89905,0.54978],[-7.63608,-0.01732]],[[123.42327,66.66275],[7.82169,0.32402],[-0.34723,3.84272]],[[119.75,73],[0,0],[-3.82894,2.42928]],[[112.21465,84.12876],[2.16194,-4.07604],[-1.85931,3.50547]],[[102.99351,104.10305],[0.94025,-3.67336],[-0.85919,3.35667]],[[102.12707,114.46154],[0.53525,-3.42329],[-0.02289,0.14639]],[[102.0518,114.89936],[0.02721,-0.1455],[0,0]],[[104.64637,108.71956],[0,0],[1.77267,-1.03137]],[[109.96439,105.62544],[-1.95349,0.62447],[1.76162,-0.56314]],[[115.5,105.25],[-1.84801,0.07276],[6.65577,-0.26206]],[[132.45368,110.68881],[-4.9208,-5.83251],[4.59621,5.44779]],[[133.90105,134.44639],[1.92465,-6.25332],[-0.54058,1.7564]],[[131.94319,139.60015],[0.96733,-1.56251],[-0.94646,1.5288]],[[128.26674,143.5474],[1.22548,-1.31575],[-6.50515,9.35375]],[[97.65567,153.86026],[11.007,5.28367],[-3.5017,-1.68091]],[[89.31282,147.18718],[2.59885,2.76618],[-1.58068,-1.68246]],[[84.71978,142.00384],[0.95018,2.1039],[-2.57239,-5.69583]],[[82.81556,119.9309],[-0.9207,6.27191],[0.41834,-2.84977]],[[84.87293,111.53846],[-0.45305,2.84446],[0.61327,-3.85033]],[[86.00649,99.89695],[-0.99846,3.76884],[1.24861,-4.71306]],[[91.5437,86.35859],[-1.99576,4.44847],[3.79008,-8.44796]],[[100.78535,68.87124],[-4.11459,7.33775],[0.88916,-1.58568]],[[103.3007,64.01579],[-1.03759,1.48036],[-0.75277,-0.19187]],[[101.05361,63.40105],[0.74518,0.21822],[-3.29628,-0.96531]],[[88.6032,59.38486],[0.545,1.06351],[-0.2228,-0.43476]],[[87.99377,58.10519],[0.18374,0.41842],[-1.28705,0.68915]],[[84.2893,60.32292],[1.17752,-0.79125],[-4.32175,2.90406]],[[72.2893,70.32292],[4.40659,-2.77365],[-3.04323,1.9155]],[[62.61621,75.09837],[2.84171,-2.20343],[-4.28827,3.32508]],[[51.18402,86.68772],[3.90495,-3.76786],[-4.075,3.93194]],[[38.68337,98.191],[4.01531,-3.99287],[-11.39022,11.32656]],[[19.34826,123.89781],[7.79543,-13.95583],[-1.24679,2.23207]],[[16.05735,130.82599],[0.61536,-2.48153],[-0.38282,1.5438]],[[16.18263,135.59207],[-0.15243,-1.6004],[0.88835,-0.59371]],[[18.96016,133.998],[-0.97096,0.45653],[1.24375,-0.5848]],[[22.96016,132.998],[-1.26653,0.53365],[1.42972,-0.60241]],[[26.96439,130.62544],[-1.49083,0.42944],[3.34934,-0.96479]],[[39.5,130.25],[-3.56215,-0.08329],[2.00442,0.04687]],[[45.51034,130.48407],[-1.95374,-0.4503],[1.79647,0.41405]],[[50.53578,132.79351],[-1.72972,-0.63782],[5.15297,1.90012]],[[61.45368,138.68881],[-4.4132,-5.62757],[7.6394,9.7415]],[[52.03561,168.37456],[10.60872,-4.18888],[-1.12222,0.44311]],[[43.5,168.75],[1.92364,0],[0,0]],[42.5,168.75]],&quot;closed&quot;:true}]}" fill="#ff9df0"/></g></g></svg>