<svg version="1.1" xmlns="http://www.w3.org/2000/svg" xmlns:xlink="http://www.w3.org/1999/xlink" width="305.06612" height="205.7786" viewBox="0,0,305.06612,205.7786"><g transform="translate(-24.7784,-70.77486)"><g data-paper-data="{&quot;isPaintingLayer&quot;:true}" fill-rule="nonzero" stroke="none" stroke-width="0.5" stroke-linecap="butt" stroke-linejoin="miter" stroke-miterlimit="10" stroke-dasharray="" stroke-dashoffset="0" style="mix-blend-mode: normal"><path d="M64.80966,228.82332c1.86291,0 1.86291,1.86291 1.86291,1.86291l-0.01397,3.49819c0.50811,1.99929 1.1733,3.95954 1.90884,5.88681c1.91847,4.10044 4.89141,7.377 7.18928,11.28693c0.06002,0.1021 1.34157,2.52006 2.33524,4.39505l1.04877,-1.04877c0.33713,-0.33713 0.80285,-0.54562 1.31726,-0.54562c1.02883,0 1.86291,0.83405 1.86291,1.86291v1.58484c0.12926,0.42806 0.17127,0.80918 0.05556,1.22543c0.37901,-0.5443 0.77284,-1.0786 1.15422,-1.62125c1.69421,-2.41076 3.24967,-4.18456 5.29716,-6.23207l2.8076,-0.54562c0,0 1.86291,0 1.86291,1.86291c0,1.86291 -1.86291,1.86291 -1.86291,1.86291l-0.17305,-0.54562c-1.47866,1.47866 -2.58583,2.83465 -3.79204,4.36162c1.70795,-0.56733 3.404,-1.12965 5.08312,-1.95273c4.56483,-2.2376 9.18158,-4.7704 14.20452,-5.77155c3.74184,-0.74584 6.95057,-1.38159 9.92174,1.56059c1.42659,1.41269 1.79505,3.5927 2.63136,5.41791c0.5963,0.89171 3.19101,4.87505 3.99324,5.67219c0.8499,0.84451 1.97423,1.36566 2.88394,2.14541c1.50789,1.29246 2.43228,3.29246 4.16825,4.25718c0.8952,0.4975 2.06485,0.28674 2.98064,0.74516c0.56438,0.28253 0.6899,1.18106 1.28538,1.39033c0.71458,0.25112 1.51062,-0.12134 2.26776,-0.14182c1.73805,-0.04697 3.47741,-0.00334 5.21613,0c12.58938,0.02432 24.54407,-6.16377 36.096,-10.49576c5.33324,-1.98853 10.40642,-4.97223 14.77688,-8.6154c1.71523,-1.42981 5.45132,-4.99051 7.89599,-4.6183c1.19514,0.18195 1.14934,2.12817 1.7723,3.16422c1.32086,2.19677 3.36183,4.22569 5.41853,5.73108c5.04302,3.69114 9.96363,2.95309 15.86614,2.48229c1.13482,-0.09053 2.30189,0.02165 3.40552,-0.25765c4.37139,-1.10617 8.57118,-4.2189 12.35793,-6.53705c3.35947,-2.01796 4.89569,-4.29744 7.32133,-7.35229c5.96239,-7.50897 10.21353,-16.57237 14.10122,-25.29707c0.71639,-1.6077 1.67349,-3.13444 2.11481,-4.83829c0.32358,-1.24923 -0.38751,-2.85272 0.43527,-3.84682c0.37462,-0.45263 6.69701,-1.40853 7.09532,-1.47461c6.22511,-1.03267 12.58204,-0.63788 18.88458,-0.63788c3.7254,0 7.45214,-0.02641 11.17742,0c1.09937,0.0078 2.22302,0.28103 3.29782,0.04985c0.94228,-0.20272 3.25627,-1.80207 4.18275,-2.4066c2.39418,-1.56222 6.55444,-3.74786 8.02117,-6.35661c0.45865,-0.81574 0.32411,-1.84362 0.50955,-2.7609c0.81899,-4.05062 1.63329,-9.37808 -0.45725,-13.25439c-0.28529,-0.52902 -0.91618,-0.78553 -1.30696,-1.24221c-2.17386,-2.54052 -4.25484,-4.86667 -7.48566,-6.20361c-0.87656,-0.36272 -1.89094,-0.27189 -2.78329,-0.59386l-3.60125,-0.80029c-0.85246,-0.17096 -1.49459,-0.92374 -1.49459,-1.8265c0,-0.61722 0.30017,-1.16436 0.7625,-1.50332l2.88368,-2.16275c4.97867,-4.99051 10.26712,-9.83497 14.89834,-15.15257c2.4179,-2.77627 4.41779,-5.66152 7.06919,-8.24134c2.33341,-7.38764 -4.3337,-10.49674 -9.70339,-13.67122c-4.21641,-2.49268 -8.82736,-3.49303 -13.51279,-4.87859c-4.68717,-1.38606 -9.4073,-3.11905 -14.17357,-4.19554c-7.17247,-1.61991 -14.69579,-2.31827 -21.9612,-3.46641c-4.86406,-0.76864 -9.7499,-1.75532 -14.6417,-2.31547c-9.81223,-1.12366 -19.79886,-1.41251 -29.65145,-2.11626c-5.9802,-0.42716 -11.65794,-0.81969 -17.49188,-2.23701c-1.39507,-0.33892 -2.93251,-0.339 -4.17486,-1.05851c-3.6681,-2.12437 -2.50358,-7.08846 -2.71701,-10.5595c-0.83472,-4.26817 -2.07346,-8.02109 -4.48473,-11.68356c-1.2483,-1.89603 -3.11996,-3.32386 -4.91303,-4.71602c-0.67916,-0.52733 -4.08901,-3.46185 -4.28881,-3.59865c-4.61635,-3.1603 -10.83334,-3.45125 -16.16527,-3.45125c-5.69035,0 -11.59632,-0.39401 -17.19943,0.8513c-2.29879,0.51093 -4.47942,1.45501 -6.72225,2.17276c-6.84241,4.13732 -13.42403,8.80491 -20.35458,12.76577c-2.04223,1.16719 -4.15897,2.19951 -6.21658,3.33943c-0.92511,0.51251 -1.67817,1.40338 -2.70437,1.65919c-1.37682,0.34318 -2.83725,0.06667 -4.25614,0.07572c-2.26501,0.01448 -6.39988,0.21241 -8.4098,-1.05831c-2.99291,-1.8922 -2.24024,-4.52301 -2.52886,-7.37126c-0.25574,-2.52374 -0.53359,-5.05447 -0.5353,-7.5911c-0.00113,-1.63925 0.12758,-3.28174 0.02406,-4.91773c-0.02604,-0.41153 0.09019,-0.94911 -0.22357,-1.21662c-0.40903,-0.34874 -1.0535,-0.21409 -1.58026,-0.32113c-1.64826,-0.70485 -3.17263,-1.79147 -4.92866,-2.15191c-1.09432,-0.22462 -2.2341,0.03133 -3.35124,0.03804c-1.82273,0.01094 -3.67721,-0.40732 -5.46784,-0.06654c-1.54818,0.29464 -2.51773,1.93405 -3.54169,3.13204c-2.1569,2.52344 -3.9198,5.55978 -5.67715,8.36151c-2.62357,4.18274 -5.5622,8.2153 -8.06299,12.46923c-4.26856,7.26104 -7.77328,15.01644 -11.3004,22.65235c-1.46601,3.86945 -3.7741,8.08267 -4.34371,12.20491c-0.58209,4.21275 1.99024,11.17953 -2.45621,14.0518c-0.42265,0.27302 -4.5332,0.22042 -5.34998,0.22042c-3.67098,0 -6.6393,0.29497 -10.24867,0.73609c-0.59058,0.07218 -3.35861,-0.38845 -3.81502,0.61587c-0.38049,0.83722 0.23297,1.82626 0.27823,2.74476c0.04938,1.00205 0.00357,2.00654 0.00535,3.00981c0.00655,3.69646 0.03549,7.39239 0.06293,11.08878c0.3899,4.26829 0.44802,8.8613 1.37592,13.06194c1.72746,7.82038 5.85386,14.57689 10.87038,20.65156c2.25919,2.73576 4.39177,5.82494 7.12294,8.12628c2.89145,2.43642 6.07063,4.67728 9.40249,6.51407c0.98569,0.5434 2.15928,0.78591 3.01924,1.51209c0.02971,0.02512 0.05922,0.05039 0.08848,0.07596l0.00982,-0.01475l2.21143,1.4743c0.51358,0.33169 0.8536,0.90918 0.8536,1.56605c0,1.02883 -0.83405,1.86291 -1.86291,1.86291h-1.70896c-2.58356,2.41045 -5.19854,4.0415 -8.37919,5.60967c-1.29183,1.31371 -2.99879,2.29311 -3.93913,3.87753c-0.78422,1.32138 -0.50553,4.64593 -0.50335,5.7886c0.00419,2.197 -0.40675,4.44536 0.06695,6.59066c1.42861,6.46961 6.92419,11.62844 11.41474,16.03791c1.25149,1.22889 3.75492,3.73165 5.26544,4.71999c0.83661,0.54736 1.69872,0.90507 2.57418,1.16602c0.01987,-0.47648 0.11647,-0.92236 0.40449,-1.28774c0.77567,-0.98379 2.22714,-1.21515 3.44834,-1.49476c0.83468,-0.1911 1.78135,0.46025 2.56613,0.11776c0.86104,-0.3758 1.73479,-1.53056 2.5569,-2.73114c-0.55692,-1.02784 -1.03581,-1.97765 -1.34238,-2.55468c-2.7636,-5.20192 -6.60397,-9.65578 -9.11384,-14.93575c-0.85659,-2.25163 -1.60168,-4.55202 -2.17865,-6.89097l-0.01397,-3.95343c0,0 0,-1.86291 1.86291,-1.86291zM73.92431,266.32314c0.77424,0.39374 1.25983,1.1961 1.88975,1.79415c0,0 1.31726,1.31726 0,2.63456c-1.31726,1.31726 -2.63456,0 -2.63456,0c-0.83293,-0.90596 -1.74571,-1.33115 -2.72394,-1.58151c-0.00715,1.49885 0.12804,2.74516 1.63265,4.1631c0,0 1.31726,1.31726 0,2.63456c-1.31726,1.31726 -2.63456,0 -2.63456,0c-2.24869,-2.33881 -2.84223,-4.62651 -2.85135,-7.48988c-0.27426,-0.06863 -0.55141,-0.14932 -0.83122,-0.24649c-1.31697,-0.45734 -2.57601,-1.10018 -3.74963,-1.85263c-1.75378,-1.12443 -4.36098,-3.72731 -5.8511,-5.18892c-5.06196,-4.965 -10.83363,-10.68833 -12.45159,-17.93259c-0.19503,-0.87328 -0.14769,-6.54558 -0.14622,-7.35517c0.00446,-2.49618 -0.31026,-5.29536 0.98695,-7.62429c0.21237,-0.38131 4.62765,-4.69442 5.0028,-5.06438c2.8814,-1.45908 5.26527,-2.99226 7.70821,-4.86827c-0.52628,-0.29139 -1.03214,-0.64114 -1.55411,-0.92934c-2.87008,-1.58478 -5.22491,-3.39938 -7.7362,-5.40849c-9.92906,-7.94352 -18.69592,-19.6639 -21.50019,-32.32532c-0.97672,-4.40999 -1.05813,-9.22056 -1.4637,-13.70265c-0.0393,-4.74697 -0.24049,-9.53389 -0.07277,-14.27873c0.05553,-1.57071 -0.55766,-3.37587 0.27823,-4.70686c2.02354,-3.22211 4.03729,-2.04023 6.61723,-2.36477c3.69532,-0.46488 6.85825,-0.75423 10.61583,-0.75423c0.74516,0 1.49171,-0.04563 2.23547,0c0.45722,0.02807 0.94183,0.41513 1.35646,0.22042c0.38488,-0.18074 0.51142,-0.71431 0.58638,-1.13284c0.33104,-1.84894 -0.08542,-4.27709 -0.07991,-6.16659c0.01795,-6.20433 2.44015,-11.38825 4.61624,-17.11476c3.59209,-7.78896 7.17084,-15.69358 11.52376,-23.09811c2.51908,-4.28504 5.47534,-8.34845 8.11878,-12.56108c2.51134,-4.00212 6.31623,-11.844 11.38805,-13.10623c1.12398,-0.27971 2.3159,-0.0546 3.47409,-0.06654c0.77333,-0.00796 6.90417,0.00176 7.08101,0.03804c0.23237,0.0477 4.41187,1.85004 5.5036,2.31904c0.96358,0.38973 2.17886,0.41182 2.89072,1.1692c1.53647,1.63479 1.28227,3.83668 1.2908,5.78823c0.01523,3.49209 0.21079,6.75071 0.51848,10.21784c0.02963,0.33384 -0.44084,3.98388 0.88831,4.62621c1.26213,0.60997 5.24394,0.41816 6.34865,0.43148c1.06538,0.0128 2.16032,0.3287 3.19546,0.07629c0.7525,-0.18349 1.23976,-0.93558 1.91134,-1.32145c0.97772,-0.56177 2.03146,-0.98113 3.02486,-1.51477c8.21356,-4.41208 15.83485,-9.9698 23.85051,-14.746c0.24227,-0.07925 7.18536,-2.35803 7.45618,-2.4182c5.87898,-1.30666 12.03664,-0.94007 18.00781,-0.94007c6.03882,0 12.88243,0.48751 18.1121,4.00036c0.97434,0.65448 3.40758,2.87911 4.65309,3.85296c2.09409,1.63729 4.22037,3.36755 5.70326,5.57365c2.76233,4.10964 4.13847,8.4633 5.07885,13.27361c0.14807,2.33383 -0.19747,4.70968 0.21,7.01242c0.06465,0.36531 0.3914,0.70132 0.73827,0.83283c7.31174,2.77211 16.04828,2.48552 23.7218,3.03361c8.67073,0.61933 17.45825,0.87665 26.09357,1.86552c4.94467,0.56624 9.88284,1.56003 14.7994,2.33695c7.34622,1.16089 14.94779,1.87425 22.20045,3.51229c4.846,1.09447 9.64394,2.84774 14.40927,4.25694c4.99735,1.47779 9.83221,2.5947 14.34614,5.24056c6.16179,3.61176 13.27791,7.50435 11.98219,15.92443c-0.15631,1.01566 -0.66622,1.94431 -0.99931,2.91645c-2.72167,2.78516 -4.88269,5.80591 -7.42888,8.72951c-4.75123,5.45545 -10.17045,10.43667 -15.29005,15.54359l-0.14517,0.02656l0.0264,0.03521c2.46912,-0.09314 4.36647,0.98118 6.84695,2.6201c2.06366,1.36352 3.77645,3.22819 5.37512,5.11555c0.51989,0.61377 1.29964,1.02629 1.67369,1.73844c2.5259,4.80912 2.05912,10.90495 0.93201,15.9891c-0.27881,1.2577 -0.24489,2.64231 -0.87968,3.76333c-0.71425,1.26135 -1.9582,2.1424 -3.022,3.12702c-2.79396,2.58602 -7.72396,6.60177 -11.59989,7.48392c-1.35018,0.30731 -2.76913,0.04108 -4.15382,0.04985c-3.7254,0.02356 -7.45194,0 -11.17742,0c-6.08748,0 -12.26254,-0.41923 -18.27206,0.58716c-1.24082,0.20777 -2.46701,0.54827 -3.72308,0.61986c-0.41675,0.02374 -1.03945,-0.72182 -1.20559,-0.33889c-0.28639,0.66016 0.57241,1.40806 0.43527,2.11446c-0.50003,2.57589 -2.81046,6.59439 -3.90615,9.00428c-3.57508,7.86298 -7.66608,15.91398 -13.04053,22.69722c-2.69658,3.40347 -4.5746,5.90073 -8.29512,8.21462c-4.12228,2.52358 -8.62325,5.76307 -13.37899,6.96875c-0.14859,0.03766 -7.48945,0.65915 -7.7931,0.67463c-2.38451,0.1216 -4.82423,0.58281 -7.16218,0.09835c-4.61229,-0.9557 -9.36129,-4.48538 -12.27862,-8.09778c-0.65434,-0.81022 -1.36637,-1.62651 -1.72748,-2.60334c-0.15452,-0.41796 0.70625,-1.44312 0.282,-1.30677c-0.7104,0.2283 -0.92741,1.17598 -1.46977,1.6885c-0.15609,0.1475 -5.71277,4.76253 -5.73338,4.77694c-3.91764,2.7478 -8.41134,5.0821 -12.86888,6.76242c-12.03627,4.51362 -24.29666,10.70931 -37.40422,10.73298c-2.59193,0.00467 -6.48348,0.63803 -8.90966,-0.14182c-0.73765,-0.23711 -1.00211,-1.24413 -1.69526,-1.59031c-0.91618,-0.45761 -2.09661,-0.22811 -2.98064,-0.74516c-0.62665,-0.36652 -4.0382,-4.05431 -4.77369,-4.68471c-0.97621,-0.83673 -2.17074,-1.41381 -3.07735,-2.32557c-1.18594,-1.19264 -3.67618,-5.08291 -4.61112,-6.4892c-0.59058,-1.27894 -1.60675,-5.14198 -3.55337,-5.71284c-1.61633,-0.47398 -3.36851,0.24353 -5.02073,0.57109c-5.89835,1.1693 -10.59026,5.04258 -16.1987,6.86271c-1.17999,0.38295 -2.47237,0.33778 -3.6495,0.72934c-2.37492,0.79003 -6.20214,3.92812 -9.00255,2.12864c-0.3754,-0.24122 -0.79779,-0.71253 -1.23343,-1.30865c-0.84376,1.14852 -1.77944,2.21204 -3.13592,2.8776c-1.01663,0.49876 -2.26312,0.08871 -3.39515,0.11776c-0.24666,0.00633 -0.58155,-0.15282 -0.8132,-0.12971c1.24019,0.23722 2.47392,0.53343 3.66813,1.14074z" fill="#000000"/><path d="M62.98002,230.6694l0.01348,3.9525c0.57696,2.33892 1.32102,4.63762 2.17765,6.8892c2.50987,5.27996 6.34738,9.72981 9.11099,14.93172c0.30654,0.57702 0.78499,1.52625 1.34187,2.55407c-0.82206,1.20057 -1.75262,2.40364 -2.61366,2.77944c-0.78479,0.3425 -1.73176,-0.30921 -2.56644,-0.11811c-1.2212,0.27958 -2.61518,0.46355 -3.39087,1.44732c-0.28805,0.36532 -0.44216,0.85864 -0.46204,1.33507c-0.87546,-0.26095 -1.73801,-0.61915 -2.57456,-1.16653c-1.51052,-0.98832 -4.01502,-3.4925 -5.2665,-4.72138c-4.49056,-4.40946 -9.98879,-9.5725 -11.41741,-16.04215c-0.47372,-2.14531 -0.06345,-4.39501 -0.06763,-6.59201c-0.00217,-1.14268 -0.2814,-4.46842 0.50282,-5.78979c0.94033,-1.58447 2.64706,-2.56434 3.93892,-3.87804c3.18068,-1.56814 5.79543,-3.1997 8.37898,-5.61016l1.77789,-0.02828c1.02883,0 1.79393,-0.80587 1.79393,-1.83472c0,-0.65687 -0.34017,-1.23486 -0.8538,-1.56655l-2.21166,-1.47489l-0.00982,0.01475c-0.02926,-0.02552 -0.05879,-0.05089 -0.08849,-0.07598c-0.85996,-0.72621 -2.03377,-0.96938 -3.01947,-1.51282c-3.33186,-1.83679 -6.5118,-4.08013 -9.4032,-6.51654c-2.73115,-2.30134 -4.86433,-5.3931 -7.12352,-8.12881c-5.01654,-6.07467 -9.14356,-12.83682 -10.87105,-20.65722c-0.9279,-4.20063 -0.98596,-8.79692 -1.37587,-13.06523c-0.02745,-3.69634 -0.05611,-7.39503 -0.06267,-11.09148c-0.00178,-1.00327 0.04412,-2.0085 -0.00524,-3.01057c-0.04526,-0.91848 -0.65858,-1.90822 -0.27812,-2.74544c0.4564,-1.00431 3.22447,-0.54399 3.81505,-0.61617c3.60943,-0.44111 6.57784,-0.73676 10.24879,-0.73676c0.81678,0 4.92739,0.05226 5.35006,-0.22076c4.44644,-2.87231 1.8751,-9.84293 2.45719,-14.05568c0.56957,-4.12221 2.87895,-8.33886 4.34495,-12.20831c3.52715,-7.6359 7.03519,-15.39752 11.30376,-22.65855c2.50078,-4.25391 5.44188,-8.28981 8.06547,-12.47252c1.75735,-2.80174 3.52211,-5.8401 5.67901,-8.36355c1.02397,-1.19799 1.99443,-2.83832 3.54261,-3.13296c1.79061,-0.34077 3.64592,0.07676 5.46863,0.06578c1.11713,-0.00671 2.25747,-0.26315 3.35178,-0.03854c1.75604,0.36043 3.28093,1.44663 4.92918,2.15147c0.52678,0.10707 1.17143,-0.02776 1.58048,0.32094c0.31377,0.26751 0.24489,0.86264 0.27097,1.27414c0.10351,1.63599 -0.02442,3.27782 -0.02329,4.91707c0.00176,2.53666 0.28068,5.06638 0.53645,7.5901c0.28862,2.84825 -0.51608,5.42573 2.47679,7.31795c2.00993,1.27073 6.14618,1.07142 8.41122,1.057c1.41891,-0.00906 2.88027,0.26661 4.25709,-0.07656c1.02621,-0.25578 1.78018,-1.14742 2.70529,-1.65993c2.05758,-1.13993 4.1765,-2.17386 6.21874,-3.34104c6.93055,-3.96089 13.52039,-8.63269 20.3628,-12.77c2.24283,-0.71778 4.42603,-1.66269 6.72484,-2.17363c5.60315,-1.24532 11.51556,-0.85255 17.20593,-0.85255c5.33194,0 11.55536,0.29086 16.17171,3.45117c0.1998,0.13681 3.6116,3.0715 4.29074,3.59883c1.79306,1.39216 3.66706,2.82038 4.9154,4.71641c2.4113,3.66248 3.65328,7.41615 4.48796,11.68431c0.21346,3.47104 -0.94809,8.43614 2.72001,10.56048c1.24235,0.7195 2.78204,0.7205 4.17711,1.05942c5.83393,1.41736 11.51913,1.81439 17.49929,2.24155c9.8526,0.70376 19.84625,0.99978 29.65845,2.12343c4.89179,0.56019 9.77977,1.55002 14.64383,2.31866c7.26541,1.14812 14.79072,1.85036 21.96319,3.47025c4.76626,1.0765 9.4874,2.81194 14.17457,4.198c4.68542,1.38558 9.29711,2.38817 13.51355,4.88086c5.36971,3.17447 12.0377,6.2874 9.70431,13.67503c-2.65139,2.57981 -4.65101,5.46684 -7.06892,8.24311c-4.63119,5.3176 -9.91941,10.16593 -14.89803,15.15644l-2.88365,2.16336c-0.46235,0.33899 -0.7625,0.88655 -0.7625,1.50381c0,0.90276 0.64214,1.65609 1.49459,1.82705l3.60125,0.80048c0.89234,0.32198 1.90674,0.23128 2.78329,0.59401c3.23081,1.33694 5.3117,3.66468 7.48557,6.20523c0.39078,0.45668 1.02164,0.71353 1.30694,1.24252c2.09053,3.8763 1.27582,9.20717 0.45683,13.25781c-0.18547,0.9173 -0.05106,1.94588 -0.50968,2.76162c-1.46674,2.60874 -5.62749,4.79648 -8.02165,6.35871c-0.92648,0.60455 -3.24071,2.20479 -4.18297,2.40751c-1.0748,0.23122 -2.19849,-0.04179 -3.29785,-0.04958c-3.72529,-0.02641 -7.45232,0.00092 -11.1777,0.00092c-6.30253,0 -12.66024,-0.3926 -18.88536,0.64006c-0.39829,0.06608 -6.72127,1.02341 -7.0959,1.47605c-0.82281,0.99415 -0.11229,2.59891 -0.43589,3.84814c-0.44135,1.70385 -1.39938,3.23242 -2.11576,4.84011c-3.8877,8.72467 -8.14542,17.79673 -14.10782,25.30573c-2.42566,3.05484 -3.96474,5.33686 -7.32421,7.35483c-3.78675,2.3182 -7.99077,5.43382 -12.36218,6.53998c-1.10361,0.27926 -2.27172,0.16769 -3.40653,0.25819c-5.90251,0.47078 -10.82799,1.21106 -15.87101,-2.48006c-2.05671,-1.50538 -4.099,-3.53383 -5.41986,-5.73058c-0.62296,-1.03604 -0.57749,-2.98215 -1.77264,-3.16409c-2.44466,-0.37219 -6.18473,3.18956 -7.9,4.61935c-4.37046,3.64317 -9.45051,6.62759 -14.78374,8.61612c-11.55194,4.33199 -23.51959,10.51794 -36.10897,10.49362c-1.73872,-0.00334 -3.47968,-0.04756 -5.21774,-0.00062c-0.75711,0.02046 -1.55383,0.39262 -2.26841,0.14153c-0.59547,-0.20924 -0.72154,-1.10805 -1.28595,-1.39059c-0.91579,-0.45843 -2.08643,-0.24811 -2.98158,-0.74562c-1.73596,-0.96474 -2.66209,-2.96562 -4.17,-4.25811c-0.90971,-0.77974 -2.03515,-1.30152 -2.88505,-2.14608c-0.80224,-0.79714 -3.39891,-4.78171 -3.99522,-5.67343c-0.83628,-1.82524 -1.20633,-4.00641 -2.63295,-5.41908c-2.97114,-2.94217 -6.18229,-2.30841 -9.92416,-1.56259c-5.02294,1.00117 -9.6412,3.53252 -14.20603,5.77012c-1.67914,0.82309 -3.37566,1.38494 -5.0836,1.95227c1.20621,-1.52698 2.36753,-2.93416 3.84619,-4.41282l0.17294,0.5455c0,0 1.80884,0.05129 1.80884,-1.81159c0,-1.86291 -1.86346,-1.86353 -1.86346,-1.86353l-2.8079,0.5453c-2.0475,2.0475 -3.5473,3.77173 -5.24154,6.18248c-0.38139,0.54266 -0.83053,1.12689 -1.2095,1.67119c0.11571,-0.41623 0.07353,-0.79756 -0.05575,-1.22563l-0.00023,-1.58507c0,-1.02883 -0.83454,-1.8635 -1.86341,-1.8635c-0.51444,0 -0.98024,0.20841 -1.31734,0.54553l-1.04877,1.04878c-0.99371,-1.87498 -2.2761,-4.29405 -2.33614,-4.39614c-2.29786,-3.90994 -5.27303,-7.18967 -7.1915,-11.29014c-0.73552,-1.92726 -1.40163,-3.88905 -1.90973,-5.88833l0.01354,-3.49897c0,0 -0.00035,-1.86357 -1.86326,-1.86357c-1.86291,0 -1.79629,1.82949 -1.79629,1.82949z" data-paper-data="{&quot;noHover&quot;:false,&quot;origItem&quot;:[&quot;Path&quot;,{&quot;applyMatrix&quot;:true,&quot;selected&quot;:true,&quot;segments&quot;:[[[39.00233,259.59394],[-0.66193,0],[0.66193,0],7],[[39.66426,260.25586],[0,0],[0,0],7],[[39.6593,261.49884],[0,0],[0.18054,0.71039],7],[[40.33756,263.59055],[-0.26135,-0.6848],[0.68167,1.45697],7],[[42.89206,267.60103],[-0.81648,-1.38928],[0.02132,0.03628],7],[[43.72182,269.16269],[-0.35308,-0.66622],[0,0],7],[[44.09447,268.79003],[0,0],[0.11979,-0.11979],7],[[44.56253,268.59616],[-0.18279,0],[0.36557,0],7],[[45.22445,269.25808],[0,-0.36557],[0,0],7],[[45.22445,269.82121],[0,0],[0.04593,0.1521],7],[[45.24419,270.25662],[0.04112,-0.1479],[0.13467,-0.1934],7],[[45.65431,269.68056],[-0.13551,0.19282],[0.60199,-0.8566],7],[[47.5365,267.46617],[-0.72752,0.72752],[0,0],7],[[48.53409,267.2723],[0,0],[0,0],7],[[49.19602,267.93423],[0,-0.66193],[0,0.66193],7],[[48.53409,268.59616],[0,0],[0,0],7],[[48.47261,268.40228],[0,0],[-0.5254,0.5254],7],[[47.12521,269.95206],[0.42859,-0.54257],[0.60687,-0.20158],7],[[48.93136,269.25821],[-0.59663,0.29246],[1.62198,-0.79506],7],[[53.97852,267.20746],[-1.78475,0.35574],[1.32956,-0.26501],7],[[57.50391,267.76196],[-1.05571,-1.04541],[0.5069,0.50196],7],[[58.43888,269.68707],[-0.29715,-0.64854],[0.21188,0.31684],7],[[59.85777,271.70251],[-0.28505,-0.28324],[0.30199,0.30007],7],[[60.88249,272.46482],[-0.32324,-0.27706],[0.53578,0.45924],7],[[62.36356,273.9775],[-0.61682,-0.34279],[0.31808,0.17677],7],[[63.42264,274.24227],[-0.3254,-0.16289],[0.20054,0.10039],7],[[63.87936,274.73628],[-0.21158,-0.07435],[0.2539,0.08922],7],[[64.68514,274.68589],[-0.26902,0.00727],[0.61757,-0.01669],7],[[66.53853,274.68589],[-0.6178,-0.00119],[4.47327,0.00864],7],[[79.36419,270.95654],[-4.10464,1.53924],[1.89501,-0.70657],7],[[84.61473,267.89531],[-1.55291,1.29449],[0.60946,-0.50804],7],[[87.42034,266.25433],[-0.86864,-0.13225],[0.42466,0.06465],7],[[88.05008,267.37864],[-0.22135,-0.36813],[0.46933,0.78056],7],[[89.97539,269.415],[-0.73079,-0.53489],[1.79189,1.31154],7],[[95.61297,270.29701],[-2.09728,0.16728],[0.40322,-0.03216],7],[[96.82302,270.20547],[-0.39214,0.09923],[1.55325,-0.39304],7],[[101.21404,267.88272],[-1.34551,0.8237],[1.19369,-0.71702],7],[[103.81547,265.2703],[-0.86189,1.08545],[2.11856,-2.6681],7],[[108.82593,256.28173],[-1.38138,3.10006],[0.25455,-0.57125],7],[[109.57737,254.56258],[-0.15682,0.60542],[0.11497,-0.44388],7],[[109.73203,253.19572],[-0.29236,0.35324],[0.13311,-0.16083],7],[[112.25314,252.67176],[-0.14152,0.02348],[2.21191,-0.36693],7],[[118.96323,252.44511],[-2.23942,0],[1.32371,0],7],[[122.93479,252.44511],[-1.32367,-0.00939],[0.39063,0.00277],7],[[124.10657,252.46282],[-0.3819,0.08216],[0.33481,-0.07203],7],[[125.59278,251.60771],[-0.3292,0.21481],[0.8507,-0.55509],7],[[128.44287,249.34907],[-0.52116,0.92694],[0.16297,-0.28985],7],[[128.62393,248.36806],[-0.0659,0.32593],[0.291,-1.43927],7],[[128.46146,243.65851],[0.74281,1.37733],[-0.10137,-0.18797],7],[[127.99707,243.21712],[0.13885,0.16227],[-0.77242,-0.9027],7],[[125.33726,241.01285],[1.14798,0.47504],[-0.31146,-0.12888],7],[[124.3483,240.80183],[0.31706,0.11441],[0,0],7],[[123.0687,240.51748],[0,0],[-0.30289,-0.06074],7],[[122.53764,239.86848],[0,0.32077],[0,-0.21931],7],[[122.80857,239.33432],[-0.16428,0.12045],[0,0],7],[[123.8332,238.56585],[0,0],[1.76902,-1.77323],7],[[129.12689,233.18182],[-1.64556,1.88946],[0.85913,-0.98647],7],[[131.63872,230.2535],[-0.94209,0.91666],[0.82911,-2.62498],7],[[128.19089,225.39583],[1.90797,1.12796],[-1.49818,-0.8857],7],[[123.38952,223.66236],[1.66483,0.49232],[-1.66545,-0.4925],7],[[118.35336,222.17161],[1.69355,0.3825],[-2.54853,-0.57559],7],[[110.55009,220.93992],[2.58155,0.40795],[-1.7283,-0.27312],7],[[105.34758,220.11718],[1.73816,0.19905],[-3.48649,-0.39926],7],[[94.8118,219.36523],[3.50084,0.25006],[-2.12489,-0.15178],7],[[88.59657,218.57036],[2.07292,0.50362],[-0.4957,-0.12043],7],[[87.11316,218.19426],[0.44143,0.25565],[-1.30335,-0.75483],7],[[86.14775,214.44225],[0.07584,1.23333],[-0.29659,-1.51657],7],[[84.55422,210.29084],[0.85679,1.30135],[-0.44355,-0.6737],7],[[82.80853,208.61514],[0.63711,0.49467],[-0.24132,-0.18737],7],[[81.28461,207.33646],[0.071,0.04861],[-1.64029,-1.12292],7],[[75.54075,206.11016],[1.89455,0],[-2.0219,0],7],[[69.42943,206.41265],[1.99091,-0.44249],[-0.81681,0.18154],7],[[67.04087,207.18469],[0.79693,-0.25504],[-2.43125,1.47008],7],[[59.80846,211.72064],[2.46257,-1.40739],[-0.72565,0.41472],7],[[57.59959,212.9072],[0.7311,-0.40504],[-0.32871,0.18211],7],[[56.63867,213.49674],[0.36463,-0.09088],[-0.48921,0.12194],7],[[55.12637,213.52365],[0.50417,-0.00322],[-0.80481,0.00514],7],[[52.13819,213.14761],[0.71417,0.45152],[-1.06344,-0.67234],7],[[51.23964,210.52846],[0.10255,1.01204],[-0.09087,-0.89674],7],[[51.04942,207.83117],[0.00062,0.90133],[-0.0004,-0.58246],7],[[51.05797,206.0838],[0.03678,0.5813],[-0.00925,-0.14622],7],[[50.97852,205.65151],[0.11149,0.09505],[-0.14534,-0.12391],7],[[50.41703,205.53741],[0.18717,0.03804],[-0.58566,-0.25045],7],[[48.66577,204.77279],[0.62396,0.12807],[-0.38884,-0.07981],7],[[47.47501,204.7863],[0.39694,-0.00238],[-0.64765,0.00389],7],[[45.53217,204.76266],[0.63624,-0.12108],[-0.5501,0.10469],7],[[44.27374,205.87554],[0.36384,-0.42567],[-0.76639,0.89663],7],[[42.25652,208.84656],[0.62443,-0.99552],[-0.93221,1.48621],7],[[39.39157,213.27715],[0.88858,-1.51151],[-1.51671,2.58],7],[[35.3763,221.326],[1.25327,-2.7132],[-0.5209,1.3749],7],[[33.8329,225.66265],[0.20238,-1.46471],[-0.20683,1.49688],7],[[32.96016,230.65556],[1.57991,-1.02059],[-0.15018,0.09701],7],[[31.0592,230.73388],[0.29022,0],[-1.30437,0],7],[[27.41763,230.99543],[1.2825,-0.15674],[-0.20985,0.02565],7],[[26.06207,231.21426],[0.16217,-0.35685],[-0.13519,0.29748],7],[[26.16093,232.18953],[-0.01608,-0.32636],[0.01754,0.35605],7],[[26.16283,233.25899],[-0.00063,-0.35648],[0.00233,1.31343],7],[[26.18519,237.19905],[-0.00975,-1.31339],[0.13854,1.51661],7],[[26.67407,241.84023],[-0.3297,-1.49257],[0.6138,2.77874],7],[[30.53655,249.17816],[-1.78248,-2.15846],[0.80274,0.97207],7],[[33.06748,252.0656],[-0.97044,-0.81772],[1.02739,0.86571],7],[[36.40837,254.38019],[-1.18388,-0.65265],[0.35024,0.19308],7],[[37.48117,254.91748],[-0.30556,-0.25804],[0.01056,0.00892],7],[[37.51261,254.94446],[-0.0104,-0.00907],[0,0],7],[[37.51611,254.93923],[0,0],[0,0],7],[[38.30188,255.46307],[0,0],[0.18249,0.11786],7],[[38.60518,256.01953],[0,-0.2334],[0,0.36557],7],[[37.94325,256.68145],[0.36557,0],[0,0],7],[[37.33602,256.68145],[0,0],[-0.91799,0.85648],7],[[34.35872,258.67468],[1.13016,-0.5572],[-0.45901,0.46679],7],[[32.95906,260.05245],[0.33412,-0.56299],[-0.27865,0.46952],7],[[32.78021,262.10926],[-0.00077,-0.40602],[0.00149,0.78064],7],[[32.804,264.45107],[-0.16832,-0.76228],[0.50761,2.29879],7],[[36.8599,270.14967],[-1.59559,-1.56677],[0.44468,0.43665],7],[[38.73082,271.82677],[-0.53672,-0.35117],[0.29726,0.19449],7],[[39.64547,272.24109],[-0.31107,-0.09272],[0.00706,-0.1693],7],[[39.7892,271.78353],[-0.10235,0.12981],[0.27561,-0.34956],7],[[41.01447,271.25242],[-0.43392,0.09934],[0.29658,-0.0679],7],[[41.92628,271.29425],[-0.27885,0.1217],[0.30594,-0.13353],7],[[42.83479,270.32382],[-0.2921,0.42659],[-0.19788,-0.36521],7],[[42.35782,269.41609],[0.10892,0.20503],[-0.98196,-1.84835],7],[[39.11948,264.1091],[0.89181,1.87608],[-0.30437,-0.80005],7],[[38.34536,261.6606],[0.20501,0.83107],[0,0],7],[[38.3404,260.25586],[0,0],[0,0],7]],&quot;closed&quot;:true}]}" fill="#ffa000"/><path d="M95.93336,208.50444c1.31726,1.31726 0,2.63456 0,2.63456l-2.09471,1.89415c-3.52006,0.13515 -8.81989,0.98851 -12.06301,-0.84516c-2.94064,-1.66268 -2.52525,-3.20528 -2.42929,-6.22297c0.01107,-0.34828 0.77979,-7.72571 0.82813,-7.8897c0.66296,-2.24917 2.27862,-4.09939 3.4665,-6.1211c0.64839,-1.10353 1.10577,-2.35421 1.97756,-3.29132c0.02208,-0.02372 0.0447,-0.04674 0.06783,-0.06912l-0.00419,-0.00314c-2.62849,0.0186 -5.28124,0.06532 -7.89251,-0.0867c-1.47564,-0.08589 -3.08132,0.20732 -4.41317,-0.43389c-4.44944,-2.14225 -4.46208,-6.2034 -4.46845,-10.29025c-0.00446,-2.86541 0.50691,-6.38212 1.67474,-9.00494c0.91269,-2.04979 2.72944,-3.56249 4.05715,-5.37132c0.85588,-1.16602 1.35108,-2.67387 2.5095,-3.54004c1.00009,-0.74779 2.40129,-0.68645 3.60195,-1.0297c0,0 1.80727,-0.45181 2.25911,1.35546c0.45181,1.80727 -1.35546,2.25911 -1.35546,2.25911c-0.78645,0.15355 -1.72857,-0.03354 -2.35934,0.46066c-0.81776,0.6407 -1.03285,1.80576 -1.62392,2.66009c-1.1564,1.67149 -2.92038,2.95864 -3.73202,4.8221c-0.92934,2.13374 -1.30158,5.0684 -1.30589,7.38861c-0.00414,2.22052 -0.51372,5.73184 2.29095,6.90139c0.92941,0.38757 2.01252,0.07901 3.01931,0.10013c3.07195,0.06449 6.14777,0.07754 9.22039,0.0775h2.23547c1.02883,0 1.86291,0.83405 1.86291,1.86291c0,0.42618 -0.14311,0.8189 -0.38388,1.13279l-2.22419,2.96561l-0.07419,-0.05564c-0.55747,1.03545 -1.13181,2.06163 -1.72645,3.07576c-1.04858,1.78833 -2.55873,3.38079 -3.13192,5.37308c-0.3075,1.06878 -0.18647,2.21648 -0.29095,3.32367c-0.18318,1.94128 -0.87932,3.91379 -0.50656,5.82773c0.20221,1.03821 1.92647,0.97538 2.97707,1.09839c2.10935,0.24702 4.37807,-0.00555 6.5111,0.12785l0.88595,-1.08648c0,0 1.31726,-1.31726 2.63456,0z" fill="#000000"/><path d="M226.69242,140.23606c1.77599,-0.56231 2.3383,1.21371 2.3383,1.21371l0.81481,2.76845c-0.29786,1.50774 -0.34642,3.08703 -0.89362,4.52318c-0.34265,0.89937 -1.13166,1.55731 -1.71476,2.32298c-0.82635,1.08509 -1.48837,2.32902 -2.51322,3.22901c-0.17081,0.14998 -6.37537,3.72002 -6.75447,3.93582c-1.19518,0.68024 -2.28465,1.60749 -3.59562,2.02281c-3.48238,1.10325 -8.4021,0.757 -12.00784,0.73758c-1.02481,-0.36951 -2.23165,-0.4183 -3.07442,-1.1086c-1.01993,-0.83538 -1.54602,-2.13807 -2.25013,-3.2527c-1.6595,-2.62698 -3.2683,-5.37869 -1.99866,-8.33057c-0.96708,0.62387 -3.47522,1.67178 -4.61348,2.15568c-4.54335,1.93145 -8.87395,2.51843 -13.84548,2.36343c-1.04027,-0.03242 -2.22924,0.32685 -3.11451,-0.22042c-3.47804,-2.1502 -3.32282,-7.46636 -3.01656,-10.83809c0.12991,-1.43024 0.04235,-2.94195 0.59659,-4.26683c0.54463,-1.30197 1.72632,-2.23311 2.58951,-3.34969c0,0 1.16373,-1.45469 2.61842,-0.29095c1.45469,1.16373 0.29095,2.61842 0.29095,2.61842c-0.6885,0.82301 -1.64525,1.48172 -2.06549,2.46904c-0.4105,0.96448 -0.24034,2.08318 -0.31698,3.12857c-0.09109,1.24298 -0.6977,6.27543 1.06163,7.24456c0.40126,0.221 0.89882,-0.20043 1.35646,-0.22042c1.2022,-0.0525 2.40904,0.07838 3.61006,0.00359c3.9266,-0.24445 6.97026,-1.13748 10.50936,-2.81131c1.16357,-0.55032 5.63135,-3.25565 7.08919,-2.05677c1.17349,0.96503 0.63529,2.97887 0.77364,4.49191c0.09804,1.07192 -0.35325,2.19073 -0.06761,3.22855c0.52466,1.90624 2.56652,4.84611 4.46439,5.36485c3.07538,-0.02038 7.33485,0.3232 10.28578,-0.6117c1.05708,-0.33488 1.90282,-1.13915 2.86004,-1.69885c2.03898,-1.1922 4.38208,-1.949 6.15687,-3.50753c2.19422,-1.92689 3.30656,-4.35983 3.85981,-7.07223l-0.64658,-1.84723c0,0 -0.56231,-1.77599 1.21371,-2.3383z" fill="#000000"/><path d="M150.65923,201.34795c1.7673,-0.58908 2.3564,1.17821 2.3564,1.17821l0.74516,2.23547c0.3567,1.16998 1.1434,2.17981 1.90884,3.13385c2.32573,2.89877 4.299,6.10643 6.62847,9.03053c0.59489,0.74677 2.89297,3.98862 4.15187,4.46974c0.38024,0.1453 0.74259,-0.34063 1.08398,-0.56239c1.58011,-1.02645 2.68067,-2.65213 3.936,-4.0573c1.62028,-1.81373 3.59352,-3.29739 5.16356,-5.15478c0.57815,-0.68393 0.80872,-1.65457 1.4903,-2.23547c0.04678,-0.03988 0.09395,-0.07925 0.14145,-0.11815l-0.01805,-0.01805l2.23547,-2.23547c0.33713,-0.33713 0.80285,-0.54562 1.31726,-0.54562c1.02883,0 1.86291,0.83405 1.86291,1.86291v2.23547c-0.05563,3.55403 1.50477,5.61784 2.80244,8.89202c0.2751,0.69408 0.18372,1.5786 0.68393,2.13286c0.21905,0.24266 0.6573,-0.15923 0.90932,-0.3675c0.83186,-0.68746 1.48313,-1.57278 2.29664,-2.28189c1.81889,-1.58554 4.07712,-2.66643 5.7276,-4.42658c4.08633,-4.35784 6.19241,-10.57357 9.5234,-15.44512c2.66243,-3.89377 6.13408,-7.43559 8.9808,-11.23121c0,0 1.11774,-1.4903 2.60808,-0.37258c1.4903,1.11774 0.37258,2.60808 0.37258,2.60808c-2.81896,3.7586 -6.27171,7.26755 -8.90304,11.12361c-4.31463,6.32284 -6.83428,13.50738 -13.01355,18.34236c-2.42548,1.89781 -6.45931,7.39381 -10.2585,5.33653c-1.30864,-0.70862 -1.60353,-2.51154 -2.29668,-3.82844c-1.4371,-2.73021 -2.51812,-5.15592 -2.95198,-7.95506c-1.39998,2.36442 -4.04962,4.10128 -5.89777,6.1669c-0.86022,0.96143 -1.50503,2.11262 -2.42838,3.01361c-1.10197,1.07526 -4.2251,3.2261 -5.96456,2.79895c-2.80503,-0.68879 -4.82318,-3.77655 -6.46441,-5.81995c-3.21616,-4.00433 -7.46616,-8.51263 -9.16254,-13.31367l-0.74516,-2.23547c0,0 -0.58908,-1.7673 1.17821,-2.3564z" fill="#000000"/><path d="M135.77297,125.44549c-1.31726,-1.31726 0,-2.63456 0,-2.63456l2.23547,-2.23547c0.36216,-0.29532 0.82489,-0.49873 1.08648,-0.88595c0.00833,-0.01234 0.21095,-1.2577 -0.35903,-1.16237c-0.9742,0.16299 -1.84602,0.72539 -2.81016,0.93998c-1.84075,0.40974 -6.52203,0.97481 -8.31729,0.48276c-2.99106,-0.81986 -2.99723,-2.28918 -4.62664,-4.32771c-0.48959,-0.61252 -1.25389,-1.00634 -1.63435,-1.69199c-0.27845,-0.50186 0.23556,-1.39719 -0.24973,-1.70361c-0.54221,-0.34237 -1.25246,0.2972 -1.89139,0.35162c-0.74249,0.06326 -1.4903,0 -2.23547,0c-4.47095,0 -8.94192,0 -13.41289,0c0,0 -1.86291,0 -1.86291,-1.86291c0,-1.86291 1.86291,-1.86291 1.86291,-1.86291c4.47095,0 8.94192,0 13.41289,0c1.35114,0 5.59746,-0.06414 6.30539,0.35162c0.87169,0.51196 0.69697,1.91506 1.24057,2.76737c0.33403,0.52375 0.95797,0.80375 1.34631,1.28864c0.73137,0.91327 1.36642,2.81701 2.82499,3.12388c1.31639,0.27699 5.36298,-0.36617 6.51103,-0.57109c1.47706,-0.26363 2.94239,-1.22634 4.40864,-0.90805c3.009,0.65314 3.70954,3.78804 2.9293,6.21049c-0.28862,0.89603 -1.26277,1.39645 -1.89415,2.09471l-2.23547,2.23547c0,0 -1.31726,1.31726 -2.63456,0z" fill="#000000"/><path d="M95.65507,146.69219c0.536,1.78413 -1.24815,2.32013 -1.24815,2.32013l-0.16348,0.04911c-10.86383,3.26376 -21.76648,7.02164 -33.07102,6.91947l0.02034,0.32576l-3.7014,0.23134c-0.04404,0.00313 -0.08855,0.0047 -0.13338,0.0047c-1.02883,0 -1.86291,-0.83405 -1.86291,-1.86291c0,-0.38162 0.11478,-0.73646 0.31162,-1.03185l1.9794,-3.07216c2.21693,-3.41868 5.08661,-6.57331 8.18598,-9.42341c-0.08818,-0.21661 -0.13678,-0.4536 -0.13678,-0.70194c0,-0.44565 0.15648,-0.85476 0.41749,-1.17534l2.31822,-2.89778l0.05044,0.04035l0.07388,-0.18063c2.31167,-1.94262 4.58367,-3.83602 6.71956,-5.97453c0,0 1.31726,-1.31726 2.63456,0c0.44979,0.44979 0.59244,0.8996 0.5852,1.29696l1.67788,-0.87115c0.26457,-0.14429 0.56802,-0.22627 0.89059,-0.22627c1.02883,0 1.86291,0.83405 1.86291,1.86291c0,0.65687 -0.33997,1.23433 -0.8536,1.56605l-3.07601,2.05069c-0.23541,0.23056 -5.24638,3.43713 -5.737,3.81928c-4.60843,3.58951 -9.33741,7.91899 -12.47931,12.82965l0.04023,-0.00251l0.01829,0.29289c2.32646,-0.66986 4.59446,-0.3398 7.2578,-0.74061c8.40804,-1.26534 16.8137,-4.2074 24.93498,-6.64724l0.16348,-0.04911c0,0 1.78413,-0.536 2.32013,1.24815z" fill="#a2a2a2"/><path d="M252.2176,186.72173c0,1.86291 -1.86291,1.86291 -1.86291,1.86291h-1.4903c-9.37177,0 -18.68431,0.32093 -28.04755,0.71909c-9.56867,0.40693 -19.58271,2.37283 -28.78683,5.16128c-5.78875,1.75375 -11.45545,4.44186 -17.09822,6.6272c-6.91694,2.67878 -13.77373,5.96532 -20.95668,7.77353l0.13481,0.34463l-3.43016,1.34186c-0.22105,0.09244 -0.4637,0.14351 -0.71827,0.14351c-1.02883,0 -1.86291,-0.83405 -1.86291,-1.86291c0,-0.4588 0.16586,-0.87887 0.44091,-1.20353l2.38075,-2.85022l0.04375,0.03653l0.08785,-0.17834c1.96306,-1.55422 4.04668,-2.96579 5.89788,-4.65171c3.66637,-3.33906 6.58348,-7.51399 10.28831,-10.81149c2.77843,-2.47298 6.08099,-4.57636 9.05621,-6.81147c2.31544,-1.73945 4.68233,-4.1782 7.31604,-5.6673c-13.2923,0.19994 -26.44225,1.20502 -39.70749,2.37549c-6.94926,0.61317 -13.91002,1.60608 -20.86048,1.48761l0.02181,0.28342l-3.69445,0.28418c-0.05378,0.00467 -0.10825,0.00707 -0.16323,0.00707c-1.02883,0 -1.86291,-0.83405 -1.86291,-1.86291c0,-0.39145 0.12074,-0.7547 0.327,-1.05455l1.47617,-2.21427c0,0 1.03335,-1.55004 2.58339,-0.51669c0.76453,0.5097 0.90057,1.14511 0.84211,1.6582l0.20617,-0.01587l0.02193,0.28496c1.87507,-0.60706 3.74429,-0.55918 5.93991,-0.74352c3.7091,-0.31145 7.41599,-0.65438 11.12373,-0.98155c15.73887,-1.38873 31.34404,-2.68218 47.1481,-2.75057l0.00403,0.00127v-0.00127h2.23547c1.02883,0 1.86291,0.83405 1.86291,1.86291c0,0.60848 -0.2917,1.14878 -0.74293,1.48878l-2.93735,2.25948c-5.15091,5.21836 -12.24701,8.5393 -17.71904,13.40973c-3.69239,3.28647 -6.60065,7.45341 -10.2567,10.78307c-0.04857,0.04421 -0.38147,0.30928 -0.86579,0.69153c0.36175,-0.12715 0.72861,-0.26072 1.09949,-0.40581c3.47175,-1.35813 6.9434,-2.7162 10.41977,-4.06253c6.87674,-2.66323 13.77708,-5.92417 20.83205,-8.0624c9.5011,-2.87962 19.83822,-4.89971 29.71455,-5.31973c9.41585,-0.40044 18.78136,-0.72248 28.20583,-0.72248h1.4903c0,0 1.86291,0 1.86291,1.86291z" fill="#a2a2a2"/><path d="M173.22333,122.30149c1.8267,0.36532 1.46139,2.19208 1.46139,2.19208l-0.01448,0.07237c-0.26258,1.29568 -2.13058,6.70327 0.02709,7.7062c1.33954,0.62269 5.15187,0.42696 6.35743,0.42545c2.48386,-0.00311 4.96774,0 7.4516,0c8.69355,0 17.38706,0 26.08062,0c0,0 1.86291,0 1.86291,1.86291c0,1.86291 -1.86291,1.86291 -1.86291,1.86291c-9.93546,0 -19.87095,0 -29.80644,0c-3.45162,0 -9.0338,0.90689 -12.12688,-1.03595c-4.03637,-2.53531 -2.34767,-7.95493 -1.63692,-11.55221l0.01448,-0.07237c0,0 0.36532,-1.8267 2.19208,-1.46139z" fill="#a2a2a2"/><path d="M157.5822,118.16165c0.00528,-1.86291 1.86819,-1.85763 1.86819,-1.85763l0.79748,0.00225c5.12199,0.01452 10.08774,-0.07 15.15184,0.76825c0,0 1.83754,0.30626 1.53129,2.14379c-0.30626,1.83754 -2.14379,1.53129 -2.14379,1.53129c-4.85716,-0.8155 -9.63435,-0.70361 -14.54991,-0.71755l-0.79748,-0.00225c0,0 -1.86291,-0.00528 -1.85763,-1.86819z" fill="#a2a2a2"/><path d="M97.22416,214.29267c0,-1.02883 0.83405,-1.86291 1.86291,-1.86291c1.02883,0 1.86291,0.83405 1.86291,1.86291c0,1.02883 -0.83405,1.86291 -1.86291,1.86291c-1.02883,0 -1.86291,-0.83405 -1.86291,-1.86291z" fill="#a2a2a2"/></g></g></svg>