<svg version="1.1" xmlns="http://www.w3.org/2000/svg" xmlns:xlink="http://www.w3.org/1999/xlink" width="142.49376" height="96.11743" viewBox="0,0,142.49376,96.11743"><g transform="translate(-24.77839,-180.43602)"><g data-paper-data="{&quot;isPaintingLayer&quot;:true}" fill-rule="nonzero" stroke="none" stroke-width="0.5" stroke-linecap="butt" stroke-linejoin="miter" stroke-miterlimit="10" stroke-dasharray="" stroke-dashoffset="0" style="mix-blend-mode: normal"><path d="M43.47665,254.25911c0.87015,0 0.87015,0.87015 0.87015,0.87015l-0.00652,1.63397c0.23733,0.93385 0.54804,1.84947 0.8916,2.74968c0.8961,1.91528 2.28474,3.44573 3.35805,5.27203c0.02803,0.04769 0.62664,1.1771 1.09077,2.05289l0.48987,-0.48987c0.15747,-0.15747 0.37501,-0.25485 0.61528,-0.25485c0.48056,0 0.87015,0.38958 0.87015,0.87015v0.74026c0.06038,0.19994 0.08,0.37796 0.02595,0.57239c0.17703,-0.25424 0.36099,-0.50381 0.53913,-0.75727c0.79135,-1.12605 1.51789,-1.95457 2.47426,-2.91095l1.31141,-0.25485c0,0 0.87015,0 0.87015,0.87015c0,0.87015 -0.87015,0.87015 -0.87015,0.87015l-0.08083,-0.25485c-0.69067,0.69067 -1.20782,1.32404 -1.77123,2.03728c0.79777,-0.26499 1.58998,-0.52765 2.37428,-0.91211c2.13219,-1.04516 4.28864,-2.22821 6.63481,-2.69584c1.74779,-0.34837 3.24655,-0.64533 4.63436,0.72894c0.66635,0.65986 0.83845,1.67812 1.22908,2.53066c0.27853,0.41651 1.4905,2.2771 1.86521,2.64943c0.39698,0.39446 0.92215,0.63789 1.34707,1.0021c0.70432,0.6037 1.1361,1.53788 1.94695,1.9885c0.41814,0.23238 0.96447,0.13393 1.39223,0.34806c0.26362,0.13197 0.32225,0.55167 0.60039,0.64941c0.33377,0.11729 0.7056,-0.05668 1.05925,-0.06624c0.81183,-0.02194 1.62427,-0.00156 2.43641,0c5.88039,0.01136 11.46433,-2.87905 16.86013,-4.90248c2.49111,-0.92883 4.86075,-2.32249 6.90215,-4.02418c0.80117,-0.66785 2.54627,-2.33102 3.68815,-2.15717c0.55824,0.08499 0.53685,0.99405 0.82783,1.47798c0.61696,1.02609 1.57028,1.97379 2.53095,2.67694c2.35555,1.7241 4.65393,1.37936 7.41094,1.15946c0.53006,-0.04228 1.07519,0.01011 1.59069,-0.12034c2.04184,-0.51668 4.00353,-1.97061 5.77228,-3.0534c1.56918,-0.94257 2.28673,-2.0073 3.41973,-3.43419c2.78498,-3.50738 4.77065,-7.74081 6.58656,-11.81605c0.33462,-0.75094 0.78168,-1.46407 0.98781,-2.25993c0.15114,-0.58351 -0.181,-1.33248 0.20331,-1.79682c0.17498,-0.21142 3.12812,-0.65791 3.31416,-0.68878c2.90769,-0.48235 5.87696,-0.29795 8.82083,-0.29795c1.7401,0 3.48083,-0.01234 5.22088,0c0.51351,0.00364 1.03835,0.13127 1.54038,0.02328c0.44013,-0.09469 1.52098,-0.84173 1.95373,-1.1241c1.1183,-0.7297 3.06152,-1.7506 3.74662,-2.96912c0.21423,-0.38103 0.15139,-0.86114 0.23801,-1.28959c0.38254,-1.89201 0.76289,-4.38042 -0.21358,-6.19101c-0.13326,-0.2471 -0.42794,-0.36692 -0.61047,-0.58023c-1.01539,-1.18666 -1.9874,-2.27318 -3.49649,-2.89765c-0.40943,-0.16942 -0.88324,-0.127 -1.30005,-0.27739l-1.68211,-0.37381c-0.39817,-0.07985 -0.69811,-0.43147 -0.69811,-0.85314c0,-0.2883 0.14021,-0.54386 0.35615,-0.70219l1.34694,-1.0102c2.32549,-2.33102 4.79569,-4.59383 6.95889,-7.07764c1.12938,-1.29678 2.06351,-2.64445 3.30196,-3.84946c1.08992,-3.4507 -2.02423,-4.90294 -4.53237,-6.38571c-1.96945,-1.16431 -4.12319,-1.63157 -6.31171,-2.27875c-2.18934,-0.64742 -4.39407,-1.45688 -6.62035,-1.9597c-3.3502,-0.75665 -6.86428,-1.08284 -10.25789,-1.61913c-2.27196,-0.35903 -4.55409,-0.81989 -6.83902,-1.08154c-4.58321,-0.52485 -9.24788,-0.65977 -13.84994,-0.98849c-2.7933,-0.19952 -5.44533,-0.38287 -8.17031,-1.04489c-0.65163,-0.15831 -1.36975,-0.15835 -1.95004,-0.49442c-1.71334,-0.99227 -1.1694,-3.31096 -1.26909,-4.93225c-0.38989,-1.99363 -0.96849,-3.74658 -2.09478,-5.45729c-0.58307,-0.88562 -1.45731,-1.55254 -2.29483,-2.20281c-0.31723,-0.24631 -1.90994,-1.617 -2.00327,-1.6809c-2.15626,-1.47615 -5.06016,-1.61205 -7.55066,-1.61205c-2.65791,0 -5.41654,-0.18404 -8.03371,0.39764c-1.07375,0.23865 -2.0923,0.67962 -3.13991,1.01488c-3.19603,1.93251 -6.27025,4.1127 -9.50745,5.96279c-0.95391,0.54518 -1.94262,1.02737 -2.90371,1.55982c-0.43211,0.23939 -0.78386,0.65551 -1.26319,0.77499c-0.6431,0.1603 -1.32525,0.03114 -1.98801,0.03537c-1.05797,0.00676 -2.98933,0.09921 -3.92815,-0.49433c-1.39796,-0.88383 -1.0464,-2.11266 -1.18121,-3.44305c-0.11945,-1.17882 -0.24924,-2.3609 -0.25004,-3.54574c-0.00053,-0.76568 0.05959,-1.53287 0.01124,-2.29703c-0.01216,-0.19222 0.04213,-0.44332 -0.10443,-0.56827c-0.19106,-0.16289 -0.49208,-0.1 -0.73813,-0.15c-0.76989,-0.32923 -1.48191,-0.83678 -2.30213,-1.00514c-0.51115,-0.10492 -1.04353,0.01463 -1.56533,0.01777c-0.85138,0.00511 -1.71759,-0.19026 -2.55398,-0.03108c-0.72314,0.13762 -1.17601,0.90338 -1.6543,1.46295c-1.00747,1.17868 -1.8309,2.59692 -2.65175,3.90559c-1.22545,1.95372 -2.59806,3.8373 -3.76616,5.82427c-1.99381,3.39157 -3.63083,7.01405 -5.27832,10.58072c-0.68476,1.80739 -1.76285,3.77534 -2.02891,5.70081c-0.27189,1.96774 0.92963,5.22186 -1.14727,6.56348c-0.19742,0.12753 -2.11742,0.10296 -2.49893,0.10296c-1.71468,0 -3.10116,0.13778 -4.78707,0.34382c-0.27586,0.03372 -1.56877,-0.18144 -1.78196,0.28767c-0.17772,0.39106 0.10882,0.85303 0.12996,1.28205c0.02306,0.46805 0.00167,0.93724 0.0025,1.40586c0.00306,1.72659 0.01658,3.45292 0.02939,5.17947c0.18212,1.99368 0.20927,4.13904 0.64268,6.10112c0.80688,3.65283 2.73429,6.80874 5.07746,9.64617c1.05525,1.27785 2.05136,2.72078 3.32707,3.79572c1.35057,1.13803 2.83554,2.18472 4.39182,3.04267c0.46041,0.25382 1.00858,0.36709 1.41026,0.70629c0.01388,0.01173 0.02766,0.02354 0.04133,0.03548l0.00459,-0.00689l1.03294,0.68863c0.23989,0.15493 0.39871,0.42467 0.39871,0.73149c0,0.48056 -0.38958,0.87015 -0.87015,0.87015h-0.79824c-1.20676,1.1259 -2.42819,1.88775 -3.91385,2.62023c-0.6034,0.61362 -1.40071,1.07109 -1.83993,1.81116c-0.3663,0.61721 -0.23613,2.17007 -0.23511,2.70381c0.00196,1.0262 -0.18999,2.07639 0.03127,3.07844c0.66729,3.0219 3.23423,5.43155 5.33173,7.49117c0.58456,0.574 1.75389,1.74302 2.45944,2.20467c0.39077,0.25567 0.79346,0.42275 1.20238,0.54464c0.00928,-0.22256 0.0544,-0.43083 0.18894,-0.60149c0.36231,-0.45952 1.04028,-0.56759 1.61069,-0.69819c0.38987,-0.08926 0.83205,0.21498 1.19862,0.055c0.40218,-0.17553 0.81031,-0.71491 1.19431,-1.27569c-0.26013,-0.48009 -0.48382,-0.92374 -0.62702,-1.19327c-1.29085,-2.42977 -3.08466,-4.51013 -4.257,-6.97636c-0.40011,-1.05172 -0.74813,-2.12621 -1.01763,-3.21871l-0.00652,-1.84661c0,0 0,-0.87015 0.87015,-0.87015zM47.73402,271.77496c0.36164,0.18391 0.58845,0.55869 0.88268,0.83803c0,0 0.61528,0.61528 0,1.23058c-0.61528,0.61528 -1.23058,0 -1.23058,0c-0.38906,-0.42316 -0.81541,-0.62177 -1.27233,-0.73871c-0.00334,0.7001 0.0598,1.28224 0.7626,1.94455c0,0 0.61528,0.61528 0,1.23058c-0.61528,0.61528 -1.23058,0 -1.23058,0c-1.05034,-1.09244 -1.32758,-2.161 -1.33184,-3.49846c-0.1281,-0.03206 -0.25756,-0.06974 -0.38826,-0.11513c-0.61514,-0.21362 -1.20323,-0.51389 -1.75142,-0.86535c-0.81918,-0.52521 -2.03698,-1.74099 -2.733,-2.4237c-2.3644,-2.31911 -5.0603,-4.99243 -5.81603,-8.37616c-0.0911,-0.4079 -0.06898,-3.05738 -0.0683,-3.43554c0.00208,-1.16595 -0.14492,-2.47342 0.461,-3.56124c0.0992,-0.1781 2.16154,-2.19272 2.33677,-2.36553c1.34588,-0.68152 2.45936,-1.39766 3.60044,-2.27393c-0.24582,-0.13611 -0.4821,-0.29947 -0.72591,-0.43409c-1.34059,-0.74024 -2.44051,-1.58782 -3.61352,-2.52626c-4.63778,-3.71035 -8.7327,-9.18484 -10.04256,-15.09888c-0.45622,-2.05987 -0.49424,-4.30684 -0.68368,-6.40039c-0.01836,-2.21727 -0.11233,-4.4532 -0.03399,-6.66947c0.02594,-0.73366 -0.26048,-1.57684 0.12996,-2.19853c0.94518,-1.50502 1.88578,-0.95297 3.09085,-1.10456c1.72605,-0.21714 3.20343,-0.35229 4.95856,-0.35229c0.34806,0 0.69677,-0.02132 1.04417,0c0.21356,0.01311 0.43992,0.19391 0.63359,0.10296c0.17977,-0.08442 0.23888,-0.33365 0.27389,-0.52914c0.15463,-0.86363 -0.0399,-1.99779 -0.03733,-2.88036c0.00839,-2.89799 1.13977,-5.31935 2.15621,-7.99416c1.67783,-3.63816 3.34944,-7.33034 5.38265,-10.78893c1.17664,-2.0015 2.55748,-3.89949 3.79221,-5.86718c1.17302,-1.86936 2.95026,-5.53223 5.31926,-6.12181c0.525,-0.13065 1.08174,-0.0255 1.62272,-0.03108c0.36122,-0.00372 3.22488,0.00082 3.30748,0.01777c0.10854,0.02228 2.06075,0.86414 2.57068,1.0832c0.45008,0.18204 1.01773,0.19235 1.35023,0.54612c0.71767,0.7636 0.59894,1.79208 0.60292,2.70363c0.00711,1.63112 0.09846,3.1532 0.24218,4.77266c0.01384,0.15593 -0.20591,1.86084 0.41492,2.16086c0.58953,0.28491 2.4494,0.19532 2.9654,0.20154c0.49763,0.00598 1.00907,0.15353 1.49257,0.03564c0.35149,-0.08571 0.57908,-0.437 0.89277,-0.61724c0.45669,-0.2624 0.94888,-0.45828 1.41289,-0.70754c3.83648,-2.06084 7.39632,-4.65681 11.14037,-6.88773c0.11316,-0.03702 3.35622,-1.10142 3.48272,-1.12952c2.74602,-0.61033 5.62221,-0.4391 8.41129,-0.4391c2.82068,0 6.01727,0.22771 8.46001,1.86853c0.4551,0.3057 1.59165,1.34481 2.17342,1.79968c0.97813,0.76476 1.9713,1.57295 2.66395,2.60341c1.29026,1.91958 1.93304,3.95314 2.37229,6.19999c0.06916,1.09011 -0.09224,2.19985 0.09809,3.27544c0.0302,0.17063 0.18282,0.32758 0.34484,0.38901c3.41525,1.29483 7.49602,1.16096 11.08025,1.41697c4.05002,0.28928 8.1546,0.40947 12.18808,0.87137c2.30961,0.26449 4.61619,0.72868 6.91267,1.09157c3.43136,0.54224 6.98198,0.87545 10.36964,1.64056c2.26352,0.51122 4.5046,1.33015 6.73045,1.98838c2.33422,0.69026 4.59254,1.21196 6.70096,2.44782c2.87812,1.68702 6.202,3.50522 5.59678,7.43816c-0.07301,0.47441 -0.31118,0.90817 -0.46677,1.36225c-1.27127,1.30092 -2.28066,2.71189 -3.46997,4.07748c-2.21926,2.54819 -4.75053,4.87488 -7.14185,7.26028l-0.06781,0.01241l0.01233,0.01645c1.15331,-0.0435 2.03954,0.4583 3.19815,1.22383c0.96392,0.63689 1.76395,1.50786 2.51067,2.38943c0.24284,0.28669 0.60705,0.47937 0.78177,0.81201c1.17983,2.2463 0.9618,5.09361 0.43533,7.46837c-0.13023,0.58746 -0.11439,1.2342 -0.41089,1.75782c-0.33362,0.58917 -0.91466,1.0007 -1.41155,1.46061c-1.30503,1.20791 -3.60779,3.08363 -5.41821,3.49567c-0.63066,0.14354 -1.29344,0.01919 -1.94022,0.02328c-1.7401,0.011 -3.48074,0 -5.22088,0c-2.84341,0 -5.72773,-0.19582 -8.53473,0.27426c-0.57958,0.09705 -1.15232,0.25609 -1.73902,0.28953c-0.19466,0.01109 -0.48552,-0.33716 -0.56312,-0.15829c-0.13377,0.30836 0.26737,0.65769 0.20331,0.98764c-0.23356,1.20318 -1.31274,3.08018 -1.82453,4.20582c-1.66989,3.67273 -3.58076,7.43329 -6.09112,10.60168c-1.25955,1.58973 -2.13676,2.75618 -3.87458,3.83698c-1.92548,1.17874 -4.02785,2.69188 -6.24921,3.25504c-0.06941,0.01759 -3.49826,0.30788 -3.64009,0.31511c-1.11379,0.0568 -2.25336,0.27222 -3.34539,0.04594c-2.15436,-0.4464 -4.37258,-2.09508 -5.73524,-3.7824c-0.30564,-0.37845 -0.63822,-0.75973 -0.80689,-1.216c-0.07217,-0.19523 0.32988,-0.67407 0.13172,-0.61038c-0.33182,0.10664 -0.43319,0.54929 -0.68652,0.78868c-0.07291,0.0689 -2.66839,2.22454 -2.67801,2.23127c-1.8299,1.28347 -3.92887,2.3738 -6.01094,3.15867c-5.62204,2.10827 -11.34876,5.00223 -17.47119,5.01328c-1.21067,0.00218 -3.02838,0.29802 -4.16163,-0.06624c-0.34455,-0.11075 -0.46808,-0.58112 -0.79184,-0.74282c-0.42794,-0.21375 -0.97931,-0.10655 -1.39223,-0.34806c-0.2927,-0.1712 -1.88621,-1.89373 -2.22975,-2.18819c-0.45598,-0.39083 -1.01394,-0.66038 -1.4374,-1.08625c-0.55394,-0.55707 -1.71711,-2.37418 -2.15382,-3.03105c-0.27586,-0.59738 -0.7505,-2.40177 -1.65975,-2.66842c-0.75497,-0.22139 -1.5734,0.11375 -2.34514,0.26675c-2.75507,0.54617 -4.94662,2.35534 -7.56627,3.20551c-0.55116,0.17887 -1.15482,0.15777 -1.70465,0.34067c-1.10931,0.36901 -2.89697,1.83479 -4.20501,0.99427c-0.17535,-0.11267 -0.37264,-0.33282 -0.57612,-0.61126c-0.39411,0.53646 -0.83116,1.03323 -1.46476,1.3441c-0.47486,0.23297 -1.05708,0.04144 -1.58584,0.055c-0.11521,0.00296 -0.27164,-0.07138 -0.37984,-0.06059c0.57928,0.1108 1.15554,0.24916 1.71335,0.53283z" fill="#000000"/><path d="M42.62204,255.1214l0.0063,1.84618c0.2695,1.09249 0.61704,2.16619 1.01716,3.21789c1.17234,2.46622 2.96481,4.54471 4.25567,6.97448c0.14318,0.26952 0.36666,0.7129 0.62678,1.19299c-0.38398,0.56078 -0.81863,1.12272 -1.22082,1.29825c-0.36657,0.15998 -0.80889,-0.14443 -1.19876,-0.05517c-0.57041,0.13059 -1.22153,0.21652 -1.58385,0.67603c-0.13455,0.17064 -0.20653,0.40106 -0.21581,0.6236c-0.40892,-0.12189 -0.81181,-0.2892 -1.20256,-0.54487c-0.70555,-0.46163 -1.87538,-1.63132 -2.45994,-2.20532c-2.0975,-2.05962 -4.66568,-4.47123 -5.33297,-7.49315c-0.22127,-1.00206 -0.02964,-2.05287 -0.03159,-3.07907c-0.00101,-0.53374 -0.13144,-2.08716 0.23486,-2.70436c0.43922,-0.74009 1.23642,-1.19778 1.83984,-1.8114c1.48567,-0.73247 2.707,-1.49455 3.91375,-2.62046l0.83044,-0.01321c0.48056,0 0.83793,-0.37641 0.83793,-0.85698c0,-0.30682 -0.15889,-0.57679 -0.3988,-0.73172l-1.03305,-0.68891l-0.00459,0.00689c-0.01367,-0.01192 -0.02746,-0.02377 -0.04134,-0.03549c-0.40168,-0.33921 -0.94996,-0.45279 -1.41037,-0.70662c-1.55628,-0.85795 -3.0416,-1.90579 -4.39216,-3.04382c-1.2757,-1.07494 -2.27209,-2.51907 -3.32734,-3.7969c-2.34318,-2.83743 -4.27088,-5.99597 -5.07777,-9.64881c-0.43341,-1.96208 -0.46054,-4.10897 -0.64266,-6.10266c-0.01282,-1.72653 -0.02621,-3.45416 -0.02928,-5.18074c-0.00083,-0.46862 0.02061,-0.93815 -0.00245,-1.40621c-0.02114,-0.42902 -0.30762,-0.89131 -0.12991,-1.28237c0.21318,-0.4691 1.50612,-0.25409 1.78198,-0.28781c1.68593,-0.20604 3.07245,-0.34413 4.78712,-0.34413c0.38151,0 2.30154,0.02441 2.49897,-0.10311c2.07689,-1.34163 0.87584,-4.59755 1.14773,-6.56529c0.26604,-1.92545 1.34473,-3.89501 2.02949,-5.7024c1.6475,-3.56667 3.28608,-7.19205 5.27989,-10.58362c1.16809,-1.98697 2.54186,-3.8721 3.76731,-5.82581c0.82085,-1.30867 1.64515,-2.72786 2.65262,-3.90654c0.47829,-0.55957 0.93158,-1.32576 1.65472,-1.46338c0.83638,-0.15917 1.70298,0.03585 2.55435,0.03073c0.5218,-0.00313 1.05444,-0.12291 1.56559,-0.018c0.82023,0.16836 1.53249,0.67571 2.30238,1.00493c0.24605,0.05001 0.54716,-0.01297 0.73823,0.14991c0.14656,0.12495 0.11439,0.40293 0.12657,0.59514c0.04835,0.76416 -0.01141,1.53104 -0.01088,2.29672c0.00082,1.18485 0.13111,2.36646 0.25057,3.54527c0.13481,1.33039 -0.24106,2.53432 1.15689,3.41815c0.93882,0.59355 2.87083,0.50045 3.92881,0.49371c0.66276,-0.00423 1.34535,0.12453 1.98845,-0.03576c0.47933,-0.11947 0.83151,-0.53595 1.26362,-0.77534c0.96108,-0.53245 1.95081,-1.01539 2.90472,-1.56057c3.2372,-1.8501 6.31526,-4.03226 9.51129,-5.96476c1.04761,-0.33527 2.06736,-0.77663 3.14111,-1.01528c2.61718,-0.58168 5.37882,-0.39822 8.03674,-0.39822c2.4905,0 5.39741,0.13586 7.55367,1.61201c0.09333,0.0639 1.68694,1.43467 2.00417,1.68098c0.83752,0.65027 1.71286,1.31738 2.29594,2.203c1.1263,1.71071 1.70642,3.46402 2.09629,5.45764c0.0997,1.62129 -0.44284,3.94045 1.2705,4.93271c0.58029,0.33607 1.29946,0.33654 1.95109,0.49485c2.72498,0.66204 5.38048,0.84749 8.17377,1.04701c4.60207,0.32872 9.27001,0.46699 13.85321,0.99184c2.28492,0.26166 4.56805,0.724 6.84001,1.08303c3.39361,0.53628 6.90862,0.86429 10.25882,1.62093c2.22628,0.50282 4.43148,1.31343 6.62082,1.96085c2.18852,0.64719 4.3426,1.1155 6.31206,2.27981c2.50815,1.48277 5.62271,2.93679 4.5328,6.38749c-1.23844,1.20501 -2.17245,2.55351 -3.30183,3.85029c-2.16319,2.48381 -4.63327,4.74842 -6.95875,7.07944l-1.34693,1.01049c-0.21596,0.15834 -0.35615,0.4141 -0.35615,0.70241c0,0.42167 0.29994,0.77355 0.69811,0.8534l1.68211,0.3739c0.4168,0.1504 0.89062,0.10803 1.30005,0.27746c1.50909,0.62447 2.48105,1.71174 3.49645,2.89841c0.18253,0.21331 0.4772,0.33328 0.61046,0.58037c0.97647,1.81059 0.59592,4.30059 0.21338,6.19261c-0.08663,0.42846 -0.02385,0.9089 -0.23807,1.28993c-0.6851,1.21852 -2.62855,2.2404 -3.74684,2.9701c-0.43275,0.28238 -1.51371,1.02984 -1.95383,1.12453c-0.50203,0.108 -1.0269,-0.01952 -1.5404,-0.02316c-1.74005,-0.01234 -3.48091,0.00043 -5.22101,0.00043c-2.94386,0 -5.91349,-0.18338 -8.82119,0.29897c-0.18604,0.03087 -3.13945,0.47803 -3.31443,0.68945c-0.38433,0.46436 -0.05245,1.21393 -0.2036,1.79743c-0.20615,0.79586 -0.65364,1.50983 -0.98826,2.26077c-1.81591,4.07522 -3.80466,8.3127 -6.58964,11.82009c-1.13301,1.42689 -1.8519,2.4928 -3.42108,3.43537c-1.76876,1.08281 -3.73242,2.53809 -5.77427,3.05477c-0.51549,0.13044 -1.0611,0.07832 -1.59116,0.1206c-2.75701,0.2199 -5.05766,0.56568 -7.41321,-1.15842c-0.96067,-0.70315 -1.91461,-1.65062 -2.53157,-2.67671c-0.29098,-0.48393 -0.26974,-1.39294 -0.82798,-1.47792c-1.14188,-0.17385 -2.88883,1.48981 -3.69002,2.15766c-2.0414,1.70169 -4.41425,3.09569 -6.90536,4.02452c-5.39581,2.02343 -10.9858,4.91284 -16.86619,4.90148c-0.81214,-0.00156 -1.62533,-0.02222 -2.43716,-0.00029c-0.35364,0.00956 -0.72578,0.18339 -1.05955,0.06611c-0.27814,-0.09774 -0.33703,-0.51756 -0.60065,-0.64953c-0.42776,-0.21413 -0.97455,-0.11589 -1.39267,-0.34827c-0.81085,-0.45062 -1.24344,-1.38522 -1.94777,-1.98893c-0.42492,-0.36421 -0.9506,-0.60793 -1.34758,-1.00241c-0.37472,-0.37234 -1.5876,-2.23349 -1.86613,-2.65001c-0.39062,-0.85255 -0.56346,-1.87136 -1.22983,-2.5312c-1.3878,-1.37426 -2.8877,-1.07824 -4.63549,-0.72987c-2.34617,0.46764 -4.50332,1.65001 -6.63552,2.69517c-0.78431,0.38446 -1.57674,0.6469 -2.37451,0.91189c0.56341,-0.71324 1.10585,-1.37052 1.79652,-2.06119l0.08078,0.2548c0,0 0.8449,0.02396 0.8449,-0.84618c0,-0.87015 -0.87041,-0.87044 -0.87041,-0.87044l-1.31155,0.2547c-0.95637,0.95637 -1.65691,1.76174 -2.44828,2.88778c-0.17814,0.25347 -0.38793,0.52636 -0.56495,0.7806c0.05405,-0.19442 0.03435,-0.37253 -0.02604,-0.57248l-0.00011,-0.74037c0,-0.48056 -0.38981,-0.87042 -0.87038,-0.87042c-0.24029,0 -0.45786,0.09734 -0.61532,0.25481l-0.48987,0.48988c-0.46415,-0.87579 -1.06315,-2.00571 -1.09119,-2.0534c-1.07331,-1.8263 -2.46299,-3.35823 -3.35909,-5.27353c-0.34356,-0.90021 -0.65469,-1.81654 -0.89202,-2.75039l0.00632,-1.63434c0,0 -0.00016,-0.87045 -0.87031,-0.87045c-0.87015,0 -0.83903,0.85454 -0.83903,0.85454z" data-paper-data="{&quot;noHover&quot;:false,&quot;origItem&quot;:[&quot;Path&quot;,{&quot;applyMatrix&quot;:true,&quot;selected&quot;:true,&quot;segments&quot;:[[[39.00233,259.59394],[-0.66193,0],[0.66193,0],7],[[39.66426,260.25586],[0,0],[0,0],7],[[39.6593,261.49884],[0,0],[0.18054,0.71039],7],[[40.33756,263.59055],[-0.26135,-0.6848],[0.68167,1.45697],7],[[42.89206,267.60103],[-0.81648,-1.38928],[0.02132,0.03628],7],[[43.72182,269.16269],[-0.35308,-0.66622],[0,0],7],[[44.09447,268.79003],[0,0],[0.11979,-0.11979],7],[[44.56253,268.59616],[-0.18279,0],[0.36557,0],7],[[45.22445,269.25808],[0,-0.36557],[0,0],7],[[45.22445,269.82121],[0,0],[0.04593,0.1521],7],[[45.24419,270.25662],[0.04112,-0.1479],[0.13467,-0.1934],7],[[45.65431,269.68056],[-0.13551,0.19282],[0.60199,-0.8566],7],[[47.5365,267.46617],[-0.72752,0.72752],[0,0],7],[[48.53409,267.2723],[0,0],[0,0],7],[[49.19602,267.93423],[0,-0.66193],[0,0.66193],7],[[48.53409,268.59616],[0,0],[0,0],7],[[48.47261,268.40228],[0,0],[-0.5254,0.5254],7],[[47.12521,269.95206],[0.42859,-0.54257],[0.60687,-0.20158],7],[[48.93136,269.25821],[-0.59663,0.29246],[1.62198,-0.79506],7],[[53.97852,267.20746],[-1.78475,0.35574],[1.32956,-0.26501],7],[[57.50391,267.76196],[-1.05571,-1.04541],[0.5069,0.50196],7],[[58.43888,269.68707],[-0.29715,-0.64854],[0.21188,0.31684],7],[[59.85777,271.70251],[-0.28505,-0.28324],[0.30199,0.30007],7],[[60.88249,272.46482],[-0.32324,-0.27706],[0.53578,0.45924],7],[[62.36356,273.9775],[-0.61682,-0.34279],[0.31808,0.17677],7],[[63.42264,274.24227],[-0.3254,-0.16289],[0.20054,0.10039],7],[[63.87936,274.73628],[-0.21158,-0.07435],[0.2539,0.08922],7],[[64.68514,274.68589],[-0.26902,0.00727],[0.61757,-0.01669],7],[[66.53853,274.68589],[-0.6178,-0.00119],[4.47327,0.00864],7],[[79.36419,270.95654],[-4.10464,1.53924],[1.89501,-0.70657],7],[[84.61473,267.89531],[-1.55291,1.29449],[0.60946,-0.50804],7],[[87.42034,266.25433],[-0.86864,-0.13225],[0.42466,0.06465],7],[[88.05008,267.37864],[-0.22135,-0.36813],[0.46933,0.78056],7],[[89.97539,269.415],[-0.73079,-0.53489],[1.79189,1.31154],7],[[95.61297,270.29701],[-2.09728,0.16728],[0.40322,-0.03216],7],[[96.82302,270.20547],[-0.39214,0.09923],[1.55325,-0.39304],7],[[101.21404,267.88272],[-1.34551,0.8237],[1.19369,-0.71702],7],[[103.81547,265.2703],[-0.86189,1.08545],[2.11856,-2.6681],7],[[108.82593,256.28173],[-1.38138,3.10006],[0.25455,-0.57125],7],[[109.57737,254.56258],[-0.15682,0.60542],[0.11497,-0.44388],7],[[109.73203,253.19572],[-0.29236,0.35324],[0.13311,-0.16083],7],[[112.25314,252.67176],[-0.14152,0.02348],[2.21191,-0.36693],7],[[118.96323,252.44511],[-2.23942,0],[1.32371,0],7],[[122.93479,252.44511],[-1.32367,-0.00939],[0.39063,0.00277],7],[[124.10657,252.46282],[-0.3819,0.08216],[0.33481,-0.07203],7],[[125.59278,251.60771],[-0.3292,0.21481],[0.8507,-0.55509],7],[[128.44287,249.34907],[-0.52116,0.92694],[0.16297,-0.28985],7],[[128.62393,248.36806],[-0.0659,0.32593],[0.291,-1.43927],7],[[128.46146,243.65851],[0.74281,1.37733],[-0.10137,-0.18797],7],[[127.99707,243.21712],[0.13885,0.16227],[-0.77242,-0.9027],7],[[125.33726,241.01285],[1.14798,0.47504],[-0.31146,-0.12888],7],[[124.3483,240.80183],[0.31706,0.11441],[0,0],7],[[123.0687,240.51748],[0,0],[-0.30289,-0.06074],7],[[122.53764,239.86848],[0,0.32077],[0,-0.21931],7],[[122.80857,239.33432],[-0.16428,0.12045],[0,0],7],[[123.8332,238.56585],[0,0],[1.76902,-1.77323],7],[[129.12689,233.18182],[-1.64556,1.88946],[0.85913,-0.98647],7],[[131.63872,230.2535],[-0.94209,0.91666],[0.82911,-2.62498],7],[[128.19089,225.39583],[1.90797,1.12796],[-1.49818,-0.8857],7],[[123.38952,223.66236],[1.66483,0.49232],[-1.66545,-0.4925],7],[[118.35336,222.17161],[1.69355,0.3825],[-2.54853,-0.57559],7],[[110.55009,220.93992],[2.58155,0.40795],[-1.7283,-0.27312],7],[[105.34758,220.11718],[1.73816,0.19905],[-3.48649,-0.39926],7],[[94.8118,219.36523],[3.50084,0.25006],[-2.12489,-0.15178],7],[[88.59657,218.57036],[2.07292,0.50362],[-0.4957,-0.12043],7],[[87.11316,218.19426],[0.44143,0.25565],[-1.30335,-0.75483],7],[[86.14775,214.44225],[0.07584,1.23333],[-0.29659,-1.51657],7],[[84.55422,210.29084],[0.85679,1.30135],[-0.44355,-0.6737],7],[[82.80853,208.61514],[0.63711,0.49467],[-0.24132,-0.18737],7],[[81.28461,207.33646],[0.071,0.04861],[-1.64029,-1.12292],7],[[75.54075,206.11016],[1.89455,0],[-2.0219,0],7],[[69.42943,206.41265],[1.99091,-0.44249],[-0.81681,0.18154],7],[[67.04087,207.18469],[0.79693,-0.25504],[-2.43125,1.47008],7],[[59.80846,211.72064],[2.46257,-1.40739],[-0.72565,0.41472],7],[[57.59959,212.9072],[0.7311,-0.40504],[-0.32871,0.18211],7],[[56.63867,213.49674],[0.36463,-0.09088],[-0.48921,0.12194],7],[[55.12637,213.52365],[0.50417,-0.00322],[-0.80481,0.00514],7],[[52.13819,213.14761],[0.71417,0.45152],[-1.06344,-0.67234],7],[[51.23964,210.52846],[0.10255,1.01204],[-0.09087,-0.89674],7],[[51.04942,207.83117],[0.00062,0.90133],[-0.0004,-0.58246],7],[[51.05797,206.0838],[0.03678,0.5813],[-0.00925,-0.14622],7],[[50.97852,205.65151],[0.11149,0.09505],[-0.14534,-0.12391],7],[[50.41703,205.53741],[0.18717,0.03804],[-0.58566,-0.25045],7],[[48.66577,204.77279],[0.62396,0.12807],[-0.38884,-0.07981],7],[[47.47501,204.7863],[0.39694,-0.00238],[-0.64765,0.00389],7],[[45.53217,204.76266],[0.63624,-0.12108],[-0.5501,0.10469],7],[[44.27374,205.87554],[0.36384,-0.42567],[-0.76639,0.89663],7],[[42.25652,208.84656],[0.62443,-0.99552],[-0.93221,1.48621],7],[[39.39157,213.27715],[0.88858,-1.51151],[-1.51671,2.58],7],[[35.3763,221.326],[1.25327,-2.7132],[-0.5209,1.3749],7],[[33.8329,225.66265],[0.20238,-1.46471],[-0.20683,1.49688],7],[[32.96016,230.65556],[1.57991,-1.02059],[-0.15018,0.09701],7],[[31.0592,230.73388],[0.29022,0],[-1.30437,0],7],[[27.41763,230.99543],[1.2825,-0.15674],[-0.20985,0.02565],7],[[26.06207,231.21426],[0.16217,-0.35685],[-0.13519,0.29748],7],[[26.16093,232.18953],[-0.01608,-0.32636],[0.01754,0.35605],7],[[26.16283,233.25899],[-0.00063,-0.35648],[0.00233,1.31343],7],[[26.18519,237.19905],[-0.00975,-1.31339],[0.13854,1.51661],7],[[26.67407,241.84023],[-0.3297,-1.49257],[0.6138,2.77874],7],[[30.53655,249.17816],[-1.78248,-2.15846],[0.80274,0.97207],7],[[33.06748,252.0656],[-0.97044,-0.81772],[1.02739,0.86571],7],[[36.40837,254.38019],[-1.18388,-0.65265],[0.35024,0.19308],7],[[37.48117,254.91748],[-0.30556,-0.25804],[0.01056,0.00892],7],[[37.51261,254.94446],[-0.0104,-0.00907],[0,0],7],[[37.51611,254.93923],[0,0],[0,0],7],[[38.30188,255.46307],[0,0],[0.18249,0.11786],7],[[38.60518,256.01953],[0,-0.2334],[0,0.36557],7],[[37.94325,256.68145],[0.36557,0],[0,0],7],[[37.33602,256.68145],[0,0],[-0.91799,0.85648],7],[[34.35872,258.67468],[1.13016,-0.5572],[-0.45901,0.46679],7],[[32.95906,260.05245],[0.33412,-0.56299],[-0.27865,0.46952],7],[[32.78021,262.10926],[-0.00077,-0.40602],[0.00149,0.78064],7],[[32.804,264.45107],[-0.16832,-0.76228],[0.50761,2.29879],7],[[36.8599,270.14967],[-1.59559,-1.56677],[0.44468,0.43665],7],[[38.73082,271.82677],[-0.53672,-0.35117],[0.29726,0.19449],7],[[39.64547,272.24109],[-0.31107,-0.09272],[0.00706,-0.1693],7],[[39.7892,271.78353],[-0.10235,0.12981],[0.27561,-0.34956],7],[[41.01447,271.25242],[-0.43392,0.09934],[0.29658,-0.0679],7],[[41.92628,271.29425],[-0.27885,0.1217],[0.30594,-0.13353],7],[[42.83479,270.32382],[-0.2921,0.42659],[-0.19788,-0.36521],7],[[42.35782,269.41609],[0.10892,0.20503],[-0.98196,-1.84835],7],[[39.11948,264.1091],[0.89181,1.87608],[-0.30437,-0.80005],7],[[38.34536,261.6606],[0.20501,0.83107],[0,0],7],[[38.3404,260.25586],[0,0],[0,0],7]],&quot;closed&quot;:true}]}" fill="#ffa000"/><path d="M58.01427,244.76834c0.61528,0.61528 0,1.23058 0,1.23058l-0.97842,0.88474c-1.64419,0.06313 -4.11969,0.46173 -5.63453,-0.39476c-1.37355,-0.77662 -1.17952,-1.49716 -1.1347,-2.90669c0.00517,-0.16268 0.36424,-3.60862 0.38681,-3.68521c0.30966,-1.05057 1.06432,-1.91479 1.61917,-2.85911c0.30286,-0.51545 0.5165,-1.09963 0.9237,-1.53735c0.01031,-0.01108 0.02088,-0.02183 0.03168,-0.03229l-0.00196,-0.00147c-1.22775,0.00869 -2.46682,0.03051 -3.68653,-0.0405c-0.68926,-0.04012 -1.43926,0.09684 -2.06135,-0.20267c-2.0783,-1.00063 -2.0842,-2.89755 -2.08717,-4.80649c-0.00208,-1.33841 0.23677,-2.98103 0.78226,-4.20613c0.42631,-0.95744 1.2749,-1.66401 1.89506,-2.5089c0.39977,-0.54464 0.63108,-1.24894 1.17217,-1.65352c0.46713,-0.34929 1.12162,-0.32063 1.68244,-0.48096c0,0 0.84416,-0.21104 1.05521,0.63312c0.21104,0.84416 -0.63312,1.05521 -0.63312,1.05521c-0.36734,0.07172 -0.8074,-0.01566 -1.10202,0.21517c-0.38197,0.29926 -0.48244,0.84345 -0.75852,1.2425c-0.54014,0.78074 -1.36408,1.38196 -1.7432,2.25236c-0.43409,0.99665 -0.60796,2.3674 -0.60997,3.45115c-0.00193,1.03719 -0.23996,2.6773 1.07008,3.22358c0.43412,0.18103 0.94003,0.0369 1.41029,0.04677c1.43488,0.03012 2.87157,0.03622 4.30677,0.0362h1.04417c0.48056,0 0.87015,0.38958 0.87015,0.87015c0,0.19906 -0.06685,0.3825 -0.17931,0.52912l-1.0389,1.38521l-0.03465,-0.02599c-0.26039,0.48365 -0.52866,0.96297 -0.80641,1.43666c-0.48978,0.83531 -1.19516,1.57914 -1.4629,2.50972c-0.14363,0.49922 -0.0871,1.0353 -0.1359,1.55246c-0.08556,0.90676 -0.41072,1.8281 -0.23661,2.72208c0.09445,0.48494 0.89984,0.45559 1.39056,0.51305c0.98526,0.11538 2.04496,-0.00259 3.04128,0.05972l0.41382,-0.50749c0,0 0.61528,-0.61528 1.23058,0z" fill="#000000"/><path d="M119.09071,212.88076c0.82955,-0.26265 1.0922,0.56691 1.0922,0.56691l0.38059,1.29312c-0.13913,0.70425 -0.16181,1.44192 -0.4174,2.11274c-0.16005,0.42009 -0.52859,0.7274 -0.80095,1.08505c-0.38598,0.50684 -0.69521,1.08787 -1.1739,1.50824c-0.07978,0.07005 -2.97788,1.73759 -3.15496,1.83839c-0.55826,0.31774 -1.06714,0.75085 -1.67949,0.94484c-1.62659,0.51532 -3.92455,0.35359 -5.60876,0.34452c-0.47868,-0.1726 -1.04238,-0.19538 -1.43604,-0.51782c-0.4764,-0.3902 -0.72213,-0.99867 -1.05102,-1.51931c-0.77514,-1.22704 -1.52659,-2.51234 -0.93356,-3.89114c-0.45172,0.2914 -1.62325,0.78088 -2.15492,1.0069c-2.12216,0.90217 -4.14495,1.17634 -6.46711,1.10394c-0.4859,-0.01514 -1.04126,0.15267 -1.45476,-0.10296c-1.62456,-1.00434 -1.55206,-3.48747 -1.40901,-5.06238c0.06068,-0.66805 0.01978,-1.37416 0.27866,-1.993c0.25439,-0.60814 0.80635,-1.04307 1.20954,-1.56461c0,0 0.54357,-0.67947 1.22304,-0.1359c0.67947,0.54357 0.1359,1.22304 0.1359,1.22304c-0.32159,0.38442 -0.76848,0.6921 -0.96477,1.15327c-0.19174,0.4505 -0.11226,0.97304 -0.14806,1.46133c-0.04255,0.58059 -0.32589,2.9312 0.49588,3.38387c0.18742,0.10323 0.41983,-0.09362 0.63359,-0.10296c0.56154,-0.02452 1.12524,0.03661 1.68623,0.00168c1.83408,-0.11418 3.25575,-0.53131 4.90883,-1.31314c0.54349,-0.25705 2.63035,-1.52069 3.3113,-0.9607c0.54813,0.45076 0.29674,1.39141 0.36136,2.09813c0.04579,0.50069 -0.165,1.02327 -0.03158,1.50803c0.24507,0.89039 1.1988,2.26358 2.08528,2.50588c1.43649,-0.00952 3.42605,0.15096 4.8044,-0.28572c0.49375,-0.15642 0.88879,-0.53208 1.3359,-0.79352c0.95239,-0.55687 2.04683,-0.91036 2.87582,-1.63834c1.0249,-0.90003 1.54447,-2.03644 1.80288,-3.30338l-0.30201,-0.86283c0,0 -0.26265,-0.82955 0.56691,-1.0922z" fill="#000000"/><path d="M83.57625,241.4256c0.82549,-0.27516 1.10066,0.55033 1.10066,0.55033l0.34806,1.04417c0.16661,0.54649 0.53407,1.01817 0.8916,1.46379c1.08633,1.35399 2.00803,2.85226 3.0961,4.21808c0.27787,0.34881 1.35128,1.86305 1.9393,2.08778c0.17761,0.06787 0.34686,-0.15911 0.50632,-0.26269c0.73806,-0.47945 1.25212,-1.23878 1.83847,-1.89513c0.75682,-0.84718 1.6785,-1.54018 2.41185,-2.40775c0.27005,-0.31946 0.37775,-0.77283 0.69611,-1.04417c0.02185,-0.01863 0.04388,-0.03702 0.06607,-0.05519l-0.00843,-0.00843l1.04417,-1.04417c0.15747,-0.15747 0.37501,-0.25485 0.61528,-0.25485c0.48056,0 0.87015,0.38958 0.87015,0.87015v1.04417c-0.02598,1.66006 0.70286,2.62405 1.309,4.15339c0.1285,0.3242 0.08581,0.73735 0.31946,0.99624c0.10231,0.11335 0.30702,-0.07438 0.42474,-0.17166c0.38856,-0.32111 0.69276,-0.73463 1.07274,-1.06585c0.84959,-0.74059 1.90439,-1.24547 2.67532,-2.06762c1.90869,-2.03551 2.89242,-4.93882 4.4483,-7.21428c1.2436,-1.81875 2.86518,-3.4731 4.19486,-5.24601c0,0 0.52209,-0.69611 1.21821,-0.17403c0.69611,0.52209 0.17403,1.21821 0.17403,1.21821c-1.31671,1.75561 -2.92946,3.39461 -4.15854,5.19574c-2.01533,2.95335 -3.19223,6.30918 -6.07852,8.56756c-1.13292,0.88645 -3.01709,3.45358 -4.79166,2.49265c-0.61125,-0.33099 -0.749,-1.17312 -1.07276,-1.78823c-0.67126,-1.27526 -1.17619,-2.40829 -1.37884,-3.71574c-0.65392,1.1044 -1.89154,1.91567 -2.7548,2.88051c-0.4018,0.44908 -0.70299,0.98679 -1.13427,1.40763c-0.51472,0.50225 -1.97351,1.50688 -2.786,1.30737c-1.3102,-0.32173 -2.25287,-1.76399 -3.01947,-2.71845c-1.50224,-1.87039 -3.48738,-3.97618 -4.27974,-6.2187l-0.34806,-1.04417c0,0 -0.27516,-0.82549 0.55033,-1.10066z" fill="#000000"/><path d="M76.62301,205.97221c-0.61528,-0.61528 0,-1.23058 0,-1.23058l1.04417,-1.04417c0.16916,-0.13794 0.3853,-0.23295 0.50749,-0.41382c0.00389,-0.00576 0.09854,-0.58746 -0.1677,-0.54293c-0.45504,0.07613 -0.86226,0.33882 -1.3126,0.43906c-0.8598,0.19139 -3.04639,0.45533 -3.88493,0.22549c-1.3971,-0.38295 -1.39998,-1.06925 -2.16106,-2.02144c-0.22868,-0.2861 -0.58568,-0.47005 -0.76339,-0.79031c-0.13006,-0.23441 0.11003,-0.65261 -0.11665,-0.79574c-0.25326,-0.15992 -0.58501,0.13882 -0.88345,0.16424c-0.34681,0.02955 -0.69611,0 -1.04417,0c-2.08835,0 -4.17669,0 -6.26505,0c0,0 -0.87015,0 -0.87015,-0.87015c0,-0.87015 0.87015,-0.87015 0.87015,-0.87015c2.08835,0 4.17669,0 6.26505,0c0.6311,0 2.61453,-0.02996 2.94519,0.16424c0.40716,0.23913 0.32555,0.89451 0.57946,1.29261c0.15603,0.24464 0.44746,0.37543 0.62885,0.60191c0.34162,0.42658 0.63825,1.3158 1.31953,1.45914c0.61487,0.12938 2.505,-0.17104 3.04125,-0.26675c0.68992,-0.12314 1.37436,-0.57281 2.05924,-0.42414c1.40548,0.30508 1.7327,1.76936 1.36825,2.90087c-0.13481,0.41853 -0.58983,0.65227 -0.88474,0.97842l-1.04417,1.04417c0,0 -0.61528,0.61528 -1.23058,0z" fill="#000000"/><path d="M57.88428,215.89636c0.25036,0.83335 -0.583,1.08371 -0.583,1.08371l-0.07636,0.02294c-5.0744,1.52447 -10.16694,3.27975 -15.44719,3.23202l0.0095,0.15216l-1.72889,0.10806c-0.02057,0.00146 -0.04136,0.0022 -0.0623,0.0022c-0.48056,0 -0.87015,-0.38958 -0.87015,-0.87015c0,-0.17825 0.05361,-0.34399 0.14556,-0.48197l0.92456,-1.43498c1.03551,-1.59684 2.37591,-3.07034 3.8236,-4.40159c-0.04119,-0.10118 -0.06389,-0.21187 -0.06389,-0.32787c0,-0.20816 0.07309,-0.39925 0.195,-0.54899l1.08282,-1.35353l0.02356,0.01885l0.03451,-0.08437c1.07976,-0.90738 2.141,-1.79177 3.13865,-2.79065c0,0 0.61528,-0.61528 1.23058,0c0.21009,0.21009 0.27672,0.4202 0.27334,0.6058l0.78373,-0.40691c0.12358,-0.0674 0.26532,-0.10569 0.41599,-0.10569c0.48056,0 0.87015,0.38958 0.87015,0.87015c0,0.30682 -0.1588,0.57655 -0.39871,0.73149l-1.43678,0.95786c-0.10996,0.10769 -2.45054,1.60546 -2.6797,1.78395c-2.15256,1.67663 -4.36142,3.69889 -5.82898,5.99262l0.01879,-0.00117l0.00854,0.13681c1.08667,-0.31288 2.14604,-0.15871 3.39005,-0.34593c3.92732,-0.59103 7.85354,-1.96524 11.64692,-3.10487l0.07636,-0.02294c0,0 0.83335,-0.25036 1.08371,0.583z" fill="#a2a2a2"/><path d="M131.0133,234.59382c0,0.87015 -0.87015,0.87015 -0.87015,0.87015h-0.69611c-4.37747,0 -8.72728,0.1499 -13.10077,0.33588c-4.46945,0.19007 -9.14692,1.10833 -13.44608,2.41079c-2.70388,0.81916 -5.35074,2.07476 -7.98643,3.09551c-3.23084,1.25124 -6.43359,2.78635 -9.78868,3.63095l0.06297,0.16097l-1.6022,0.62677c-0.10325,0.04318 -0.21659,0.06703 -0.3355,0.06703c-0.48056,0 -0.87015,-0.38958 -0.87015,-0.87015c0,-0.2143 0.07747,-0.41051 0.20594,-0.56216l1.11203,-1.33131l0.02043,0.01706l0.04103,-0.0833c0.91693,-0.72597 1.89017,-1.3853 2.75485,-2.17277c1.71253,-1.55965 3.07509,-3.50972 4.80558,-5.04996c1.29778,-1.15511 2.84038,-2.13758 4.23008,-3.18158c1.08152,-0.81248 2.18708,-1.9516 3.41726,-2.64715c-6.20872,0.09339 -12.35095,0.56286 -18.54703,1.10957c-3.24594,0.2864 -6.49725,0.75019 -9.74375,0.69485l0.01019,0.13238l-1.72565,0.13274c-0.02512,0.00218 -0.05056,0.0033 -0.07624,0.0033c-0.48056,0 -0.87015,-0.38958 -0.87015,-0.87015c0,-0.18284 0.05639,-0.35251 0.15274,-0.49257l0.68951,-1.03427c0,0 0.48267,-0.72401 1.20668,-0.24134c0.35711,0.23808 0.42065,0.53487 0.39334,0.77453l0.0963,-0.00741l0.01024,0.1331c0.87583,-0.28355 1.74893,-0.26119 2.77448,-0.34729c1.73249,-0.14547 3.46394,-0.30565 5.1958,-0.45847c7.35149,-0.64866 14.64053,-1.25282 22.02247,-1.28477l0.00188,0.00059v-0.00059h1.04417c0.48056,0 0.87015,0.38958 0.87015,0.87015c0,0.28421 -0.13625,0.53659 -0.34701,0.69539l-1.37201,1.05538c-2.40594,2.43746 -5.72048,3.98863 -8.27641,6.26357c-1.72468,1.53508 -3.08311,3.48142 -4.79082,5.03668c-0.02268,0.02065 -0.17818,0.14446 -0.4044,0.32301c0.16897,-0.05939 0.34033,-0.12178 0.51356,-0.18955c1.62163,-0.63437 3.24321,-1.26871 4.86698,-1.89757c3.21207,-1.24397 6.43516,-2.76713 9.73047,-3.76588c4.43788,-1.34505 9.26626,-2.28861 13.87941,-2.4848c4.39807,-0.18704 8.77261,-0.33746 13.1747,-0.33746h0.69611c0,0 0.87015,0 0.87015,0.87015z" fill="#a2a2a2"/><path d="M94.11575,204.50367c0.85324,0.17064 0.6826,1.0239 0.6826,1.0239l-0.00676,0.0338c-0.12265,0.6052 -0.99518,3.13104 0.01265,3.5995c0.62569,0.29085 2.40639,0.19943 2.9695,0.19872c1.16019,-0.00145 2.32039,0 3.48058,0c4.06068,0 8.12135,0 12.18204,0c0,0 0.87015,0 0.87015,0.87015c0,0.87015 -0.87015,0.87015 -0.87015,0.87015c-4.64077,0 -9.28155,0 -13.92233,0c-1.61222,0 -4.21961,0.4236 -5.66436,-0.48388c-1.88535,-1.18422 -1.09658,-3.71568 -0.76459,-5.39594l0.00676,-0.0338c0,0 0.17064,-0.85324 1.0239,-0.6826z" fill="#a2a2a2"/><path d="M86.80991,202.56999c0.00247,-0.87015 0.87261,-0.86768 0.87261,-0.86768l0.37249,0.00105c2.39244,0.00678 4.7119,-0.03269 7.0773,0.35884c0,0 0.8583,0.14305 0.71525,1.00135c-0.14305,0.8583 -1.00135,0.71525 -1.00135,0.71525c-2.26874,-0.38091 -4.50012,-0.32865 -6.79614,-0.33516l-0.37249,-0.00105c0,0 -0.87015,-0.00247 -0.86768,-0.87261z" fill="#a2a2a2"/><path d="M58.61719,247.47197c0,-0.48056 0.38958,-0.87015 0.87015,-0.87015c0.48056,0 0.87015,0.38958 0.87015,0.87015c0,0.48056 -0.38958,0.87015 -0.87015,0.87015c-0.48056,0 -0.87015,-0.38958 -0.87015,-0.87015z" fill="#a2a2a2"/></g></g></svg>