<svg version="1.1" xmlns="http://www.w3.org/2000/svg" xmlns:xlink="http://www.w3.org/1999/xlink" width="352.06612" height="237.48184" viewBox="0,0,352.06612,237.48184"><g transform="translate(-24.77841,-39.07161)"><g data-paper-data="{&quot;isPaintingLayer&quot;:true}" fill-rule="nonzero" stroke="none" stroke-width="0.5" stroke-linecap="butt" stroke-linejoin="miter" stroke-miterlimit="10" stroke-dasharray="" stroke-dashoffset="0" style="mix-blend-mode: normal"><path d="M70.97707,221.46978c2.14992,0 2.14992,2.14992 2.14992,2.14992l-0.01612,4.03714c0.58639,2.30731 1.35406,4.56957 2.20293,6.79376c2.21404,4.73217 5.645,8.51354 8.2969,13.02585c0.06927,0.11783 1.54826,2.90831 2.69502,5.07217l1.21035,-1.21035c0.38907,-0.38907 0.92654,-0.62968 1.5202,-0.62968c1.18734,0 2.14992,0.96255 2.14992,2.14992v1.82901c0.14917,0.49401 0.19766,0.93385 0.06412,1.41423c0.4374,-0.62816 0.89191,-1.24477 1.33204,-1.87103c1.95523,-2.78217 3.75033,-4.82925 6.11327,-7.19221l3.24015,-0.62968c0,0 2.14992,0 2.14992,2.14992c0,2.14992 -2.14992,2.14992 -2.14992,2.14992l-0.19971,-0.62968c-1.70647,1.70647 -2.98422,3.27137 -4.37626,5.03359c1.97109,-0.65474 3.92844,-1.30369 5.86625,-2.25358c5.26811,-2.58234 10.59614,-5.50535 16.39294,-6.66074c4.31833,-0.86075 8.02141,-1.59444 11.45033,1.80102c1.64638,1.63034 2.0716,4.14621 3.03676,6.25262c0.68817,1.02909 3.68263,5.62612 4.60846,6.54608c0.98084,0.97462 2.27839,1.57606 3.32825,2.47594c1.7402,1.49158 2.80701,3.79971 4.81043,4.91306c1.03312,0.57415 2.38297,0.33092 3.43985,0.85996c0.65133,0.32606 0.79619,1.36302 1.48341,1.60453c0.82467,0.28981 1.74335,-0.14003 2.61714,-0.16367c2.00582,-0.05421 4.01316,-0.00385 6.01975,0c14.52896,0.02807 28.32545,-7.11339 41.65713,-12.11279c6.15491,-2.29489 12.00968,-5.73828 17.05348,-9.94273c1.97949,-1.65009 6.29118,-5.75937 9.11249,-5.32982c1.37927,0.20998 1.32641,2.45605 2.04535,3.65172c1.52436,2.53522 3.87977,4.87672 6.25334,6.61404c5.81997,4.25982 11.49868,3.40806 18.31056,2.86472c1.30966,-0.10448 2.65653,0.02499 3.93019,-0.29734c5.04487,-1.27659 9.8917,-4.86888 14.26185,-7.54418c3.87705,-2.32886 5.64994,-4.95952 8.44929,-8.48502c6.88099,-8.66584 11.78708,-19.12559 16.27372,-29.19446c0.82676,-1.85539 1.93132,-3.61735 2.44063,-5.5837c0.37343,-1.44169 -0.44721,-3.29222 0.50233,-4.43948c0.43234,-0.52236 7.72878,-1.62554 8.18846,-1.7018c7.18418,-1.19177 14.52049,-0.73615 21.79403,-0.73615c4.29935,0 8.60025,-0.03048 12.89947,0c1.26874,0.009 2.56551,0.32433 3.8059,0.05753c1.08745,-0.23395 3.75795,-2.07971 4.82717,-2.77737c2.76304,-1.8029 7.56425,-4.32527 9.25695,-7.33594c0.52931,-0.94142 0.37404,-2.12766 0.58805,-3.18626c0.94517,-4.67468 1.88492,-10.82291 -0.5277,-15.29643c-0.32924,-0.61052 -1.05733,-0.90655 -1.50832,-1.43359c-2.50878,-2.93193 -4.91036,-5.61645 -8.63894,-7.15937c-1.01161,-0.4186 -2.18227,-0.31378 -3.2121,-0.68535l-4.15608,-0.92359c-0.98379,-0.1973 -1.72485,-1.06606 -1.72485,-2.1079c0,-0.71231 0.34642,-1.34375 0.87997,-1.73493l3.32795,-2.49595c5.74571,-5.75937 11.84892,-11.35019 17.19365,-17.48705c2.79041,-3.204 5.09842,-6.53376 8.1583,-9.51104c2.69291,-8.52582 -5.00137,-12.11392 -11.19834,-15.77748c-4.86601,-2.87671 -10.18735,-4.03118 -15.59464,-5.63021c-5.4093,-1.5996 -10.85664,-3.59959 -16.35722,-4.84193c-8.2775,-1.86948 -16.9599,-2.67543 -25.34465,-4.00046c-5.61344,-0.88706 -11.25202,-2.02575 -16.89747,-2.6722c-11.32395,-1.29678 -22.84917,-1.63013 -34.2197,-2.4423c-6.90154,-0.49297 -13.45402,-0.94598 -20.18677,-2.58165c-1.61,-0.39114 -3.38431,-0.39123 -4.81806,-1.22159c-4.23323,-2.45166 -2.88929,-8.18054 -3.13561,-12.18635c-0.96332,-4.92575 -2.39291,-9.25686 -5.17567,-13.48359c-1.44062,-2.18814 -3.60064,-3.83595 -5.66996,-5.44259c-0.78379,-0.60857 -4.71898,-3.9952 -4.94957,-4.15308c-5.32757,-3.64719 -12.50238,-3.98297 -18.65577,-3.98297c-6.56703,0 -13.38291,-0.45471 -19.84926,0.98246c-2.65295,0.58965 -5.16954,1.67918 -7.75791,2.50751c-7.89659,4.77474 -15.4922,10.16144 -23.49051,14.73253c-2.35687,1.34701 -4.79972,2.53838 -7.17434,3.85392c-1.06764,0.59147 -1.93672,1.61959 -3.12102,1.91481c-1.58894,0.39605 -3.27437,0.07694 -4.91186,0.08739c-2.61397,0.01671 -7.38588,0.24513 -9.70546,-1.22136c-3.45401,-2.18372 -2.58538,-5.21985 -2.91847,-8.50691c-0.29514,-2.91256 -0.6158,-5.83319 -0.61777,-8.76062c-0.0013,-1.8918 0.14724,-3.78734 0.02777,-5.67538c-0.03005,-0.47493 0.10409,-1.09533 -0.25801,-1.40406c-0.47205,-0.40247 -1.21581,-0.24707 -1.82372,-0.3706c-1.9022,-0.81344 -3.66142,-2.06747 -5.68799,-2.48344c-1.26292,-0.25923 -2.5783,0.03616 -3.86755,0.0439c-2.10355,0.01263 -4.24374,-0.47007 -6.31024,-0.07679c-1.7867,0.34003 -2.90562,2.23202 -4.08734,3.61458c-2.4892,2.91221 -4.5237,6.41635 -6.5518,9.64973c-3.02777,4.82715 -6.41914,9.48099 -9.30521,14.3903c-4.9262,8.37971 -8.97087,17.32995 -13.0414,26.14228c-1.69187,4.4656 -4.35556,9.32793 -5.01292,14.08526c-0.67177,4.86179 2.29687,12.9019 -2.83463,16.21669c-0.48777,0.31508 -5.23161,0.25438 -6.17422,0.25438c-4.23655,0 -7.66218,0.34041 -11.82763,0.8495c-0.68157,0.0833 -3.87605,-0.4483 -4.40278,0.71075c-0.43911,0.96621 0.26886,2.10762 0.3211,3.16763c0.05699,1.15643 0.00412,2.31568 0.00617,3.47352c0.00756,4.26595 0.04096,8.5313 0.07263,12.79717c0.44997,4.92588 0.51704,10.22652 1.5879,15.07433c1.9936,9.02523 6.75573,16.82268 12.54512,23.83324c2.60725,3.15724 5.06839,6.72236 8.22034,9.37826c3.33692,2.81179 7.0059,5.39788 10.85108,7.51766c1.13755,0.62712 2.49195,0.90699 3.4844,1.74505c0.03429,0.02899 0.06834,0.05815 0.10211,0.08766l0.01133,-0.01702l2.55213,1.70144c0.5927,0.38279 0.98511,1.04925 0.98511,1.80732c0,1.18734 -0.96255,2.14992 -2.14992,2.14992h-1.97225c-2.9816,2.78182 -5.99945,4.66415 -9.67013,6.47392c-1.49086,1.51611 -3.4608,2.6464 -4.54601,4.47492c-0.90504,1.52496 -0.58341,5.36171 -0.5809,6.68042c0.00484,2.53548 -0.46942,5.13023 0.07726,7.60605c1.64871,7.46635 7.99097,13.41998 13.17335,18.50879c1.4443,1.41822 4.33342,4.30657 6.07666,5.44718c0.9655,0.63169 1.96043,1.04451 2.97077,1.34566c0.02293,-0.54989 0.13441,-1.06446 0.46681,-1.48614c0.89517,-1.13536 2.57026,-1.40236 3.97961,-1.72505c0.96327,-0.22054 2.05579,0.53116 2.96148,0.1359c0.9937,-0.4337 2.00206,-1.76637 2.95083,-3.15191c-0.64272,-1.18619 -1.19539,-2.28234 -1.54919,-2.94827c-3.18937,-6.00335 -7.62141,-11.1434 -10.51796,-17.23683c-0.98856,-2.59853 -1.84844,-5.25333 -2.5143,-7.95263l-0.01612,-4.56252c0,0 0,-2.14992 2.14992,-2.14992zM81.49597,264.747c0.89352,0.4544 1.45393,1.38038 2.18089,2.07057c0,0 1.5202,1.5202 0,3.04045c-1.5202,1.5202 -3.04045,0 -3.04045,0c-0.96126,-1.04554 -2.01466,-1.53623 -3.1436,-1.82517c-0.00825,1.72977 0.14777,3.16809 1.88418,4.80449c0,0 1.5202,1.5202 0,3.04045c-1.5202,1.5202 -3.04045,0 -3.04045,0c-2.59513,-2.69914 -3.28012,-5.33929 -3.29064,-8.64381c-0.31651,-0.0792 -0.63636,-0.17232 -0.95928,-0.28447c-1.51987,-0.5278 -2.97288,-1.26968 -4.32732,-2.13806c-2.02398,-1.29767 -5.03285,-4.30156 -6.75255,-5.98835c-5.84183,-5.72993 -12.50271,-12.33503 -14.36994,-20.69537c-0.22508,-1.00782 -0.17044,-7.55402 -0.16875,-8.48834c0.00515,-2.88075 -0.35806,-6.11119 1.139,-8.79893c0.24509,-0.44006 5.34061,-5.41767 5.77356,-5.84462c3.32532,-1.68387 6.07646,-3.45326 8.89578,-5.6183c-0.60736,-0.33628 -1.19116,-0.73992 -1.79354,-1.07252c-3.31226,-1.82894 -6.02989,-3.92311 -8.92808,-6.24175c-11.45878,-9.16734 -21.57631,-22.69342 -24.81262,-37.30552c-1.1272,-5.08941 -1.22115,-10.64113 -1.6892,-15.81375c-0.04535,-5.47831 -0.27754,-11.00273 -0.08398,-16.47858c0.06409,-1.8127 -0.64358,-3.89597 0.3211,-5.43202c2.3353,-3.71852 4.65929,-2.35456 7.63671,-2.7291c4.26464,-0.5365 7.91487,-0.87043 12.25136,-0.87043c0.85996,0 1.72153,-0.05266 2.57988,0c0.52766,0.03239 1.08693,0.47909 1.56544,0.25438c0.44418,-0.20859 0.59021,-0.82436 0.67672,-1.30737c0.38204,-2.1338 -0.09858,-4.93604 -0.09222,-7.11665c0.02072,-7.1602 2.81609,-13.14278 5.32744,-19.75154c4.14551,-8.98897 8.27562,-18.11141 13.29917,-26.65672c2.90718,-4.94521 6.3189,-9.63465 9.3696,-14.4963c2.89825,-4.61871 7.28934,-13.66875 13.14255,-15.12544c1.29715,-0.3228 2.6727,-0.06301 4.00933,-0.07679c0.89247,-0.00919 7.96786,0.00203 8.17195,0.0439c0.26817,0.05505 5.09158,2.13507 6.35151,2.67632c1.11203,0.44977 2.51455,0.47527 3.33608,1.34933c1.77319,1.88665 1.47982,4.42778 1.48967,6.67999c0.01758,4.0301 0.24327,7.79076 0.59836,11.79205c0.03419,0.38527 -0.50876,4.59766 1.02517,5.33895c1.45658,0.70395 6.05185,0.48258 7.32675,0.49796c1.22952,0.01477 2.49315,0.37934 3.68777,0.08804c0.86843,-0.21176 1.43076,-1.07972 2.20581,-1.52504c1.12835,-0.64832 2.34444,-1.13229 3.49088,-1.74814c9.47898,-5.09183 18.27445,-11.5058 27.52504,-17.01784c0.2796,-0.09146 8.29237,-2.72132 8.60492,-2.79076c6.78472,-1.50797 13.89106,-1.0849 20.78218,-1.0849c6.96919,0 14.86716,0.56262 20.90254,4.61668c1.12445,0.75531 3.93257,3.32268 5.36997,4.44657c2.41672,1.88954 4.87058,3.88637 6.58193,6.43235c3.18791,4.74279 4.77606,9.7672 5.86132,15.31861c0.17088,2.69339 -0.22789,5.43528 0.24235,8.09279c0.07461,0.42159 0.4517,0.80937 0.85201,0.96114c8.43822,3.1992 18.52076,2.86845 27.3765,3.50098c10.00659,0.71475 20.14795,1.01171 30.11367,2.15293c5.70647,0.65348 11.40544,1.80038 17.07947,2.69699c8.47802,1.33974 17.25072,2.16301 25.62076,4.05341c5.5926,1.26309 11.12973,3.28648 16.62923,4.91279c5.76727,1.70547 11.34701,2.99445 16.55638,6.04795c7.11111,4.16821 15.32357,8.66051 13.82823,18.37783c-0.18039,1.17214 -0.76886,2.24386 -1.15327,3.36577c-3.14098,3.21426 -5.63494,6.7004 -8.57341,10.07442c-5.48323,6.29594 -11.73736,12.0446 -17.64571,17.93831l-0.16754,0.03065l0.03047,0.04063c2.84952,-0.10749 5.03919,1.13235 7.90183,3.02377c2.3816,1.57359 4.35827,3.72554 6.20324,5.90368c0.59999,0.70833 1.49987,1.18441 1.93155,2.00627c2.91505,5.55004 2.37636,12.58502 1.0756,18.45246c-0.32176,1.45147 -0.28262,3.0494 -1.01521,4.34313c-0.82429,1.45568 -2.25989,2.47247 -3.48758,3.60878c-3.22441,2.98444 -8.91395,7.61887 -13.38703,8.63693c-1.5582,0.35466 -3.19576,0.04741 -4.79378,0.05753c-4.29935,0.02719 -8.60002,0 -12.89947,0c-7.02535,0 -14.15177,-0.48382 -21.08714,0.67762c-1.43199,0.23978 -2.84709,0.63274 -4.29668,0.71536c-0.48096,0.0274 -1.19959,-0.83303 -1.39133,-0.3911c-0.33051,0.76187 0.6606,1.62499 0.50233,2.44022c-0.57707,2.97274 -3.24345,7.61035 -4.50795,10.39152c-4.12587,9.07439 -8.84715,18.36577 -15.04962,26.19407c-3.11203,3.92783 -5.27939,6.80983 -9.57311,9.48021c-4.75738,2.91238 -9.95179,6.65096 -15.44022,8.04239c-0.17148,0.04346 -8.64331,0.7607 -8.99374,0.77857c-2.75188,0.14033 -5.56747,0.6726 -8.26562,0.1135c-5.32288,-1.10294 -10.80354,-5.17642 -14.17033,-9.34536c-0.75515,-0.93505 -1.57688,-1.8771 -1.99362,-3.00442c-0.17833,-0.48235 0.81506,-1.66545 0.32545,-1.5081c-0.81985,0.26347 -1.07029,1.35716 -1.69621,1.94864c-0.18014,0.17022 -6.59291,5.49627 -6.61669,5.5129c-4.52121,3.17114 -9.70723,5.86507 -14.85152,7.80427c-13.89064,5.20901 -28.03992,12.35924 -43.1669,12.38656c-2.99126,0.00539 -7.48236,0.73633 -10.28233,-0.16367c-0.8513,-0.27364 -1.1565,-1.43581 -1.95644,-1.83532c-1.05733,-0.52811 -2.41962,-0.26325 -3.43985,-0.85996c-0.72319,-0.42299 -4.66035,-4.67894 -5.50915,-5.40646c-1.12661,-0.96564 -2.50517,-1.63163 -3.55146,-2.68386c-1.36865,-1.37638 -4.24255,-5.86601 -5.32153,-7.48896c-0.68157,-1.47598 -1.85429,-5.93418 -4.10082,-6.59299c-1.86535,-0.547 -3.88748,0.28105 -5.79425,0.65907c-6.80708,1.34945 -12.22185,5.81946 -18.69435,7.92001c-1.36179,0.44195 -2.85328,0.38982 -4.21176,0.84171c-2.74081,0.91175 -7.15767,4.53331 -10.38953,2.45659c-0.43324,-0.27838 -0.9207,-0.82231 -1.42346,-1.51027c-0.97375,1.32547 -2.05359,2.55284 -3.61906,3.32094c-1.17326,0.5756 -2.61179,0.10238 -3.91822,0.1359c-0.28466,0.00731 -0.67115,-0.17636 -0.93849,-0.14969c1.43126,0.27377 2.85506,0.61561 4.23326,1.31649z" fill="#000000"/><path d="M68.86555,223.60027l0.01556,4.56144c0.66585,2.69927 1.52454,5.35211 2.51315,7.95058c2.89655,6.09342 7.32529,11.22883 10.51467,17.23217c0.35377,0.66592 0.90593,1.76139 1.54861,2.94756c-0.94871,1.38554 -2.02264,2.77396 -3.01633,3.20765c-0.9057,0.39527 -1.99856,-0.35685 -2.96184,-0.13631c-1.40934,0.32265 -3.01809,0.53497 -3.91328,1.6703c-0.33243,0.4216 -0.51028,0.99093 -0.53322,1.54076c-1.01034,-0.30115 -2.00578,-0.71454 -2.97121,-1.34625c-1.74324,-1.14059 -4.63359,-4.03057 -6.07788,-5.44878c-5.1824,-5.0888 -11.52771,-11.04729 -13.17643,-18.51368c-0.5467,-2.47583 -0.07323,-5.07213 -0.07805,-7.60761c-0.0025,-1.31873 -0.32475,-5.15685 0.58029,-6.68179c1.0852,-1.82858 3.05488,-2.95941 4.54577,-4.47551c3.67071,-1.80974 6.6883,-3.69266 9.66989,-6.47449l2.0518,-0.03264c1.18734,0 2.07031,-0.93003 2.07031,-2.11739c0,-0.75807 -0.39258,-1.42511 -0.98534,-1.8079l-2.5524,-1.70212l-0.01133,0.01702c-0.03377,-0.02945 -0.06785,-0.05873 -0.10212,-0.08769c-0.99245,-0.83809 -2.3471,-1.11873 -3.48466,-1.74589c-3.84518,-2.11977 -7.51504,-4.70874 -10.8519,-7.52051c-3.15192,-2.6559 -5.61375,-6.22399 -8.221,-9.38117c-5.78941,-7.01056 -10.55226,-14.81452 -12.5459,-23.83977c-1.07086,-4.8478 -1.13786,-10.15222 -1.58784,-15.07812c-0.03168,-4.26582 -0.06475,-8.53435 -0.07233,-12.80029c-0.00205,-1.15784 0.05092,-2.31794 -0.00605,-3.47439c-0.05223,-1.05999 -0.76004,-2.20221 -0.32097,-3.16842c0.52672,-1.15904 3.72125,-0.6278 4.40282,-0.7111c4.16552,-0.50907 7.59125,-0.85027 11.82777,-0.85027c0.94262,0 5.68653,0.06031 6.17432,-0.25477c5.13148,-3.31483 2.16399,-11.35938 2.83576,-16.22117c0.65732,-4.7573 3.3225,-9.62359 5.01435,-14.08918c4.07056,-8.81232 8.11907,-17.76974 13.04527,-26.14944c2.88606,-4.90929 6.28028,-9.56698 9.30808,-14.3941c2.0281,-3.23339 4.06474,-6.73985 6.55395,-9.65208c1.18173,-1.38256 2.3017,-3.27561 4.0884,-3.61564c2.06648,-0.39327 4.20763,0.08859 6.31115,0.07591c1.28924,-0.00774 2.60527,-0.30369 3.86817,-0.04448c2.02658,0.41596 3.78641,1.6695 5.68859,2.48294c0.60794,0.12357 1.35191,-0.03204 1.82398,0.37039c0.36211,0.30872 0.28262,0.99554 0.31272,1.47044c0.11946,1.88804 -0.02818,3.78282 -0.02688,5.67462c0.00203,2.92747 0.32392,5.84693 0.6191,8.75947c0.33309,3.28707 -0.59559,6.26164 2.85838,8.44539c2.31959,1.4665 7.09309,1.23649 9.70709,1.21985c1.63751,-0.01046 3.32402,0.30769 4.91296,-0.08836c1.18431,-0.29519 2.05444,-1.3242 3.12208,-1.91567c2.37458,-1.31555 4.81995,-2.50878 7.17683,-3.85578c7.9983,-4.57112 15.60341,-9.96269 23.49999,-14.73741c2.58837,-0.82836 5.10793,-1.91885 7.7609,-2.50851c6.4664,-1.43718 13.2897,-0.9839 19.85676,-0.9839c6.15341,0 13.33564,0.33567 18.6632,3.98287c0.23058,0.15789 4.16802,3.54471 4.95179,4.15328c2.06931,1.60664 4.23203,3.2549 5.67269,5.44304c2.7828,4.22674 4.21612,8.55872 5.1794,13.48445c0.24635,4.00581 -1.09416,9.73585 3.13907,12.18748c1.43375,0.83035 3.21065,0.8315 4.82066,1.22264c6.73273,1.63573 13.29382,2.09392 20.19532,2.58689c11.37054,0.81218 22.90386,1.15381 34.22778,2.45058c5.64544,0.6465 11.28649,1.78882 16.89993,2.67588c8.38476,1.32501 17.06945,2.13544 25.34695,4.00489c5.50057,1.24235 10.94908,3.24516 16.35837,4.84476c5.40728,1.59905 10.72947,2.7561 15.59551,5.63283c6.19699,3.66354 13.89229,7.25607 11.1994,15.78187c-3.05988,2.97727 -5.36757,6.30909 -8.15799,9.51308c-5.34469,6.13686 -11.44764,11.73214 -17.19329,17.49152l-3.32792,2.49666c-0.53358,0.39122 -0.87997,1.02314 -0.87997,1.73549c0,1.04184 0.74107,1.91124 1.72485,2.10853l4.15608,0.92381c1.02982,0.37159 2.2005,0.26691 3.2121,0.68553c3.72856,1.54292 6.13005,4.22928 8.63883,7.16124c0.45099,0.52704 1.17904,0.82346 1.50829,1.43395c2.41261,4.4735 1.47238,10.62567 0.52721,15.30037c-0.21404,1.05862 -0.05893,2.24567 -0.5882,3.18709c-1.69271,3.01066 -6.49449,5.53545 -9.25751,7.33836c-1.06922,0.69769 -3.73999,2.54447 -4.82742,2.77842c-1.24039,0.26684 -2.5372,-0.04823 -3.80593,-0.05722c-4.29923,-0.03048 -8.60046,0.00106 -12.89979,0.00106c-7.27353,0 -14.61074,-0.45309 -21.79493,0.73867c-0.45965,0.07626 -7.75678,1.18108 -8.18913,1.70346c-0.94958,1.14731 -0.12959,2.99931 -0.50305,4.441c-0.50935,1.96635 -1.61498,3.73042 -2.44172,5.5858c-4.48666,10.06884 -9.40034,20.53858 -16.28134,29.20446c-2.79937,3.52548 -4.57557,6.15908 -8.45261,8.48795c-4.37016,2.67535 -9.22187,6.27098 -14.26676,7.54756c-1.27364,0.32228 -2.62171,0.19353 -3.93136,0.29797c-6.81188,0.54331 -12.4962,1.39764 -18.31618,-2.86215c-2.37358,-1.73731 -4.73051,-4.07827 -6.25487,-6.61346c-0.71894,-1.19566 -0.66646,-3.44159 -2.04574,-3.65157c-2.8213,-0.42953 -7.13758,3.68096 -9.11711,5.33103c-5.04379,4.20445 -10.9065,7.64867 -17.0614,9.94356c-13.33169,4.9994 -27.14313,12.13839 -41.6721,12.11032c-2.0066,-0.00385 -4.01578,-0.05489 -6.02161,-0.00072c-0.87375,0.02361 -1.79322,0.45311 -2.61789,0.16333c-0.68721,-0.24148 -0.8327,-1.27876 -1.48407,-1.60483c-1.05688,-0.52906 -2.40788,-0.28634 -3.44094,-0.86049c-2.00341,-1.11337 -3.07222,-3.42252 -4.81245,-4.91414c-1.04986,-0.89987 -2.3487,-1.50204 -3.32954,-2.47672c-0.92584,-0.91995 -3.92256,-5.5184 -4.61074,-6.54751c-0.96512,-2.10645 -1.39218,-4.62366 -3.0386,-6.25397c-3.42889,-3.39546 -7.13476,-2.66406 -11.45313,-1.80333c-5.7968,1.15542 -11.12657,4.07676 -16.39468,6.65909c-1.93784,0.9499 -3.89573,1.59831 -5.8668,2.25305c1.39204,-1.76223 2.73228,-3.38621 4.43875,-5.09268l0.19958,0.62954c0,0 2.08752,0.05919 2.08752,-2.09069c0,-2.14992 -2.15055,-2.15063 -2.15055,-2.15063l-3.2405,0.62931c-2.36295,2.36295 -4.09381,4.35282 -6.04908,7.13498c-0.44015,0.62626 -0.95849,1.3005 -1.39584,1.92866c0.13354,-0.48036 0.08486,-0.92044 -0.06434,-1.41446l-0.00027,-1.82927c0,-1.18734 -0.96311,-2.1506 -2.1505,-2.1506c-0.5937,0 -1.13126,0.24052 -1.5203,0.62958l-1.21035,1.21036c-1.14681,-2.16385 -2.62677,-4.95561 -2.69606,-5.07343c-2.65188,-4.51232 -6.08542,-8.29735 -8.29946,-13.02955c-0.84884,-2.22418 -1.61757,-4.48822 -2.20395,-6.79552l0.01563,-4.03804c0,0 -0.0004,-2.15068 -2.15032,-2.15068c-2.14992,0 -2.07304,2.11135 -2.07304,2.11135z" data-paper-data="{&quot;noHover&quot;:false,&quot;origItem&quot;:[&quot;Path&quot;,{&quot;applyMatrix&quot;:true,&quot;selected&quot;:true,&quot;segments&quot;:[[[39.00233,259.59394],[-0.66193,0],[0.66193,0],7],[[39.66426,260.25586],[0,0],[0,0],7],[[39.6593,261.49884],[0,0],[0.18054,0.71039],7],[[40.33756,263.59055],[-0.26135,-0.6848],[0.68167,1.45697],7],[[42.89206,267.60103],[-0.81648,-1.38928],[0.02132,0.03628],7],[[43.72182,269.16269],[-0.35308,-0.66622],[0,0],7],[[44.09447,268.79003],[0,0],[0.11979,-0.11979],7],[[44.56253,268.59616],[-0.18279,0],[0.36557,0],7],[[45.22445,269.25808],[0,-0.36557],[0,0],7],[[45.22445,269.82121],[0,0],[0.04593,0.1521],7],[[45.24419,270.25662],[0.04112,-0.1479],[0.13467,-0.1934],7],[[45.65431,269.68056],[-0.13551,0.19282],[0.60199,-0.8566],7],[[47.5365,267.46617],[-0.72752,0.72752],[0,0],7],[[48.53409,267.2723],[0,0],[0,0],7],[[49.19602,267.93423],[0,-0.66193],[0,0.66193],7],[[48.53409,268.59616],[0,0],[0,0],7],[[48.47261,268.40228],[0,0],[-0.5254,0.5254],7],[[47.12521,269.95206],[0.42859,-0.54257],[0.60687,-0.20158],7],[[48.93136,269.25821],[-0.59663,0.29246],[1.62198,-0.79506],7],[[53.97852,267.20746],[-1.78475,0.35574],[1.32956,-0.26501],7],[[57.50391,267.76196],[-1.05571,-1.04541],[0.5069,0.50196],7],[[58.43888,269.68707],[-0.29715,-0.64854],[0.21188,0.31684],7],[[59.85777,271.70251],[-0.28505,-0.28324],[0.30199,0.30007],7],[[60.88249,272.46482],[-0.32324,-0.27706],[0.53578,0.45924],7],[[62.36356,273.9775],[-0.61682,-0.34279],[0.31808,0.17677],7],[[63.42264,274.24227],[-0.3254,-0.16289],[0.20054,0.10039],7],[[63.87936,274.73628],[-0.21158,-0.07435],[0.2539,0.08922],7],[[64.68514,274.68589],[-0.26902,0.00727],[0.61757,-0.01669],7],[[66.53853,274.68589],[-0.6178,-0.00119],[4.47327,0.00864],7],[[79.36419,270.95654],[-4.10464,1.53924],[1.89501,-0.70657],7],[[84.61473,267.89531],[-1.55291,1.29449],[0.60946,-0.50804],7],[[87.42034,266.25433],[-0.86864,-0.13225],[0.42466,0.06465],7],[[88.05008,267.37864],[-0.22135,-0.36813],[0.46933,0.78056],7],[[89.97539,269.415],[-0.73079,-0.53489],[1.79189,1.31154],7],[[95.61297,270.29701],[-2.09728,0.16728],[0.40322,-0.03216],7],[[96.82302,270.20547],[-0.39214,0.09923],[1.55325,-0.39304],7],[[101.21404,267.88272],[-1.34551,0.8237],[1.19369,-0.71702],7],[[103.81547,265.2703],[-0.86189,1.08545],[2.11856,-2.6681],7],[[108.82593,256.28173],[-1.38138,3.10006],[0.25455,-0.57125],7],[[109.57737,254.56258],[-0.15682,0.60542],[0.11497,-0.44388],7],[[109.73203,253.19572],[-0.29236,0.35324],[0.13311,-0.16083],7],[[112.25314,252.67176],[-0.14152,0.02348],[2.21191,-0.36693],7],[[118.96323,252.44511],[-2.23942,0],[1.32371,0],7],[[122.93479,252.44511],[-1.32367,-0.00939],[0.39063,0.00277],7],[[124.10657,252.46282],[-0.3819,0.08216],[0.33481,-0.07203],7],[[125.59278,251.60771],[-0.3292,0.21481],[0.8507,-0.55509],7],[[128.44287,249.34907],[-0.52116,0.92694],[0.16297,-0.28985],7],[[128.62393,248.36806],[-0.0659,0.32593],[0.291,-1.43927],7],[[128.46146,243.65851],[0.74281,1.37733],[-0.10137,-0.18797],7],[[127.99707,243.21712],[0.13885,0.16227],[-0.77242,-0.9027],7],[[125.33726,241.01285],[1.14798,0.47504],[-0.31146,-0.12888],7],[[124.3483,240.80183],[0.31706,0.11441],[0,0],7],[[123.0687,240.51748],[0,0],[-0.30289,-0.06074],7],[[122.53764,239.86848],[0,0.32077],[0,-0.21931],7],[[122.80857,239.33432],[-0.16428,0.12045],[0,0],7],[[123.8332,238.56585],[0,0],[1.76902,-1.77323],7],[[129.12689,233.18182],[-1.64556,1.88946],[0.85913,-0.98647],7],[[131.63872,230.2535],[-0.94209,0.91666],[0.82911,-2.62498],7],[[128.19089,225.39583],[1.90797,1.12796],[-1.49818,-0.8857],7],[[123.38952,223.66236],[1.66483,0.49232],[-1.66545,-0.4925],7],[[118.35336,222.17161],[1.69355,0.3825],[-2.54853,-0.57559],7],[[110.55009,220.93992],[2.58155,0.40795],[-1.7283,-0.27312],7],[[105.34758,220.11718],[1.73816,0.19905],[-3.48649,-0.39926],7],[[94.8118,219.36523],[3.50084,0.25006],[-2.12489,-0.15178],7],[[88.59657,218.57036],[2.07292,0.50362],[-0.4957,-0.12043],7],[[87.11316,218.19426],[0.44143,0.25565],[-1.30335,-0.75483],7],[[86.14775,214.44225],[0.07584,1.23333],[-0.29659,-1.51657],7],[[84.55422,210.29084],[0.85679,1.30135],[-0.44355,-0.6737],7],[[82.80853,208.61514],[0.63711,0.49467],[-0.24132,-0.18737],7],[[81.28461,207.33646],[0.071,0.04861],[-1.64029,-1.12292],7],[[75.54075,206.11016],[1.89455,0],[-2.0219,0],7],[[69.42943,206.41265],[1.99091,-0.44249],[-0.81681,0.18154],7],[[67.04087,207.18469],[0.79693,-0.25504],[-2.43125,1.47008],7],[[59.80846,211.72064],[2.46257,-1.40739],[-0.72565,0.41472],7],[[57.59959,212.9072],[0.7311,-0.40504],[-0.32871,0.18211],7],[[56.63867,213.49674],[0.36463,-0.09088],[-0.48921,0.12194],7],[[55.12637,213.52365],[0.50417,-0.00322],[-0.80481,0.00514],7],[[52.13819,213.14761],[0.71417,0.45152],[-1.06344,-0.67234],7],[[51.23964,210.52846],[0.10255,1.01204],[-0.09087,-0.89674],7],[[51.04942,207.83117],[0.00062,0.90133],[-0.0004,-0.58246],7],[[51.05797,206.0838],[0.03678,0.5813],[-0.00925,-0.14622],7],[[50.97852,205.65151],[0.11149,0.09505],[-0.14534,-0.12391],7],[[50.41703,205.53741],[0.18717,0.03804],[-0.58566,-0.25045],7],[[48.66577,204.77279],[0.62396,0.12807],[-0.38884,-0.07981],7],[[47.47501,204.7863],[0.39694,-0.00238],[-0.64765,0.00389],7],[[45.53217,204.76266],[0.63624,-0.12108],[-0.5501,0.10469],7],[[44.27374,205.87554],[0.36384,-0.42567],[-0.76639,0.89663],7],[[42.25652,208.84656],[0.62443,-0.99552],[-0.93221,1.48621],7],[[39.39157,213.27715],[0.88858,-1.51151],[-1.51671,2.58],7],[[35.3763,221.326],[1.25327,-2.7132],[-0.5209,1.3749],7],[[33.8329,225.66265],[0.20238,-1.46471],[-0.20683,1.49688],7],[[32.96016,230.65556],[1.57991,-1.02059],[-0.15018,0.09701],7],[[31.0592,230.73388],[0.29022,0],[-1.30437,0],7],[[27.41763,230.99543],[1.2825,-0.15674],[-0.20985,0.02565],7],[[26.06207,231.21426],[0.16217,-0.35685],[-0.13519,0.29748],7],[[26.16093,232.18953],[-0.01608,-0.32636],[0.01754,0.35605],7],[[26.16283,233.25899],[-0.00063,-0.35648],[0.00233,1.31343],7],[[26.18519,237.19905],[-0.00975,-1.31339],[0.13854,1.51661],7],[[26.67407,241.84023],[-0.3297,-1.49257],[0.6138,2.77874],7],[[30.53655,249.17816],[-1.78248,-2.15846],[0.80274,0.97207],7],[[33.06748,252.0656],[-0.97044,-0.81772],[1.02739,0.86571],7],[[36.40837,254.38019],[-1.18388,-0.65265],[0.35024,0.19308],7],[[37.48117,254.91748],[-0.30556,-0.25804],[0.01056,0.00892],7],[[37.51261,254.94446],[-0.0104,-0.00907],[0,0],7],[[37.51611,254.93923],[0,0],[0,0],7],[[38.30188,255.46307],[0,0],[0.18249,0.11786],7],[[38.60518,256.01953],[0,-0.2334],[0,0.36557],7],[[37.94325,256.68145],[0.36557,0],[0,0],7],[[37.33602,256.68145],[0,0],[-0.91799,0.85648],7],[[34.35872,258.67468],[1.13016,-0.5572],[-0.45901,0.46679],7],[[32.95906,260.05245],[0.33412,-0.56299],[-0.27865,0.46952],7],[[32.78021,262.10926],[-0.00077,-0.40602],[0.00149,0.78064],7],[[32.804,264.45107],[-0.16832,-0.76228],[0.50761,2.29879],7],[[36.8599,270.14967],[-1.59559,-1.56677],[0.44468,0.43665],7],[[38.73082,271.82677],[-0.53672,-0.35117],[0.29726,0.19449],7],[[39.64547,272.24109],[-0.31107,-0.09272],[0.00706,-0.1693],7],[[39.7892,271.78353],[-0.10235,0.12981],[0.27561,-0.34956],7],[[41.01447,271.25242],[-0.43392,0.09934],[0.29658,-0.0679],7],[[41.92628,271.29425],[-0.27885,0.1217],[0.30594,-0.13353],7],[[42.83479,270.32382],[-0.2921,0.42659],[-0.19788,-0.36521],7],[[42.35782,269.41609],[0.10892,0.20503],[-0.98196,-1.84835],7],[[39.11948,264.1091],[0.89181,1.87608],[-0.30437,-0.80005],7],[[38.34536,261.6606],[0.20501,0.83107],[0,0],7],[[38.3404,260.25586],[0,0],[0,0],7]],&quot;closed&quot;:true}]}" fill="#ffa000"/><path d="M106.89585,198.02047c1.5202,1.5202 0,3.04045 0,3.04045l-2.41743,2.18597c-4.06238,0.15597 -10.17873,1.1408 -13.9215,-0.97537c-3.39369,-1.91884 -2.9143,-3.6991 -2.80356,-7.18171c0.01278,-0.40194 0.89993,-8.91597 0.95572,-9.10523c0.7651,-2.59569 2.62968,-4.73096 4.00057,-7.06415c0.74828,-1.27355 1.27613,-2.71691 2.28223,-3.7984c0.02548,-0.02737 0.05159,-0.05394 0.07828,-0.07977l-0.00484,-0.00362c-3.03345,0.02147 -6.09489,0.07538 -9.10847,-0.10006c-1.70298,-0.09912 -3.55604,0.23926 -5.09308,-0.50074c-5.13494,-2.4723 -5.14953,-7.15913 -5.15688,-11.87562c-0.00515,-3.30687 0.58501,-7.36538 1.93276,-10.39229c1.0533,-2.36559 3.14995,-4.11134 4.68221,-6.19885c0.98774,-1.34566 1.55923,-3.08582 2.89613,-4.08544c1.15417,-0.863 2.77124,-0.79221 4.15688,-1.18834c0,0 2.08571,-0.52142 2.60716,1.56429c0.52142,2.08571 -1.56429,2.60716 -1.56429,2.60716c-0.90761,0.17721 -1.99488,-0.03871 -2.72283,0.53163c-0.94375,0.73941 -1.19198,2.08396 -1.87411,3.06992c-1.33456,1.92901 -3.37031,3.41446 -4.30699,5.56502c-1.07252,2.46247 -1.50211,5.84926 -1.50708,8.52694c-0.00478,2.56262 -0.59287,6.61492 2.64391,7.96465c1.0726,0.44728 2.32258,0.09118 3.48448,0.11556c3.54523,0.07443 7.09493,0.08949 10.64093,0.08944h2.57988c1.18734,0 2.14992,0.96255 2.14992,2.14992c0,0.49184 -0.16516,0.94506 -0.44302,1.30731l-2.56686,3.42251l-0.08562,-0.06421c-0.64336,1.19498 -1.30618,2.37925 -1.99244,3.54963c-1.21013,2.06385 -2.95294,3.90165 -3.61444,6.20088c-0.35487,1.23344 -0.2152,2.55796 -0.33578,3.83573c-0.2114,2.24036 -1.01479,4.51677 -0.5846,6.72558c0.23336,1.19816 2.22327,1.12565 3.43573,1.26761c2.43433,0.28508 5.05258,-0.00641 7.51423,0.14755l1.02244,-1.25387c0,0 1.5202,-1.5202 3.04045,0z" fill="#000000"/><path d="M257.80029,119.23432c2.04961,-0.64894 2.69855,1.4007 2.69855,1.4007l0.94034,3.19497c-0.34375,1.74003 -0.39979,3.56263 -1.0313,5.22004c-0.39544,1.03793 -1.30601,1.79724 -1.97894,2.68087c-0.95366,1.25226 -1.71768,2.68784 -2.90042,3.72649c-0.19713,0.17309 -7.35759,4.29314 -7.7951,4.54219c-1.37932,0.78504 -2.63663,1.85515 -4.14958,2.33445c-4.01889,1.27322 -9.69657,0.87363 -13.85783,0.85122c-1.1827,-0.42644 -2.57547,-0.48275 -3.54808,-1.2794c-1.17707,-0.96408 -1.78421,-2.46747 -2.5968,-3.75383c-1.91517,-3.03171 -3.77183,-6.20736 -2.30658,-9.61402c-1.11607,0.71999 -4.01063,1.92934 -5.32426,2.48779c-5.24332,2.22902 -10.24111,2.90643 -15.97858,2.72755c-1.20054,-0.03741 -2.57269,0.37721 -3.59435,-0.25438c-4.01388,-2.48147 -3.83475,-8.61666 -3.48131,-12.50786c0.14992,-1.65059 0.04887,-3.3952 0.6885,-4.9242c0.62854,-1.50256 1.99229,-2.57715 2.98846,-3.86576c0,0 1.34302,-1.67881 3.02183,-0.33578c1.67881,1.34302 0.33578,3.02183 0.33578,3.02183c-0.79457,0.94981 -1.89873,1.71 -2.38371,2.84943c-0.47374,1.11307 -0.27737,2.40413 -0.36582,3.61057c-0.10512,1.43448 -0.80519,7.24225 1.22519,8.36069c0.46308,0.25505 1.0373,-0.23131 1.56544,-0.25438c1.38742,-0.06059 2.78019,0.09046 4.16624,0.00414c4.53155,-0.28211 8.04413,-1.31273 12.12848,-3.24443c1.34284,-0.63511 6.49894,-3.75723 8.18139,-2.37365c1.35428,1.11371 0.73317,3.43781 0.89283,5.18396c0.11314,1.23707 -0.40767,2.52824 -0.07803,3.72596c0.60549,2.19992 2.96193,5.59273 5.1522,6.19139c3.54919,-0.02352 8.46489,0.37299 11.87046,-0.70594c1.21994,-0.38647 2.19598,-1.31465 3.30067,-1.96058c2.35312,-1.37588 5.0572,-2.24927 7.10543,-4.04792c2.53227,-2.22376 3.81599,-5.03153 4.45447,-8.16181l-0.7462,-2.13182c0,0 -0.64894,-2.04961 1.4007,-2.69855z" fill="#000000"/><path d="M170.05305,189.76141c2.03958,-0.67984 2.71944,1.35973 2.71944,1.35973l0.85996,2.57988c0.41165,1.35023 1.31956,2.51564 2.20293,3.61667c2.68404,3.34537 4.96133,7.04722 7.64968,10.42182c0.68654,0.86182 3.33868,4.60313 4.79153,5.15837c0.43882,0.16769 0.857,-0.39311 1.25098,-0.64903c1.82355,-1.18459 3.09367,-3.06073 4.5424,-4.68239c1.86991,-2.09316 4.14716,-3.8054 5.95908,-5.94895c0.66722,-0.7893 0.93332,-1.90948 1.7199,-2.57988c0.05399,-0.04602 0.10842,-0.09146 0.16324,-0.13635l-0.02083,-0.02083l2.57988,-2.57988c0.38907,-0.38907 0.92654,-0.62968 1.5202,-0.62968c1.18734,0 2.14992,0.96255 2.14992,2.14992v2.57988c-0.0642,4.10158 1.7366,6.48335 3.2342,10.26197c0.31748,0.80101 0.21202,1.82181 0.7893,2.46146c0.2528,0.28005 0.75857,-0.18376 1.04941,-0.42412c0.96002,-0.79337 1.71163,-1.81509 2.65047,-2.63345c2.09912,-1.82982 4.70526,-3.07723 6.61002,-5.10856c4.71589,-5.02923 7.14644,-12.20259 10.99062,-17.82467c3.07262,-4.49366 7.07913,-8.58115 10.36443,-12.96155c0,0 1.28994,-1.7199 3.00989,-0.42998c1.7199,1.28994 0.42998,3.00989 0.42998,3.00989c-3.25326,4.33767 -7.23796,8.38722 -10.27469,12.83737c-4.97936,7.29697 -7.8872,15.58839 -15.01848,21.16827c-2.79916,2.1902 -7.45446,8.53294 -11.83898,6.1587c-1.51026,-0.81779 -1.85058,-2.89848 -2.65052,-4.41827c-1.65851,-3.15084 -2.90607,-5.95027 -3.40678,-9.18066c-1.61567,2.72869 -4.67352,4.73314 -6.80641,7.117c-0.99275,1.10955 -1.7369,2.4381 -2.80251,3.4779c-1.27174,1.24092 -4.87604,3.72313 -6.88349,3.23017c-3.23719,-0.79491 -5.56626,-4.35838 -7.46035,-6.7166c-3.71166,-4.62126 -8.61643,-9.82413 -10.57417,-15.36484l-0.85996,-2.57988c0,0 -0.67984,-2.03958 1.35973,-2.71944z" fill="#000000"/><path d="M152.87334,102.16505c-1.5202,-1.5202 0,-3.04045 0,-3.04045l2.57988,-2.57988c0.41796,-0.34082 0.95198,-0.57557 1.25387,-1.02244c0.00961,-0.01424 0.24345,-1.45147 -0.41434,-1.34145c-1.12429,0.1881 -2.13043,0.83715 -3.24311,1.0848c-2.12435,0.47287 -7.52685,1.12499 -9.59869,0.55714c-3.45188,-0.94617 -3.459,-2.64186 -5.33944,-4.99446c-0.56502,-0.70689 -1.44707,-1.16138 -1.88615,-1.95267c-0.32135,-0.57918 0.27185,-1.61245 -0.2882,-1.96608c-0.62575,-0.39512 -1.44542,0.34299 -2.18279,0.40579c-0.85688,0.07301 -1.7199,0 -2.57988,0c-5.15977,0 -10.31956,0 -15.47935,0c0,0 -2.14992,0 -2.14992,-2.14992c0,-2.14992 2.14992,-2.14992 2.14992,-2.14992c5.15977,0 10.31956,0 15.47935,0c1.5593,0 6.45983,-0.07402 7.27683,0.40579c1.00599,0.59084 0.80435,2.2101 1.4317,3.19372c0.38549,0.60444 1.10556,0.92758 1.55373,1.48717c0.84405,1.05397 1.57694,3.25101 3.26022,3.60516c1.5192,0.31966 6.18923,-0.42258 7.51415,-0.65907c1.70462,-0.30425 3.39571,-1.41528 5.08786,-1.04795c3.47258,0.75377 4.28105,4.37164 3.3806,7.16731c-0.33309,1.03408 -1.45732,1.61159 -2.18597,2.41743l-2.57988,2.57988c0,0 -1.5202,1.5202 -3.04045,0z" fill="#000000"/><path d="M106.57468,126.68512c0.61858,2.059 -1.44045,2.67758 -1.44045,2.67758l-0.18867,0.05668c-12.53757,3.76659 -25.11993,8.10343 -38.16611,7.98552l0.02347,0.37595l-4.27166,0.26698c-0.05083,0.00361 -0.10219,0.00542 -0.15393,0.00542c-1.18734,0 -2.14992,-0.96255 -2.14992,-2.14992c0,-0.44041 0.13246,-0.84992 0.35963,-1.19082l2.28436,-3.54547c2.55848,-3.94538 5.87028,-7.58603 9.44715,-10.87523c-0.10177,-0.24998 -0.15785,-0.52348 -0.15785,-0.81008c0,-0.51431 0.18059,-0.98645 0.48181,-1.35642l2.67538,-3.34423l0.05821,0.04657l0.08526,-0.20846c2.66782,-2.24191 5.28985,-4.42702 7.75481,-6.895c0,0 1.5202,-1.5202 3.04045,0c0.51909,0.51909 0.68371,1.0382 0.67536,1.49678l1.93638,-1.00536c0.30533,-0.16652 0.65553,-0.26113 1.0278,-0.26113c1.18734,0 2.14992,0.96255 2.14992,2.14992c0,0.75807 -0.39235,1.4245 -0.98511,1.80732l-3.54992,2.36663c-0.27168,0.26608 -6.05466,3.96667 -6.62087,4.4077c-5.31843,4.14253 -10.77598,9.13903 -14.40193,14.80625l0.04643,-0.0029l0.02111,0.33801c2.68489,-0.77306 5.30231,-0.39215 8.37597,-0.85471c9.70342,-1.46028 19.4041,-4.85561 28.77659,-7.67135l0.18867,-0.05668c0,0 2.059,-0.61858 2.67758,1.44045z" fill="#a2a2a2"/><path d="M287.25801,172.88181c0,2.14992 -2.14992,2.14992 -2.14992,2.14992h-1.7199c-10.81563,0 -21.56291,0.37037 -32.36869,0.82988c-11.04287,0.46962 -22.59972,2.7384 -33.22187,5.95645c-6.68059,2.02394 -13.22033,5.12619 -19.73246,7.64822c-7.9826,3.09149 -15.89578,6.88437 -24.18537,8.97116l0.15558,0.39773l-3.95863,1.54859c-0.25511,0.10668 -0.53514,0.16562 -0.82893,0.16562c-1.18734,0 -2.14992,-0.96255 -2.14992,-2.14992c0,-0.52949 0.19141,-1.01427 0.50884,-1.38895l2.74754,-3.28934l0.05049,0.04216l0.10138,-0.20582c2.2655,-1.79367 4.67013,-3.42271 6.80654,-5.36838c4.23123,-3.85349 7.59776,-8.67163 11.87338,-12.47716c3.20649,-2.85398 7.01786,-5.28142 10.45145,-7.86088c2.67217,-2.00744 5.40371,-4.82191 8.44319,-6.54043c-15.34018,0.23074 -30.51607,1.39067 -45.82502,2.74147c-8.0199,0.70764 -16.05307,1.85352 -24.07435,1.7168l0.02517,0.32709l-4.26364,0.32796c-0.06207,0.00539 -0.12493,0.00816 -0.18838,0.00816c-1.18734,0 -2.14992,-0.96255 -2.14992,-2.14992c0,-0.45176 0.13934,-0.87097 0.37738,-1.21702l1.7036,-2.55541c0,0 1.19255,-1.78885 2.9814,-0.59629c0.88232,0.58823 1.03932,1.32153 0.97185,1.91367l0.23793,-0.01832l0.02531,0.32886c2.16395,-0.70059 4.32115,-0.64533 6.85504,-0.85807c4.28054,-0.35943 8.55853,-0.7552 12.83751,-1.13277c18.16368,-1.60268 36.17306,-3.09541 54.41197,-3.17434l0.00465,0.00147v-0.00147h2.57988c1.18734,0 2.14992,0.96255 2.14992,2.14992c0,0.70223 -0.33664,1.32577 -0.85739,1.71815l-3.38989,2.60759c-5.94448,6.02233 -14.13385,9.85491 -20.44892,15.4757c-4.26126,3.7928 -7.61758,8.60172 -11.8369,12.44436c-0.05605,0.05102 -0.44024,0.35693 -0.99918,0.79807c0.41748,-0.14674 0.84086,-0.30089 1.26888,-0.46833c4.00663,-1.56737 8.01313,-3.13467 12.02509,-4.68842c7.9362,-3.07354 15.89965,-6.83688 24.04154,-9.30453c10.96489,-3.32327 22.89459,-5.65458 34.29252,-6.13931c10.8665,-0.46213 21.67491,-0.83379 32.55136,-0.83379h1.7199c0,0 2.14992,0 2.14992,2.14992z" fill="#a2a2a2"/><path d="M196.09349,98.53666c2.10813,0.4216 1.68654,2.5298 1.68654,2.5298l-0.01671,0.08352c-0.30303,1.4953 -2.45883,7.73601 0.03126,8.89346c1.54592,0.71862 5.94559,0.49274 7.33689,0.491c2.86654,-0.00359 5.73309,0 8.59963,0c10.03292,0 20.0658,0 30.09873,0c0,0 2.14992,0 2.14992,2.14992c0,2.14992 -2.14992,2.14992 -2.14992,2.14992c-11.46617,0 -22.93237,0 -34.39857,0c-3.98339,0 -10.42559,1.04661 -13.99521,-1.19555c-4.65823,-2.92591 -2.70936,-9.18051 -1.88911,-13.332l0.01671,-0.08352c0,0 0.4216,-2.10813 2.5298,-1.68654z" fill="#a2a2a2"/><path d="M178.04261,93.75902c0.00609,-2.14992 2.15601,-2.14383 2.15601,-2.14383l0.92034,0.0026c5.91111,0.01676 11.64191,-0.08078 17.48621,0.88661c0,0 2.12064,0.35344 1.76721,2.47407c-0.35344,2.12064 -2.47407,1.76721 -2.47407,1.76721c-5.60548,-0.94114 -11.11867,-0.81201 -16.79154,-0.8281l-0.92034,-0.0026c0,0 -2.14992,-0.00609 -2.14383,-2.15601z" fill="#a2a2a2"/><path d="M108.38551,204.70046c0,-1.18734 0.96255,-2.14992 2.14992,-2.14992c1.18734,0 2.14992,0.96255 2.14992,2.14992c0,1.18734 -0.96255,2.14992 -2.14992,2.14992c-1.18734,0 -2.14992,-0.96255 -2.14992,-2.14992z" fill="#a2a2a2"/></g></g></svg>