<svg version="1.1" xmlns="http://www.w3.org/2000/svg" xmlns:xlink="http://www.w3.org/1999/xlink" width="183.49378" height="123.77345" viewBox="0,0,183.49378,123.77345"><g transform="translate(-24.77838,-152.78)"><g data-paper-data="{&quot;isPaintingLayer&quot;:true}" fill-rule="nonzero" stroke="none" stroke-width="0.5" stroke-linecap="butt" stroke-linejoin="miter" stroke-miterlimit="10" stroke-dasharray="" stroke-dashoffset="0" style="mix-blend-mode: normal"><path d="M48.85674,247.84432c1.12052,0 1.12052,1.12052 1.12052,1.12052l-0.0084,2.10412c0.30562,1.20255 0.70573,2.38162 1.14814,3.54085c1.15394,2.46637 2.94213,4.43718 4.32427,6.78896c0.0361,0.06141 0.80694,1.51579 1.40462,2.64357l0.63082,-0.63082c0.20278,-0.20278 0.48291,-0.32818 0.79232,-0.32818c0.61883,0 1.12052,0.50167 1.12052,1.12052v0.95326c0.07775,0.25747 0.10302,0.48671 0.03342,0.73708c0.22797,-0.32739 0.46486,-0.64877 0.69425,-0.97516c1.01905,-1.45005 1.95464,-2.51696 3.18618,-3.74852l1.68874,-0.32818c0,0 1.12052,0 1.12052,1.12052c0,1.12052 -1.12052,1.12052 -1.12052,1.12052l-0.10409,-0.32818c-0.8894,0.8894 -1.55535,1.70501 -2.28087,2.62347c1.02731,-0.34124 2.04747,-0.67947 3.05744,-1.17455c2.74569,-1.34589 5.52262,-2.86934 8.54386,-3.47152c2.25068,-0.44861 4.18069,-0.83101 5.96781,0.93868c0.85808,0.84972 1.0797,2.16097 1.58273,3.25881c0.35867,0.53635 1.91936,2.93229 2.40189,3.41176c0.5112,0.50796 1.18748,0.82143 1.73466,1.29044c0.90698,0.7774 1.46299,1.98038 2.50715,2.56065c0.53845,0.29924 1.24198,0.17247 1.79282,0.44821c0.33947,0.16994 0.41497,0.7104 0.77314,0.83627c0.42981,0.15104 0.90862,-0.07299 1.36403,-0.0853c1.04542,-0.02825 2.09162,-0.00201 3.13744,0c7.57237,0.01463 14.76298,-3.70744 21.71133,-6.31308c3.20788,-1.19608 6.25934,-2.99074 8.88812,-5.18206c1.03169,-0.86001 3.27891,-3.00173 4.74935,-2.77786c0.71886,0.10944 0.69132,1.28007 1.06602,1.90324c0.79448,1.32133 2.0221,2.54171 3.25918,3.44718c3.03332,2.22018 5.99301,1.77625 9.5433,1.49307c0.68258,-0.05445 1.38456,0.01302 2.04838,-0.15497c2.62934,-0.66535 5.15547,-2.53762 7.43315,-3.93196c2.02068,-1.21378 2.9447,-2.58486 4.4037,-4.42232c3.58631,-4.51656 6.14332,-9.96809 8.48172,-15.2159c0.4309,-0.96701 1.00659,-1.88533 1.27203,-2.91018c0.19463,-0.7514 -0.23308,-1.71588 0.26181,-2.31382c0.22533,-0.27225 4.02818,-0.84721 4.26775,-0.88696c3.74433,-0.62114 7.56795,-0.38368 11.35886,-0.38368c2.24078,0 4.48238,-0.01589 6.72309,0c0.66126,0.00469 1.33712,0.16904 1.9836,0.02998c0.56677,-0.12194 1.95861,-1.08392 2.51588,-1.44754c1.44007,-0.93966 3.94242,-2.2543 4.82464,-3.82343c0.27587,-0.49066 0.19495,-1.10892 0.30649,-1.66065c0.49261,-2.4364 0.9824,-5.64081 -0.27503,-7.97236c-0.1716,-0.3182 -0.55107,-0.47249 -0.78612,-0.74718c-1.30755,-1.5281 -2.55924,-2.92725 -4.50254,-3.7314c-0.52724,-0.21817 -1.13738,-0.16354 -1.67412,-0.3572l-2.16611,-0.48137c-0.51274,-0.10283 -0.89898,-0.55562 -0.89898,-1.09862c0,-0.37125 0.18055,-0.70035 0.45863,-0.90423l1.7345,-1.30087c2.99461,-3.00173 6.17556,-5.91562 8.96118,-9.1141c1.45434,-1.6699 2.65725,-3.40534 4.25204,-4.95707c1.40352,-4.44358 -2.60667,-6.31367 -5.83648,-8.22308c-2.53612,-1.49932 -5.30956,-2.10102 -8.12779,-2.93442c-2.81928,-0.8337 -5.65838,-1.87607 -8.52524,-2.52357c-4.31416,-0.97436 -8.83935,-1.39441 -13.20941,-2.08501c-2.92568,-0.46233 -5.86445,-1.0558 -8.80682,-1.39273c-5.90195,-0.67587 -11.90879,-0.84961 -17.83501,-1.27291c-3.59702,-0.25693 -7.01212,-0.49303 -10.52117,-1.34554c-0.83912,-0.20386 -1.76387,-0.20391 -2.51113,-0.63668c-2.20632,-1.27778 -1.50587,-4.26363 -1.63425,-6.35142c-0.50207,-2.56726 -1.24716,-4.82459 -2.69751,-7.02753c-0.75084,-1.14044 -1.87662,-1.99926 -2.95513,-2.83663c-0.40851,-0.31718 -2.45949,-2.08226 -2.57967,-2.16455c-2.77668,-1.90089 -6.51613,-2.07589 -9.72323,-2.07589c-3.42268,0 -6.97505,-0.23699 -10.34526,0.51205c-1.3827,0.30732 -2.69432,0.87517 -4.04336,1.30689c-4.11563,2.48855 -8.0744,5.29605 -12.24305,7.67847c-1.22838,0.70205 -2.50157,1.32298 -3.7392,2.00863c-0.55644,0.30827 -1.0094,0.84412 -1.62665,0.99798c-0.82814,0.20642 -1.70657,0.0401 -2.56002,0.04555c-1.36238,0.00871 -3.84946,0.12776 -5.0584,-0.63656c-1.8002,-1.13814 -1.34748,-2.72054 -1.52108,-4.43373c-0.15382,-1.518 -0.32095,-3.04021 -0.32198,-4.56596c-0.00068,-0.98599 0.07674,-1.97393 0.01447,-2.95796c-0.01566,-0.24753 0.05425,-0.57088 -0.13448,-0.73178c-0.24603,-0.20976 -0.63367,-0.12877 -0.95051,-0.19316c-0.99141,-0.42396 -1.9083,-1.07755 -2.96453,-1.29435c-0.65822,-0.13511 -1.34379,0.01884 -2.01573,0.02288c-1.09635,0.00658 -2.2118,-0.245 -3.28884,-0.04002c-0.93121,0.17722 -1.51439,1.16331 -2.13029,1.88389c-1.29735,1.51782 -2.35771,3.34414 -3.41474,5.02935c-1.57805,2.51587 -3.3456,4.94141 -4.8498,7.5001c-2.56749,4.36743 -4.67554,9.03222 -6.79706,13.62513c-0.88179,2.32743 -2.27008,4.86163 -2.61269,7.34111c-0.35012,2.53392 1.19711,6.72436 -1.47738,8.452c-0.25422,0.16422 -2.72667,0.13258 -3.21795,0.13258c-2.20805,0 -3.99346,0.17742 -6.16446,0.44275c-0.35523,0.04342 -2.02016,-0.23365 -2.29469,0.37044c-0.22886,0.50358 0.14013,1.09847 0.16735,1.65094c0.0297,0.60272 0.00215,1.20691 0.00322,1.81037c0.00394,2.22338 0.02135,4.44644 0.03785,6.66977c0.23452,2.56733 0.26948,5.32997 0.8276,7.85661c1.03905,4.70387 3.52103,8.76783 6.53841,12.42168c1.35888,1.64553 2.6416,3.50364 4.28437,4.88787c1.73917,1.46548 3.65142,2.81333 5.65549,3.91814c0.59288,0.32685 1.29878,0.47271 1.81604,0.90951c0.01787,0.01511 0.03562,0.03031 0.05322,0.04569l0.00591,-0.00887l1.33015,0.88677c0.30891,0.19951 0.51343,0.54686 0.51343,0.94196c0,0.61883 -0.50167,1.12052 -1.12052,1.12052h-1.02792c-1.55398,1.44986 -3.12686,2.43092 -5.03999,3.37415c-0.77702,0.79018 -1.80374,1.37928 -2.36934,2.33229c-0.4717,0.7948 -0.30407,2.79447 -0.30276,3.48178c0.00252,1.32147 -0.24466,2.67383 0.04027,3.96421c0.85929,3.8914 4.16482,6.99438 6.86584,9.64662c0.75276,0.73916 2.25854,2.24454 3.1671,2.83902c0.50321,0.32923 1.02176,0.54439 1.54834,0.70135c0.01195,-0.2866 0.07005,-0.55479 0.2433,-0.77456c0.46656,-0.59174 1.3396,-0.7309 2.07414,-0.89908c0.50205,-0.11494 1.07146,0.27684 1.5435,0.07083c0.5179,-0.22604 1.04346,-0.92061 1.53795,-1.64275c-0.33498,-0.61823 -0.62303,-1.18953 -0.80743,-1.53661c-1.66227,-3.12889 -3.97221,-5.80784 -5.48187,-8.98368c-0.51523,-1.35433 -0.96339,-2.73799 -1.31043,-4.14484l-0.0084,-2.37794c0,0 0,-1.12052 1.12052,-1.12052zM54.33909,270.40004c0.4657,0.23683 0.75777,0.71944 1.13666,1.07916c0,0 0.79232,0.79232 0,1.58466c-0.79232,0.79232 -1.58466,0 -1.58466,0c-0.501,-0.54492 -1.05003,-0.80067 -1.63842,-0.95126c-0.0043,0.90154 0.07701,1.65118 0.98202,2.50406c0,0 0.79232,0.79232 0,1.58466c-0.79232,0.79232 -1.58466,0 -1.58466,0c-1.35256,-1.40677 -1.70957,-2.78279 -1.71505,-4.50508c-0.16496,-0.04128 -0.33167,-0.08981 -0.49997,-0.14826c-0.79214,-0.27509 -1.54944,-0.66175 -2.25536,-1.11434c-1.05488,-0.67633 -2.62308,-2.24193 -3.51937,-3.12108c-3.04471,-2.98639 -6.51631,-6.42891 -7.48949,-10.78625c-0.11731,-0.52527 -0.08883,-3.93709 -0.08795,-4.42405c0.00268,-1.50143 -0.18662,-3.1851 0.59364,-4.58592c0.12774,-0.22935 2.78348,-2.82364 3.00913,-3.04617c1.73313,-0.87762 3.167,-1.79981 4.6364,-2.92821c-0.31655,-0.17527 -0.62082,-0.38564 -0.93478,-0.55899c-1.72632,-0.95323 -3.14272,-2.04469 -4.65324,-3.25315c-5.97222,-4.77794 -11.24538,-11.82761 -12.93212,-19.44331c-0.58749,-2.65256 -0.63645,-5.54606 -0.8804,-8.24199c-0.02364,-2.85525 -0.14465,-5.73453 -0.04377,-8.58849c0.0334,-0.94476 -0.33543,-2.03055 0.16735,-2.83112c1.21714,-1.93806 2.42838,-1.22717 3.98019,-1.42238c2.22269,-0.27962 4.12516,-0.45366 6.3853,-0.45366c0.44821,0 0.89725,-0.02745 1.34461,0c0.27501,0.01688 0.5665,0.2497 0.81589,0.13258c0.2315,-0.10871 0.30761,-0.42965 0.3527,-0.68139c0.19912,-1.11212 -0.05138,-2.57262 -0.04807,-3.70913c0.0108,-3.73183 1.46772,-6.8499 2.77662,-10.29433c2.1606,-4.68497 4.31318,-9.43951 6.93141,-13.89325c1.5152,-2.5774 3.29335,-5.0215 4.88335,-7.55535c1.51054,-2.40723 3.79914,-7.12403 6.84978,-7.88325c0.67606,-0.16824 1.39299,-0.03284 2.08963,-0.04002c0.46515,-0.00479 4.15278,0.00106 4.25915,0.02288c0.13977,0.02869 2.65369,1.11278 3.31035,1.39487c0.57958,0.23442 1.31056,0.2477 1.73873,0.70326c0.92417,0.98331 0.77127,2.30772 0.7764,3.48155c0.00916,2.10045 0.12679,4.06048 0.31186,6.14591c0.01782,0.2008 -0.26516,2.39626 0.53431,2.78261c0.75916,0.36689 3.15417,0.25152 3.81864,0.25953c0.64081,0.0077 1.29941,0.19771 1.92203,0.04589c0.45262,-0.11037 0.7457,-0.56274 1.14965,-0.79484c0.58809,-0.3379 1.2219,-0.59014 1.81942,-0.91112c4.94036,-2.65381 9.52448,-5.99672 14.34581,-8.86955c0.14572,-0.04767 4.32191,-1.41833 4.48481,-1.45452c3.53614,-0.78594 7.2399,-0.56544 10.83149,-0.56544c3.63228,0 7.74863,0.29323 10.89422,2.40617c0.58605,0.39366 2.04962,1.73175 2.79878,2.31751c1.25957,0.98481 2.53851,2.02554 3.43045,3.35249c1.66151,2.4719 2.48924,5.09058 3.05487,7.98392c0.08906,1.40377 -0.11878,2.83282 0.12631,4.21789c0.03889,0.21973 0.23542,0.42184 0.44406,0.50094c4.39793,1.66739 9.65286,1.49501 14.26839,1.82468c5.21534,0.37252 10.50094,0.52729 15.69498,1.12209c2.97416,0.34059 5.94441,0.93834 8.90167,1.40565c4.41867,0.69826 8.99092,1.12734 13.35332,2.1126c2.91481,0.65831 5.80072,1.71288 8.66701,2.5605c3.00585,0.88887 5.91396,1.56068 8.62904,3.15214c3.70625,2.17243 7.98651,4.51378 7.20715,9.57836c-0.09402,0.61091 -0.40072,1.16948 -0.60107,1.75421c-1.63705,1.67524 -2.93688,3.49219 -4.46839,5.2507c-2.85781,3.28139 -6.11741,6.27754 -9.19679,9.34929l-0.08732,0.01598l0.01588,0.02118c1.48515,-0.05602 2.62638,0.59017 4.11836,1.57596c1.24127,0.82014 2.27149,1.94172 3.23307,3.07695c0.31271,0.36918 0.78172,0.6173 1.00671,1.04565c1.5193,2.89263 1.23854,6.5592 0.56059,9.61726c-0.1677,0.75649 -0.1473,1.58932 -0.52912,2.2636c-0.42961,0.75869 -1.17784,1.28863 -1.8177,1.88087c-1.68053,1.55546 -4.64587,3.97089 -6.9772,4.50149c-0.81212,0.18484 -1.6656,0.02471 -2.49848,0.02998c-2.24078,0.01417 -4.48226,0 -6.72309,0c-3.66155,0 -7.37578,-0.25216 -10.99044,0.35317c-0.74634,0.12497 -1.48388,0.32978 -2.23939,0.37284c-0.25067,0.01428 -0.62522,-0.43417 -0.72515,-0.20384c-0.17226,0.39708 0.3443,0.84693 0.26181,1.27182c-0.30076,1.54937 -1.69046,3.96645 -2.34951,5.41597c-2.15037,4.72949 -4.61106,9.57208 -7.84373,13.65212c-1.62196,2.04715 -2.75157,3.54922 -4.98942,4.941c-2.4795,1.5179 -5.18679,3.46642 -8.04731,4.19162c-0.08938,0.02265 -4.50482,0.39647 -4.68746,0.40578c-1.43426,0.07314 -2.90172,0.35055 -4.30797,0.05916c-2.77424,-0.57484 -5.63071,-2.6979 -7.38545,-4.87072c-0.39358,-0.48734 -0.82186,-0.97833 -1.03906,-1.56588c-0.09294,-0.2514 0.4248,-0.86802 0.16962,-0.78601c-0.4273,0.13732 -0.55783,0.70734 -0.88405,1.01561c-0.09389,0.08872 -3.43617,2.86461 -3.44856,2.87328c-2.35642,1.65277 -5.05933,3.05682 -7.74048,4.06752c-7.23968,2.71489 -14.61416,6.44153 -22.49821,6.45576c-1.55902,0.00281 -3.89974,0.38377 -5.35906,-0.0853c-0.44369,-0.14262 -0.60276,-0.74833 -1.01968,-0.95655c-0.55107,-0.27525 -1.26109,-0.13721 -1.79282,-0.44821c-0.37692,-0.22046 -2.42893,-2.43862 -2.87132,-2.8178c-0.58718,-0.50328 -1.30568,-0.85039 -1.85099,-1.3988c-0.71333,-0.71736 -2.21118,-3.05731 -2.77354,-3.90318c-0.35523,-0.76927 -0.96644,-3.09284 -2.13731,-3.43621c-0.9722,-0.28509 -2.02612,0.14648 -3.01991,0.3435c-3.54779,0.70332 -6.36992,3.03305 -9.74333,4.12784c-0.70975,0.23034 -1.4871,0.20317 -2.19513,0.43869c-1.42849,0.47519 -3.73052,2.36272 -5.41493,1.28035c-0.2258,-0.14509 -0.47986,-0.42858 -0.74189,-0.78714c-0.50751,0.69082 -1.07031,1.33052 -1.88622,1.73084c-0.61149,0.3 -1.36124,0.05336 -2.04214,0.07083c-0.14836,0.00381 -0.3498,-0.09192 -0.48913,-0.07802c0.74596,0.14268 1.48803,0.32085 2.20634,0.68614z" fill="#000000"/><path d="M47.75623,248.95472l0.00811,2.37738c0.34704,1.40683 0.79458,2.78947 1.30983,4.14378c1.50966,3.17583 3.81788,5.85237 5.48016,8.98126c0.18438,0.34707 0.47216,0.91802 0.80712,1.53625c-0.49446,0.72213 -1.05418,1.44576 -1.57209,1.6718c-0.47204,0.20601 -1.04163,-0.18599 -1.54368,-0.07104c-0.73454,0.16816 -1.573,0.27882 -2.03957,0.87055c-0.17326,0.21974 -0.26596,0.51646 -0.27791,0.80303c-0.52658,-0.15696 -1.04539,-0.37241 -1.54857,-0.70165c-0.90856,-0.59446 -2.41499,-2.1007 -3.16774,-2.83986c-2.70102,-2.65224 -6.00814,-5.75775 -6.86744,-9.64917c-0.28494,-1.29038 -0.03817,-2.64355 -0.04068,-3.96502c-0.0013,-0.68731 -0.16926,-2.6877 0.30244,-3.48249c0.5656,-0.95304 1.59218,-1.54242 2.36922,-2.3326c1.91314,-0.94322 3.48589,-1.92458 5.03986,-3.37445l1.06938,-0.01701c0.61883,0 1.07903,-0.48472 1.07903,-1.10356c0,-0.3951 -0.20461,-0.74275 -0.51355,-0.94226l-1.33029,-0.88713l-0.00591,0.00887c-0.0176,-0.01535 -0.03536,-0.03061 -0.05323,-0.0457c-0.51726,-0.43681 -1.22329,-0.58307 -1.81618,-0.90994c-2.00407,-1.10481 -3.91677,-2.45415 -5.65592,-3.91962c-1.64276,-1.38423 -2.92584,-3.24389 -4.28472,-4.88939c-3.01739,-3.65385 -5.49975,-7.7212 -6.53881,-12.42508c-0.55812,-2.52663 -0.59305,-5.29125 -0.82757,-7.85859c-0.01651,-2.22331 -0.03375,-4.44803 -0.0377,-6.6714c-0.00107,-0.60346 0.02654,-1.20809 -0.00315,-1.81082c-0.02722,-0.55246 -0.39613,-1.14777 -0.16729,-1.65135c0.27452,-0.60408 1.93948,-0.3272 2.29471,-0.37062c2.17103,-0.26532 3.95649,-0.44315 6.16453,-0.44315c0.49128,0 2.96377,0.03143 3.218,-0.13278c2.67448,-1.72766 1.12785,-5.92041 1.47797,-8.45433c0.34259,-2.47946 1.73165,-5.01573 2.61344,-7.34316c2.12154,-4.59291 4.23159,-9.26143 6.79908,-13.62886c1.50419,-2.55868 3.27323,-4.98623 4.85129,-7.50208c1.05703,-1.68522 2.11851,-3.51275 3.41586,-5.03058c0.61591,-0.72058 1.19963,-1.70722 2.13084,-1.88444c1.07703,-0.20497 2.19298,0.04617 3.28932,0.03957c0.67194,-0.00403 1.35784,-0.15828 2.01606,-0.02318c1.05624,0.2168 1.97344,0.87013 2.96485,1.29408c0.31685,0.0644 0.7046,-0.0167 0.95064,0.19304c0.18873,0.1609 0.1473,0.51887 0.16299,0.76638c0.06226,0.98403 -0.01469,1.97157 -0.01401,2.95756c0.00106,1.52577 0.16883,3.04737 0.32267,4.56536c0.1736,1.71319 -0.31042,3.26352 1.48976,4.40166c1.20895,0.76433 3.69686,0.64445 5.05925,0.63577c0.85346,-0.00545 1.73245,0.16036 2.56059,-0.04605c0.61725,-0.15385 1.07076,-0.69016 1.6272,-0.99843c1.23761,-0.68565 2.51212,-1.30755 3.7405,-2.0096c4.16865,-2.38243 8.13236,-5.19247 12.24799,-7.68101c1.34904,-0.43174 2.66221,-1.00009 4.04491,-1.30741c3.37023,-0.74905 6.92648,-0.5128 10.34917,-0.5128c3.2071,0 6.95042,0.17495 9.7271,2.07584c0.12018,0.08229 2.17233,1.84747 2.58083,2.16465c1.0785,0.83737 2.2057,1.69643 2.95656,2.83687c1.45037,2.20294 2.19741,4.46073 2.69946,7.02798c0.12839,2.08779 -0.57026,5.07424 1.63606,6.35201c0.74726,0.43277 1.67336,0.43337 2.51248,0.63723c3.50904,0.85253 6.92862,1.09134 10.52562,1.34827c5.92623,0.4233 11.93729,0.60136 17.83922,1.27722c2.94236,0.33695 5.88242,0.93232 8.8081,1.39465c4.37006,0.69058 8.89645,1.11297 13.21061,2.08732c2.86685,0.6475 5.70656,1.69135 8.52584,2.52505c2.81823,0.83341 5.5921,1.43646 8.12824,2.93578c3.22982,1.90941 7.24054,3.7818 5.83703,8.22537c-1.59478,1.55173 -2.79753,3.28824 -4.25187,4.95814c-2.78561,3.19848 -5.96641,6.11469 -8.961,9.11642l-1.73448,1.30124c-0.2781,0.2039 -0.45863,0.53325 -0.45863,0.90452c0,0.543 0.38624,0.99612 0.89898,1.09895l2.16611,0.48148c0.53673,0.19367 1.14688,0.13911 1.67412,0.35729c1.9433,0.80415 3.19493,2.20426 4.50249,3.73237c0.23505,0.27469 0.61451,0.42918 0.78611,0.74736c1.25743,2.33155 0.76739,5.53801 0.27478,7.97442c-0.11156,0.55174 -0.03071,1.17042 -0.30657,1.66108c-0.88223,1.56913 -3.38487,2.88503 -4.82493,3.82469c-0.55727,0.36363 -1.94925,1.32616 -2.51601,1.44809c-0.64648,0.13908 -1.32237,-0.02514 -1.98362,-0.02982c-2.24072,-0.01589 -4.48248,0.00055 -6.72326,0.00055c-3.7909,0 -7.61499,-0.23614 -11.35933,0.38499c-0.23957,0.03975 -4.04277,0.61557 -4.2681,0.88783c-0.49491,0.59797 -0.06754,1.56322 -0.26218,2.31461c-0.26547,1.02485 -0.84171,1.94426 -1.27261,2.91127c-2.33841,5.24779 -4.89938,10.70453 -8.48569,15.22111c-1.45901,1.83745 -2.38475,3.21006 -4.40543,4.42384c-2.27769,1.39437 -4.80636,3.26838 -7.43571,3.93372c-0.66381,0.16797 -1.36641,0.10086 -2.04899,0.1553c-3.55029,0.28317 -6.51291,0.72844 -9.54623,-1.49173c-1.23709,-0.90547 -2.4655,-2.12556 -3.25998,-3.44688c-0.3747,-0.62317 -0.34735,-1.79373 -1.06622,-1.90316c-1.47044,-0.22387 -3.72004,1.91848 -4.75176,2.77849c-2.62878,2.19132 -5.68437,3.98642 -8.89225,5.1825c-6.94836,2.60564 -14.14676,6.32642 -21.71913,6.31179c-1.04582,-0.00201 -2.09299,-0.02861 -3.13841,-0.00037c-0.45539,0.01231 -0.93461,0.23616 -1.36442,0.08513c-0.35817,-0.12586 -0.434,-0.66648 -0.77348,-0.83642c-0.55084,-0.27574 -1.25496,-0.14924 -1.79339,-0.44848c-1.04416,-0.58028 -1.60122,-1.78379 -2.50821,-2.56121c-0.54718,-0.469 -1.22412,-0.78285 -1.73532,-1.29084c-0.48254,-0.47947 -2.0444,-2.87614 -2.40308,-3.4125c-0.50301,-1.09786 -0.72559,-2.40981 -1.58369,-3.25951c-1.78711,-1.76968 -3.71858,-1.38848 -5.96927,-0.93988c-3.02124,0.60219 -5.79907,2.12477 -8.54477,3.47066c-1.00998,0.49508 -2.03042,0.83303 -3.05773,1.17427c0.72552,-0.91846 1.42404,-1.76486 2.31344,-2.65426l0.10402,0.32811c0,0 1.088,0.03085 1.088,-1.08965c0,-1.12052 -1.12085,-1.12089 -1.12085,-1.12089l-1.68892,0.32799c-1.23155,1.23155 -2.13366,2.26865 -3.15273,3.71869c-0.2294,0.3264 -0.49955,0.67781 -0.7275,1.0052c0.0696,-0.25036 0.04423,-0.47972 -0.03353,-0.7372l-0.00014,-0.9534c0,-0.61883 -0.50197,-1.12087 -1.12082,-1.12087c-0.30943,0 -0.5896,0.12535 -0.79237,0.32813l-0.63082,0.63083c-0.5977,-1.12778 -1.36905,-2.58282 -1.40516,-2.64423c-1.38214,-2.35178 -3.17167,-4.3245 -4.32561,-6.79089c-0.44241,-1.15923 -0.84307,-2.33922 -1.14868,-3.54176l0.00814,-2.10459c0,0 -0.00021,-1.12091 -1.12073,-1.12091c-1.12052,0 -1.08045,1.10042 -1.08045,1.10042z" data-paper-data="{&quot;noHover&quot;:false,&quot;origItem&quot;:[&quot;Path&quot;,{&quot;applyMatrix&quot;:true,&quot;selected&quot;:true,&quot;segments&quot;:[[[39.00233,259.59394],[-0.66193,0],[0.66193,0],7],[[39.66426,260.25586],[0,0],[0,0],7],[[39.6593,261.49884],[0,0],[0.18054,0.71039],7],[[40.33756,263.59055],[-0.26135,-0.6848],[0.68167,1.45697],7],[[42.89206,267.60103],[-0.81648,-1.38928],[0.02132,0.03628],7],[[43.72182,269.16269],[-0.35308,-0.66622],[0,0],7],[[44.09447,268.79003],[0,0],[0.11979,-0.11979],7],[[44.56253,268.59616],[-0.18279,0],[0.36557,0],7],[[45.22445,269.25808],[0,-0.36557],[0,0],7],[[45.22445,269.82121],[0,0],[0.04593,0.1521],7],[[45.24419,270.25662],[0.04112,-0.1479],[0.13467,-0.1934],7],[[45.65431,269.68056],[-0.13551,0.19282],[0.60199,-0.8566],7],[[47.5365,267.46617],[-0.72752,0.72752],[0,0],7],[[48.53409,267.2723],[0,0],[0,0],7],[[49.19602,267.93423],[0,-0.66193],[0,0.66193],7],[[48.53409,268.59616],[0,0],[0,0],7],[[48.47261,268.40228],[0,0],[-0.5254,0.5254],7],[[47.12521,269.95206],[0.42859,-0.54257],[0.60687,-0.20158],7],[[48.93136,269.25821],[-0.59663,0.29246],[1.62198,-0.79506],7],[[53.97852,267.20746],[-1.78475,0.35574],[1.32956,-0.26501],7],[[57.50391,267.76196],[-1.05571,-1.04541],[0.5069,0.50196],7],[[58.43888,269.68707],[-0.29715,-0.64854],[0.21188,0.31684],7],[[59.85777,271.70251],[-0.28505,-0.28324],[0.30199,0.30007],7],[[60.88249,272.46482],[-0.32324,-0.27706],[0.53578,0.45924],7],[[62.36356,273.9775],[-0.61682,-0.34279],[0.31808,0.17677],7],[[63.42264,274.24227],[-0.3254,-0.16289],[0.20054,0.10039],7],[[63.87936,274.73628],[-0.21158,-0.07435],[0.2539,0.08922],7],[[64.68514,274.68589],[-0.26902,0.00727],[0.61757,-0.01669],7],[[66.53853,274.68589],[-0.6178,-0.00119],[4.47327,0.00864],7],[[79.36419,270.95654],[-4.10464,1.53924],[1.89501,-0.70657],7],[[84.61473,267.89531],[-1.55291,1.29449],[0.60946,-0.50804],7],[[87.42034,266.25433],[-0.86864,-0.13225],[0.42466,0.06465],7],[[88.05008,267.37864],[-0.22135,-0.36813],[0.46933,0.78056],7],[[89.97539,269.415],[-0.73079,-0.53489],[1.79189,1.31154],7],[[95.61297,270.29701],[-2.09728,0.16728],[0.40322,-0.03216],7],[[96.82302,270.20547],[-0.39214,0.09923],[1.55325,-0.39304],7],[[101.21404,267.88272],[-1.34551,0.8237],[1.19369,-0.71702],7],[[103.81547,265.2703],[-0.86189,1.08545],[2.11856,-2.6681],7],[[108.82593,256.28173],[-1.38138,3.10006],[0.25455,-0.57125],7],[[109.57737,254.56258],[-0.15682,0.60542],[0.11497,-0.44388],7],[[109.73203,253.19572],[-0.29236,0.35324],[0.13311,-0.16083],7],[[112.25314,252.67176],[-0.14152,0.02348],[2.21191,-0.36693],7],[[118.96323,252.44511],[-2.23942,0],[1.32371,0],7],[[122.93479,252.44511],[-1.32367,-0.00939],[0.39063,0.00277],7],[[124.10657,252.46282],[-0.3819,0.08216],[0.33481,-0.07203],7],[[125.59278,251.60771],[-0.3292,0.21481],[0.8507,-0.55509],7],[[128.44287,249.34907],[-0.52116,0.92694],[0.16297,-0.28985],7],[[128.62393,248.36806],[-0.0659,0.32593],[0.291,-1.43927],7],[[128.46146,243.65851],[0.74281,1.37733],[-0.10137,-0.18797],7],[[127.99707,243.21712],[0.13885,0.16227],[-0.77242,-0.9027],7],[[125.33726,241.01285],[1.14798,0.47504],[-0.31146,-0.12888],7],[[124.3483,240.80183],[0.31706,0.11441],[0,0],7],[[123.0687,240.51748],[0,0],[-0.30289,-0.06074],7],[[122.53764,239.86848],[0,0.32077],[0,-0.21931],7],[[122.80857,239.33432],[-0.16428,0.12045],[0,0],7],[[123.8332,238.56585],[0,0],[1.76902,-1.77323],7],[[129.12689,233.18182],[-1.64556,1.88946],[0.85913,-0.98647],7],[[131.63872,230.2535],[-0.94209,0.91666],[0.82911,-2.62498],7],[[128.19089,225.39583],[1.90797,1.12796],[-1.49818,-0.8857],7],[[123.38952,223.66236],[1.66483,0.49232],[-1.66545,-0.4925],7],[[118.35336,222.17161],[1.69355,0.3825],[-2.54853,-0.57559],7],[[110.55009,220.93992],[2.58155,0.40795],[-1.7283,-0.27312],7],[[105.34758,220.11718],[1.73816,0.19905],[-3.48649,-0.39926],7],[[94.8118,219.36523],[3.50084,0.25006],[-2.12489,-0.15178],7],[[88.59657,218.57036],[2.07292,0.50362],[-0.4957,-0.12043],7],[[87.11316,218.19426],[0.44143,0.25565],[-1.30335,-0.75483],7],[[86.14775,214.44225],[0.07584,1.23333],[-0.29659,-1.51657],7],[[84.55422,210.29084],[0.85679,1.30135],[-0.44355,-0.6737],7],[[82.80853,208.61514],[0.63711,0.49467],[-0.24132,-0.18737],7],[[81.28461,207.33646],[0.071,0.04861],[-1.64029,-1.12292],7],[[75.54075,206.11016],[1.89455,0],[-2.0219,0],7],[[69.42943,206.41265],[1.99091,-0.44249],[-0.81681,0.18154],7],[[67.04087,207.18469],[0.79693,-0.25504],[-2.43125,1.47008],7],[[59.80846,211.72064],[2.46257,-1.40739],[-0.72565,0.41472],7],[[57.59959,212.9072],[0.7311,-0.40504],[-0.32871,0.18211],7],[[56.63867,213.49674],[0.36463,-0.09088],[-0.48921,0.12194],7],[[55.12637,213.52365],[0.50417,-0.00322],[-0.80481,0.00514],7],[[52.13819,213.14761],[0.71417,0.45152],[-1.06344,-0.67234],7],[[51.23964,210.52846],[0.10255,1.01204],[-0.09087,-0.89674],7],[[51.04942,207.83117],[0.00062,0.90133],[-0.0004,-0.58246],7],[[51.05797,206.0838],[0.03678,0.5813],[-0.00925,-0.14622],7],[[50.97852,205.65151],[0.11149,0.09505],[-0.14534,-0.12391],7],[[50.41703,205.53741],[0.18717,0.03804],[-0.58566,-0.25045],7],[[48.66577,204.77279],[0.62396,0.12807],[-0.38884,-0.07981],7],[[47.47501,204.7863],[0.39694,-0.00238],[-0.64765,0.00389],7],[[45.53217,204.76266],[0.63624,-0.12108],[-0.5501,0.10469],7],[[44.27374,205.87554],[0.36384,-0.42567],[-0.76639,0.89663],7],[[42.25652,208.84656],[0.62443,-0.99552],[-0.93221,1.48621],7],[[39.39157,213.27715],[0.88858,-1.51151],[-1.51671,2.58],7],[[35.3763,221.326],[1.25327,-2.7132],[-0.5209,1.3749],7],[[33.8329,225.66265],[0.20238,-1.46471],[-0.20683,1.49688],7],[[32.96016,230.65556],[1.57991,-1.02059],[-0.15018,0.09701],7],[[31.0592,230.73388],[0.29022,0],[-1.30437,0],7],[[27.41763,230.99543],[1.2825,-0.15674],[-0.20985,0.02565],7],[[26.06207,231.21426],[0.16217,-0.35685],[-0.13519,0.29748],7],[[26.16093,232.18953],[-0.01608,-0.32636],[0.01754,0.35605],7],[[26.16283,233.25899],[-0.00063,-0.35648],[0.00233,1.31343],7],[[26.18519,237.19905],[-0.00975,-1.31339],[0.13854,1.51661],7],[[26.67407,241.84023],[-0.3297,-1.49257],[0.6138,2.77874],7],[[30.53655,249.17816],[-1.78248,-2.15846],[0.80274,0.97207],7],[[33.06748,252.0656],[-0.97044,-0.81772],[1.02739,0.86571],7],[[36.40837,254.38019],[-1.18388,-0.65265],[0.35024,0.19308],7],[[37.48117,254.91748],[-0.30556,-0.25804],[0.01056,0.00892],7],[[37.51261,254.94446],[-0.0104,-0.00907],[0,0],7],[[37.51611,254.93923],[0,0],[0,0],7],[[38.30188,255.46307],[0,0],[0.18249,0.11786],7],[[38.60518,256.01953],[0,-0.2334],[0,0.36557],7],[[37.94325,256.68145],[0.36557,0],[0,0],7],[[37.33602,256.68145],[0,0],[-0.91799,0.85648],7],[[34.35872,258.67468],[1.13016,-0.5572],[-0.45901,0.46679],7],[[32.95906,260.05245],[0.33412,-0.56299],[-0.27865,0.46952],7],[[32.78021,262.10926],[-0.00077,-0.40602],[0.00149,0.78064],7],[[32.804,264.45107],[-0.16832,-0.76228],[0.50761,2.29879],7],[[36.8599,270.14967],[-1.59559,-1.56677],[0.44468,0.43665],7],[[38.73082,271.82677],[-0.53672,-0.35117],[0.29726,0.19449],7],[[39.64547,272.24109],[-0.31107,-0.09272],[0.00706,-0.1693],7],[[39.7892,271.78353],[-0.10235,0.12981],[0.27561,-0.34956],7],[[41.01447,271.25242],[-0.43392,0.09934],[0.29658,-0.0679],7],[[41.92628,271.29425],[-0.27885,0.1217],[0.30594,-0.13353],7],[[42.83479,270.32382],[-0.2921,0.42659],[-0.19788,-0.36521],7],[[42.35782,269.41609],[0.10892,0.20503],[-0.98196,-1.84835],7],[[39.11948,264.1091],[0.89181,1.87608],[-0.30437,-0.80005],7],[[38.34536,261.6606],[0.20501,0.83107],[0,0],7],[[38.3404,260.25586],[0,0],[0,0],7]],&quot;closed&quot;:true}]}" fill="#ffa000"/><path d="M67.57729,235.62275c0.79232,0.79232 0,1.58466 0,1.58466l-1.25994,1.13931c-2.11728,0.08129 -5.30506,0.59458 -7.25576,-0.50835c-1.76876,-1.00008 -1.51891,-1.92794 -1.46119,-3.74304c0.00666,-0.20949 0.46904,-4.64693 0.49811,-4.74556c0.39876,-1.35285 1.37056,-2.46574 2.08506,-3.68177c0.39,-0.66376 0.66511,-1.41603 1.18948,-1.97969c0.01328,-0.01427 0.02689,-0.02811 0.0408,-0.04158l-0.00252,-0.00189c-1.58101,0.01119 -3.1766,0.03929 -4.74726,-0.05215c-0.88758,-0.05166 -1.85338,0.1247 -2.65447,-0.26098c-2.67629,-1.28854 -2.68389,-3.73127 -2.68772,-6.18947c-0.00268,-1.72351 0.3049,-3.83877 1.00734,-5.41637c0.54897,-1.23293 1.64173,-2.1428 2.44033,-3.23079c0.5148,-0.70135 0.81266,-1.6083 1.50944,-2.12929c0.60154,-0.44979 1.44435,-0.41289 2.16653,-0.61935c0,0 1.08705,-0.27176 1.35883,0.81529c0.27176,1.08705 -0.81529,1.35883 -0.81529,1.35883c-0.47304,0.09236 -1.03971,-0.02017 -1.41911,0.27708c-0.49187,0.38537 -0.62125,1.08614 -0.97677,1.60001c-0.69556,1.00538 -1.75657,1.77959 -2.24477,2.90044c-0.55899,1.28342 -0.78289,3.04858 -0.78548,4.44416c-0.00249,1.33562 -0.309,3.44764 1.37798,4.15111c0.55903,0.23312 1.21051,0.04752 1.81608,0.06023c1.84774,0.03879 3.69781,0.04664 5.54596,0.04662h1.34461c0.61883,0 1.12052,0.50167 1.12052,1.12052c0,0.25634 -0.08608,0.49256 -0.2309,0.68136l-1.33782,1.78378l-0.04462,-0.03347c-0.33531,0.62281 -0.68077,1.24005 -1.03844,1.85003c-0.63071,1.07566 -1.53905,2.03351 -1.88382,3.23185c-0.18496,0.64286 -0.11216,1.33319 -0.175,1.99915c-0.11018,1.16766 -0.5289,2.3541 -0.30469,3.50531c0.12163,0.62447 1.15875,0.58668 1.79067,0.66067c1.26875,0.14858 2.63336,-0.00334 3.91635,0.0769l0.53289,-0.65351c0,0 0.79232,-0.79232 1.58466,0z" fill="#000000"/><path d="M146.22737,194.5601c1.06824,-0.33822 1.40646,0.73003 1.40646,0.73003l0.4901,1.66519c-0.17916,0.90689 -0.20837,1.85681 -0.5375,2.72064c-0.2061,0.54096 -0.68068,0.9367 -1.03141,1.39725c-0.49704,0.65267 -0.89524,1.40088 -1.51167,1.94221c-0.10274,0.09021 -3.83471,2.23755 -4.06274,2.36735c-0.71889,0.40916 -1.37419,0.96689 -2.16273,1.2167c-2.09461,0.66359 -5.05377,0.45533 -7.22258,0.44365c-0.61641,-0.22226 -1.34231,-0.2516 -1.84923,-0.66681c-0.61348,-0.50247 -0.92991,-1.28602 -1.35343,-1.95646c-0.99817,-1.5801 -1.96584,-3.23522 -1.20217,-5.01074c-0.58169,0.37525 -2.09031,1.00556 -2.77496,1.29662c-2.73277,1.16175 -5.33758,1.51481 -8.3279,1.42158c-0.62571,-0.0195 -1.34086,0.1966 -1.87334,-0.13258c-2.092,-1.29332 -1.99864,-4.49093 -1.81443,-6.51899c0.07814,-0.86027 0.02547,-1.76955 0.35884,-2.56645c0.32759,-0.78312 1.03836,-1.34319 1.55756,-2.0148c0,0 0.69997,-0.87498 1.57495,-0.175c0.87498,0.69997 0.175,1.57495 0.175,1.57495c-0.41412,0.49503 -0.9896,0.89124 -1.24237,1.4851c-0.24691,0.58012 -0.14456,1.25301 -0.19066,1.8818c-0.05479,0.74764 -0.41966,3.7746 0.63856,4.35752c0.24135,0.13293 0.54063,-0.12056 0.81589,-0.13258c0.72311,-0.03158 1.44901,0.04714 2.17141,0.00216c2.3618,-0.14703 4.19253,-0.68418 6.32126,-1.69097c0.69987,-0.33101 3.38719,-1.95824 4.26407,-1.23712c0.70584,0.58046 0.38212,1.79176 0.46533,2.70183c0.05897,0.64475 -0.21248,1.3177 -0.04067,1.94194c0.31558,1.14658 1.54373,2.91488 2.68528,3.2269c1.84981,-0.01226 4.41183,0.1944 6.18678,-0.36793c0.63582,-0.20143 1.14452,-0.68518 1.72028,-1.02184c1.22642,-0.7171 2.63577,-1.1723 3.70329,-2.10974c1.3198,-1.159 1.98886,-2.62239 2.32163,-4.25387l-0.38891,-1.11109c0,0 -0.33822,-1.06824 0.73003,-1.40646z" fill="#000000"/><path d="M100.49427,231.3182c1.06301,-0.35433 1.41735,0.70868 1.41735,0.70868l0.44821,1.34461c0.21455,0.70373 0.68774,1.31113 1.14814,1.88497c1.3989,1.74358 2.5858,3.67295 3.98695,5.43176c0.35782,0.44917 1.74009,2.39911 2.4973,2.6885c0.22871,0.0874 0.44666,-0.20489 0.652,-0.33827c0.95042,-0.6174 1.61239,-1.59522 2.36746,-2.44042c0.97458,-1.09094 2.16146,-1.98334 3.10582,-3.10054c0.34775,-0.41138 0.48644,-0.9952 0.8964,-1.34461c0.02814,-0.02399 0.05651,-0.04767 0.08508,-0.07107l-0.01086,-0.01086l1.34461,-1.34461c0.20278,-0.20278 0.48291,-0.32818 0.79232,-0.32818c0.61883,0 1.12052,0.50167 1.12052,1.12052v1.34461c-0.03346,2.13771 0.9051,3.37907 1.68564,5.34845c0.16547,0.41748 0.1105,0.94951 0.41138,1.28289c0.13175,0.14596 0.39536,-0.09578 0.54695,-0.22105c0.50036,-0.4135 0.89209,-0.94601 1.3814,-1.37253c1.09404,-0.95368 2.45234,-1.60383 3.44509,-2.66254c2.45788,-2.62119 3.72466,-6.35988 5.72822,-9.29006c1.60142,-2.34206 3.68958,-4.47242 5.40185,-6.75545c0,0 0.67231,-0.8964 1.56873,-0.2241c0.8964,0.67231 0.2241,1.56873 0.2241,1.56873c-1.69557,2.26075 -3.77236,4.37135 -5.35508,6.69072c-2.5952,3.80312 -4.11074,8.12453 -7.8275,11.03272c-1.4589,1.14151 -3.8852,4.44729 -6.17037,3.20986c-0.78713,-0.42623 -0.96451,-1.51066 -1.38143,-2.30276c-0.8644,-1.64219 -1.51462,-3.10123 -1.77558,-4.78488c-0.84207,1.42217 -2.4358,2.46687 -3.54744,3.70932c-0.51741,0.57829 -0.90526,1.27072 -1.46064,1.81265c-0.66282,0.64676 -2.54135,1.94046 -3.58762,1.68354c-1.68719,-0.4143 -2.90109,-2.27155 -3.88827,-3.50063c-1.93448,-2.40856 -4.49081,-5.12025 -5.51116,-8.00802l-0.44821,-1.34461c0,0 -0.35433,-1.06301 0.70868,-1.41735z" fill="#000000"/><path d="M91.54036,185.66374c-0.79232,-0.79232 0,-1.58466 0,-1.58466l1.34461,-1.34461c0.21783,-0.17763 0.49616,-0.29998 0.65351,-0.53289c0.00501,-0.00742 0.12689,-0.75649 -0.21595,-0.69915c-0.58597,0.09804 -1.11036,0.43631 -1.69028,0.56539c-1.10719,0.24646 -3.92293,0.58634 -5.00275,0.29037c-1.79909,-0.49314 -1.8028,-1.37691 -2.78287,-2.60307c-0.29448,-0.36842 -0.7542,-0.6053 -0.98304,-1.01771c-0.16748,-0.30186 0.14169,-0.84039 -0.15021,-1.0247c-0.32613,-0.20593 -0.75334,0.17876 -1.13765,0.2115c-0.4466,0.03805 -0.8964,0 -1.34461,0c-2.68923,0 -5.37846,0 -8.0677,0c0,0 -1.12052,0 -1.12052,-1.12052c0,-1.12052 1.12052,-1.12052 1.12052,-1.12052c2.68923,0 5.37846,0 8.0677,0c0.81269,0 3.36681,-0.03858 3.79262,0.2115c0.52431,0.30794 0.41922,1.15189 0.74619,1.66454c0.20092,0.31503 0.57621,0.48345 0.80979,0.7751c0.43991,0.54932 0.82189,1.6944 1.6992,1.87898c0.79179,0.16661 3.22577,-0.22025 3.91631,-0.3435c0.88843,-0.15857 1.76981,-0.73763 2.65175,-0.54618c1.80988,0.39286 2.23125,2.27846 1.76194,3.73554c-0.1736,0.53895 -0.75954,0.83995 -1.13931,1.25994l-1.34461,1.34461c0,0 -0.79232,0.79232 -1.58466,0z" fill="#000000"/><path d="M67.4099,198.44339c0.3224,1.07313 -0.75075,1.39553 -0.75075,1.39553l-0.09833,0.02954c-6.53447,1.96311 -13.09229,4.22344 -19.89184,4.16198l0.01223,0.19594l-2.22635,0.13915c-0.02649,0.00188 -0.05326,0.00283 -0.08023,0.00283c-0.61883,0 -1.12052,-0.50167 -1.12052,-1.12052c0,-0.22954 0.06904,-0.44297 0.18744,-0.62065l1.19059,-1.84787c1.33346,-2.0563 3.05954,-3.95377 4.92377,-5.66807c-0.05304,-0.13029 -0.08227,-0.27283 -0.08227,-0.42221c0,-0.26805 0.09412,-0.51413 0.25111,-0.70695l1.39438,-1.74298l0.03034,0.02427l0.04444,-0.10865c1.39044,-1.16846 2.75703,-2.30732 4.04174,-3.59361c0,0 0.79232,-0.79232 1.58466,0c0.27054,0.27054 0.35634,0.5411 0.35199,0.78011l1.00923,-0.52399c0.15914,-0.08679 0.34166,-0.1361 0.53568,-0.1361c0.61883,0 1.12052,0.50167 1.12052,1.12052c0,0.3951 -0.20449,0.74244 -0.51343,0.94196l-1.85019,1.23347c-0.1416,0.13868 -3.15564,2.0674 -3.45074,2.29725c-2.77192,2.15905 -5.61634,4.76318 -7.50616,7.71689l0.0242,-0.00151l0.011,0.17617c1.39934,-0.40291 2.76352,-0.20438 4.36548,-0.44547c5.05734,-0.76109 10.11325,-2.5307 14.99811,-3.99824l0.09833,-0.02954c0,0 1.07313,-0.3224 1.39553,0.75075z" fill="#a2a2a2"/><path d="M161.58047,222.5207c0,1.12052 -1.12052,1.12052 -1.12052,1.12052h-0.8964c-5.63701,0 -11.2384,0.19303 -16.87028,0.43252c-5.75545,0.24476 -11.77878,1.42723 -17.31495,3.10445c-3.48187,1.05486 -6.89032,2.67173 -10.28438,3.98619c-4.16046,1.61126 -8.28474,3.58807 -12.6052,4.67569l0.08109,0.20729l-2.0632,0.80711c-0.13296,0.0556 -0.27891,0.08632 -0.43203,0.08632c-0.61883,0 -1.12052,-0.50167 -1.12052,-1.12052c0,-0.27596 0.09976,-0.52863 0.2652,-0.72391l1.432,-1.71437l0.02631,0.02197l0.05284,-0.10727c1.18076,-0.93485 2.43403,-1.78389 3.54751,-2.79795c2.20528,-2.00841 3.95989,-4.51958 6.1883,-6.50299c1.67119,-1.48747 3.65765,-2.75263 5.44721,-4.09702c1.39271,-1.04626 2.81637,-2.51314 4.40051,-3.40882c-7.99517,0.12026 -15.90471,0.72481 -23.8836,1.42883c-4.1799,0.36881 -8.36672,0.96604 -12.54734,0.89478l0.01312,0.17047l-2.22217,0.17093c-0.03235,0.00281 -0.06511,0.00425 -0.09818,0.00425c-0.61883,0 -1.12052,-0.50167 -1.12052,-1.12052c0,-0.23545 0.07262,-0.45394 0.19669,-0.6343l0.8879,-1.33186c0,0 0.62155,-0.93233 1.55388,-0.31078c0.45986,0.30658 0.54168,0.68877 0.50652,0.99739l0.12401,-0.00954l0.01319,0.1714c1.12783,-0.36514 2.25215,-0.33634 3.57279,-0.44722c2.23098,-0.18733 4.46063,-0.3936 6.6908,-0.59039c9.46675,-0.8353 18.85308,-1.6133 28.35904,-1.65444l0.00242,0.00076v-0.00076h1.34461c0.61883,0 1.12052,0.50167 1.12052,1.12052c0,0.36599 -0.17545,0.69098 -0.44686,0.89548l-1.76678,1.35905c-3.09821,3.13879 -7.36644,5.13629 -10.6578,8.0658c-2.22093,1.97677 -3.97022,4.48314 -6.16929,6.48589c-0.02921,0.02659 -0.22945,0.18603 -0.52076,0.41595c0.21759,-0.07648 0.43825,-0.15682 0.66133,-0.24409c2.08822,-0.8169 4.17638,-1.63376 6.26737,-2.44356c4.13628,-1.6019 8.28676,-3.56332 12.53024,-4.84944c5.7148,-1.73206 11.93246,-2.94712 17.87296,-3.19976c5.66353,-0.24086 11.29677,-0.43456 16.96548,-0.43456h0.8964c0,0 1.12052,0 1.12052,1.12052z" fill="#a2a2a2"/><path d="M114.06632,183.77266c1.09874,0.21974 0.87901,1.31851 0.87901,1.31851l-0.00871,0.04353c-0.15794,0.77934 -1.28152,4.03194 0.01629,4.63519c0.80572,0.37454 3.09879,0.25681 3.82392,0.2559c1.49401,-0.00187 2.98804,0 4.48205,0c5.22907,0 10.45812,0 15.6872,0c0,0 1.12052,0 1.12052,1.12052c0,1.12052 -1.12052,1.12052 -1.12052,1.12052c-5.97607,0 -11.95215,0 -17.92823,0c-2.07611,0 -5.43373,0.54548 -7.29418,-0.62311c-2.42783,-1.52496 -1.4121,-4.7848 -0.98459,-6.94852l0.00871,-0.04353c0,0 0.21974,-1.09874 1.31851,-0.87901z" fill="#a2a2a2"/><path d="M104.65836,181.28259c0.00318,-1.12052 1.12369,-1.11734 1.12369,-1.11734l0.47967,0.00135c3.08082,0.00873 6.06766,-0.0421 9.11366,0.46209c0,0 1.10526,0.18421 0.92105,1.28947c-0.18421,1.10526 -1.28947,0.92105 -1.28947,0.92105c-2.92153,-0.49051 -5.79495,-0.42321 -8.75161,-0.4316l-0.47967,-0.00135c0,0 -1.12052,-0.00318 -1.11734,-1.12369z" fill="#a2a2a2"/><path d="M68.35369,239.1043c0,-0.61883 0.50167,-1.12052 1.12052,-1.12052c0.61883,0 1.12052,0.50167 1.12052,1.12052c0,0.61883 -0.50167,1.12052 -1.12052,1.12052c-0.61883,0 -1.12052,-0.50167 -1.12052,-1.12052z" fill="#a2a2a2"/></g></g></svg>