<svg version="1.1" xmlns="http://www.w3.org/2000/svg" xmlns:xlink="http://www.w3.org/1999/xlink" width="108.39635" height="73.11742" viewBox="0,0,108.39635,73.11742"><g transform="translate(-24.7784,-203.43602)"><g data-paper-data="{&quot;isPaintingLayer&quot;:true}" fill-rule="nonzero" stroke="none" stroke-width="0.5" stroke-linecap="butt" stroke-linejoin="miter" stroke-miterlimit="10" stroke-dasharray="" stroke-dashoffset="0" style="mix-blend-mode: normal"><path d="M39.00233,259.59394c0.66193,0 0.66193,0.66193 0.66193,0.66193l-0.00496,1.24298c0.18054,0.71039 0.4169,1.40691 0.67825,2.09171c0.68167,1.45697 1.73802,2.6212 2.5545,4.01048c0.02132,0.03628 0.47669,0.89543 0.82976,1.56165l0.37265,-0.37265c0.11979,-0.11979 0.28527,-0.19387 0.46805,-0.19387c0.36557,0 0.66193,0.29636 0.66193,0.66193v0.56312c0.04593,0.1521 0.06086,0.28752 0.01974,0.43542c0.13467,-0.1934 0.27461,-0.38325 0.41012,-0.57606c0.60199,-0.8566 1.15467,-1.48686 1.88219,-2.21439l0.9976,-0.19387c0,0 0.66193,0 0.66193,0.66193c0,0.66193 -0.66193,0.66193 -0.66193,0.66193l-0.06149,-0.19387c-0.5254,0.5254 -0.9188,1.00721 -1.34739,1.54978c0.60687,-0.20158 1.20951,-0.40139 1.80614,-0.69385c1.62198,-0.79506 3.26241,-1.69502 5.04716,-2.05075c1.32956,-0.26501 2.46968,-0.49091 3.5254,0.55451c0.5069,0.50196 0.63782,1.27656 0.93497,1.9251c0.21188,0.31684 1.13384,1.73221 1.41888,2.01545c0.30199,0.30007 0.70149,0.48525 1.02473,0.76231c0.53578,0.45924 0.86424,1.16988 1.48106,1.51267c0.31808,0.17677 0.73368,0.10188 1.05908,0.26477c0.20054,0.10039 0.24514,0.41966 0.45672,0.49401c0.2539,0.08922 0.53676,-0.04312 0.80578,-0.05039c0.61757,-0.01669 1.2356,-0.00119 1.8534,0c4.47327,0.00864 8.72102,-2.19012 12.82566,-3.72936c1.89501,-0.70657 3.69762,-1.76674 5.25053,-3.06123c0.60946,-0.50804 1.93697,-1.77323 2.80561,-1.64098c0.42466,0.06465 0.40839,0.75618 0.62974,1.12431c0.46933,0.78056 1.19453,1.50148 1.92532,2.03637c1.79189,1.31154 3.54029,1.04929 5.63757,0.88201c0.40322,-0.03216 0.81791,0.00769 1.21005,-0.09154c1.55325,-0.39304 3.04552,-1.49906 4.39103,-2.32275c1.19369,-0.71702 1.73954,-1.52697 2.60142,-2.61242c2.11856,-2.6681 3.62908,-5.88851 5.01046,-8.98858c0.25455,-0.57125 0.59463,-1.11373 0.75144,-1.71915c0.11497,-0.44388 -0.13769,-1.01363 0.15466,-1.36686c0.13311,-0.16083 2.37959,-0.50048 2.52111,-0.52396c2.21191,-0.36693 4.47066,-0.22665 6.71009,-0.22665c1.32371,0 2.6479,-0.00939 3.97157,0c0.39063,0.00277 0.78988,0.09986 1.17178,0.01771c0.33481,-0.07203 1.15702,-0.64031 1.48622,-0.85511c0.8507,-0.55509 2.32893,-1.3317 2.85009,-2.25864c0.16297,-0.28985 0.11516,-0.65508 0.18106,-0.981c0.291,-1.43927 0.58034,-3.33223 -0.16247,-4.70956c-0.10137,-0.18797 -0.32554,-0.27912 -0.46439,-0.44139c-0.77242,-0.9027 -1.51183,-1.72923 -2.65981,-2.20427c-0.31146,-0.12888 -0.67189,-0.09661 -0.98896,-0.21101l-1.2796,-0.28436c-0.30289,-0.06074 -0.53106,-0.32822 -0.53106,-0.64899c0,-0.21931 0.10666,-0.41372 0.27093,-0.53416l1.02463,-0.76847c1.76902,-1.77323 3.64813,-3.49457 5.29369,-5.38403c0.85913,-0.98647 1.56973,-2.01166 2.51183,-2.92832c0.82911,-2.62498 -1.53985,-3.72971 -3.44782,-4.85767c-1.49818,-0.8857 -3.13655,-1.24115 -4.80138,-1.73347c-1.66545,-0.4925 -3.34261,-1.10826 -5.03616,-1.49076c-2.54853,-0.57559 -5.22172,-0.82373 -7.80327,-1.23169c-1.7283,-0.27312 -3.46434,-0.6237 -5.20251,-0.82274c-3.48649,-0.39926 -7.03495,-0.50189 -10.53578,-0.75195c-2.12489,-0.15178 -4.14231,-0.29125 -6.21523,-0.79486c-0.4957,-0.12043 -1.04198,-0.12046 -1.48341,-0.37611c-1.30335,-0.75483 -0.88957,-2.51868 -0.96541,-3.75201c-0.29659,-1.51657 -0.73674,-2.85006 -1.59352,-4.15141c-0.44355,-0.6737 -1.10859,-1.18103 -1.7457,-1.6757c-0.24132,-0.18737 -1.45291,-1.23007 -1.52391,-1.27868c-1.64029,-1.12292 -3.84931,-1.2263 -5.74386,-1.2263c-2.0219,0 -4.12041,-0.14 -6.11132,0.30249c-0.81681,0.18154 -1.59163,0.51699 -2.38856,0.77203c-2.43125,1.47008 -4.76984,3.12857 -7.23241,4.53595c-0.72565,0.41472 -1.47777,0.78153 -2.20888,1.18657c-0.32871,0.18211 -0.59629,0.49865 -0.96092,0.58954c-0.48921,0.12194 -1.00813,0.02369 -1.5123,0.02691c-0.80481,0.00514 -2.27401,0.07547 -2.98818,-0.37604c-1.06344,-0.67234 -0.79601,-1.60712 -0.89856,-2.61916c-0.09087,-0.89674 -0.1896,-1.79596 -0.19021,-2.69728c-0.0004,-0.58246 0.04533,-1.16607 0.00855,-1.74737c-0.00925,-0.14622 0.03205,-0.33724 -0.07944,-0.43229c-0.14534,-0.12391 -0.37433,-0.07607 -0.5615,-0.11411c-0.58566,-0.25045 -1.1273,-0.63655 -1.75125,-0.76462c-0.38884,-0.07981 -0.79382,0.01113 -1.19076,0.01352c-0.64765,0.00389 -1.30659,-0.14473 -1.94284,-0.02364c-0.5501,0.10469 -0.8946,0.68721 -1.25844,1.11288c-0.76639,0.89663 -1.39278,1.9755 -2.01721,2.97102c-0.93221,1.48621 -1.97637,2.91907 -2.86495,4.43058c-1.51671,2.58 -2.76201,5.33565 -4.01527,8.04885c-0.5209,1.3749 -1.34102,2.87194 -1.54341,4.33666c-0.20683,1.49688 0.70718,3.97232 -0.87274,4.9929c-0.15018,0.09701 -1.61074,0.07832 -1.90096,0.07832c-1.30437,0 -2.35908,0.10481 -3.64157,0.26155c-0.20985,0.02565 -1.19338,-0.13802 -1.35555,0.21883c-0.13519,0.29748 0.08278,0.64891 0.09886,0.97527c0.01754,0.35605 0.00127,0.71297 0.0019,1.06945c0.00233,1.31343 0.01261,2.62667 0.02236,3.94007c0.13854,1.51661 0.15919,3.14861 0.48889,4.64118c0.6138,2.77874 2.08,5.17947 3.86247,7.33793c0.80274,0.97207 1.56049,2.06972 2.53093,2.88744c1.02739,0.86571 2.15702,1.66194 3.3409,2.31459c0.35024,0.19308 0.76724,0.27925 1.0728,0.53728c0.01056,0.00892 0.02104,0.01791 0.03144,0.02699l0.00349,-0.00524l0.78577,0.52385c0.18249,0.11786 0.3033,0.32305 0.3033,0.55645c0,0.36557 -0.29636,0.66193 -0.66193,0.66193h-0.60723c-0.91799,0.85648 -1.84715,1.43603 -2.9773,1.99323c-0.45901,0.46679 -1.06553,0.81479 -1.39965,1.37777c-0.27865,0.46952 -0.17963,1.65079 -0.17885,2.05681c0.00149,0.78064 -0.14453,1.57953 0.02379,2.3418c0.50761,2.29879 2.46031,4.13183 4.0559,5.6986c0.44468,0.43665 1.3342,1.32593 1.87092,1.67711c0.29726,0.19449 0.60359,0.32159 0.91466,0.41431c0.00706,-0.1693 0.04138,-0.32774 0.14373,-0.45756c0.27561,-0.34956 0.79135,-0.43177 1.22527,-0.53112c0.29658,-0.0679 0.63295,0.16354 0.9118,0.04184c0.30594,-0.13353 0.61641,-0.54384 0.90852,-0.97043c-0.19788,-0.36521 -0.36805,-0.7027 -0.47698,-0.90773c-0.98196,-1.84835 -2.34653,-3.4309 -3.23834,-5.30698c-0.30437,-0.80005 -0.56911,-1.61743 -0.77412,-2.4485l-0.00496,-1.40473c0,0 0,-0.66193 0.66193,-0.66193zM42.24095,272.91841c0.2751,0.1399 0.44764,0.425 0.67146,0.6375c0,0 0.46805,0.46805 0,0.93611c-0.46805,0.46805 -0.93611,0 -0.93611,0c-0.29596,-0.3219 -0.62029,-0.47299 -0.96787,-0.56194c-0.00254,0.53257 0.04549,0.97541 0.58012,1.47924c0,0 0.46805,0.46805 0,0.93611c-0.46805,0.46805 -0.93611,0 -0.93611,0c-0.799,-0.83103 -1.0099,-1.64389 -1.01314,-2.66131c-0.09745,-0.02439 -0.19593,-0.05305 -0.29535,-0.08758c-0.46794,-0.1625 -0.91531,-0.39092 -1.33232,-0.65828c-0.62316,-0.39953 -1.54955,-1.32439 -2.07902,-1.84373c-1.79862,-1.76417 -3.84942,-3.79779 -4.42431,-6.37182c-0.0693,-0.31029 -0.05247,-2.32578 -0.05196,-2.61345c0.00158,-0.88695 -0.11024,-1.88155 0.35069,-2.70907c0.07546,-0.13548 1.6443,-1.66802 1.7776,-1.79948c1.02382,-0.51844 1.87086,-1.06321 2.73889,-1.7298c-0.187,-0.10354 -0.36674,-0.22781 -0.55221,-0.33022c-1.0198,-0.56311 -1.85652,-1.20787 -2.74884,-1.92175c-3.528,-2.8225 -6.64305,-6.98699 -7.63947,-11.48586c-0.34705,-1.56696 -0.37597,-3.27625 -0.52008,-4.86884c-0.01397,-1.6867 -0.08545,-3.38759 -0.02586,-5.07353c0.01973,-0.5581 -0.19815,-1.19952 0.09886,-1.67244c0.71901,-1.14488 1.43453,-0.72493 2.35124,-0.84025c1.31302,-0.16518 2.43688,-0.26799 3.77202,-0.26799c0.26477,0 0.53004,-0.01622 0.79431,0c0.16246,0.00997 0.33465,0.14751 0.48198,0.07832c0.13675,-0.06422 0.18172,-0.25381 0.20835,-0.40252c0.11763,-0.65697 -0.03035,-1.51974 -0.0284,-2.19112c0.00638,-2.20453 0.86703,-4.04648 1.64025,-6.08123c1.27634,-2.76758 2.54795,-5.57626 4.09463,-8.20724c0.89508,-1.52256 1.9455,-2.96638 2.88477,-4.46322c0.89233,-1.42204 2.24429,-4.20842 4.04641,-4.65692c0.39937,-0.09939 0.82289,-0.0194 1.23442,-0.02364c0.27478,-0.00283 2.4532,0.00062 2.51603,0.01352c0.08257,0.01695 1.56763,0.65736 1.95554,0.824c0.34238,0.13848 0.7742,0.14632 1.02713,0.41544c0.54594,0.58088 0.45562,1.36325 0.45865,2.05668c0.00541,1.24081 0.0749,2.39867 0.18423,3.63061c0.01053,0.11862 -0.15664,1.41556 0.31563,1.64379c0.44846,0.21673 1.86328,0.14858 2.25581,0.15331c0.37855,0.00455 0.76761,0.11679 1.13541,0.02711c0.26738,-0.0652 0.44051,-0.33243 0.67914,-0.46954c0.34741,-0.19961 0.72182,-0.34862 1.0748,-0.53823c2.91845,-1.5677 5.62645,-3.54248 8.47458,-5.23956c0.08608,-0.02816 2.55311,-0.83786 2.64934,-0.85924c2.08892,-0.46428 4.27687,-0.33403 6.39855,-0.33403c2.14572,0 4.57739,0.17322 6.43561,1.42141c0.3462,0.23255 1.21078,1.02301 1.65334,1.36903c0.74407,0.58176 1.49959,1.19656 2.02649,1.98044c0.98151,1.46024 1.47048,3.00719 1.80462,4.71639c0.05261,0.82926 -0.07017,1.67345 0.07462,2.49166c0.02297,0.1298 0.13907,0.24919 0.26232,0.29592c2.59801,0.98499 5.70229,0.88315 8.42885,1.0779c3.08089,0.22006 6.20328,0.31149 9.27159,0.66286c1.75694,0.2012 3.51158,0.55431 5.25853,0.83037c2.61027,0.41249 5.31126,0.66596 7.88828,1.24799c1.72188,0.38889 3.42669,1.01186 5.11992,1.51258c1.77566,0.52509 3.49359,0.92195 5.09748,1.86208c2.18941,1.28333 4.71792,2.66645 4.25752,5.65828c-0.05554,0.36089 -0.23672,0.69085 -0.35508,1.03628c-0.96707,0.98962 -1.73492,2.06296 -2.63964,3.10178c-1.68821,1.93843 -3.61377,3.70837 -5.43287,5.52296l-0.05158,0.00944l0.00938,0.01251c0.87733,-0.03309 1.5515,0.34863 2.43286,0.93098c0.73326,0.48449 1.34185,1.14704 1.90989,1.81766c0.18473,0.21809 0.46179,0.36466 0.5947,0.6177c0.89751,1.70878 0.73165,3.87476 0.33116,5.68126c-0.09907,0.44689 -0.08702,0.93887 -0.31257,1.33719c-0.25379,0.44819 -0.69579,0.76124 -1.07378,1.1111c-0.99275,0.91887 -2.74448,2.34575 -4.12168,2.65919c-0.47975,0.10919 -0.98393,0.0146 -1.47594,0.01771c-1.32371,0.00837 -2.64783,0 -3.97157,0c-2.16301,0 -4.35714,-0.14896 -6.49245,0.20863c-0.44089,0.07383 -0.87658,0.19481 -1.32289,0.22025c-0.14808,0.00844 -0.36934,-0.25648 -0.42837,-0.12041c-0.10176,0.23457 0.20339,0.50031 0.15466,0.75131c-0.17767,0.91527 -0.99861,2.34312 -1.38794,3.19941c-1.2703,2.79388 -2.72392,5.65457 -4.63357,8.0648c-0.95815,1.20932 -1.62545,2.09665 -2.94743,2.91883c-1.46473,0.89668 -3.06402,2.04774 -4.75383,2.47614c-0.0528,0.01338 -2.66116,0.23421 -2.76905,0.23971c-0.84727,0.04321 -1.71415,0.20708 -2.54487,0.03495c-1.63884,-0.33958 -3.32626,-1.59375 -4.36285,-2.87731c-0.2325,-0.28789 -0.4855,-0.57793 -0.61381,-0.92502c-0.0549,-0.14851 0.25094,-0.51277 0.1002,-0.46432c-0.25242,0.08112 -0.32953,0.41785 -0.52224,0.59996c-0.05546,0.05241 -2.02987,1.69223 -2.03719,1.69735c-1.39202,0.97635 -2.98873,1.80577 -4.57258,2.40283c-4.27674,1.60378 -8.63311,3.80524 -13.2905,3.81365c-0.92097,0.00166 -2.30372,0.22671 -3.16579,-0.05039c-0.2621,-0.08425 -0.35607,-0.44206 -0.60236,-0.56507c-0.32554,-0.1626 -0.74497,-0.08105 -1.05908,-0.26477c-0.22266,-0.13023 -1.43486,-1.44058 -1.69619,-1.66458c-0.34687,-0.29731 -0.77131,-0.50236 -1.09344,-0.82632c-0.42139,-0.42377 -1.30622,-1.80606 -1.63843,-2.30575c-0.20985,-0.45443 -0.57091,-1.82705 -1.26259,-2.02989c-0.57431,-0.16841 -1.1969,0.08653 -1.78397,0.20292c-2.09581,0.41548 -3.76294,1.79173 -5.75573,2.43846c-0.41927,0.13607 -0.87848,0.12002 -1.29674,0.25915c-0.84386,0.28071 -2.20375,1.39574 -3.19879,0.75635c-0.13339,-0.08571 -0.28347,-0.25318 -0.43826,-0.46499c-0.2998,0.40809 -0.63227,0.78599 -1.11426,1.02247c-0.36123,0.17722 -0.80413,0.03152 -1.20636,0.04184c-0.08764,0.00225 -0.20664,-0.0543 -0.28895,-0.04609c0.44066,0.08429 0.87903,0.18954 1.30336,0.40533z" fill="#000000"/><path d="M38.35222,260.24989l0.00479,1.40441c0.20501,0.83107 0.46939,1.64784 0.77376,2.44788c0.89181,1.87608 2.25536,3.4572 3.23733,5.30555c0.10892,0.20503 0.27892,0.54231 0.4768,0.90752c-0.2921,0.42659 -0.62274,0.85406 -0.92869,0.98759c-0.27885,0.1217 -0.61533,-0.10987 -0.91191,-0.04197c-0.43392,0.09934 -0.92923,0.16471 -1.20485,0.51426c-0.10235,0.12981 -0.15711,0.30509 -0.16417,0.47438c-0.31107,-0.09272 -0.61755,-0.22 -0.9148,-0.41449c-0.53672,-0.35117 -1.42662,-1.24096 -1.8713,-1.67761c-1.59559,-1.56677 -3.54923,-3.40131 -4.05684,-5.70011c-0.16832,-0.76228 -0.02255,-1.56164 -0.02403,-2.34228c-0.00077,-0.40602 -0.09999,-1.58772 0.17866,-2.05723c0.33412,-0.56299 0.94056,-0.91116 1.39958,-1.37795c1.13016,-0.5572 2.05924,-1.13692 2.97723,-1.99341l0.63172,-0.01005c0.36557,0 0.63742,-0.28634 0.63742,-0.65191c0,-0.2334 -0.12087,-0.43877 -0.30337,-0.55663l-0.78585,-0.52406l-0.00349,0.00524c-0.0104,-0.00907 -0.02089,-0.01808 -0.03145,-0.027c-0.30556,-0.25804 -0.72264,-0.34444 -1.07288,-0.53753c-1.18388,-0.65265 -2.31377,-1.44975 -3.34116,-2.31546c-0.97044,-0.81772 -1.7284,-1.91628 -2.53114,-2.88834c-1.78248,-2.15846 -3.2489,-4.56119 -3.86271,-7.33994c-0.3297,-1.49257 -0.35034,-3.12573 -0.48888,-4.64235c-0.00975,-1.31339 -0.01994,-2.62761 -0.02227,-3.94104c-0.00063,-0.35648 0.01568,-0.71366 -0.00186,-1.06972c-0.01608,-0.32636 -0.23401,-0.67803 -0.09882,-0.97551c0.16217,-0.35685 1.14572,-0.19329 1.35557,-0.21894c1.2825,-0.15674 2.33724,-0.26178 3.64161,-0.26178c0.29022,0 1.7508,0.01857 1.90099,-0.07844c1.57991,-1.02059 0.66626,-3.4974 0.87309,-4.99428c0.20238,-1.46471 1.02295,-2.96297 1.54385,-4.33787c1.25327,-2.7132 2.49975,-5.47106 4.01646,-8.05106c0.88858,-1.51151 1.93362,-2.94554 2.86583,-4.43175c0.62443,-0.99552 1.25148,-2.07511 2.01787,-2.97174c0.36384,-0.42567 0.70866,-1.00852 1.25876,-1.11321c0.63624,-0.12108 1.29547,0.02727 1.94312,0.02338c0.39694,-0.00238 0.80212,-0.0935 1.19096,-0.01369c0.62396,0.12807 1.16578,0.51402 1.75144,0.76446c0.18717,0.03804 0.41623,-0.00987 0.56158,0.11404c0.11149,0.09505 0.08702,0.30651 0.09628,0.45273c0.03678,0.5813 -0.00868,1.16468 -0.00828,1.74714c0.00062,0.90133 0.09974,1.80019 0.19061,2.69692c0.10255,1.01204 -0.18338,1.92788 0.88006,2.60022c0.71417,0.45152 2.18387,0.3807 2.98868,0.37557c0.50417,-0.00322 1.02342,0.09473 1.51263,-0.0272c0.36463,-0.09088 0.63254,-0.4077 0.96125,-0.58981c0.7311,-0.40504 1.484,-0.77242 2.20965,-1.18714c2.46257,-1.40739 4.80408,-3.06738 7.23533,-4.53745c0.79693,-0.25504 1.57266,-0.59079 2.38947,-0.77233c1.99091,-0.44249 4.09172,-0.30293 6.11362,-0.30293c1.89455,0 4.10586,0.10335 5.74615,1.22627c0.071,0.04861 1.28327,1.09137 1.52459,1.27874c0.63711,0.49467 1.30299,1.00214 1.74654,1.67584c0.85679,1.30135 1.29809,2.63511 1.59467,4.15168c0.07584,1.23333 -0.33687,2.99754 0.96648,3.75236c0.44143,0.25565 0.98851,0.25601 1.48421,0.37644c2.07292,0.50362 4.09298,0.64469 6.21786,0.79647c3.50084,0.25006 7.05178,0.35524 10.53827,0.7545c1.73816,0.19905 3.47496,0.55075 5.20326,0.82387c2.58155,0.40795 5.25545,0.65747 7.80398,1.23306c1.69355,0.3825 3.37107,0.99914 5.03652,1.49164c1.66483,0.49232 3.30346,0.84857 4.80164,1.73427c1.90797,1.12796 4.27725,2.23404 3.44814,4.85902c-0.94209,0.91666 -1.6526,1.94248 -2.51173,2.92895c-1.64556,1.88946 -3.52457,3.61217 -5.29359,5.3854l-1.02462,0.76869c-0.16428,0.12045 -0.27093,0.31501 -0.27093,0.53433c0,0.32077 0.22817,0.58845 0.53106,0.64919l1.2796,0.28443c0.31706,0.11441 0.6775,0.08218 0.98896,0.21107c1.14798,0.47504 1.88736,1.30214 2.65978,2.20485c0.13885,0.16227 0.36301,0.25353 0.46438,0.44149c0.74281,1.37733 0.45332,3.2715 0.16232,4.71078c-0.0659,0.32593 -0.01814,0.69141 -0.1811,0.98126c-0.52116,0.92694 -1.99956,1.70429 -2.85026,2.25938c-0.3292,0.21481 -1.15149,0.78341 -1.4863,0.85544c-0.3819,0.08216 -0.78117,-0.01485 -1.1718,-0.01762c-1.32367,-0.00939 -2.64796,0.00033 -3.97167,0.00033c-2.23942,0 -4.49845,-0.1395 -6.71036,0.22743c-0.14152,0.02348 -2.38821,0.36364 -2.52132,0.52447c-0.29236,0.35324 -0.0399,0.92345 -0.15488,1.36732c-0.15682,0.60542 -0.49723,1.14854 -0.75178,1.71979c-1.38138,3.10006 -2.89424,6.32355 -5.0128,8.99165c-0.86189,1.08545 -1.40876,1.8963 -2.60245,2.61332c-1.34551,0.8237 -2.83929,1.93075 -4.39254,2.32379c-0.39214,0.09923 -0.80719,0.05958 -1.21041,0.09174c-2.09728,0.16728 -3.84741,0.43032 -5.6393,-0.88122c-0.73079,-0.53489 -1.45646,-1.25564 -1.92579,-2.0362c-0.22135,-0.36813 -0.20519,-1.05962 -0.62985,-1.12427c-0.86864,-0.13225 -2.19756,1.13331 -2.80703,1.64135c-1.55291,1.29449 -3.35796,2.35492 -5.25297,3.06149c-4.10464,1.53924 -8.357,3.73724 -12.83027,3.7286c-0.6178,-0.00119 -1.2364,-0.0169 -1.85397,-0.00022c-0.26902,0.00727 -0.55211,0.13951 -0.80601,0.05029c-0.21158,-0.07435 -0.25638,-0.39371 -0.45692,-0.4941c-0.3254,-0.16289 -0.74135,-0.08816 -1.05942,-0.26493c-0.61682,-0.34279 -0.9459,-1.05375 -1.48169,-1.513c-0.32324,-0.27706 -0.72313,-0.46246 -1.02512,-0.76254c-0.28505,-0.28324 -1.2077,-1.69904 -1.41958,-2.01589c-0.29715,-0.64854 -0.42863,-1.42356 -0.93554,-1.92551c-1.05571,-1.04541 -2.1967,-0.82023 -3.52626,-0.55522c-1.78475,0.35574 -3.42572,1.25518 -5.0477,2.05024c-0.59663,0.29246 -1.19944,0.4921 -1.80631,0.69368c0.42859,-0.54257 0.84123,-1.04257 1.36663,-1.56797l0.06145,0.19383c0,0 0.64272,0.01823 0.64272,-0.6437c0,-0.66193 -0.66213,-0.66215 -0.66213,-0.66215l-0.99771,0.19375c-0.72752,0.72752 -1.26043,1.34017 -1.86243,2.19676c-0.13551,0.19282 -0.2951,0.40041 -0.42976,0.59381c0.04112,-0.1479 0.02613,-0.28339 -0.01981,-0.43549l-0.00008,-0.56321c0,-0.36557 -0.29653,-0.66214 -0.66211,-0.66214c-0.18279,0 -0.3483,0.07405 -0.46808,0.19384l-0.37265,0.37266c-0.35308,-0.66622 -0.80875,-1.52576 -0.83008,-1.56204c-0.81648,-1.38928 -1.87362,-2.55464 -2.55529,-4.01162c-0.26135,-0.6848 -0.49803,-1.38186 -0.67857,-2.09225l0.00481,-1.24326c0,0 -0.00012,-0.66216 -0.66205,-0.66216c-0.66193,0 -0.63826,0.65006 -0.63826,0.65006z" data-paper-data="{&quot;noHover&quot;:false,&quot;origItem&quot;:[&quot;Path&quot;,{&quot;applyMatrix&quot;:true,&quot;selected&quot;:true,&quot;segments&quot;:[[[39.00233,259.59394],[-0.66193,0],[0.66193,0],7],[[39.66426,260.25586],[0,0],[0,0],7],[[39.6593,261.49884],[0,0],[0.18054,0.71039],7],[[40.33756,263.59055],[-0.26135,-0.6848],[0.68167,1.45697],7],[[42.89206,267.60103],[-0.81648,-1.38928],[0.02132,0.03628],7],[[43.72182,269.16269],[-0.35308,-0.66622],[0,0],7],[[44.09447,268.79003],[0,0],[0.11979,-0.11979],7],[[44.56253,268.59616],[-0.18279,0],[0.36557,0],7],[[45.22445,269.25808],[0,-0.36557],[0,0],7],[[45.22445,269.82121],[0,0],[0.04593,0.1521],7],[[45.24419,270.25662],[0.04112,-0.1479],[0.13467,-0.1934],7],[[45.65431,269.68056],[-0.13551,0.19282],[0.60199,-0.8566],7],[[47.5365,267.46617],[-0.72752,0.72752],[0,0],7],[[48.53409,267.2723],[0,0],[0,0],7],[[49.19602,267.93423],[0,-0.66193],[0,0.66193],7],[[48.53409,268.59616],[0,0],[0,0],7],[[48.47261,268.40228],[0,0],[-0.5254,0.5254],7],[[47.12521,269.95206],[0.42859,-0.54257],[0.60687,-0.20158],7],[[48.93136,269.25821],[-0.59663,0.29246],[1.62198,-0.79506],7],[[53.97852,267.20746],[-1.78475,0.35574],[1.32956,-0.26501],7],[[57.50391,267.76196],[-1.05571,-1.04541],[0.5069,0.50196],7],[[58.43888,269.68707],[-0.29715,-0.64854],[0.21188,0.31684],7],[[59.85777,271.70251],[-0.28505,-0.28324],[0.30199,0.30007],7],[[60.88249,272.46482],[-0.32324,-0.27706],[0.53578,0.45924],7],[[62.36356,273.9775],[-0.61682,-0.34279],[0.31808,0.17677],7],[[63.42264,274.24227],[-0.3254,-0.16289],[0.20054,0.10039],7],[[63.87936,274.73628],[-0.21158,-0.07435],[0.2539,0.08922],7],[[64.68514,274.68589],[-0.26902,0.00727],[0.61757,-0.01669],7],[[66.53853,274.68589],[-0.6178,-0.00119],[4.47327,0.00864],7],[[79.36419,270.95654],[-4.10464,1.53924],[1.89501,-0.70657],7],[[84.61473,267.89531],[-1.55291,1.29449],[0.60946,-0.50804],7],[[87.42034,266.25433],[-0.86864,-0.13225],[0.42466,0.06465],7],[[88.05008,267.37864],[-0.22135,-0.36813],[0.46933,0.78056],7],[[89.97539,269.415],[-0.73079,-0.53489],[1.79189,1.31154],7],[[95.61297,270.29701],[-2.09728,0.16728],[0.40322,-0.03216],7],[[96.82302,270.20547],[-0.39214,0.09923],[1.55325,-0.39304],7],[[101.21404,267.88272],[-1.34551,0.8237],[1.19369,-0.71702],7],[[103.81547,265.2703],[-0.86189,1.08545],[2.11856,-2.6681],7],[[108.82593,256.28173],[-1.38138,3.10006],[0.25455,-0.57125],7],[[109.57737,254.56258],[-0.15682,0.60542],[0.11497,-0.44388],7],[[109.73203,253.19572],[-0.29236,0.35324],[0.13311,-0.16083],7],[[112.25314,252.67176],[-0.14152,0.02348],[2.21191,-0.36693],7],[[118.96323,252.44511],[-2.23942,0],[1.32371,0],7],[[122.93479,252.44511],[-1.32367,-0.00939],[0.39063,0.00277],7],[[124.10657,252.46282],[-0.3819,0.08216],[0.33481,-0.07203],7],[[125.59278,251.60771],[-0.3292,0.21481],[0.8507,-0.55509],7],[[128.44287,249.34907],[-0.52116,0.92694],[0.16297,-0.28985],7],[[128.62393,248.36806],[-0.0659,0.32593],[0.291,-1.43927],7],[[128.46146,243.65851],[0.74281,1.37733],[-0.10137,-0.18797],7],[[127.99707,243.21712],[0.13885,0.16227],[-0.77242,-0.9027],7],[[125.33726,241.01285],[1.14798,0.47504],[-0.31146,-0.12888],7],[[124.3483,240.80183],[0.31706,0.11441],[0,0],7],[[123.0687,240.51748],[0,0],[-0.30289,-0.06074],7],[[122.53764,239.86848],[0,0.32077],[0,-0.21931],7],[[122.80857,239.33432],[-0.16428,0.12045],[0,0],7],[[123.8332,238.56585],[0,0],[1.76902,-1.77323],7],[[129.12689,233.18182],[-1.64556,1.88946],[0.85913,-0.98647],7],[[131.63872,230.2535],[-0.94209,0.91666],[0.82911,-2.62498],7],[[128.19089,225.39583],[1.90797,1.12796],[-1.49818,-0.8857],7],[[123.38952,223.66236],[1.66483,0.49232],[-1.66545,-0.4925],7],[[118.35336,222.17161],[1.69355,0.3825],[-2.54853,-0.57559],7],[[110.55009,220.93992],[2.58155,0.40795],[-1.7283,-0.27312],7],[[105.34758,220.11718],[1.73816,0.19905],[-3.48649,-0.39926],7],[[94.8118,219.36523],[3.50084,0.25006],[-2.12489,-0.15178],7],[[88.59657,218.57036],[2.07292,0.50362],[-0.4957,-0.12043],7],[[87.11316,218.19426],[0.44143,0.25565],[-1.30335,-0.75483],7],[[86.14775,214.44225],[0.07584,1.23333],[-0.29659,-1.51657],7],[[84.55422,210.29084],[0.85679,1.30135],[-0.44355,-0.6737],7],[[82.80853,208.61514],[0.63711,0.49467],[-0.24132,-0.18737],7],[[81.28461,207.33646],[0.071,0.04861],[-1.64029,-1.12292],7],[[75.54075,206.11016],[1.89455,0],[-2.0219,0],7],[[69.42943,206.41265],[1.99091,-0.44249],[-0.81681,0.18154],7],[[67.04087,207.18469],[0.79693,-0.25504],[-2.43125,1.47008],7],[[59.80846,211.72064],[2.46257,-1.40739],[-0.72565,0.41472],7],[[57.59959,212.9072],[0.7311,-0.40504],[-0.32871,0.18211],7],[[56.63867,213.49674],[0.36463,-0.09088],[-0.48921,0.12194],7],[[55.12637,213.52365],[0.50417,-0.00322],[-0.80481,0.00514],7],[[52.13819,213.14761],[0.71417,0.45152],[-1.06344,-0.67234],7],[[51.23964,210.52846],[0.10255,1.01204],[-0.09087,-0.89674],7],[[51.04942,207.83117],[0.00062,0.90133],[-0.0004,-0.58246],7],[[51.05797,206.0838],[0.03678,0.5813],[-0.00925,-0.14622],7],[[50.97852,205.65151],[0.11149,0.09505],[-0.14534,-0.12391],7],[[50.41703,205.53741],[0.18717,0.03804],[-0.58566,-0.25045],7],[[48.66577,204.77279],[0.62396,0.12807],[-0.38884,-0.07981],7],[[47.47501,204.7863],[0.39694,-0.00238],[-0.64765,0.00389],7],[[45.53217,204.76266],[0.63624,-0.12108],[-0.5501,0.10469],7],[[44.27374,205.87554],[0.36384,-0.42567],[-0.76639,0.89663],7],[[42.25652,208.84656],[0.62443,-0.99552],[-0.93221,1.48621],7],[[39.39157,213.27715],[0.88858,-1.51151],[-1.51671,2.58],7],[[35.3763,221.326],[1.25327,-2.7132],[-0.5209,1.3749],7],[[33.8329,225.66265],[0.20238,-1.46471],[-0.20683,1.49688],7],[[32.96016,230.65556],[1.57991,-1.02059],[-0.15018,0.09701],7],[[31.0592,230.73388],[0.29022,0],[-1.30437,0],7],[[27.41763,230.99543],[1.2825,-0.15674],[-0.20985,0.02565],7],[[26.06207,231.21426],[0.16217,-0.35685],[-0.13519,0.29748],7],[[26.16093,232.18953],[-0.01608,-0.32636],[0.01754,0.35605],7],[[26.16283,233.25899],[-0.00063,-0.35648],[0.00233,1.31343],7],[[26.18519,237.19905],[-0.00975,-1.31339],[0.13854,1.51661],7],[[26.67407,241.84023],[-0.3297,-1.49257],[0.6138,2.77874],7],[[30.53655,249.17816],[-1.78248,-2.15846],[0.80274,0.97207],7],[[33.06748,252.0656],[-0.97044,-0.81772],[1.02739,0.86571],7],[[36.40837,254.38019],[-1.18388,-0.65265],[0.35024,0.19308],7],[[37.48117,254.91748],[-0.30556,-0.25804],[0.01056,0.00892],7],[[37.51261,254.94446],[-0.0104,-0.00907],[0,0],7],[[37.51611,254.93923],[0,0],[0,0],7],[[38.30188,255.46307],[0,0],[0.18249,0.11786],7],[[38.60518,256.01953],[0,-0.2334],[0,0.36557],7],[[37.94325,256.68145],[0.36557,0],[0,0],7],[[37.33602,256.68145],[0,0],[-0.91799,0.85648],7],[[34.35872,258.67468],[1.13016,-0.5572],[-0.45901,0.46679],7],[[32.95906,260.05245],[0.33412,-0.56299],[-0.27865,0.46952],7],[[32.78021,262.10926],[-0.00077,-0.40602],[0.00149,0.78064],7],[[32.804,264.45107],[-0.16832,-0.76228],[0.50761,2.29879],7],[[36.8599,270.14967],[-1.59559,-1.56677],[0.44468,0.43665],7],[[38.73082,271.82677],[-0.53672,-0.35117],[0.29726,0.19449],7],[[39.64547,272.24109],[-0.31107,-0.09272],[0.00706,-0.1693],7],[[39.7892,271.78353],[-0.10235,0.12981],[0.27561,-0.34956],7],[[41.01447,271.25242],[-0.43392,0.09934],[0.29658,-0.0679],7],[[41.92628,271.29425],[-0.27885,0.1217],[0.30594,-0.13353],7],[[42.83479,270.32382],[-0.2921,0.42659],[-0.19788,-0.36521],7],[[42.35782,269.41609],[0.10892,0.20503],[-0.98196,-1.84835],7],[[39.11948,264.1091],[0.89181,1.87608],[-0.30437,-0.80005],7],[[38.34536,261.6606],[0.20501,0.83107],[0,0],7],[[38.3404,260.25586],[0,0],[0,0],7]],&quot;closed&quot;:true}]}" fill="#ffa000"/><path d="M50.06123,252.37422c0.46805,0.46805 0,0.93611 0,0.93611l-0.74429,0.67303c-1.25075,0.04802 -3.13389,0.35124 -4.28624,-0.3003c-1.04487,-0.59078 -0.89727,-1.1389 -0.86318,-2.21115c0.00393,-0.12375 0.27708,-2.74511 0.29425,-2.80337c0.23556,-0.79918 0.80964,-1.4566 1.23172,-2.17495c0.23039,-0.39211 0.39291,-0.8365 0.70267,-1.16948c0.00784,-0.00843 0.01588,-0.01661 0.0241,-0.02456l-0.00149,-0.00112c-0.93396,0.00661 -1.87653,0.02321 -2.80438,-0.03081c-0.52433,-0.03052 -1.09486,0.07367 -1.56809,-0.15417c-1.58098,-0.76119 -1.58547,-2.20419 -1.58773,-3.65634c-0.00158,-1.01814 0.18011,-2.2677 0.59507,-3.19964c0.3243,-0.72833 0.96983,-1.26583 1.44159,-1.90854c0.30411,-0.41431 0.48007,-0.95008 0.89168,-1.25785c0.35535,-0.26571 0.85323,-0.24391 1.27985,-0.36587c0,0 0.64216,-0.16054 0.80271,0.48162c0.16054,0.64216 -0.48162,0.80271 -0.48162,0.80271c-0.27944,0.05456 -0.6142,-0.01191 -0.83832,0.16368c-0.29057,0.22765 -0.367,0.64162 -0.57701,0.94518c-0.41089,0.59392 -1.03767,1.05127 -1.32607,1.71339c-0.33022,0.75816 -0.46248,1.8009 -0.46401,2.62532c-0.00147,0.789 -0.18254,2.03665 0.81402,2.45221c0.33024,0.13771 0.71509,0.02807 1.07282,0.03558c1.09153,0.02291 2.18443,0.02755 3.2762,0.02754h0.79431c0.36557,0 0.66193,0.29636 0.66193,0.66193c0,0.15143 -0.05085,0.29097 -0.1364,0.40251l-0.7903,1.05374l-0.02636,-0.01977c-0.19808,0.36792 -0.40216,0.73254 -0.61344,1.09288c-0.37258,0.63543 -0.90917,1.20127 -1.11284,1.90917c-0.10926,0.37976 -0.06626,0.78756 -0.10338,1.18097c-0.06509,0.68978 -0.31244,1.39065 -0.17999,2.07071c0.07185,0.3689 0.68452,0.34657 1.05781,0.39028c0.7495,0.08777 1.55562,-0.00197 2.31353,0.04543l0.3148,-0.38605c0,0 0.46805,-0.46805 0.93611,0z" fill="#000000"/><path d="M96.52265,228.11704c0.63105,-0.1998 0.83085,0.43125 0.83085,0.43125l0.28952,0.98369c-0.10584,0.53573 -0.12309,1.09688 -0.31752,1.60718c-0.12175,0.31957 -0.4021,0.55334 -0.60929,0.82541c-0.29362,0.38556 -0.52885,0.82755 -0.893,1.14733c-0.06069,0.05329 -2.2653,1.3218 -2.40001,1.39848c-0.42467,0.24171 -0.81178,0.57118 -1.2776,0.71875c-1.23736,0.39201 -2.98544,0.26898 -4.26664,0.26208c-0.36414,-0.1313 -0.79295,-0.14863 -1.09241,-0.39391c-0.3624,-0.29683 -0.54933,-0.7597 -0.79952,-1.15575c-0.58966,-0.93342 -1.16129,-1.91116 -0.71017,-2.96003c-0.34363,0.22167 -1.23482,0.59402 -1.63927,0.76596c-1.61435,0.68629 -3.1531,0.89485 -4.91959,0.83978c-0.36963,-0.01152 -0.7921,0.11614 -1.10665,-0.07832c-1.23582,-0.76401 -1.18067,-2.65295 -1.07185,-3.851c0.04616,-0.50819 0.01505,-1.04534 0.21198,-1.51609c0.19352,-0.46262 0.6134,-0.79347 0.92011,-1.19021c0,0 0.4135,-0.51688 0.93038,-0.10338c0.51688,0.4135 0.10338,0.93038 0.10338,0.93038c-0.24464,0.29243 -0.58459,0.52649 -0.73391,0.8773c-0.14586,0.3427 -0.0854,0.7402 -0.11263,1.11165c-0.03237,0.44166 -0.24791,2.22979 0.37722,2.57414c0.14257,0.07853 0.31937,-0.07122 0.48198,-0.07832c0.42717,-0.01865 0.85598,0.02785 1.28273,0.00128c1.3952,-0.08686 2.47668,-0.40417 3.73419,-0.99892c0.41344,-0.19554 2.00093,-1.1568 2.51894,-0.73081c0.41697,0.3429 0.22573,1.05846 0.27489,1.59607c0.03483,0.38088 -0.12552,0.77841 -0.02402,1.14717c0.18643,0.67733 0.91194,1.72193 1.58629,1.90625c1.09275,-0.00724 2.60623,0.11484 3.65475,-0.21735c0.3756,-0.11899 0.67611,-0.40476 1.01623,-0.60364c0.72449,-0.42362 1.55704,-0.69252 2.18766,-1.2463c0.77965,-0.68466 1.17489,-1.54914 1.37147,-2.51291l-0.22974,-0.65636c0,0 -0.1998,-0.63105 0.43125,-0.83085z" fill="#000000"/><path d="M69.50647,249.83137c0.62796,-0.20932 0.83728,0.41864 0.83728,0.41864l0.26477,0.79431c0.12674,0.41572 0.40627,0.77453 0.67825,1.11352c0.82638,1.02999 1.52753,2.16974 2.35523,3.20873c0.21138,0.26534 1.02793,1.41724 1.47524,1.58819c0.13511,0.05163 0.26386,-0.12104 0.38516,-0.19983c0.56145,-0.36472 0.9525,-0.94235 1.39854,-1.44164c0.57572,-0.64446 1.27685,-1.17163 1.83472,-1.8316c0.20543,-0.24302 0.28736,-0.5879 0.52954,-0.79431c0.01662,-0.01417 0.03338,-0.02816 0.05026,-0.04198l-0.00641,-0.00641l0.79431,-0.79431c0.11979,-0.11979 0.28527,-0.19387 0.46805,-0.19387c0.36557,0 0.66193,0.29636 0.66193,0.66193v0.79431c-0.01976,1.26282 0.53467,1.99614 0.99577,3.15952c0.09775,0.24662 0.06528,0.56091 0.24302,0.75785c0.07783,0.08623 0.23355,-0.05658 0.3231,-0.13058c0.29558,-0.24427 0.52699,-0.55884 0.81604,-0.8108c0.64629,-0.56337 1.44869,-0.94744 2.03514,-1.57286c1.45196,-1.54843 2.20029,-3.75701 3.38386,-5.48797c0.94602,-1.38354 2.17957,-2.64202 3.19107,-3.99069c0,0 0.39716,-0.52954 0.9267,-0.13239c0.52954,0.39716 0.13239,0.9267 0.13239,0.9267c-1.00163,1.33551 -2.22847,2.58231 -3.16344,3.95245c-1.53308,2.24664 -2.42836,4.79945 -4.62399,6.51742c-0.86182,0.67433 -2.29513,2.62717 -3.64506,1.89618c-0.46498,-0.25179 -0.56977,-0.8924 -0.81606,-1.36032c-0.51063,-0.9701 -0.89474,-1.83201 -1.0489,-2.8266c-0.49744,0.84013 -1.43891,1.45727 -2.0956,2.19123c-0.30565,0.34162 -0.53477,0.75066 -0.86285,1.0708c-0.39155,0.38207 -1.50127,1.1463 -2.11934,0.99453c-0.99668,-0.24474 -1.71378,-1.34188 -2.29694,-2.06795c-1.14277,-1.42282 -2.65288,-3.02472 -3.25564,-4.73062l-0.26477,-0.79431c0,0 -0.20932,-0.62796 0.41864,-0.83728z" fill="#000000"/><path d="M64.21708,222.86164c-0.46805,-0.46805 0,-0.93611 0,-0.93611l0.79431,-0.79431c0.12868,-0.10493 0.2931,-0.17721 0.38605,-0.3148c0.00296,-0.00438 0.07496,-0.44689 -0.12757,-0.41301c-0.34615,0.05791 -0.65593,0.25774 -0.99851,0.334c-0.65406,0.14559 -2.31742,0.34637 -2.9553,0.17153c-1.06279,-0.29131 -1.06498,-0.81339 -1.64394,-1.53773c-0.17396,-0.21764 -0.44553,-0.35757 -0.58072,-0.6012c-0.09894,-0.17832 0.0837,-0.49645 -0.08874,-0.60533c-0.19266,-0.12165 -0.44502,0.1056 -0.67205,0.12494c-0.26382,0.02248 -0.52954,0 -0.79431,0c-1.58863,0 -3.17725,0 -4.76588,0c0,0 -0.66193,0 -0.66193,-0.66193c0,-0.66193 0.66193,-0.66193 0.66193,-0.66193c1.58863,0 3.17725,0 4.76588,0c0.48008,0 1.9889,-0.02279 2.24043,0.12494c0.30973,0.18191 0.24765,0.68046 0.4408,0.9833c0.11869,0.1861 0.34039,0.28559 0.47837,0.45788c0.25987,0.3245 0.48552,1.00094 1.00378,1.10998c0.46774,0.09842 1.90558,-0.13011 2.31351,-0.20292c0.52483,-0.09367 1.04549,-0.43574 1.56648,-0.32265c1.06916,0.23208 1.31808,1.34597 1.04084,2.20672c-0.10255,0.31838 -0.44869,0.49619 -0.67303,0.74429l-0.79431,0.79431c0,0 -0.46805,0.46805 -0.93611,0z" fill="#000000"/><path d="M49.96235,230.41104c0.19045,0.63394 -0.44349,0.82439 -0.44349,0.82439l-0.05809,0.01745c-3.86014,1.15968 -7.73409,2.49494 -11.75082,2.45863l0.00723,0.11575l-1.31518,0.0822c-0.01565,0.00111 -0.03146,0.00167 -0.04739,0.00167c-0.36557,0 -0.66193,-0.29636 -0.66193,-0.66193c0,-0.1356 0.04078,-0.26168 0.11073,-0.36664l0.70332,-1.0916c0.78772,-1.21473 1.80738,-2.33564 2.90865,-3.34833c-0.03133,-0.07697 -0.0486,-0.16117 -0.0486,-0.24941c0,-0.15835 0.0556,-0.30371 0.14834,-0.41762l0.82371,-1.02964l0.01792,0.01434l0.02625,-0.06418c0.82138,-0.69025 1.62868,-1.36302 2.3876,-2.12287c0,0 0.46805,-0.46805 0.93611,0c0.15982,0.15982 0.2105,0.31965 0.20793,0.46084l0.59619,-0.30954c0.09401,-0.05127 0.20183,-0.0804 0.31645,-0.0804c0.36557,0 0.66193,0.29636 0.66193,0.66193c0,0.2334 -0.1208,0.43859 -0.3033,0.55645l-1.09297,0.72865c-0.08365,0.08192 -1.86415,1.22129 -2.03847,1.35707c-1.63747,1.27543 -3.31777,2.81378 -4.43416,4.55864l0.01429,-0.00089l0.0065,0.10407c0.82664,-0.23801 1.63251,-0.12073 2.57884,-0.26315c2.98755,-0.4496 5.97426,-1.49498 8.85992,-2.3619l0.05809,-0.01745c0,0 0.63394,-0.19045 0.82439,0.44349z" fill="#a2a2a2"/><path d="M105.59228,244.63437c0,0.66193 -0.66193,0.66193 -0.66193,0.66193h-0.52954c-3.32998,0 -6.63892,0.11403 -9.96588,0.25551c-3.39995,0.14459 -6.95815,0.84312 -10.22856,1.83391c-2.05687,0.62314 -4.07036,1.57829 -6.07535,2.35478c-2.45773,0.95183 -4.89409,2.1196 -7.44634,2.7621l0.0479,0.12245l-1.21881,0.47679c-0.07854,0.03285 -0.16476,0.05099 -0.25522,0.05099c-0.36557,0 -0.66193,-0.29636 -0.66193,-0.66193c0,-0.16302 0.05893,-0.31228 0.15666,-0.42764l0.84593,-1.01274l0.01554,0.01298l0.03121,-0.06337c0.69752,-0.55225 1.43787,-1.05381 2.09564,-1.65285c1.30274,-1.18644 2.33925,-2.66988 3.65565,-3.84155c0.98723,-0.8787 2.1607,-1.62608 3.21786,-2.42026c0.82272,-0.61806 1.66373,-1.4846 2.59954,-2.01371c-4.72303,0.07104 -9.39548,0.42817 -14.1089,0.84406c-2.46922,0.21787 -4.94252,0.57068 -7.41216,0.52858l0.00775,0.1007l-1.31272,0.10098c-0.01911,0.00166 -0.03846,0.00251 -0.058,0.00251c-0.36557,0 -0.66193,-0.29636 -0.66193,-0.66193c0,-0.13909 0.0429,-0.26816 0.11619,-0.3747l0.52452,-0.78678c0,0 0.36717,-0.55076 0.91793,-0.18359c0.27166,0.18111 0.31999,0.40688 0.29922,0.58919l0.07326,-0.00564l0.00779,0.10125c0.66625,-0.2157 1.33043,-0.19869 2.11057,-0.26419c1.31792,-0.11066 2.63505,-0.23251 3.95249,-0.34876c5.59235,-0.49344 11.13719,-0.95303 16.7527,-0.97734l0.00143,0.00045v-0.00045h0.79431c0.36557,0 0.66193,0.29636 0.66193,0.66193c0,0.2162 -0.10365,0.40819 -0.26397,0.52899l-1.0437,0.80284c-1.83022,1.8542 -4.35162,3.03419 -6.29594,4.76476c-1.31198,1.16775 -2.34535,2.64835 -3.64442,3.83145c-0.01725,0.01571 -0.13554,0.10989 -0.30763,0.24572c0.12854,-0.04518 0.25889,-0.09264 0.39067,-0.14419c1.23359,-0.48257 2.46714,-0.96512 3.70236,-1.4435c2.44345,-0.9463 4.89529,-2.10498 7.40206,-2.86474c3.37594,-1.02319 7.04893,-1.74097 10.5582,-1.89021c3.34565,-0.14228 6.67341,-0.25671 10.02212,-0.25671h0.52954c0,0 0.66193,0 0.66193,0.66193z" fill="#a2a2a2"/><path d="M77.52397,221.74451c0.64907,0.12981 0.51926,0.77889 0.51926,0.77889l-0.00514,0.02571c-0.0933,0.46038 -0.75704,2.38181 0.00962,2.73817c0.47597,0.22125 1.83056,0.15171 2.25893,0.15117c0.88257,-0.0011 1.76514,0 2.64771,0c3.089,0 6.17799,0 9.26699,0c0,0 0.66193,0 0.66193,0.66193c0,0.66193 -0.66193,0.66193 -0.66193,0.66193c-3.53028,0 -7.06056,0 -10.59085,0c-1.22643,0 -3.2099,0.32224 -4.30893,-0.36809c-1.4342,-0.90085 -0.83418,-2.82655 -0.58163,-4.10474l0.00514,-0.02571c0,0 0.12981,-0.64907 0.77889,-0.51926z" fill="#a2a2a2"/><path d="M71.96635,220.27354c0.00188,-0.66193 0.6638,-0.66005 0.6638,-0.66005l0.28336,0.0008c1.81995,0.00516 3.58439,-0.02487 5.38377,0.27297c0,0 0.65292,0.10882 0.5441,0.76174c-0.10882,0.65292 -0.76174,0.5441 -0.76174,0.5441c-1.72585,-0.28976 -3.42328,-0.25001 -5.16989,-0.25496l-0.28336,-0.0008c0,0 -0.66193,-0.00188 -0.66005,-0.6638z" fill="#a2a2a2"/><path d="M50.51988,254.4309c0,-0.36557 0.29636,-0.66193 0.66193,-0.66193c0.36557,0 0.66193,0.29636 0.66193,0.66193c0,0.36557 -0.29636,0.66193 -0.66193,0.66193c-0.36557,0 -0.66193,-0.29636 -0.66193,-0.66193z" fill="#a2a2a2"/></g></g></svg>