<svg version="1.1" xmlns="http://www.w3.org/2000/svg" xmlns:xlink="http://www.w3.org/1999/xlink" width="262.0661" height="176.77347" viewBox="0,0,262.0661,176.77347"><g transform="translate(-24.77838,-99.77998)"><g data-paper-data="{&quot;isPaintingLayer&quot;:true}" fill-rule="nonzero" stroke="none" stroke-width="0.5" stroke-linecap="butt" stroke-linejoin="miter" stroke-miterlimit="10" stroke-dasharray="" stroke-dashoffset="0" style="mix-blend-mode: normal"><path d="M59.16713,235.55102c1.60033,0 1.60033,1.60033 1.60033,1.60033l-0.012,3.00511c0.43649,1.71748 1.00792,3.40143 1.63978,5.05705c1.64806,3.52247 4.20195,6.33719 6.17593,9.696c0.05156,0.08771 1.15247,2.16485 2.00608,3.77555l0.90094,-0.90094c0.28961,-0.28961 0.68969,-0.46871 1.13159,-0.46871c0.88381,0 1.60033,0.71649 1.60033,1.60033v1.36145c0.11104,0.36772 0.14713,0.69512 0.04773,1.0527c0.32559,-0.46758 0.66391,-0.92657 0.99153,-1.39273c1.45541,-2.07096 2.79162,-3.59473 4.55051,-5.35364l2.41186,-0.46871c0,0 1.60033,0 1.60033,1.60033c0,1.60033 -1.60033,1.60033 -1.60033,1.60033l-0.14866,-0.46871c-1.27024,1.27024 -2.22135,2.4351 -3.25754,3.74684c1.46721,-0.48736 2.9242,-0.97042 4.36664,-1.67749c3.9214,-1.9222 7.88741,-4.098 12.20235,-4.95803c3.21442,-0.64071 5.97087,-1.18685 8.52324,1.34062c1.22551,1.21357 1.54203,3.0863 2.26046,4.65424c0.51225,0.76602 2.74123,4.1879 3.43038,4.87268c0.7301,0.72547 1.69596,1.17317 2.47744,1.84301c1.29535,1.11028 2.08944,2.82838 3.58072,3.65712c0.76902,0.42738 1.7738,0.24632 2.56051,0.64013c0.48483,0.24271 0.59266,1.01459 1.1042,1.19436c0.61386,0.21572 1.29769,-0.10424 1.94811,-0.12183c1.49307,-0.04035 2.98726,-0.00287 4.4809,0c10.81487,0.02089 21.08451,-5.29497 31.00816,-9.01635c4.5815,-1.70824 8.9396,-4.27138 12.69403,-7.40103c1.47346,-1.22827 4.68294,-4.28708 6.78303,-3.96734c1.02668,0.1563 0.98734,1.8282 1.52249,2.71821c1.13468,1.88713 2.88797,3.63007 4.65477,4.92327c4.33219,3.17086 8.55923,2.53684 13.62976,2.1324c0.97486,-0.07777 1.97743,0.0186 2.9255,-0.22133c3.75523,-0.95025 7.36305,-3.62423 10.61604,-5.61563c2.88594,-1.73352 4.20563,-3.6917 6.28937,-6.31596c5.12197,-6.45056 8.7739,-14.23644 12.11361,-21.73137c0.61541,-1.38109 1.43761,-2.69263 1.81672,-4.15632c0.27797,-1.07315 -0.33289,-2.45062 0.37392,-3.3046c0.32182,-0.38883 5.75305,-1.20999 6.09521,-1.26676c5.34766,-0.88711 10.80856,-0.54797 16.22274,-0.54797c3.20029,0 6.40174,-0.02269 9.60193,0c0.94441,0.0067 1.90968,0.24142 2.83298,0.04282c0.80946,-0.17415 2.79729,-1.54806 3.59318,-2.06738c2.05671,-1.34202 5.63057,-3.21959 6.89056,-5.46063c0.394,-0.70076 0.27843,-1.58376 0.43773,-2.37174c0.70355,-3.47967 1.40307,-8.05621 -0.3928,-11.38614c-0.24508,-0.45445 -0.78704,-0.67481 -1.12274,-1.06712c-1.86745,-2.18243 -3.65511,-4.1807 -6.43053,-5.32919c-0.75301,-0.31159 -1.62441,-0.23357 -2.39098,-0.51015l-3.09364,-0.68749c-0.7323,-0.14686 -1.28392,-0.79354 -1.28392,-1.56905c0,-0.53022 0.25786,-1.00024 0.65502,-1.29142l2.47722,-1.8579c4.27691,-4.28708 8.81994,-8.4487 12.79837,-13.01677c2.07709,-2.38495 3.79509,-4.86351 6.07277,-7.0797c2.00451,-6.34633 -3.72285,-9.01719 -8.33567,-11.74422c-3.62209,-2.14133 -7.58312,-3.00068 -11.60812,-4.19094c-4.0265,-1.19069 -8.08131,-2.67941 -12.17576,-3.60417c-6.16149,-1.39158 -12.62437,-1.9915 -18.8657,-2.97781c-4.17846,-0.6603 -8.37562,-1.5079 -12.57791,-1.9891c-8.42917,-0.96528 -17.00815,-1.21341 -25.47199,-1.81797c-5.13727,-0.36695 -10.01472,-0.70415 -15.02635,-1.9217c-1.19843,-0.29115 -2.51916,-0.29122 -3.5864,-0.90931c-3.15107,-1.82493 -2.15069,-6.08932 -2.33404,-9.07111c-0.71706,-3.66656 -1.7812,-6.89049 -3.85259,-10.03673c-1.07235,-1.62878 -2.68019,-2.85535 -4.22052,-4.05128c-0.58343,-0.453 -3.51265,-2.97389 -3.68429,-3.09141c-3.96566,-2.71485 -9.30635,-2.96479 -13.88673,-2.96479c-4.88828,0 -9.96178,-0.33847 -14.77512,0.73131c-1.97477,0.43891 -3.84803,1.24992 -5.77473,1.8665c-5.87795,3.55415 -11.53187,7.56383 -17.48554,10.9664c-1.75437,1.00267 -3.57275,1.88948 -5.34033,2.86873c-0.79471,0.44027 -1.44163,1.20557 -2.32318,1.42532c-1.18275,0.29481 -2.43733,0.05727 -3.65622,0.06505c-1.94575,0.01244 -5.4978,0.18247 -7.22441,-0.90914c-2.57105,-1.62549 -1.92447,-3.88548 -2.17241,-6.33226c-0.21969,-2.16801 -0.45838,-4.34203 -0.45985,-6.52111c-0.00097,-1.40819 0.1096,-2.81917 0.02067,-4.22456c-0.02237,-0.35352 0.07748,-0.81533 -0.19206,-1.04513c-0.35138,-0.29958 -0.90501,-0.18391 -1.35752,-0.27587c-1.41593,-0.6055 -2.72544,-1.53896 -4.23395,-1.84859c-0.94007,-0.19296 -1.9192,0.02691 -2.87887,0.03268c-1.56581,0.0094 -3.1589,-0.34991 -4.69713,-0.05716c-1.32996,0.25311 -2.16285,1.66144 -3.04248,2.69057c-1.85288,2.16775 -3.36729,4.77611 -4.87694,7.18293c-2.25377,3.59317 -4.77819,7.05733 -6.92649,10.71165c-3.66689,6.23757 -6.67761,12.89983 -9.70757,19.45943c-1.25937,3.32404 -3.24213,6.94339 -3.73145,10.48459c-0.50004,3.61895 1.70971,9.60374 -2.11,12.07116c-0.36308,0.23454 -3.89423,0.18935 -4.59588,0.18935c-3.15354,0 -5.70347,0.25339 -8.80409,0.63234c-0.50734,0.06201 -2.8852,-0.3337 -3.27728,0.52906c-0.32686,0.71921 0.20013,1.56884 0.23901,2.35788c0.04242,0.86081 0.00307,1.72371 0.0046,2.58557c0.00563,3.17543 0.03049,6.35041 0.05406,9.52578c0.33494,3.66666 0.38487,7.61227 1.18198,11.22082c1.48397,6.71807 5.02874,12.52223 9.33817,17.74066c1.94075,2.35015 3.77274,5.0039 6.11894,6.98086c2.48389,2.093 5.21496,4.018 8.07718,5.59589c0.84675,0.46681 1.85492,0.67513 2.59367,1.29896c0.02552,0.02158 0.05087,0.04329 0.07601,0.06525l0.00844,-0.01267l1.89972,1.26649c0.44119,0.28494 0.73328,0.78103 0.73328,1.34531c0,0.88381 -0.71649,1.60033 -1.60033,1.60033h-1.46808c-2.2194,2.07069 -4.46579,3.47184 -7.19812,4.81897c-1.10974,1.12854 -2.5761,1.96989 -3.3839,3.33098c-0.67368,1.13513 -0.43427,3.99107 -0.4324,4.97268c0.0036,1.88733 -0.34942,3.81877 0.05751,5.66169c1.22724,5.5577 5.9482,9.98938 9.8058,13.77732c1.07509,1.05567 3.22565,3.20566 4.52326,4.05469c0.71869,0.47021 1.45928,0.7775 2.21134,1.00167c0.01707,-0.40932 0.10005,-0.79235 0.34748,-1.10623c0.66634,-0.84512 1.91322,-1.04387 2.96229,-1.28407c0.71703,-0.16416 1.53026,0.39538 2.20443,0.10116c0.73967,-0.32283 1.49027,-1.31482 2.1965,-2.34618c-0.47842,-0.88296 -0.88981,-1.69889 -1.15317,-2.19459c-2.37406,-4.46869 -5.67312,-8.29477 -7.82922,-12.83051c-0.73585,-1.93426 -1.37592,-3.9104 -1.87156,-5.91967l-0.012,-3.39618c0,0 0,-1.60033 1.60033,-1.60033zM66.99704,267.76513c0.66511,0.33824 1.08225,1.02751 1.62338,1.54126c0,0 1.13159,1.13159 0,2.26321c-1.13159,1.13159 -2.26321,0 -2.26321,0c-0.71553,-0.77826 -1.49965,-1.14352 -2.33999,-1.35859c-0.00614,1.28758 0.10999,2.35822 1.40252,3.5763c0,0 1.13159,1.13159 0,2.26321c-1.13159,1.13159 -2.26321,0 -2.26321,0c-1.93173,-2.00915 -2.44161,-3.97439 -2.44944,-6.43416c-0.2356,-0.05896 -0.47369,-0.12827 -0.71406,-0.21175c-1.13134,-0.39288 -2.21291,-0.94511 -3.22111,-1.5915c-1.50658,-0.96594 -3.74629,-3.20193 -5.02637,-4.45753c-4.34846,-4.26517 -9.3066,-9.18178 -10.6965,-15.40494c-0.16754,-0.75019 -0.12687,-5.62296 -0.12561,-6.31844c0.00383,-2.14434 -0.26653,-4.54896 0.84784,-6.54962c0.18244,-0.32756 3.97537,-4.03273 4.29764,-4.35054c2.47526,-1.25342 4.52311,-2.57049 6.62171,-4.18207c-0.4521,-0.25032 -0.88666,-0.55077 -1.33505,-0.79835c-2.46553,-1.3614 -4.48844,-2.92023 -6.64576,-4.64615c-8.52953,-6.82386 -16.06067,-16.89221 -18.46967,-27.76897c-0.83905,-3.78839 -0.90898,-7.92089 -1.25739,-11.77122c-0.03376,-4.07787 -0.20659,-8.19006 -0.06251,-12.2661c0.0477,-1.34931 -0.47906,-2.90003 0.23901,-4.04341c1.73832,-2.76794 3.46822,-1.75265 5.68451,-2.03145c3.17445,-0.39935 5.89156,-0.64792 9.1195,-0.64792c0.64013,0 1.28145,-0.0392 1.92037,0c0.39277,0.02411 0.80908,0.35662 1.16526,0.18935c0.33063,-0.15526 0.43933,-0.61363 0.50373,-0.97316c0.28438,-1.58833 -0.07338,-3.67422 -0.06865,-5.29739c0.01542,-5.32981 2.0962,-9.78304 3.96557,-14.70238c3.08577,-6.69108 6.16009,-13.48152 9.89945,-19.84236c2.16401,-3.68105 4.70357,-7.17171 6.97441,-10.79056c2.15736,-3.43801 5.42594,-10.17455 9.78287,-11.25887c0.96555,-0.24028 1.98947,-0.0469 2.98441,-0.05716c0.66433,-0.00684 5.93101,0.00151 6.08292,0.03268c0.19962,0.04098 3.79,1.58927 4.72785,1.99216c0.82776,0.3348 1.87174,0.35377 2.48326,1.0044c1.3199,1.40436 1.10153,3.29589 1.10886,4.97236c0.01308,2.99987 0.18108,5.79918 0.4454,8.7776c0.02545,0.28678 -0.3787,3.42234 0.7631,3.97413c1.08423,0.52399 4.50479,0.35922 5.45379,0.37066c0.91521,0.011 1.85582,0.28237 2.74505,0.06554c0.64643,-0.15763 1.06501,-0.80371 1.64193,-1.13519c0.83991,-0.48259 1.74512,-0.84284 2.5985,-1.30126c7.05583,-3.79018 13.60288,-8.56453 20.48871,-12.66751c0.20812,-0.06808 6.17256,-2.02566 6.40521,-2.07735c5.05032,-1.12248 10.34004,-0.80756 15.46955,-0.80756c5.18763,0 11.06661,0.41879 15.55914,3.4365c0.837,0.56223 2.92727,2.47329 3.99722,3.30987c1.79892,1.40651 3.6255,2.89288 4.89937,4.78803c2.37297,3.53037 3.55514,7.27037 4.36297,11.40265c0.1272,2.00487 -0.16964,4.04584 0.1804,6.024c0.05554,0.31382 0.33623,0.60247 0.63421,0.71544c6.28113,2.38137 13.78623,2.13518 20.37814,2.60601c7.44856,0.53203 14.99746,0.75308 22.4156,1.60257c4.2477,0.48643 8.48982,1.34014 12.71338,2.00755c6.31075,0.99726 12.84085,1.61007 19.07123,3.01722c4.16294,0.9402 8.2846,2.44634 12.37824,3.65691c4.29296,1.26949 8.44633,2.22897 12.32401,4.50189c5.29327,3.10267 11.40635,6.44659 10.29326,13.67983c-0.13428,0.8725 -0.57231,1.67025 -0.85845,2.50537c-2.33804,2.39258 -4.19446,4.98755 -6.38176,7.49906c-4.08153,4.68649 -8.73689,8.96559 -13.13487,13.35267l-0.12471,0.02282l0.02268,0.03025c2.12109,-0.08001 3.751,0.84288 5.88185,2.25079c1.77278,1.17133 3.24415,2.77317 4.61748,4.3945c0.44661,0.52726 1.11645,0.88163 1.43778,1.4934c2.16987,4.13126 1.76888,9.36786 0.80064,13.73539c-0.23951,1.08042 -0.21037,2.26987 -0.75569,3.23288c-0.61357,1.08356 -1.68219,1.84042 -2.59604,2.68626c-2.40014,2.22151 -6.63524,5.67123 -9.96485,6.42904c-1.15987,0.26399 -2.37881,0.03529 -3.56833,0.04282c-3.20029,0.02024 -6.40157,0 -9.60193,0c-5.22943,0 -10.5341,-0.36014 -15.69656,0.5044c-1.06592,0.17848 -2.11928,0.47099 -3.1983,0.53249c-0.35801,0.02039 -0.89294,-0.62008 -1.03566,-0.29112c-0.24602,0.56711 0.49173,1.20959 0.37392,1.81642c-0.42955,2.21281 -2.41432,5.66489 -3.35557,7.7351c-3.07116,6.75467 -6.58552,13.67086 -11.20243,19.49798c-2.31649,2.92374 -3.9298,5.069 -7.1259,7.05674c-3.54123,2.16787 -7.40778,4.95075 -11.49318,5.98648c-0.12765,0.03235 -6.43379,0.56624 -6.69464,0.57954c-2.04841,0.10446 -4.14424,0.50066 -6.15265,0.08449c-3.96217,-0.82099 -8.04179,-3.85315 -10.54791,-6.95637c-0.56211,-0.69602 -1.17378,-1.39725 -1.48399,-2.23639c-0.13274,-0.35905 0.6067,-1.23971 0.24225,-1.12258c-0.61027,0.19612 -0.79669,1.01022 -1.2626,1.4505c-0.13409,0.12671 -4.90754,4.09124 -4.92524,4.10362c-3.36544,2.36049 -7.22574,4.36576 -11.05497,5.80924c-10.33972,3.87741 -20.87197,9.1998 -32.13198,9.22013c-2.22659,0.00401 -5.56961,0.5481 -7.65382,-0.12183c-0.63368,-0.20369 -0.86086,-1.06877 -1.45631,-1.36615c-0.78704,-0.39311 -1.80109,-0.19596 -2.56051,-0.64013c-0.53832,-0.31486 -3.469,-3.48284 -4.10082,-4.02439c-0.83861,-0.71879 -1.86477,-1.21453 -2.64359,-1.99777c-1.01878,-1.02453 -3.15801,-4.36646 -3.96117,-5.57453c-0.50734,-1.09867 -1.38027,-4.4172 -3.05251,-4.9076c-1.3885,-0.40717 -2.89371,0.2092 -4.31304,0.49059c-5.06696,1.00448 -9.09753,4.33181 -13.91544,5.89539c-1.01367,0.32897 -2.12388,0.29017 -3.13509,0.62654c-2.04017,0.67867 -5.32793,3.37444 -7.73361,1.8286c-0.32249,-0.20722 -0.68534,-0.6121 -1.05957,-1.12419c-0.72483,0.98663 -1.52862,1.90025 -2.6939,2.47199c-0.87333,0.42846 -1.94413,0.07621 -2.91659,0.10116c-0.21189,0.00544 -0.49958,-0.13128 -0.69858,-0.11143c1.06538,0.20378 2.12521,0.45824 3.1511,0.97995z" fill="#000000"/><path d="M57.59538,237.13689l0.01158,3.39538c0.49564,2.00924 1.13482,3.98393 1.8707,5.91815c2.1561,4.53573 5.4527,8.35836 7.82677,12.82705c0.26333,0.49569 0.67434,1.31112 1.15273,2.19407c-0.70619,1.03135 -1.50558,2.06484 -2.24526,2.38767c-0.67417,0.29422 -1.48766,-0.26563 -2.20469,-0.10146c-1.04907,0.24017 -2.24656,0.39821 -2.91292,1.24332c-0.24745,0.31383 -0.37984,0.73761 -0.39691,1.14689c-0.75206,-0.22417 -1.49303,-0.53188 -2.21167,-1.0021c-1.29761,-0.84901 -3.44909,-3.00022 -4.52417,-4.05589c-3.8576,-3.78793 -8.58084,-8.22323 -9.80809,-13.78096c-0.40695,-1.84292 -0.05451,-3.77552 -0.0581,-5.66285c-0.00186,-0.98162 -0.24174,-3.83858 0.43195,-4.9737c0.80779,-1.36113 2.27395,-2.20289 3.38372,-3.33142c2.73235,-1.34711 4.97855,-2.74869 7.19794,-4.81939l1.52729,-0.02429c0.88381,0 1.54107,-0.69228 1.54107,-1.57611c0,-0.56428 -0.29222,-1.0608 -0.73345,-1.34574l-1.89992,-1.267l-0.00844,0.01267c-0.02514,-0.02192 -0.0505,-0.04372 -0.07602,-0.06527c-0.73875,-0.62385 -1.7471,-0.83274 -2.59387,-1.29958c-2.86222,-1.57789 -5.59394,-3.50502 -8.07779,-5.59801c-2.34619,-1.97696 -4.17869,-4.63293 -6.11944,-6.98303c-4.30944,-5.21843 -7.85475,-11.02743 -9.33874,-17.74552c-0.79711,-3.60854 -0.84699,-7.55697 -1.18194,-11.22365c-0.02358,-3.17533 -0.0482,-6.35268 -0.05384,-9.5281c-0.00153,-0.86186 0.0379,-1.7254 -0.0045,-2.58622c-0.03888,-0.78902 -0.56575,-1.63925 -0.23892,-2.35846c0.39207,-0.86275 2.76997,-0.46731 3.27731,-0.52932c3.10067,-0.37893 5.65067,-0.63291 8.80419,-0.63291c0.70165,0 4.23286,0.04489 4.59595,-0.18964c3.8197,-2.46745 1.6108,-8.45554 2.11084,-12.07449c0.48929,-3.54117 2.47315,-7.16347 3.73252,-10.48751c3.02999,-6.5596 6.04356,-13.22719 9.71046,-19.46476c2.14829,-3.65431 4.67483,-7.12134 6.92862,-10.71448c1.50965,-2.40683 3.02566,-5.01692 4.87854,-7.18468c0.87964,-1.02913 1.71331,-2.43825 3.04327,-2.69136c1.53822,-0.29274 3.13202,0.06594 4.69781,0.05651c0.95967,-0.00576 1.93927,-0.22606 2.87934,-0.03311c1.50852,0.30963 2.81847,1.24272 4.2344,1.84821c0.45253,0.09198 1.00631,-0.02385 1.35771,0.2757c0.26954,0.2298 0.21037,0.74105 0.23278,1.09455c0.08892,1.40539 -0.02098,2.8158 -0.02001,4.22399c0.00151,2.17911 0.24112,4.35226 0.46084,6.52025c0.24794,2.44678 -0.44334,4.66096 2.12768,6.28646c1.72662,1.09162 5.27986,0.9204 7.22563,0.90801c1.21891,-0.00778 2.47429,0.22903 3.65704,-0.06577c0.88156,-0.21973 1.52926,-0.98569 2.32397,-1.42596c1.76756,-0.97925 3.58781,-1.86745 5.34219,-2.87011c5.95367,-3.40259 11.61465,-7.41589 17.4926,-10.97003c1.9267,-0.61661 3.80217,-1.42833 5.77695,-1.86725c4.81337,-1.06979 9.89241,-0.73238 14.7807,-0.73238c4.58039,0 9.9266,0.24986 13.89226,2.96472c0.17164,0.11753 3.10253,2.63856 3.68595,3.09156c1.54032,1.19593 3.15018,2.42284 4.22256,4.05162c2.07142,3.14624 3.13834,6.37082 3.85537,10.03737c0.18337,2.98179 -0.81445,7.24704 2.33662,9.07195c1.06724,0.61808 2.3899,0.61894 3.58833,0.91009c5.01162,1.21758 9.89547,1.55865 15.03271,1.9256c8.46385,0.60456 17.04886,0.85886 25.478,1.82413c4.20228,0.48123 8.40128,1.33154 12.57974,1.99184c6.24133,0.98629 12.70592,1.58955 18.86741,2.98111c4.09444,0.92476 8.15012,2.41559 12.17662,3.60628c4.025,1.19028 7.98665,2.05155 11.60877,4.19289c4.61283,2.72702 10.34095,5.40117 8.33646,11.74749c-2.27767,2.21618 -3.99544,4.69627 -6.07253,7.08122c-3.97841,4.56807 -8.52124,8.73301 -12.79811,13.02009l-2.47719,1.85843c-0.39718,0.29121 -0.65502,0.76159 -0.65502,1.29184c0,0.77551 0.55163,1.42266 1.28392,1.56952l3.09364,0.68765c0.76656,0.2766 1.63798,0.19868 2.39098,0.51028c2.77542,1.14849 4.563,3.14813 6.43046,5.33058c0.3357,0.39231 0.87764,0.61296 1.12272,1.06738c1.79586,3.32992 1.09599,7.90939 0.39244,11.38908c-0.15933,0.788 -0.04386,1.6716 -0.43784,2.37236c-1.26,2.24103 -4.83428,4.1204 -6.89097,5.46243c-0.79589,0.51934 -2.78392,1.89402 -3.59337,2.06816c-0.9233,0.19863 -1.88861,-0.0359 -2.83301,-0.04259c-3.2002,-0.02269 -6.40189,0.00079 -9.60217,0.00079c-5.41417,0 -10.87574,-0.33726 -16.22341,0.54984c-0.34215,0.05677 -5.77389,0.87916 -6.09571,1.268c-0.70683,0.85402 -0.09646,2.23259 -0.37445,3.30573c-0.37914,1.46369 -1.20213,2.7768 -1.81754,4.15788c-3.33972,7.4949 -6.9973,15.28823 -12.11928,21.73881c-2.08376,2.62425 -3.4059,4.58461 -6.29184,6.31814c-3.253,1.99144 -6.86445,4.66791 -10.61969,5.61815c-0.94805,0.2399 -1.95151,0.14405 -2.92637,0.2218c-5.07053,0.40442 -9.30175,1.04036 -13.63394,-2.13049c-1.76681,-1.29319 -3.52123,-3.03573 -4.65591,-4.92284c-0.53515,-0.89001 -0.49609,-2.56181 -1.52278,-2.7181c-2.10008,-0.31973 -5.31297,2.73998 -6.78647,3.96824c-3.75443,3.12965 -8.11843,5.69341 -12.69993,7.40165c-9.92366,3.72138 -20.20443,9.0354 -31.0193,9.01451c-1.49364,-0.00287 -2.98921,-0.04086 -4.48228,-0.00053c-0.65039,0.01758 -1.33481,0.33728 -1.94867,0.12158c-0.51154,-0.17975 -0.61984,-0.95187 -1.10469,-1.19458c-0.78671,-0.39381 -1.79234,-0.21314 -2.56132,-0.64052c-1.49127,-0.82876 -2.28686,-2.54761 -3.58223,-3.65792c-0.78148,-0.66983 -1.74829,-1.11807 -2.47839,-1.84358c-0.68916,-0.68478 -2.91982,-4.10771 -3.43208,-4.87374c-0.7184,-1.56797 -1.03629,-3.44169 -2.26183,-4.65524c-2.55235,-2.52746 -5.31088,-1.98303 -8.52532,-1.34234c-4.31494,0.86005 -8.28224,3.0346 -12.20365,4.9568c-1.44246,0.70707 -2.89985,1.18973 -4.36705,1.67709c1.03619,-1.31175 2.03382,-2.52058 3.30406,-3.79082l0.14856,0.46861c0,0 1.55388,0.04406 1.55388,-1.55624c0,-1.60033 -1.6008,-1.60086 -1.6008,-1.60086l-2.41212,0.46844c-1.7589,1.7589 -3.0473,3.24009 -4.50273,5.31104c-0.32763,0.46617 -0.71346,0.96805 -1.03902,1.43563c0.0994,-0.35756 0.06317,-0.68514 -0.04789,-1.05287l-0.0002,-1.36165c0,-0.88381 -0.71691,-1.60083 -1.60076,-1.60083c-0.44193,0 -0.84207,0.17903 -1.13166,0.46864l-0.90094,0.90095c-0.85364,-1.6107 -1.95528,-3.68879 -2.00685,-3.77649c-1.97397,-3.35882 -4.52978,-6.17626 -6.17784,-9.69876c-0.63185,-1.65561 -1.20407,-3.34088 -1.64055,-5.05835l0.01163,-3.00578c0,0 -0.0003,-1.60089 -1.60063,-1.60089c-1.60033,0 -1.5431,1.57162 -1.5431,1.57162z" data-paper-data="{&quot;noHover&quot;:false,&quot;origItem&quot;:[&quot;Path&quot;,{&quot;applyMatrix&quot;:true,&quot;selected&quot;:true,&quot;segments&quot;:[[[39.00233,259.59394],[-0.66193,0],[0.66193,0],7],[[39.66426,260.25586],[0,0],[0,0],7],[[39.6593,261.49884],[0,0],[0.18054,0.71039],7],[[40.33756,263.59055],[-0.26135,-0.6848],[0.68167,1.45697],7],[[42.89206,267.60103],[-0.81648,-1.38928],[0.02132,0.03628],7],[[43.72182,269.16269],[-0.35308,-0.66622],[0,0],7],[[44.09447,268.79003],[0,0],[0.11979,-0.11979],7],[[44.56253,268.59616],[-0.18279,0],[0.36557,0],7],[[45.22445,269.25808],[0,-0.36557],[0,0],7],[[45.22445,269.82121],[0,0],[0.04593,0.1521],7],[[45.24419,270.25662],[0.04112,-0.1479],[0.13467,-0.1934],7],[[45.65431,269.68056],[-0.13551,0.19282],[0.60199,-0.8566],7],[[47.5365,267.46617],[-0.72752,0.72752],[0,0],7],[[48.53409,267.2723],[0,0],[0,0],7],[[49.19602,267.93423],[0,-0.66193],[0,0.66193],7],[[48.53409,268.59616],[0,0],[0,0],7],[[48.47261,268.40228],[0,0],[-0.5254,0.5254],7],[[47.12521,269.95206],[0.42859,-0.54257],[0.60687,-0.20158],7],[[48.93136,269.25821],[-0.59663,0.29246],[1.62198,-0.79506],7],[[53.97852,267.20746],[-1.78475,0.35574],[1.32956,-0.26501],7],[[57.50391,267.76196],[-1.05571,-1.04541],[0.5069,0.50196],7],[[58.43888,269.68707],[-0.29715,-0.64854],[0.21188,0.31684],7],[[59.85777,271.70251],[-0.28505,-0.28324],[0.30199,0.30007],7],[[60.88249,272.46482],[-0.32324,-0.27706],[0.53578,0.45924],7],[[62.36356,273.9775],[-0.61682,-0.34279],[0.31808,0.17677],7],[[63.42264,274.24227],[-0.3254,-0.16289],[0.20054,0.10039],7],[[63.87936,274.73628],[-0.21158,-0.07435],[0.2539,0.08922],7],[[64.68514,274.68589],[-0.26902,0.00727],[0.61757,-0.01669],7],[[66.53853,274.68589],[-0.6178,-0.00119],[4.47327,0.00864],7],[[79.36419,270.95654],[-4.10464,1.53924],[1.89501,-0.70657],7],[[84.61473,267.89531],[-1.55291,1.29449],[0.60946,-0.50804],7],[[87.42034,266.25433],[-0.86864,-0.13225],[0.42466,0.06465],7],[[88.05008,267.37864],[-0.22135,-0.36813],[0.46933,0.78056],7],[[89.97539,269.415],[-0.73079,-0.53489],[1.79189,1.31154],7],[[95.61297,270.29701],[-2.09728,0.16728],[0.40322,-0.03216],7],[[96.82302,270.20547],[-0.39214,0.09923],[1.55325,-0.39304],7],[[101.21404,267.88272],[-1.34551,0.8237],[1.19369,-0.71702],7],[[103.81547,265.2703],[-0.86189,1.08545],[2.11856,-2.6681],7],[[108.82593,256.28173],[-1.38138,3.10006],[0.25455,-0.57125],7],[[109.57737,254.56258],[-0.15682,0.60542],[0.11497,-0.44388],7],[[109.73203,253.19572],[-0.29236,0.35324],[0.13311,-0.16083],7],[[112.25314,252.67176],[-0.14152,0.02348],[2.21191,-0.36693],7],[[118.96323,252.44511],[-2.23942,0],[1.32371,0],7],[[122.93479,252.44511],[-1.32367,-0.00939],[0.39063,0.00277],7],[[124.10657,252.46282],[-0.3819,0.08216],[0.33481,-0.07203],7],[[125.59278,251.60771],[-0.3292,0.21481],[0.8507,-0.55509],7],[[128.44287,249.34907],[-0.52116,0.92694],[0.16297,-0.28985],7],[[128.62393,248.36806],[-0.0659,0.32593],[0.291,-1.43927],7],[[128.46146,243.65851],[0.74281,1.37733],[-0.10137,-0.18797],7],[[127.99707,243.21712],[0.13885,0.16227],[-0.77242,-0.9027],7],[[125.33726,241.01285],[1.14798,0.47504],[-0.31146,-0.12888],7],[[124.3483,240.80183],[0.31706,0.11441],[0,0],7],[[123.0687,240.51748],[0,0],[-0.30289,-0.06074],7],[[122.53764,239.86848],[0,0.32077],[0,-0.21931],7],[[122.80857,239.33432],[-0.16428,0.12045],[0,0],7],[[123.8332,238.56585],[0,0],[1.76902,-1.77323],7],[[129.12689,233.18182],[-1.64556,1.88946],[0.85913,-0.98647],7],[[131.63872,230.2535],[-0.94209,0.91666],[0.82911,-2.62498],7],[[128.19089,225.39583],[1.90797,1.12796],[-1.49818,-0.8857],7],[[123.38952,223.66236],[1.66483,0.49232],[-1.66545,-0.4925],7],[[118.35336,222.17161],[1.69355,0.3825],[-2.54853,-0.57559],7],[[110.55009,220.93992],[2.58155,0.40795],[-1.7283,-0.27312],7],[[105.34758,220.11718],[1.73816,0.19905],[-3.48649,-0.39926],7],[[94.8118,219.36523],[3.50084,0.25006],[-2.12489,-0.15178],7],[[88.59657,218.57036],[2.07292,0.50362],[-0.4957,-0.12043],7],[[87.11316,218.19426],[0.44143,0.25565],[-1.30335,-0.75483],7],[[86.14775,214.44225],[0.07584,1.23333],[-0.29659,-1.51657],7],[[84.55422,210.29084],[0.85679,1.30135],[-0.44355,-0.6737],7],[[82.80853,208.61514],[0.63711,0.49467],[-0.24132,-0.18737],7],[[81.28461,207.33646],[0.071,0.04861],[-1.64029,-1.12292],7],[[75.54075,206.11016],[1.89455,0],[-2.0219,0],7],[[69.42943,206.41265],[1.99091,-0.44249],[-0.81681,0.18154],7],[[67.04087,207.18469],[0.79693,-0.25504],[-2.43125,1.47008],7],[[59.80846,211.72064],[2.46257,-1.40739],[-0.72565,0.41472],7],[[57.59959,212.9072],[0.7311,-0.40504],[-0.32871,0.18211],7],[[56.63867,213.49674],[0.36463,-0.09088],[-0.48921,0.12194],7],[[55.12637,213.52365],[0.50417,-0.00322],[-0.80481,0.00514],7],[[52.13819,213.14761],[0.71417,0.45152],[-1.06344,-0.67234],7],[[51.23964,210.52846],[0.10255,1.01204],[-0.09087,-0.89674],7],[[51.04942,207.83117],[0.00062,0.90133],[-0.0004,-0.58246],7],[[51.05797,206.0838],[0.03678,0.5813],[-0.00925,-0.14622],7],[[50.97852,205.65151],[0.11149,0.09505],[-0.14534,-0.12391],7],[[50.41703,205.53741],[0.18717,0.03804],[-0.58566,-0.25045],7],[[48.66577,204.77279],[0.62396,0.12807],[-0.38884,-0.07981],7],[[47.47501,204.7863],[0.39694,-0.00238],[-0.64765,0.00389],7],[[45.53217,204.76266],[0.63624,-0.12108],[-0.5501,0.10469],7],[[44.27374,205.87554],[0.36384,-0.42567],[-0.76639,0.89663],7],[[42.25652,208.84656],[0.62443,-0.99552],[-0.93221,1.48621],7],[[39.39157,213.27715],[0.88858,-1.51151],[-1.51671,2.58],7],[[35.3763,221.326],[1.25327,-2.7132],[-0.5209,1.3749],7],[[33.8329,225.66265],[0.20238,-1.46471],[-0.20683,1.49688],7],[[32.96016,230.65556],[1.57991,-1.02059],[-0.15018,0.09701],7],[[31.0592,230.73388],[0.29022,0],[-1.30437,0],7],[[27.41763,230.99543],[1.2825,-0.15674],[-0.20985,0.02565],7],[[26.06207,231.21426],[0.16217,-0.35685],[-0.13519,0.29748],7],[[26.16093,232.18953],[-0.01608,-0.32636],[0.01754,0.35605],7],[[26.16283,233.25899],[-0.00063,-0.35648],[0.00233,1.31343],7],[[26.18519,237.19905],[-0.00975,-1.31339],[0.13854,1.51661],7],[[26.67407,241.84023],[-0.3297,-1.49257],[0.6138,2.77874],7],[[30.53655,249.17816],[-1.78248,-2.15846],[0.80274,0.97207],7],[[33.06748,252.0656],[-0.97044,-0.81772],[1.02739,0.86571],7],[[36.40837,254.38019],[-1.18388,-0.65265],[0.35024,0.19308],7],[[37.48117,254.91748],[-0.30556,-0.25804],[0.01056,0.00892],7],[[37.51261,254.94446],[-0.0104,-0.00907],[0,0],7],[[37.51611,254.93923],[0,0],[0,0],7],[[38.30188,255.46307],[0,0],[0.18249,0.11786],7],[[38.60518,256.01953],[0,-0.2334],[0,0.36557],7],[[37.94325,256.68145],[0.36557,0],[0,0],7],[[37.33602,256.68145],[0,0],[-0.91799,0.85648],7],[[34.35872,258.67468],[1.13016,-0.5572],[-0.45901,0.46679],7],[[32.95906,260.05245],[0.33412,-0.56299],[-0.27865,0.46952],7],[[32.78021,262.10926],[-0.00077,-0.40602],[0.00149,0.78064],7],[[32.804,264.45107],[-0.16832,-0.76228],[0.50761,2.29879],7],[[36.8599,270.14967],[-1.59559,-1.56677],[0.44468,0.43665],7],[[38.73082,271.82677],[-0.53672,-0.35117],[0.29726,0.19449],7],[[39.64547,272.24109],[-0.31107,-0.09272],[0.00706,-0.1693],7],[[39.7892,271.78353],[-0.10235,0.12981],[0.27561,-0.34956],7],[[41.01447,271.25242],[-0.43392,0.09934],[0.29658,-0.0679],7],[[41.92628,271.29425],[-0.27885,0.1217],[0.30594,-0.13353],7],[[42.83479,270.32382],[-0.2921,0.42659],[-0.19788,-0.36521],7],[[42.35782,269.41609],[0.10892,0.20503],[-0.98196,-1.84835],7],[[39.11948,264.1091],[0.89181,1.87608],[-0.30437,-0.80005],7],[[38.34536,261.6606],[0.20501,0.83107],[0,0],7],[[38.3404,260.25586],[0,0],[0,0],7]],&quot;closed&quot;:true}]}" fill="#ffa000"/><path d="M85.90385,218.09615c1.13159,1.13159 0,2.26321 0,2.26321l-1.79945,1.62716c-3.0239,0.1161 -7.5767,0.84918 -10.36269,-0.72603c-2.52615,-1.42832 -2.16931,-2.75349 -2.08687,-5.34582c0.00951,-0.29919 0.66988,-6.63675 0.7114,-6.77762c0.56951,-1.93214 1.95744,-3.52157 2.97789,-5.25831c0.557,-0.94798 0.94991,-2.02238 1.69882,-2.8274c0.01897,-0.02038 0.0384,-0.04015 0.05827,-0.05938l-0.0036,-0.0027c-2.258,0.01598 -4.53683,0.05611 -6.78004,-0.07448c-1.26764,-0.07378 -2.647,0.1781 -3.79112,-0.37273c-3.82228,-1.84029 -3.83314,-5.32901 -3.83861,-8.83981c-0.00383,-2.46152 0.43546,-5.48254 1.43868,-7.73567c0.78404,-1.76087 2.34472,-3.06035 3.48528,-4.61422c0.73524,-1.00167 1.16064,-2.29698 2.15578,-3.04106c0.85912,-0.64239 2.06282,-0.58969 3.09424,-0.88456c0,0 1.55253,-0.38813 1.94068,1.1644c0.38813,1.55253 -1.1644,1.94068 -1.1644,1.94068c-0.6756,0.13191 -1.48492,-0.02881 -2.02678,0.39573c-0.70249,0.55039 -0.88727,1.55123 -1.39502,2.28514c-0.9934,1.43589 -2.50874,2.54161 -3.20598,4.14241c-0.79835,1.83298 -1.11812,4.35399 -1.12182,6.34716c-0.00356,1.90753 -0.44131,4.92392 1.96803,5.92862c0.79841,0.33294 1.72885,0.06787 2.59373,0.08602c2.63895,0.0554 5.28122,0.06661 7.92075,0.06658h1.92037c0.88381,0 1.60033,0.71649 1.60033,1.60033c0,0.36611 -0.12294,0.70347 -0.32977,0.97312l-1.91068,2.5476l-0.06373,-0.0478c-0.47889,0.8895 -0.97228,1.77104 -1.4831,2.64222c-0.90078,1.53626 -2.19807,2.90426 -2.69047,4.61573c-0.26416,0.91813 -0.16019,1.90406 -0.24994,2.85519c-0.15736,1.66765 -0.75538,3.36213 -0.43516,5.00629c0.17371,0.89187 1.65493,0.8379 2.55744,0.94357c1.81203,0.2122 3.76097,-0.00477 5.59334,0.10983l0.76107,-0.93334c0,0 1.13159,-1.13159 2.26321,0z" fill="#000000"/><path d="M198.23202,159.45041c1.52566,-0.48305 2.00871,1.04263 2.00871,1.04263l0.69996,2.37823c-0.25588,1.29522 -0.29759,2.6519 -0.76766,3.88562c-0.29435,0.7726 -0.97215,1.3378 -1.47306,1.99555c-0.70987,0.93214 -1.27858,2.00074 -2.15897,2.77387c-0.14673,0.12884 -5.47674,3.19567 -5.80241,3.38105c-1.02672,0.58436 -1.96262,1.38091 -3.08881,1.73769c-2.99153,0.94774 -7.2178,0.6503 -10.3153,0.63362c-0.88036,-0.31743 -1.91709,-0.35934 -2.64107,-0.95234c-0.87617,-0.71763 -1.3281,-1.8367 -1.93297,-2.79422c-1.42559,-2.2567 -2.80762,-4.62055 -1.71694,-7.15635c-0.83077,0.53593 -2.98538,1.43614 -3.9632,1.85183c-3.90295,1.65921 -7.62314,2.16345 -11.89392,2.0303c-0.89364,-0.02785 -1.91502,0.28078 -2.67551,-0.18935c-2.9878,-1.84712 -2.85446,-6.41395 -2.59137,-9.31043c0.1116,-1.22864 0.03638,-2.52727 0.5125,-3.66541c0.46786,-1.11845 1.48299,-1.91835 2.22451,-2.87754c0,0 0.9997,-1.24965 2.24935,-0.24994c1.24965,0.9997 0.24994,2.24935 0.24994,2.24935c-0.59145,0.707 -1.41335,1.27287 -1.77435,2.12102c-0.35264,0.82853 -0.20646,1.78955 -0.2723,2.68759c-0.07825,1.06778 -0.59936,5.39089 0.91199,6.22342c0.3447,0.18985 0.77213,-0.17218 1.16526,-0.18935c1.03275,-0.0451 2.06948,0.06733 3.10121,0.00308c3.37313,-0.20999 5.98778,-0.97715 9.02803,-2.41505c0.99956,-0.47275 4.83759,-2.79676 6.08995,-1.76686c1.00808,0.82901 0.54574,2.55899 0.66459,3.85876c0.08422,0.92083 -0.30346,1.88194 -0.05808,2.77348c0.45071,1.63755 2.20476,4.16304 3.83512,4.60866c2.6419,-0.01751 6.30098,0.27764 8.83597,-0.52548c0.90808,-0.28768 1.63461,-0.97858 2.45691,-1.45939c1.75158,-1.02416 3.76441,-1.67428 5.28904,-3.01313c1.88494,-1.65529 2.84049,-3.7453 3.31576,-6.07538l-0.55544,-1.58686c0,0 -0.48305,-1.52566 1.04263,-2.00871z" fill="#000000"/><path d="M132.91594,211.94839c1.51819,-0.50605 2.02426,1.01214 2.02426,1.01214l0.64013,1.92037c0.30642,1.00507 0.98223,1.87256 1.63978,2.69212c1.99791,2.49018 3.69304,5.24571 5.69417,7.75765c0.51104,0.64151 2.4852,3.42641 3.56665,3.83972c0.32664,0.12482 0.63792,-0.29262 0.93119,-0.48312c1.35739,-0.88177 2.30282,-2.2783 3.38121,-3.48541c1.3919,-1.55808 3.087,-2.83261 4.43574,-4.4282c0.49666,-0.58753 0.69473,-1.42135 1.28024,-1.92037c0.04019,-0.03426 0.08071,-0.06808 0.12151,-0.1015l-0.01551,-0.01551l1.92037,-1.92037c0.28961,-0.28961 0.68969,-0.46871 1.13159,-0.46871c0.88381,0 1.60033,0.71649 1.60033,1.60033v1.92037c-0.04779,3.05308 1.29267,4.82599 2.40743,7.63866c0.23632,0.59625 0.15782,1.35609 0.58753,1.83223c0.18817,0.20846 0.56465,-0.13679 0.78115,-0.3157c0.71461,-0.59056 1.27408,-1.35109 1.97292,-1.96025c1.56251,-1.36205 3.50244,-2.29059 4.92028,-3.80264c3.51035,-3.74359 5.31957,-9.08319 8.18105,-13.26808c2.28715,-3.34493 5.26946,-6.38752 7.71493,-9.64814c0,0 0.96019,-1.28024 2.24046,-0.32006c1.28024,0.96019 0.32006,2.24046 0.32006,2.24046c-2.42162,3.22881 -5.38769,6.24317 -7.64813,9.5557c-3.70647,5.43162 -5.87097,11.60347 -11.17925,15.75695c-2.0836,1.63031 -5.54885,6.35163 -8.81253,4.58433c-1.12418,-0.60874 -1.37751,-2.15753 -1.97296,-3.28881c-1.23454,-2.34538 -2.16318,-4.42918 -2.53589,-6.83377c-1.20265,2.03115 -3.47881,3.52319 -5.06646,5.29766c-0.73897,0.82591 -1.29289,1.81484 -2.08609,2.58883c-0.94664,0.9237 -3.62956,2.77137 -5.12384,2.40443c-2.40965,-0.5917 -4.14334,-3.24423 -5.55323,-4.99961c-2.76283,-3.43991 -6.41378,-7.31275 -7.87105,-11.43707l-0.64013,-1.92037c0,0 -0.50605,-1.51819 1.01214,-2.02426z" fill="#000000"/><path d="M120.12795,146.74461c-1.13159,-1.13159 0,-2.26321 0,-2.26321l1.92037,-1.92037c0.31111,-0.25369 0.70862,-0.42843 0.93334,-0.76107c0.00716,-0.0106 0.18122,-1.08042 -0.30842,-0.99853c-0.83688,0.14002 -1.58582,0.62314 -2.41406,0.80749c-1.58129,0.35199 -5.60273,0.83741 -7.14494,0.41471c-2.56946,-0.7043 -2.57476,-1.96651 -3.9745,-3.71771c-0.42058,-0.52618 -1.07715,-0.86449 -1.40398,-1.4535c-0.2392,-0.43112 0.20236,-1.20025 -0.21453,-1.46348c-0.46578,-0.29411 -1.07592,0.25531 -1.62479,0.30206c-0.63783,0.05434 -1.28024,0 -1.92037,0c-3.84076,0 -7.68153,0 -11.5223,0c0,0 -1.60033,0 -1.60033,-1.60033c0,-1.60033 1.60033,-1.60033 1.60033,-1.60033c3.84076,0 7.68153,0 11.5223,0c1.16069,0 4.80848,-0.0551 5.41663,0.30206c0.74882,0.4398 0.59873,1.64513 1.06571,2.3773c0.28695,0.44993 0.82294,0.69046 1.15654,1.107c0.62828,0.78454 1.17382,2.41994 2.4268,2.68356c1.13084,0.23795 4.60705,-0.31456 5.59328,-0.49059c1.26886,-0.22647 2.52765,-1.05348 3.78723,-0.78006c2.58487,0.56108 3.18667,3.2541 2.51641,5.3351c-0.24794,0.76973 -1.08478,1.19962 -1.62716,1.79945l-1.92037,1.92037c0,0 -1.13159,1.13159 -2.26321,0z" fill="#000000"/><path d="M85.66479,164.99653c0.46045,1.53265 -1.07222,1.9931 -1.07222,1.9931l-0.14044,0.04219c-9.33254,2.80372 -18.69843,6.03192 -28.40956,5.94415l0.01747,0.27984l-3.17968,0.19873c-0.03783,0.00269 -0.07607,0.00404 -0.11458,0.00404c-0.88381,0 -1.60033,-0.71649 -1.60033,-1.60033c0,-0.32783 0.0986,-0.63265 0.2677,-0.88641l1.7004,-2.63913c1.90445,-2.93681 4.36964,-5.64678 7.03214,-8.09515c-0.07575,-0.18608 -0.1175,-0.38966 -0.1175,-0.603c0,-0.38283 0.13442,-0.73428 0.35864,-1.00967l1.99146,-2.48933l0.04333,0.03466l0.06347,-0.15517c1.98583,-1.6688 3.93759,-3.29532 5.77242,-5.1324c0,0 1.13159,-1.13159 2.26321,0c0.38639,0.38639 0.50893,0.7728 0.50271,1.11415l1.44138,-0.74836c0.22728,-0.12395 0.48796,-0.19438 0.76506,-0.19438c0.88381,0 1.60033,0.71649 1.60033,1.60033c0,0.56428 -0.29205,1.06035 -0.73328,1.34531l-2.64244,1.76164c-0.20223,0.19806 -4.50689,2.95266 -4.92835,3.28094c-3.95886,3.08356 -8.02127,6.80278 -10.72031,11.02127l0.03456,-0.00216l0.01571,0.25161c1.99854,-0.57544 3.94686,-0.2919 6.23479,-0.63622c7.2229,-1.08699 14.44376,-3.61435 21.42032,-5.71029l0.14044,-0.04219c0,0 1.53265,-0.46045 1.9931,1.07222z" fill="#a2a2a2"/><path d="M220.15935,199.38378c0,1.60033 -1.60033,1.60033 -1.60033,1.60033h-1.28024c-8.05079,0 -16.0507,0.27569 -24.09416,0.61773c-8.21994,0.34957 -16.82247,2.03837 -24.72924,4.43378c-4.97281,1.50655 -9.84077,3.81577 -14.68817,5.69308c-5.94198,2.3012 -11.83228,5.12449 -18.00277,6.67783l0.11581,0.29605l-2.94667,1.15272c-0.18989,0.07941 -0.39834,0.12328 -0.61703,0.12328c-0.88381,0 -1.60033,-0.71649 -1.60033,-1.60033c0,-0.39413 0.14248,-0.75499 0.37876,-1.03389l2.04518,-2.44847l0.03758,0.03138l0.07547,-0.1532c1.68636,-1.33515 3.47629,-2.54775 5.06656,-3.99604c3.14958,-2.86841 5.65552,-6.45487 8.83814,-9.28758c2.3868,-2.12441 5.22386,-3.93131 7.77971,-5.85137c1.98907,-1.49427 4.02234,-3.58927 6.28482,-4.86848c-11.41871,0.17176 -22.71513,1.03517 -34.1106,2.04066c-5.96974,0.52674 -11.94936,1.3797 -17.92013,1.27793l0.01874,0.24347l-3.17371,0.24412c-0.0462,0.00401 -0.09299,0.00607 -0.14022,0.00607c-0.88381,0 -1.60033,-0.71649 -1.60033,-1.60033c0,-0.33627 0.10372,-0.64832 0.28091,-0.90591l1.2681,-1.90216c0,0 0.8877,-1.33156 2.21925,-0.44386c0.65677,0.43786 0.77363,0.9837 0.72341,1.42447l0.17711,-0.01363l0.01884,0.24479c1.61077,-0.52149 3.21652,-0.48036 5.10266,-0.63872c3.18629,-0.26755 6.37068,-0.56214 9.55581,-0.8432c13.52043,-1.19298 26.926,-2.30412 40.50243,-2.36287l0.00346,0.00109v-0.00109h1.92037c0.88381,0 1.60033,0.71649 1.60033,1.60033c0,0.52271 -0.25058,0.98686 -0.63821,1.27893l-2.52332,1.941c-4.42487,4.48282 -10.52076,7.33566 -15.22149,11.51959c-3.17194,2.82323 -5.67027,6.40283 -8.81099,9.26316c-0.04172,0.03798 -0.3277,0.26569 -0.74375,0.59406c0.31076,-0.10923 0.62591,-0.22397 0.94451,-0.34861c2.9824,-1.1667 5.96471,-2.33334 8.95107,-3.4899c5.90744,-2.28784 11.83516,-5.08914 17.89571,-6.92598c8.16189,-2.47373 17.04196,-4.20908 25.52619,-4.5699c8.08866,-0.344 16.13407,-0.62064 24.23013,-0.62064h1.28024c0,0 1.60033,0 1.60033,1.60033z" fill="#a2a2a2"/><path d="M152.29956,144.04377c1.56922,0.31383 1.2554,1.8831 1.2554,1.8831l-0.01244,0.06217c-0.22557,1.11305 -1.83027,5.75842 0.02327,6.61999c1.15073,0.53492 4.4257,0.36678 5.46133,0.36548c2.13375,-0.00267 4.26752,0 6.40127,0c7.46817,0 14.9363,0 22.40448,0c0,0 1.60033,0 1.60033,1.60033c0,1.60033 -1.60033,1.60033 -1.60033,1.60033c-8.53503,0 -17.07008,0 -25.60513,0c-2.9651,0 -7.76046,0.77906 -10.41756,-0.88993c-3.46743,-2.17795 -2.01676,-6.83366 -1.40619,-9.92389l0.01244,-0.06217c0,0 0.31383,-1.56922 1.8831,-1.2554z" fill="#a2a2a2"/><path d="M138.8631,140.48745c0.00454,-1.60033 1.60486,-1.59579 1.60486,-1.59579l0.68507,0.00193c4.40003,0.01247 8.66584,-0.06013 13.01614,0.65996c0,0 1.57853,0.26309 1.31545,1.84162c-0.26309,1.57853 -1.84162,1.31545 -1.84162,1.31545c-4.17253,-0.70055 -8.27636,-0.60443 -12.49906,-0.61641l-0.68507,-0.00193c0,0 -1.60033,-0.00454 -1.59579,-1.60486z" fill="#a2a2a2"/><path d="M87.01271,223.06851c0,-0.88381 0.71649,-1.60033 1.60033,-1.60033c0.88381,0 1.60033,0.71649 1.60033,1.60033c0,0.88381 -0.71649,1.60033 -1.60033,1.60033c-0.88381,0 -1.60033,-0.71649 -1.60033,-1.60033z" fill="#a2a2a2"/></g></g></svg>