<svg version="1.1" xmlns="http://www.w3.org/2000/svg" xmlns:xlink="http://www.w3.org/1999/xlink" width="470" height="261.80531" viewBox="0,0,470,261.80531"><g transform="translate(-3.5,-38.19469)"><g data-paper-data="{&quot;isPaintingLayer&quot;:true}" stroke-miterlimit="10" stroke-dasharray="" stroke-dashoffset="0" style="mix-blend-mode: normal"><path d="M234.60539,144.40287c-35.0367,4.32499 -64.04124,2.04655 -64.78347,-5.089c-0.74224,-7.13555 27.05893,-16.42618 62.09563,-20.75117c35.0367,-4.32499 64.04124,-2.04655 64.78347,5.089c0.74224,7.13555 -27.05893,16.42618 -62.09563,20.75117z" fill="#86a840" fill-rule="nonzero" stroke="#000000" stroke-width="0.5" stroke-linecap="butt" stroke-linejoin="miter"/><path d="M223.42683,144.07598c48.35003,-2.81633 88.86022,17.47195 90.48205,45.31514c1.62183,27.84318 -36.25886,52.69764 -84.60889,55.51396c-48.35003,2.81633 -88.86022,-17.47195 -90.48205,-45.31514c-1.62183,-27.84318 36.25886,-52.69764 84.60889,-55.51396z" fill="#86a840" fill-rule="nonzero" stroke="#000000" stroke-width="0.5" stroke-linecap="butt" stroke-linejoin="miter"/><path d="M115.31342,144.08339c29.01002,-1.68979 54.02792,22.70286 55.87904,54.48252c1.85112,31.77966 -20.16551,58.91202 -49.17553,60.60182c-29.01002,1.68979 -54.02792,-22.70287 -55.87904,-54.48253c-1.85112,-31.77966 20.16551,-58.91201 49.17552,-60.60181z" fill="#86a840" fill-rule="nonzero" stroke="#000000" stroke-width="0.5" stroke-linecap="butt" stroke-linejoin="miter"/><path d="M235.79824,272.48175c-35.38963,-2.14867 -63.98182,-9.68501 -63.86247,-16.83287c0.11936,-7.14786 28.90507,-11.20052 64.2947,-9.05185c35.38963,2.14867 63.98182,9.68501 63.86247,16.83287c-0.11937,7.14786 -28.90507,11.20052 -64.2947,9.05185z" fill="#86a840" fill-rule="nonzero" stroke="#000000" stroke-width="0.5" stroke-linecap="butt" stroke-linejoin="miter"/><path d="M352.00493,240.72943c-35.28166,-0.75297 -63.84706,-7.1807 -63.80262,-14.35675c0.04445,-7.17607 28.68191,-12.38301 63.96358,-11.63004c35.28166,0.75297 63.84706,7.1807 63.80262,14.35675c-0.04445,7.17607 -28.68191,12.38301 -63.96358,11.63004z" fill="#86a840" fill-rule="nonzero" stroke="#000000" stroke-width="0.5" stroke-linecap="butt" stroke-linejoin="miter"/><path d="M350.00712,170.79251c-35.10202,3.63453 -64.24456,0.80412 -65.09165,-6.32189c-0.84709,-7.12602 26.922,-15.84918 62.02404,-19.48371c35.10202,-3.63453 64.24456,-0.80412 65.09165,6.32189c0.84709,7.12602 -26.922,15.84918 -62.02404,19.48371z" fill="#86a840" fill-rule="nonzero" stroke="#000000" stroke-width="0.5" stroke-linecap="butt" stroke-linejoin="miter"/><path d="M402.92136,141.18266c3.36539,-1.15303 8.21172,5.85882 10.82462,15.66137c2.61289,9.80256 2.00288,18.68381 -1.3625,19.83684c-3.36539,1.15303 -8.21172,-5.85882 -10.82462,-15.66137c-2.61289,-9.80256 -2.00288,-18.68381 1.3625,-19.83684z" data-paper-data="{&quot;index&quot;:null}" fill="#86a840" fill-rule="nonzero" stroke="#000000" stroke-width="0.5" stroke-linecap="butt" stroke-linejoin="miter"/><path d="M408.1899,237.26819c-3.04262,-0.07099 -5.13619,-9.46889 -4.67615,-20.9908c0.46006,-11.52191 3.29953,-20.8047 6.34216,-20.73371c3.04262,0.07099 5.13619,9.46889 4.67615,20.9908c-0.46006,11.52191 -3.29953,20.8047 -6.34216,20.73371z" data-paper-data="{&quot;index&quot;:null}" fill="#86a840" fill-rule="nonzero" stroke="#000000" stroke-width="0.5" stroke-linecap="butt" stroke-linejoin="miter"/><g><path d="M251.34876,151.10509c2.82522,14.10917 4.70187,28.54152 5.60122,43.07628c1.0362,17.78918 0.27453,41.53449 -1.4127,49.38993c-14.14495,1.90608 -28.40387,2.40488 -42.68385,1.49315c-18.66474,-1.00643 -36.39576,6.03884 -42.02955,7.81645c-2.1225,-4.6926 -3.68906,-9.87256 -4.62665,-15.29852c4.69308,-3.19907 17.67369,-13.85966 16.21211,-38.95175c-1.46158,-25.0921 -15.60618,-34.41424 -20.62491,-36.80605c0.24871,-3.68675 0.73796,-7.31105 1.46083,-10.82165c5.16289,4.53642 10.97648,6.97809 16.83748,7.07165c12.5937,-0.73357 27.327,-4.62485 38.56446,-5.62835c8.49897,-0.76347 25.04266,-1.19029 32.70153,-1.34115z" fill="#ffee26" fill-rule="nonzero" stroke="none" stroke-width="1" stroke-linecap="butt" stroke-linejoin="miter"/><path d="M207.25486,148.94942c14.04287,-2.60835 28.22933,-3.82922 42.46856,-3.65476c0.60992,1.88339 1.12354,3.82776 1.53628,5.81562c-7.65887,0.15085 -24.1135,0.57249 -32.61246,1.33596c-11.23748,1.00352 -25.97077,4.89479 -38.56446,5.62835c-5.86101,-0.09356 -11.6746,-2.53524 -16.83748,-7.07165c0.34636,-1.74597 0.79834,-3.43418 1.35052,-5.04432c5.80208,1.11147 24.23273,6.07723 42.65905,2.99081z" fill="#fff8bb" fill-rule="nonzero" stroke="none" stroke-width="1" stroke-linecap="butt" stroke-linejoin="miter"/><path d="M166.20882,237.47435c-0.45932,-2.36212 -1.27194,-7.41466 -1.62146,-10.34686c0,0 12.92286,-5.20842 11.58126,-28.24071c-1.3416,-23.0323 -14.66957,-26.92636 -14.66957,-26.92636c-0.00952,-2.92516 0.11503,-7.84439 0.29697,-10.24387c5.02497,2.4988 19.18113,11.71291 20.64272,36.80501c1.46003,25.06534 -11.44156,35.85553 -16.22992,38.9528z" fill="#ff7bd0" fill-rule="nonzero" stroke="none" stroke-width="1" stroke-linecap="butt" stroke-linejoin="miter"/><path d="M207.34392,148.94423c14.04287,-2.60835 28.22933,-3.82922 42.46856,-3.65476c2.5863,7.57967 6.10129,31.10273 7.13749,48.8919c1.0362,17.78918 0.27453,41.53449 -1.4127,49.38993c-14.15041,1.85283 -28.41246,2.29801 -42.6932,1.33264c-18.66474,-1.00643 -36.39576,6.03884 -42.02955,7.81645c-2.1225,-4.6926 -3.68906,-9.87257 -4.62665,-15.29852c-0.45776,-2.33538 -1.27194,-7.41466 -1.61991,-10.3201c0,0 12.92286,-5.20842 11.58126,-28.24071c-1.3416,-23.0323 -14.66957,-26.92636 -14.66957,-26.92636c-0.00952,-2.92516 0.11658,-7.81764 0.29852,-10.21712c0.30355,-5.50564 1.25739,-10.84052 2.81758,-15.75897c5.80208,1.11147 24.23273,6.07723 42.74812,2.98562z" fill="none" fill-rule="evenodd" stroke="#db20a5" stroke-width="1.2" stroke-linecap="round" stroke-linejoin="round"/><path d="M183.0835,244.57069c6.68942,-1.75855 32.66186,0.43269 32.66186,0.43269c0.45145,11.02431 0.24972,22.03946 -0.60283,32.91582c0,0 -16.64226,-4.64047 -25.40345,-7.45847c-6.83186,-2.52777 -14.66944,-6.36585 -18.90361,-17.68787c3.54397,-4.1801 7.74174,-6.99124 12.24803,-8.20218z" fill="#ffffff" fill-rule="nonzero" stroke="#db20a5" stroke-width="1.2" stroke-linecap="round" stroke-linejoin="round"/><path d="M164.61517,145.98431c2.89254,-11.71029 10.23153,-16.4324 16.73149,-19.60252c8.28949,-4.05276 24.34588,-9.47053 24.34588,-9.47053c2.11489,10.33438 3.5742,20.90016 4.35807,31.55322c0,0 -25.54082,5.21867 -32.38918,4.24868c-4.59326,-0.69135 -9.06429,-2.99736 -13.04625,-6.72883z" fill="#ffffff" fill-rule="nonzero" stroke="#db20a5" stroke-width="1.2" stroke-linecap="round" stroke-linejoin="round"/></g><g stroke-linecap="butt" stroke-linejoin="miter"><path d="M218.01818,217.89716c2.15207,-0.70461 3.85933,-3.2381 4.50858,-6.69039c1.26954,-8.12742 2.20653,-13.70937 5.01125,-17.14915c1.89816,-2.23648 5.23642,-3.48139 5.44259,0.05814c0.15535,2.6671 -1.44884,2.98565 -3.06575,6.18115c-1.61691,3.19552 -1.87143,8.11246 -2.81514,14.09497c-1.04372,7.32142 -4.8137,12.45813 -9.39643,12.8026l-0.02178,-0.3739c0.07906,-2.56005 -1.11498,-4.87001 -2.66703,-5.15943c-1.55206,-0.28943 -2.87437,1.5512 -2.95343,4.11123c-0.72573,-0.51597 -1.41876,-1.16356 -2.06576,-1.93055c0.93951,-1.6971 0.90763,-4.37856 -0.07389,-6.2092c-0.98142,-1.8308 -2.59469,-2.21821 -3.73578,-0.89704c-0.38399,-1.07027 -0.72471,-2.17858 -1.01962,-3.31706c1.39823,-0.51297 2.26034,-2.74278 1.98413,-5.13207c-0.2763,-2.3891 -1.59878,-4.14236 -3.044,-4.03517c-0.07488,0.00436 -0.22463,0.01308 -0.22463,0.01308c-0.0542,-1.32441 -0.0408,-2.6471 0.04015,-3.95404c0.87946,0.44498 1.80838,0.16528 2.49029,-0.75015c0.68202,-0.91544 1.03187,-2.35209 0.93792,-3.85143c-0.10277,-1.65256 -0.7208,-3.14672 -1.6264,-3.932c0.37707,-0.92118 0.83545,-1.73956 1.36097,-2.43028c-2.48809,-1.18098 -5.06925,-1.44913 -7.55845,-0.78525c-1.89274,0.21763 -3.60291,1.71085 -4.73712,4.13576c-1.13411,2.4249 -1.59464,5.5729 -1.2755,8.71984c0.38041,6.53066 2.22137,6.92364 4.57899,9.73758c1.34319,1.52044 2.48446,3.49535 3.34194,5.78291l-3.99449,-0.99285c0.53192,0.6193 3.49922,4.09802 4.71768,5.92787c0.00067,0.85917 -0.14958,1.68477 -0.43255,2.37621c-1.301,3.20212 -3.99062,3.45884 -6.43908,0.37507c-3.35347,-4.06367 -5.98996,-9.57036 -7.59539,-15.86459c-1.73347,-6.802 -1.76408,-17.12965 0.95535,-23.06554c2.71943,-5.93589 6.93458,-10.18314 14.13937,-10.05256c7.20478,0.13057 12.52194,1.64664 16.65937,2.256l0.65336,11.21678c0,0 -0.87289,-0.02419 -2.20371,-0.17176c-2.12739,-0.1512 -2.00563,4.51872 0.29038,4.98524c1.8289,0.44371 2.20326,0.42191 2.20326,0.42191l0.55318,9.49687c0,0 -0.64972,-0.06219 -2.28004,-0.19232c-0.8306,-0.01382 -1.46914,1.09285 -1.4262,2.47161c0.04294,1.37875 0.75119,2.50767 1.5818,2.52149c1.55065,0.30985 2.43079,0.45867 2.43079,0.45867l0.29038,4.98524" fill="#14be48" fill-rule="nonzero" stroke="#14601e" stroke-width="0.795"/><path d="M216.62316,223.62801c0.56792,0.8488 0.92273,2.01664 0.98637,3.24679l0.02178,0.3739c-0.20964,0.01222 -0.43426,0.0253 -0.65889,0.03838c-1.64802,0.11635 -3.31344,-0.40292 -4.86647,-1.51731c0.24833,-1.96547 1.25234,-3.35285 2.47528,-3.42058c0.73951,-0.0299 1.47401,0.43019 2.04192,1.27882z" fill="#14601e" fill-rule="nonzero" stroke="#14601e" stroke-width="0.795"/><path d="M207.5434,216.05624c1.12103,-0.05112 2.19388,1.0142 2.72742,2.70853c0.53363,1.69432 0.42517,3.69134 -0.27553,5.07707c-1.56704,-1.8639 -2.88654,-4.25543 -3.86377,-7.00305c0.42218,-0.49079 0.92751,-0.76299 1.45681,-0.78517z" fill="#14601e" fill-rule="nonzero" stroke="#14601e" stroke-width="0.795"/><path d="M205.18388,213.46752c-0.6576,-2.62401 -1.07623,-5.37415 -1.24138,-8.15623l-0.05518,-0.94719c0.07488,-0.00436 0.22463,-0.01308 0.22463,-0.01308c1.53829,-0.0896 2.90618,1.91344 3.05533,4.47403c0.11172,2.19811 -0.7147,4.13256 -1.98339,4.64248z" fill="#14601e" fill-rule="nonzero" stroke="#14601e" stroke-width="0.795"/><path d="M207.33489,195.70963c0.0919,1.49329 -0.25633,2.9235 -0.93434,3.83738c-0.67801,0.91387 -1.60183,1.19828 -2.47891,0.76333c0.15927,-3.04892 0.77572,-5.93806 1.79411,-8.40807c0.90559,0.78527 1.52363,2.27944 1.6264,3.932z" fill="#14601e" fill-rule="nonzero" stroke="#14601e" stroke-width="0.795"/><path d="M197.9262,224.29474c-0.82702,0.04817 -1.56246,-1.02877 -1.64265,-2.40539c-0.08019,-1.37663 0.52524,-2.53166 1.35227,-2.57983c0.82702,-0.04817 1.56246,1.02877 1.64265,2.40539c0.08019,1.37663 -0.52524,2.53166 -1.35227,2.57983z" fill="#14601e" fill-rule="nonzero" stroke="#14601e" stroke-width="0.6"/><path d="M201.63502,179.88469c0.52544,-0.08512 1.05554,-0.116 1.58731,-0.09246" fill="none" fill-rule="evenodd" stroke="#d3ff7d" stroke-width="1.59"/><path d="M190.44375,189.99064c1.42198,-4.32014 3.81563,-7.48121 6.69706,-8.84373c0.64291,-0.31256 1.25879,-0.57354 1.86402,-0.75886" fill="none" fill-rule="evenodd" stroke="#d3ff7d" stroke-width="1.59"/></g><path d="M315.65694,128.66505c2.84594,9.04427 4.94893,18.60426 6.2951,28.4444c1.16473,9.37857 1.86725,18.78392 2.10743,28.21618c-11.78243,2.10321 -39.70614,8.45301 -39.70614,8.45301c0,0 28.42049,-0.47479 40.36743,0.24636c0.9251,10.5732 1.23384,21.18229 1.08038,31.81831c-0.20841,9.69448 -1.18712,19.43397 -2.95013,28.98293c0,0 -17.51811,-3.4665 -31.6464,-7.13061c-11.45398,-2.87514 -24.55852,-7.54346 -26.14052,-8.15969c0.26704,-0.72408 0.36635,-1.67445 0.31151,-2.61602c-0.12339,-2.11823 -1.19872,-4.65331 -1.19548,-7.25121c-0.12339,-2.11823 1.26671,-4.79691 1.14332,-6.91514c-0.12339,-2.11823 -1.19872,-4.65331 -1.33581,-7.00696c-0.13709,-2.3535 1.11267,-4.78795 0.97557,-7.14144c-0.1371,-2.35365 -1.35286,-4.64433 -1.48995,-6.99798c-0.13709,-2.3535 0.95852,-4.77897 0.82143,-7.13261c-0.13709,-2.3535 -1.5069,-4.63535 -1.64399,-6.98886c-0.1371,-2.35365 0.80449,-4.76999 0.66738,-7.12364c-0.13709,-2.3535 -1.64733,-4.39094 -1.78442,-6.74461c-0.1371,-2.35365 0.66405,-4.52575 0.51325,-7.11466c-0.1508,-2.58893 -1.66094,-4.62639 -1.93846,-6.73564c-0.30484,-2.57996 0.62293,-5.23171 0.35922,-7.10554c-0.05485,-0.94155 -0.26382,-1.87398 -0.61313,-2.56215c1.49976,-0.79572 13.97367,-6.95398 25.01637,-11.1395c13.60732,-5.27968 30.75863,-10.76562 30.78604,-10.29492z" fill="#f05822" fill-rule="nonzero" stroke="none" stroke-width="1" stroke-linecap="butt" stroke-linejoin="miter"/><g stroke="#ffffff" stroke-linecap="round" stroke-linejoin="round"><path d="M272.51673,205.56749c0.21602,6.36366 -3.38282,5.62855 -4.79041,0.04281c-0.98984,-3.72088 -1.22291,-7.72192 -0.65805,-11.29726c2.9106,2.19211 5.00643,6.32086 5.44847,11.25446z" fill="none" fill-rule="evenodd" stroke-width="1.24"/><path d="M267.06826,194.31302c0,0 6.82094,0.31121 13.61503,10.77878" fill="none" fill-rule="evenodd" stroke-width="1.24"/><path d="M280.82038,207.44532c-0.851,0.04957 -1.60225,-0.96398 -1.67796,-2.26384c-0.07571,-1.29984 0.55277,-2.39378 1.40377,-2.44334c0.851,-0.04957 1.60225,0.96398 1.67796,2.26384c0.07571,1.29984 -0.55278,2.39377 -1.40377,2.44334z" fill="#ffffff" fill-rule="nonzero" stroke-width="0.62"/><path d="M267.06826,194.31302c-0.97614,-3.48546 -1.20919,-7.48648 -0.65804,-11.29712c0.74954,-5.71155 4.2387,-6.85938 4.76299,-0.51367c0.13377,4.95156 -1.46854,9.29573 -4.10495,11.8108z" fill="none" fill-rule="evenodd" stroke-width="1.24"/><path d="M279.33976,182.02655c-5.53282,11.18559 -12.2715,12.28648 -12.2715,12.28648" fill="none" fill-rule="evenodd" stroke-width="1.24"/><path d="M279.47686,184.38017c-0.851,0.04957 -1.60225,-0.96399 -1.67796,-2.26384c-0.07571,-1.29984 0.55277,-2.39378 1.40377,-2.44334c0.851,-0.04957 1.60225,0.96398 1.67796,2.26384c0.07571,1.29984 -0.55278,2.39377 -1.40377,2.44334z" fill="#ffffff" fill-rule="nonzero" stroke-width="0.62"/></g><g fill="#ffff4f" fill-rule="nonzero" stroke="none" stroke-width="1" stroke-linecap="butt" stroke-linejoin="miter"><path d="M314.29021,245.87864l-2.36946,1.79113c0.08549,-1.18579 0.17109,-2.37144 0.57846,-3.33993c0.40748,-0.96834 0.81486,-1.93665 1.39009,-2.67868z"/><path d="M315.89302,252.16157l-0.79128,-5.62168l3.4069,-2.56002l0.6372,5.63065z"/><path d="M318.94343,243.48218l2.80425,-2.28877l0.16785,0.22645l0.48964,0.44378l0.58237,4.68922l-3.25276,2.55112z"/><path d="M323.59018,246.28152l-0.35967,-3.52136c0.65749,0.67023 1.32867,1.57572 1.84574,2.4902z"/><path d="M315.29034,252.43286l-1.92085,1.52879c-0.85265,-1.36723 -1.27051,-3.23223 -1.38018,-5.11504l2.50978,-2.03554z"/><path d="M314.47824,241.14455c1.02374,-1.00423 2.22903,-1.54674 3.47544,-1.38326l0.33226,3.05081l-3.25276,2.55095z"/><path d="M318.8886,242.54077l-0.30484,-2.57996c0.7841,0.19039 1.58202,0.61637 2.37984,1.0422z"/><path d="M299.04487,228.34642l-1.52716,0.32512l0.42442,-3.33092l0.32516,-2.38052l3.68437,-0.45077l-0.7633,5.47608l0.01371,0.23536z"/><path d="M304.3896,221.89493c0.43156,2.10027 0.23306,4.00119 -0.28733,5.68462l-2.29758,0.3699l0.76336,-5.47597z"/><path d="M300.83247,232.49315c-1.19148,0.77792 -2.59204,0.62328 -3.71175,-0.02002l0.2977,-2.85112l3.68442,-0.45084z"/><path d="M302.58557,230.7379c-0.42109,0.73304 -0.8697,0.99525 -1.30449,1.49289l0.43813,-3.09553l2.14344,-0.36092c-0.26706,0.72393 -0.68814,1.45699 -1.27708,1.96357z"/><path d="M292.62031,213.60652c0.57523,-0.74188 1.15046,-1.48392 1.90724,-1.76421l-0.53743,4.04606l-2.7598,0.39682c0.40738,-0.96833 0.81477,-1.93664 1.38998,-2.67868z"/><path d="M298.3457,216.34312l-0.74958,5.71145l-3.68437,0.45077l0.5955,-5.70247z"/><path d="M302.57453,217.27753l-0.50991,4.51677l-3.68433,0.45068l0.74955,-5.71139l3.06807,-0.41478l0.16775,0.2263z"/><path d="M303.09169,218.19216c0.51705,0.91448 0.89378,2.07336 1.11646,3.24105l-1.54088,0.08975z"/><path d="M305.13982,226.81059c-0.01371,-0.23527 0.12662,-0.47968 0.1129,-0.7151c0.93824,0.18158 1.87649,0.36314 2.80103,0.3093c-0.28076,0.48866 -0.71566,0.98628 -1.01012,1.2395c-0.29447,0.25338 -0.43479,0.49763 -0.72927,0.751c-0.29447,0.25338 -0.58893,0.50661 -0.8834,0.75998c0.01371,0.23527 -0.14033,0.24424 -0.12662,0.47968c0.01371,0.23527 0.02742,0.47069 0.18147,0.46172c0.96567,0.65226 2.07165,1.06015 3.17774,1.46802c-0.29447,0.25322 -0.74308,0.51559 -1.19159,0.77778c-0.30817,0.01795 -0.44861,0.26235 -0.75668,0.2803c-0.91082,0.28928 -1.82165,0.57841 -2.61955,0.15259c-0.16775,-0.22646 -0.15404,0.00897 -0.30817,0.01795c-0.15404,0.00897 -0.14032,0.2444 -0.14032,0.2444l0.01371,0.23527c0.23629,1.40313 -0.00334,2.59792 -0.24287,3.79268c0.02742,0.47069 -0.0993,0.95038 -0.23963,1.19478c-0.26706,0.72393 -0.5478,1.21272 -0.67452,1.69241c-0.02742,-0.47069 -0.06854,-1.17682 -0.09597,-1.64754v0c-0.06854,-1.17682 -0.29114,-2.34468 -0.51383,-3.51253c-0.15404,0.00897 -0.16775,-0.2263 -0.32189,-0.21731c-0.15404,0.00897 -0.30817,0.01795 -0.29447,0.25322c-0.12662,0.47982 -0.42109,0.73304 -0.5478,1.21272c-0.29447,0.25338 -0.42109,0.73304 -0.56152,0.97731c-0.28065,0.4888 -0.5614,0.97744 -0.84217,1.4661c0.22592,-1.4302 0.12996,-3.07758 0.0477,-4.48985c0.46222,-0.02692 1.06487,-0.2981 1.66751,-0.56944c0.74298,-0.51558 1.47234,-1.26657 2.04758,-2.00846c0.57513,-0.74202 1.13664,-1.71933 1.53041,-2.92308c0,0 0.39367,-1.20375 0.52038,-1.68343z"/><path d="M306.21516,229.34566c0.29447,-0.25322 0.58885,-0.5066 0.88331,-0.75982c0.47603,0.20834 0.79791,0.42582 1.26013,0.3989c-0.28076,0.48866 -0.72928,0.75085 -1.02374,1.00423c-0.46231,0.02693 -0.7841,-0.19056 -1.11971,-0.6433z"/><path d="M307.35894,233.05758c0.47603,0.20849 0.81163,0.66124 1.28755,0.8696c-0.86969,0.99541 -2.0886,1.30248 -3.19468,0.8946c-0.16775,-0.22646 -0.30817,0.01795 -0.30817,0.01795c-0.15404,0.00897 -0.14032,0.2444 -0.14032,0.2444l0.01371,0.23527c0.10968,1.88296 -0.10255,3.54829 -0.80449,4.76999c-0.04112,-0.70597 -0.23629,-1.40313 -0.43156,-2.10027c0.23963,-1.19478 0.6197,-2.63382 0.52372,-4.28133c1.10599,0.40787 2.17096,0.10977 3.05426,-0.6502z"/><path d="M293.87722,216.60348l-0.5955,5.70242l-2.14354,0.36093c-0.40414,-1.62943 -0.37338,-3.75664 -0.00713,-5.43109z"/><path d="M301.59639,237.64407c-0.12672,0.47968 -0.40748,0.96834 -0.68824,1.45699c-0.02742,-0.47069 -0.06854,-1.17668 -0.10967,-1.8828c0.12672,-0.47968 0.42118,-0.73306 0.5478,-1.21272c0.19527,0.69715 0.22268,1.16785 0.25011,1.63855z"/><path d="M292.61765,226.83147c-0.51705,-0.91448 -0.89378,-2.07336 -1.2705,-3.23208l1.69492,-0.09872z"/><path d="M295.05233,228.81514l-1.21899,0.30716l-0.34931,-0.68813l-0.32188,-0.21741l0.65033,-4.76103l3.68437,-0.45077l-0.1848,2.13617l-0.56479,3.57526z"/><path d="M295.12086,229.99189l1.54088,-0.08975l-0.32522,2.38058c-0.65739,-0.67023 -1.31488,-1.34045 -1.98607,-2.24596z"/><path d="M294.76061,215.8435l0.52362,-4.28133c1.219,-0.30723 2.46541,-0.14361 3.59883,0.73497l-0.43813,3.09553z"/><path d="M299.37271,212.7409c0.65749,0.67023 1.31498,1.34045 1.98616,2.24596l-2.29758,0.3699z"/><path d="M274.31589,233.80152l-1.84247,-5.08815l3.50287,-0.9125l0.15409,-0.00898l1.10274,3.00581l0.89382,2.07335l-2.28388,0.60535z"/><path d="M271.20288,225.48113c1.01003,-1.2395 2.21533,-1.78216 3.46174,-1.61854l1.10276,3.00578l-3.657,0.92153z"/><path d="M279.17095,226.90635c0.85275,1.36723 1.42465,3.22325 1.53432,5.10606l-1.97568,0.58738l-1.99654,-5.07913z"/><path d="M278.49976,226.00085l-1.97568,0.58738l-1.08904,-2.7705c0.47603,0.20849 1.10609,0.40786 1.59573,0.85165c0.48974,0.44377 0.97937,0.88755 1.46901,1.33148z"/><path d="M272.2618,241.00589l-1.99656,-5.07917l3.79733,-1.16583l1.84247,5.08815z"/><path d="M269.9022,235.00332l-1.63352,-4.15568c0.15404,-0.00897 0.14032,-0.2444 0.14032,-0.2444l0.26704,-0.72408l3.04065,-0.88548l1.99654,5.07913z"/><path d="M271.33998,227.8348l-2.28387,0.60533c0.40738,-0.96833 0.96891,-1.94562 1.54412,-2.68766z"/><path d="M273.82568,222.73064c-0.15414,0.00898 -0.30817,0.01795 -0.46231,0.02693c-0.23629,-1.40313 -0.61302,-2.562 -1.00345,-3.95616c0.3356,0.45275 0.81151,0.66111 1.14712,1.114c0.18156,0.46172 0.50343,0.67904 0.67118,0.9055c0.3356,0.45275 0.50333,0.67905 0.83894,1.13195c0.01371,0.23527 0.16784,0.22629 0.32189,0.21731c-0.01371,-0.23527 0.14043,-0.24424 0.12672,-0.47968c0.05807,-1.6565 -0.19193,-3.29505 -0.44204,-4.9336c0.3356,0.45275 0.6712,0.90565 1.00679,1.3584c0.16784,0.22629 0.3493,0.68803 0.51715,0.91448c0.51705,0.91448 1.06161,2.29965 1.13017,3.47648c0.01371,0.23542 0.02742,0.47069 0.18147,0.46172l0.15404,-0.00897l0.15414,-0.00898c0.74298,-0.51558 1.65381,-0.8047 2.4243,-0.84958c0.30817,-0.01795 0.46222,-0.02692 0.77039,-0.04488c0.46222,-0.02692 0.92453,-0.05385 1.24642,0.16347c-0.29447,0.25338 -0.58893,0.50661 -0.8834,0.75998v0c-0.74298,0.51558 -1.3182,1.2576 -1.89344,1.99947c-0.15414,0.00898 -0.14042,0.24441 -0.12672,0.47968c0.15414,-0.00898 0.16785,0.22645 0.32189,0.21748c0.30817,-0.01795 0.61636,-0.0359 0.93824,0.18158c0.16784,0.22629 0.47603,0.20834 0.79781,0.42583c0.47603,0.20834 0.79791,0.42582 1.27383,0.63417c-0.91082,0.28928 -1.80784,0.81382 -2.69124,1.57381c-0.20899,-0.93258 -0.55828,-1.62061 -1.06163,-2.29981c-0.67118,-0.9055 -1.32867,-1.57572 -2.1402,-2.23682c-0.64378,-0.43495 -1.59573,-0.8518 -2.37993,-1.0422c-0.01371,-0.23542 -0.7841,-0.19056 -0.93814,-0.18159z"/><path d="M273.94192,219.41765c-0.19526,-0.697 -0.22268,-1.16769 -0.41785,-1.86485c0.48964,0.44378 0.81153,0.66124 1.14712,1.114c0.02742,0.47069 0.06854,1.17682 0.09597,1.64754c-0.18156,-0.46172 -0.50345,-0.6792 -0.82524,-0.89668z"/><path d="M276.46543,217.61768c0.1129,-0.7151 0.07178,-1.42123 0.03066,-2.1272c0.97937,0.88755 1.69168,2.49917 1.94169,4.13773c0,0 0.01371,0.23527 0.16784,0.22629l0.15404,-0.00897l0.15414,-0.00898c1.03744,-0.76895 2.11612,-0.83178 3.22211,-0.42375c-0.28076,0.48866 -0.71566,0.98628 -0.99632,1.47493c-0.93824,-0.18158 -2.00321,0.11668 -2.90032,0.64124c-0.40414,-1.62958 -0.94862,-3.01476 -1.77384,-3.91128z"/><path d="M281.92037,223.6762c0.32189,0.21731 0.79791,0.42582 1.11979,0.64314c-0.44861,0.26235 -0.74308,0.51559 -1.19159,0.77793c-0.32189,-0.21748 -0.64378,-0.43479 -0.95195,-0.41685c0.29447,-0.25338 0.58893,-0.50661 1.02374,-1.00423z"/><path d="M277.03845,240.72766l2.28387,-0.60533c-0.40738,0.96833 -0.81477,1.93664 -1.37627,2.9141z"/><path d="M278.33586,233.80353l1.06162,2.29973l0.55822,1.62059l-0.11296,0.71505l-0.12667,0.47969l-3.04061,0.88559l-1.99655,-5.07918l1.37307,-0.31614z"/><path d="M280.61977,233.19821c-0.0856,1.1858 -0.17109,2.37144 -0.41072,3.56624l-0.37673,-1.15888l-0.73975,-2.08233z"/><path d="M269.45369,235.2655l-1.68121,0.33417c-0.06854,-1.17682 0.17099,-2.3716 0.41061,-3.56639z"/><path d="M289.95746,170.54487l-0.32516,2.38052l-3.86587,-0.01098l0.93109,-5.24969l-0.01371,-0.23536l2.3113,-0.13463l1.55458,0.14561z"/><path d="M284.98226,172.72391l0.01371,0.23542l-1.84906,0.10771c-0.26372,-1.87399 -0.06521,-3.77474 0.60922,-5.46714l2.31128,-0.13464z"/><path d="M286.78307,166.479l0.57846,-3.33993c1.20529,-0.54251 2.60575,-0.38801 3.73926,0.49072l-0.45184,2.86011z"/><path d="M285.28654,164.67682c0.43489,-0.49763 1.02384,-1.00424 1.47234,-1.26657l-0.59216,3.10466l-2.0031,0.11667c0.26704,-0.72408 0.68813,-1.45713 1.12292,-1.95475z"/><path d="M292.78313,184.54972l0.69147,-4.05488l2.77361,-0.16156c-0.40748,0.96834 -0.98272,1.71021 -1.55794,2.45224c-0.58893,0.50661 -1.17787,1.0132 -1.90714,1.7642z"/><path d="M289.99529,173.84888l3.85217,-0.22438l-0.90368,5.72042l-3.86587,-0.01098z"/><path d="M289.36519,173.64943l-0.9173,5.48508l-3.08178,0.17951l-0.16775,-0.22646l-0.34932,-0.68817l0.8181,-4.53456z"/><path d="M284.91047,174.14499l-0.57856,3.33993c-0.37673,-1.15888 -0.75344,-2.3176 -0.97604,-3.48546z"/><path d="M289.52534,157.8176c-0.22593,1.43005 -0.28409,3.08657 -0.20184,4.49867c-0.61636,0.0359 -1.23261,0.07179 -1.83525,0.34313c-0.89712,0.52456 -1.64019,1.04013 -2.21542,1.78216c-0.72928,0.75085 -1.29078,1.7283 -1.69816,2.69663c-0.15414,0.00898 -0.40748,0.96834 -0.5341,1.44801c0.01371,0.23542 -0.12672,0.47968 -0.113,0.7151c-0.95195,-0.41685 -1.9038,-0.8337 -2.82833,-0.77984c0.29447,-0.25338 0.57523,-0.74203 1.02374,-1.00438c0.29447,-0.25322 0.44861,-0.2622 0.74298,-0.51558c0.30817,-0.01795 0.60266,-0.27117 0.89712,-0.52456c-0.01371,-0.23527 0.14043,-0.24424 0.12672,-0.47968c-0.01371,-0.23542 -0.02742,-0.47069 -0.18156,-0.46172c-0.97937,-0.88755 -2.09906,-1.53085 -3.20506,-1.93872c0.30817,-0.01795 0.75668,-0.2803 1.20529,-0.54251c0.30817,-0.01795 0.4485,-0.26235 0.75668,-0.2803c0.91083,-0.28912 1.83536,-0.34298 2.63318,0.08286c0.15414,-0.00898 0.15414,-0.00898 0.30817,-0.01795c0.15414,-0.00898 0.14042,-0.24441 0.14042,-0.24441l-0.01371,-0.23527c-0.08226,-1.41225 0.00324,-2.59791 0.39691,-3.80165c0.12672,-0.47968 0.25335,-0.95935 0.39377,-1.20375c0.26704,-0.72408 0.39367,-1.20375 0.67442,-1.6924c0.02742,0.47069 0.06854,1.17682 0.09597,1.64754v0c0.06854,1.17682 0.1371,2.35365 0.35977,3.52137c0.16775,0.22646 0.18147,0.46172 0.3356,0.45275c0.15404,-0.00897 0.30817,-0.01795 0.29447,-0.25322c0.12662,-0.47968 0.42109,-0.73304 0.5478,-1.21272c0.14033,-0.24424 0.42109,-0.73304 0.56152,-0.97731c0.28065,-0.48865 0.56143,-0.9773 1.33191,-1.02217z"/><path d="M281.93782,165.5804c-0.29447,0.25322 -0.58893,0.50661 -0.8834,0.75998c-0.47593,-0.20851 -0.7841,-0.19056 -1.26013,-0.39904c0.28076,-0.48866 0.57523,-0.74188 1.02384,-1.00424c0.32189,0.21748 0.64378,0.43479 1.11971,0.6433z"/><path d="M284.27595,155.28942c0.04113,0.70613 0.23639,1.40313 0.43156,2.10027c-0.5478,1.21272 -0.77373,2.64279 -0.83181,4.29929c-1.10609,-0.40786 -2.17096,-0.10977 -3.08178,0.17951c-0.48964,-0.44378 -0.82523,-0.89653 -1.30125,-1.10503c0.8697,-0.99525 2.1024,-1.06706 3.2084,-0.65919c0.15414,-0.00898 0.15414,-0.00898 0.30817,-0.01795c-0.01371,-0.23527 0.14043,-0.24424 0.12672,-0.47968c0.01371,0.23542 0.01371,0.23542 0,0c0.05807,-1.6565 0.42442,-3.33095 1.13998,-4.31724z"/><path d="M293.5601,179.30904l0.91739,-5.48509l2.15724,-0.12565c0.41785,1.86485 0.37338,3.75679 -0.1469,5.44021z"/><path d="M287.45369,156.75743c-0.12672,0.47968 -0.0856,1.1858 -0.04447,1.89178c-0.14032,0.2444 -0.43479,0.49763 -0.56151,0.97745c-0.04113,-0.70613 -0.06854,-1.17682 -0.10968,-1.88296c0.28076,-0.48866 0.40748,-0.96834 0.71566,-0.98628z"/><path d="M295.28198,169.05394c0.37673,1.15888 0.75344,2.3176 1.13007,3.47648l-1.69492,0.09872z"/><path d="M294.76484,168.13942l-0.81813,4.53464l-3.69809,0.21541l0.33888,-2.14516l0.5785,-3.3399l1.84904,-0.1077l1.23269,-0.0718l0.34931,0.68813z"/><path d="M291.41933,166.44501l0.32523,-2.38043c0.81151,0.66111 1.469,1.33133 1.98606,2.2458l-0.77039,0.04488z"/><path d="M288.52681,183.14453l0.43813,-3.09553l3.71183,0.01986l-0.67776,4.29031c-1.219,0.30723 -2.47913,-0.09166 -3.47221,-1.21465z"/><path d="M286.05102,180.4548l2.31128,-0.13464l-0.46555,2.62499c-0.65749,-0.67023 -1.32867,-1.57572 -1.84574,-2.49036z"/><path d="M268.48014,152.19483l2.57177,4.33719l-3.43433,2.0893v0l-1.53758,-2.50816l-1.03419,-1.82902l2.08866,-1.30245z"/><path d="M269.51818,162.05299l-1.55126,-2.74357l3.43432,-2.08923l0.15404,-0.00897l1.21575,2.29067c-0.82857,1.70138 -2.02015,2.47931 -3.25286,2.55112z"/><path d="M262.48123,155.37812l1.79413,-1.0491l2.58557,4.57253l-2.08869,1.30248c-0.99308,-1.12297 -1.85943,-2.72562 -2.29101,-4.8259z"/><path d="M265.42971,160.87426l1.94827,-1.05823l1.38351,2.51713c-0.61636,0.0359 -1.09238,-0.17244 -1.72235,-0.37197c-0.47603,-0.20834 -1.11979,-0.64314 -1.60943,-1.08692z"/><path d="M272.36299,149.84331l2.0684,3.65789c0.01371,0.23542 0.02743,0.47085 0.02743,0.47085l-0.11302,0.71496l-2.84537,1.58278l-2.43135,-4.58166z"/><path d="M272.17163,157.1753l2.08869,-1.30248c-0.23963,1.19478 -0.64701,2.1631 -1.05448,3.13143z"/><path d="M270.68947,166.2356c0.18156,0.46172 0.37673,1.15888 0.55818,1.62061c-0.30808,0.01795 -0.79781,-0.42583 -1.11971,-0.6433c-0.18147,-0.46172 -0.37673,-1.15888 -0.40414,-1.62958c0.3356,0.45275 0.64378,0.43479 0.96567,0.65226z"/><path d="M268.38857,169.20358c0.04112,0.70597 0.08226,1.4121 0.27753,2.10925c-0.97938,-0.8877 -1.81831,-2.01951 -2.37659,-3.64009c0,0 -0.01371,-0.23542 -0.16775,-0.22646l-0.15414,0.00898c-0.15404,0.00897 -0.15404,0.00897 -0.15404,0.00897c-0.71566,0.98628 -1.92085,1.52879 -3.01323,1.35634c0.28076,-0.48866 0.5478,-1.21272 0.82857,-1.70138c0.91082,-0.28928 1.82165,-0.57841 2.69135,-1.57366c0.54447,1.38518 1.22937,2.5261 2.06832,3.65805z"/><path d="M263.93976,153.87626l-1.49966,0.79587c-0.08226,-1.41225 -0.15082,-2.58909 -0.06531,-3.77473l0.51715,0.91448z"/><path d="M274.74616,148.28745c0.22259,1.16785 0.1508,2.58893 0.06521,3.77474l-1.55126,-2.74357z"/><path d="M319.6025,209.67333l-3.40033,-2.63583l-0.15409,0.00898l0.27033,-3.32194l0.17108,-2.37154l1.94501,1.5398l1.45533,1.09602z"/><path d="M319.20555,213.475c-1.23271,0.0718 -2.50655,-0.56251 -3.51333,-1.92076l0.25666,-3.55742l3.55438,2.62689z"/><path d="M313.45929,205.07182c-0.10967,-1.8828 0.08883,-3.78371 0.76336,-5.47612l1.7772,1.31353l-0.44137,5.69345z"/><path d="M313.36008,206.0222l1.94503,1.53982l-0.12996,3.07758c-0.3493,-0.68803 -0.69861,-1.3762 -1.04792,-2.06438c-0.19526,-0.697 -0.40414,-1.62943 -0.76716,-2.55302z"/><path d="M320.92016,197.78868l3.54071,2.39148l-0.4277,5.92885l-3.40033,-2.63581z"/><path d="M323.93389,207.05941l-0.34217,4.74306c0.01371,0.23542 -0.14032,0.2444 -0.14032,0.2444l-0.44851,0.26219l-2.91069,-2.19195l0.44137,-5.69345z"/><path d="M320.14702,211.05853l2.09906,1.53085c-0.74298,0.51558 -1.49976,0.79588 -2.27015,0.84075z"/><path d="M316.39083,212.93043c-0.23963,1.19478 -0.61959,2.63381 -0.69147,4.05488c-0.19516,-0.697 -0.37672,-1.15872 -0.57189,-1.85588c-0.01371,-0.23542 -0.19527,-0.69715 -0.22268,-1.16785c-0.04112,-0.70597 -0.22259,-1.16785 -0.25,-1.63856c-0.01371,-0.23527 -0.02742,-0.47069 -0.18156,-0.46172c-0.15404,0.00897 -0.15404,0.00897 -0.29447,0.25338c-0.70185,1.2217 -1.22224,2.90498 -1.6022,4.34416c-0.02742,-0.47069 -0.22268,-1.16785 -0.26382,-1.87398c-0.01371,-0.23527 -0.04112,-0.70597 -0.06854,-1.17668c-0.08226,-1.41225 0.00332,-2.59806 0.397,-3.80166c-0.01371,-0.23542 -0.01371,-0.23542 -0.02742,-0.47069c-0.01371,-0.23542 -0.16775,-0.22646 -0.16775,-0.22646l-0.15414,0.00898c-0.93824,-0.18158 -1.74977,-0.84269 -2.40725,-1.5129c-0.16784,-0.22629 -0.48974,-0.44377 -0.65749,-0.67023c-0.48964,-0.44378 -0.67118,-0.9055 -1.00678,-1.35825c0.30817,-0.01795 0.7841,0.19056 1.09228,0.1726v0c0.7842,0.19038 1.55459,0.14552 2.32508,0.10063c0.15404,-0.00897 0.30817,-0.01795 0.29447,-0.25322c0.14032,-0.2444 0.14032,-0.2444 -0.02742,-0.47069c-0.18157,-0.46187 -0.50345,-0.6792 -0.6849,-1.14092c-0.16785,-0.22645 -0.3356,-0.45275 -0.51715,-0.91448c-0.18146,-0.46188 -0.51706,-0.91463 -0.71233,-1.61163c0.96565,0.65212 1.9176,1.06897 2.85584,1.25055c-0.0993,0.95038 -0.04447,1.89178 0.01038,2.83333c0.08226,1.4121 0.45898,2.57099 0.83571,3.72985c0.37672,1.15872 0.89388,2.07335 1.56507,2.97885c0.01371,0.23527 0.67118,0.9055 0.99308,1.12297c0.15404,-0.00897 0.16775,0.2263 0.14032,-0.2444z"/><path d="M314.53852,215.63604c-0.12672,0.47968 -0.25335,0.95935 -0.36635,1.67445c-0.19517,-0.69715 -0.22259,-1.16785 -0.41785,-1.86485c0.12671,-0.47982 0.40746,-0.96848 0.53409,-1.44817c0.02742,0.47069 0.20898,0.93242 0.25011,1.63855z"/><path d="M310.69292,210.66462c-1.09238,-0.1726 -2.2395,-1.28645 -2.92441,-2.42737c0.47603,0.20834 0.92453,-0.05385 1.38675,-0.08078c0.82532,0.89652 1.79099,1.54879 2.74294,1.96565c-0.38006,1.43903 -0.28409,3.08657 -0.20184,4.49867c-0.28076,0.48866 -0.5478,1.21272 -0.82857,1.70138c-0.40414,-1.62958 -0.34598,-3.28608 0.02029,-4.96039c-0.01371,-0.23542 -0.02743,-0.47085 -0.19517,-0.69715c0.16775,0.2263 0.16775,0.2263 0,0z"/><path d="M321.0194,196.83832l0.27038,-3.32198c1.23261,-0.07179 2.49274,0.3271 3.48582,1.45007l-0.21545,4.26338z"/><path d="M310.29535,203.83923c0.3356,0.45275 0.50333,0.67905 0.6849,1.14092c-0.46231,0.02693 -0.78421,-0.19055 -1.24642,-0.16363c-0.18156,-0.46172 -0.51715,-0.91448 -0.69861,-1.3762c0.47592,0.20835 0.95195,0.41685 1.26013,0.3989z"/><path d="M320.36191,196.16809l-2.09906,-1.53085c0.74298,-0.51558 1.49976,-0.79572 2.25645,-1.07603z"/><path d="M316.7324,197.56031l0.04441,-1.89184l0.44856,-0.26229l0.29447,-0.25331l2.91064,2.19203l-0.45511,5.45813l-1.28753,-0.86963l-2.0991,-1.53084z"/><path d="M315.94499,199.96768l-1.45529,-1.0959c0.40737,-0.96848 0.9826,-1.71036 1.71187,-2.46136l-0.08549,1.18579z"/><path d="M317.15839,159.7503l0.96892,-1.94569l1.25682,2.99685l1.03419,1.82902l-2.20491,4.61543l-2.29103,-4.82586z"/><path d="M314.11118,165.83175l1.39009,-2.67868l2.27729,4.59048l0.01371,0.23527l-1.09552,2.42547c-1.14722,-1.11399 -2.01357,-2.71664 -2.58557,-4.57253z"/><path d="M317.76427,156.88108l-2.20484,4.61549l-1.41093,-2.98783c0.36625,-1.67445 1.20852,-3.14056 2.40011,-3.91833z"/><path d="M313.7515,162.3104c-0.05485,-0.94155 0.04436,-1.89193 0.15737,-2.60703l1.24309,2.76154l-1.24965,2.43444c-0.05485,-0.94155 -0.26382,-1.87398 -0.1508,-2.58893z"/><path d="M320.76759,163.31861l2.2911,4.8259l-1.79757,3.64702c-0.15404,0.00897 -0.30808,0.01795 -0.30808,0.01795l-0.46231,0.02693l-1.92799,-3.90247z"/><path d="M318.30941,168.89346l1.41093,2.98783c-0.78421,-0.19055 -1.58202,-0.61637 -2.37984,-1.0422z"/><path d="M312.38825,154.83273c-0.04113,-0.70613 -0.08226,-1.41225 -0.12339,-2.11823c0.53086,1.14989 1.21566,2.29068 2.041,3.18735c-0.26706,0.72393 -0.5341,1.44801 -0.78744,2.40736c-0.23963,1.19478 -0.46556,2.62483 -0.397,3.80166c-0.08549,1.18579 0.1508,2.58893 0.37349,3.75678c0,0 0.37662,1.15888 0.55818,1.62061c0.16775,0.2263 0.18147,0.46172 0.3493,0.68803c-0.71555,0.98643 -1.4312,1.97271 -1.99273,2.95001c-0.02742,-0.47069 -0.06854,-1.17682 0.04447,-1.89178c0.14032,-0.2444 0.1129,-0.7151 0.23963,-1.19478c-0.02742,-0.47069 0.09921,-0.95038 0.22593,-1.43005c0.14032,-0.2444 0.14032,-0.2444 -0.02743,-0.47085c-0.01371,-0.23527 -0.16784,-0.22629 -0.32189,-0.21731c-1.03754,0.76896 -1.92095,1.52879 -2.79055,2.52403c0.11292,-0.71495 0.23964,-1.19462 0.35255,-1.90972c-0.02742,-0.47069 0.1129,-0.7151 0.23963,-1.19478c0.23963,-1.19478 0.80115,-2.17208 1.53043,-2.92292c0.14042,-0.24441 0.14042,-0.24441 0.12671,-0.47982l-0.01371,-0.23527c-0.16785,-0.22645 -0.16785,-0.22645 -0.16785,-0.22645c-0.65747,-0.67007 -1.18825,-1.81998 -1.56496,-2.97886c-0.18156,-0.46172 -0.19527,-0.69715 -0.37673,-1.15888c-0.19526,-0.697 -0.39043,-1.39415 -0.41785,-1.86485c0.16775,0.2263 0.50335,0.6792 0.82523,0.89653v0c0.65749,0.67023 1.31496,1.3403 1.95874,1.77524c0.16784,0.22629 0.15414,-0.00898 0.30817,-0.01795c0.15414,-0.00898 0.14042,-0.24441 0.12671,-0.47982c-0.02742,-0.47069 -0.20898,-0.93242 -0.23639,-1.40313c-0.02742,-0.47069 -0.05484,-0.94141 -0.08226,-1.4121z"/><path d="M311.78294,168.32887c-0.43489,0.49778 -0.72937,0.751 -1.01012,1.23965c0.11302,-0.71496 0.0856,-1.1858 0.19851,-1.90075c0.44861,-0.26235 0.74308,-0.51559 1.03754,-0.76896c-0.12672,0.47968 -0.0993,0.95038 -0.22593,1.43005z"/><path d="M308.11556,166.41707c0.21222,-1.66533 0.74631,-3.11348 1.61601,-4.10873c0.14032,-0.2444 0.14032,-0.2444 0.12662,-0.47968l-0.01371,-0.23542c-0.01371,-0.23527 -0.01371,-0.23527 -0.01371,-0.23527c-0.99308,-1.12297 -1.55126,-2.74357 -1.80137,-4.38213c0.32189,0.21748 0.81163,0.66124 1.28755,0.8696c0.39044,1.3943 0.9349,2.77948 1.77396,3.91144c-0.72937,0.751 -1.26337,2.19901 -1.64343,3.63805c-0.4485,0.26235 -0.74298,0.51558 -1.33191,1.02217z"/><path d="M310.91592,156.09932c-0.04113,-0.70613 -0.06854,-1.17682 -0.10968,-1.88296c0.3356,0.45275 0.67118,0.9055 1.00678,1.35825c0.18157,0.46187 0.20899,0.93258 0.2364,1.40327c-0.48974,-0.44377 -0.81163,-0.66124 -1.1335,-0.87858z"/><path d="M317.13754,154.0838c0.74298,-0.51558 1.49976,-0.79588 2.27015,-0.84075l-0.40738,0.96833l-0.96899,1.94579z"/><path d="M300.74179,138.0355c0.12339,2.11823 -0.397,3.80166 -1.23929,5.26762l-1.65047,-1.7932l0.9173,-5.48494z"/><path d="M288.32272,145.13515l0.67776,-4.29031l3.28741,3.35083l-0.59227,3.10451c-1.23261,0.07179 -2.36612,-0.80677 -3.37291,-2.16502z"/><path d="M303.23463,138.36259c0.30817,-0.01795 0.7841,0.19039 1.10599,0.40787c0.18156,0.46172 0.37673,1.15888 0.55828,1.62061c-0.47603,-0.20849 -0.79791,-0.42582 -1.27385,-0.63432c-0.18156,-0.46172 -0.20898,-0.93242 -0.39043,-1.39415z"/><path d="M292.95909,145.10115l1.97235,2.01054c-0.75668,0.2803 -1.68121,0.33417 -2.45161,0.37903z"/><path d="M296.78381,144.40609l-0.3526,1.90978l-0.44855,0.26229l-0.30817,0.01795l-2.6299,-2.6807l0.91737,-5.48506l1.16086,1.34933l1.97243,2.01053z"/><path d="M297.75275,142.46044l1.31496,1.3403c-0.72937,0.751 -1.30449,1.49289 -2.04758,2.00846l0.23964,-1.19462z"/><path d="M271.6455,241.04179l-1.06495,0.29826c-0.79782,-0.42597 -1.58202,-0.61637 -2.21209,-0.81589c-0.53076,-1.14975 -0.61302,-2.562 -0.69527,-3.97411l1.97568,-0.58738z"/><path d="M276.42209,240.76356l1.10276,3.00578c-1.73605,-0.60724 -3.31807,-1.22363 -4.73223,-1.61355l-0.16785,-0.22645z"/><path d="M319.95736,250.27166l3.25287,-2.55096l0.35967,3.52136c-0.09921,0.95038 -0.35253,1.90988 -0.45184,2.86026l-0.74298,0.51558c-0.46222,0.02692 -1.09228,-0.1726 -2.03052,-0.35403l-0.25011,-1.63855z"/><path d="M319.65966,253.12295l0.06854,1.17682c-1.09228,-0.1726 -2.3387,-0.33607 -3.75296,-0.72599l-0.01371,-0.23542l3.25286,-2.55112z"/><path d="M324.52282,206.5528l0.44147,-5.69345l0.32189,0.21731c0.10968,1.88296 0.23306,4.00119 0.35644,6.11942z"/><path d="M324.30738,210.81619l0.25658,-3.55726l1.1335,0.87858c0.02742,0.47069 0.04113,0.70613 0.06854,1.17682c-0.43489,0.49763 -0.85599,1.23068 -1.45863,1.50186z"/><path d="M321.20249,162.82099l1.23595,-2.66971c0.27753,2.10925 0.41461,4.46275 0.70574,6.80744z"/><path d="M322.19936,171.97296l1.23604,-2.66972c0.04113,0.70613 0.09597,1.64754 0.1371,2.35365c-0.44861,0.2622 -1.06497,0.2981 -1.37315,0.31606z"/><path d="M319.82555,155.1079l0.68814,-1.45699l0.46231,-0.02693l0.30817,-0.01795l0.53076,1.1499c0.04113,0.70613 0.23639,1.40313 0.27753,2.10925c0.19517,0.69715 0.23629,1.40313 0.27742,2.10926l-1.53041,2.92308l-0.88008,-1.83809l-1.41093,-2.98783z"/><path d="M288.76418,139.44155l-1.32867,-1.57572c0.46222,-0.02692 1.06487,-0.2981 1.66751,-0.56944z"/><path d="M287.80566,144.22052c-0.36301,-0.92345 -0.88007,-1.83793 -1.10276,-3.00578c-0.36301,-0.92345 -0.41785,-1.86485 -0.47269,-2.80626c0.15414,-0.00898 0.15414,-0.00898 0.30817,-0.01795l1.97245,2.01052z"/><path d="M293.55784,136.80083l-0.82523,-0.89653c0.30817,-0.01795 0.75668,-0.2803 1.06486,-0.29825z"/><path d="M289.25382,139.88534l0.45184,-2.86011c0.75678,-0.28031 1.51348,-0.56046 2.27015,-0.84075l1.48281,1.56674l-0.91739,5.48509z"/><path d="M298.50562,134.15099l-0.32189,-0.21731c0,0 0.15404,-0.00897 0.30817,-0.01795z"/><path d="M294.21531,137.47091l0.33884,-2.14515c0.89712,-0.52456 1.96208,-0.82265 2.8729,-1.11194l0.82523,0.89653l-0.57846,3.33993l-0.32522,2.38058l-1.97245,-2.01052z"/><path d="M304.48428,135.92816c0.16785,0.22645 0.34932,0.68817 0.51705,0.91448c0.34932,0.68817 0.6849,1.14092 0.86646,1.60265c-0.47603,-0.20834 -0.7842,-0.19038 -1.10599,-0.40787v0c-0.63006,-0.19937 -1.41427,-0.38992 -2.19837,-0.58031c-0.15414,0.00898 -0.30817,0.01795 -0.29447,0.25322c0,0 0.01371,0.23542 0.02742,0.47069c0.16775,0.22646 0.34932,0.68817 0.53076,1.1499c0.18156,0.46172 0.34932,0.68817 0.53086,1.14989c0.19516,0.697 0.37673,1.15888 0.57189,1.85588c-0.82523,-0.89653 -1.79089,-1.54879 -2.74285,-1.96565c0.26706,-0.72393 0.36625,-1.67445 0.31141,-2.61586c-0.06854,-1.17682 -0.1508,-2.58893 -0.52743,-3.74782c-0.01371,-0.23527 -0.18156,-0.46172 -0.19526,-0.697c0.4485,-0.26235 1.06486,-0.29825 1.51346,-0.56061c-0.14042,0.24441 -0.12671,0.47982 -0.26704,0.72408c0.01371,0.23542 0.01371,0.23542 0.02742,0.47069c0,0 0,0 0.16775,0.22646c-0.16775,-0.22646 -0.01371,-0.23542 0,0c0.7842,0.19038 1.60944,1.08707 2.26692,1.75713z"/><path d="M299.00896,134.8302l0.23963,-1.19478c0.30817,-0.01795 0.60266,-0.27117 0.91083,-0.28912c0.02742,0.47069 0.19526,0.697 0.20898,0.93242c0.20887,0.93243 0.40414,1.62958 0.45898,2.57099z"/><path d="M303.80271,132.18933c-0.15414,0.00898 -0.14042,0.24441 -0.14042,0.24441c0.01371,0.23527 0.01371,0.23527 0.02742,0.47069c0.15414,-0.00898 0.16785,0.22645 0.16785,0.22645c0.15404,-0.00897 0.15404,-0.00897 0.15404,-0.00897c1.10599,0.40787 2.11278,1.76612 2.65735,3.1513c-0.47603,-0.20834 -0.93824,-0.18142 -1.40055,-0.15449c-0.6848,-1.14093 -1.51014,-2.03745 -2.4758,-2.68972c0.14043,-0.24424 0.113,-0.7151 0.25335,-0.95935c0.29447,-0.25338 0.60264,-0.27133 0.75678,-0.28031z"/><path d="M272.75676,148.63954l-2.06842,-3.65805c0.89712,-0.52456 1.96198,-0.8228 2.85909,-1.34736c0.53076,1.1499 0.90749,2.30879 1.14389,3.71191z"/><path d="M268.56566,151.0091l-2.24987,-4.11978c1.20529,-0.54251 2.41059,-1.085 3.76991,-1.63664l2.06842,3.65805z"/><path d="M263.46707,151.06986l-0.85265,-1.36723l0.113,-0.7151l-0.01371,-0.23527c0.89702,-0.52455 1.94827,-1.05823 3.15355,-1.60074l2.24987,4.11978l-1.34573,0.7869l-2.24273,1.31146z"/><path d="M263.39586,163.11814c-0.28076,0.48866 -0.57523,0.74188 -0.85599,1.23053c-0.30817,0.01795 -0.63006,-0.19937 -0.93824,-0.18142l-0.01371,-0.23542c0.29447,-0.25322 0.57523,-0.74188 0.8697,-0.99525c0.30817,-0.01795 0.61636,-0.0359 0.93824,0.18158z"/><path d="M263.42003,166.18675c-0.30817,0.01795 -0.77049,0.04488 -1.07867,0.06283l-0.01371,-0.23542c0.14043,-0.24424 0.43489,-0.49763 0.57523,-0.74188v0c0.57523,-0.74203 1.15045,-1.48406 1.55783,-2.4524c0,0 -0.01371,-0.23542 -0.02742,-0.47069c-0.01371,-0.23542 -0.16775,-0.22646 -0.32189,-0.21748c-0.30817,0.01795 -0.61625,0.03589 -0.92444,0.05385c-0.32189,-0.21731 -0.63006,-0.19937 -0.93824,-0.18142c-0.47603,-0.20849 -0.93824,-0.18158 -1.40056,-0.15465c0.89712,-0.52456 1.78052,-1.28454 2.49617,-2.27082c0.34921,0.68818 0.85265,1.36738 1.34229,1.81117c0.81162,0.6611 1.60943,1.08692 2.40734,1.51289c0.79781,0.42583 1.72235,0.37197 2.49274,0.3271c0,0 0.75678,-0.28031 1.06495,-0.29826c0.15404,-0.00897 0.29437,-0.25321 0.44851,-0.26219c0.39043,1.39415 0.92119,2.54406 1.45205,3.69381c-0.47603,-0.20834 -0.79791,-0.42582 -1.27383,-0.63417c-0.32189,-0.21748 -0.48964,-0.44378 -0.81153,-0.66124c-0.3356,-0.45275 -0.65749,-0.67023 -0.97937,-0.88755c0,0 -0.15414,0.00898 -0.30817,0.01795c-0.15414,0.00898 -0.14043,0.24424 -0.12672,0.47968c0.25011,1.63855 0.50012,3.27711 1.0584,4.8977c-0.3356,-0.45275 -0.81163,-0.66124 -1.14722,-1.11399c-0.16775,-0.22646 -0.48964,-0.44378 -0.65749,-0.67023c-0.67118,-0.9055 -1.356,-2.04644 -1.57868,-3.21427c0,0 -0.01371,-0.23527 -0.16775,-0.2263l-0.15414,0.00898l-0.15404,0.00897c-0.57523,0.74203 -1.47234,1.26657 -2.22913,1.54674c-0.29437,0.25337 -0.4485,0.26235 -0.60254,0.27133z"/></g><g stroke="#a80054" stroke-linecap="round" stroke-linejoin="round"><path d="M315.3663,123.6754c2.87555,9.55259 5.00965,19.64699 6.38773,30.03456c1.1951,9.89994 1.92798,19.82664 2.19855,29.78028c-11.77788,2.18141 -39.6864,8.7919 -39.6864,8.7919c0,0 28.42427,-0.40962 40.37578,0.38974c0.95926,11.15973 1.30217,22.35537 1.18286,33.57792c-0.17729,10.22887 -1.12486,20.50277 -2.8575,30.57307c0,0 -17.53254,-3.71415 -31.67525,-7.62589c-11.46536,-3.07064 -24.58736,-8.03876 -26.17165,-8.69407c0.26478,-0.76319 0.36104,-1.7657 0.30315,-2.7594c-0.13022,-2.23554 -1.2139,-4.91399 -1.21902,-7.65527c-0.13022,-2.23554 1.25152,-5.05759 1.1213,-7.29313c-0.13022,-2.23554 -1.2139,-4.91399 -1.35859,-7.39799c-0.14468,-2.48384 1.09748,-5.04861 0.9528,-7.53247c-0.14469,-2.48401 -1.36805,-4.90501 -1.51273,-7.389c-0.14468,-2.48384 0.94334,-5.03964 0.79866,-7.52365c-0.14468,-2.48384 -1.52209,-4.89603 -1.66676,-7.37987c-0.14469,-2.48401 0.7893,-5.03067 0.6446,-7.51468c-0.14468,-2.48384 -1.66174,-4.6386 -1.80643,-7.1226c-0.14469,-2.48401 0.64963,-4.7734 0.49047,-7.50569c-0.15916,-2.73231 -1.67612,-4.88706 -1.96047,-7.11363c-0.3132,-2.72333 0.60623,-5.51846 0.33644,-7.49656c-0.05789,-0.9937 -0.2699,-1.97825 -0.62148,-2.70554c1.49749,-0.83483 13.95393,-7.29285 24.98524,-11.6739c13.59289,-5.52732 30.72977,-11.26091 30.75871,-10.76414z" fill="none" fill-rule="evenodd" stroke-width="1.24"/><path d="M265.26943,237.75247c0.05789,0.9937 -0.05275,1.74775 -0.14901,2.75041l-0.15404,0.00897l-6.36601,-3.11853c0,0 0.08458,-22.43614 -1.15973,-43.79797c-1.24429,-21.36182 -3.9911,-44.62995 -3.9911,-44.62995l6.01877,-2.84301l0.15404,-0.00897c0.35159,0.72729 0.56359,1.71184 0.62148,2.70554c0.26978,1.9781 -0.64963,4.77323 -0.33644,7.49656c0.13022,2.23554 1.83026,4.87809 1.96047,7.11363c0.13022,2.23554 -0.62069,5.27016 -0.49047,7.50569c0.13022,2.23554 1.66175,4.63875 1.80643,7.1226c0.14469,2.48401 -0.7893,5.03067 -0.6446,7.51468c0.14468,2.48384 1.52209,4.89603 1.66676,7.37987c0.14469,2.48401 -0.94333,5.0398 -0.79866,7.52365c0.14469,2.48401 1.35358,4.65671 1.51273,7.389c0.15916,2.73231 -1.09748,5.04861 -0.9528,7.53247c0.14469,2.48401 1.19944,4.66568 1.35859,7.39799c0.15916,2.73231 -1.09738,5.04861 -1.1213,7.29313c0.00512,2.74128 1.0888,5.41972 1.06488,7.66424z" fill="#ffff4f" fill-rule="nonzero" stroke-width="1.24"/><path d="M264.36011,192.94302l-6.7798,0.39492" fill="none" fill-rule="evenodd" stroke-width="0.8215"/><path d="M257.13178,185.63779l5.39295,-0.31413" fill="none" fill-rule="evenodd" stroke-width="0.8215"/><path d="M262.97181,177.07289l-6.4427,0.87373" fill="none" fill-rule="evenodd" stroke-width="0.8215"/><path d="M261.44471,169.43555l-5.51815,0.81989" fill="none" fill-rule="evenodd" stroke-width="0.8215"/><path d="M255.18431,162.82156l6.10558,-1.35255" fill="none" fill-rule="evenodd" stroke-width="0.8215"/><path d="M254.44208,155.38766l5.32062,-1.55598" fill="none" fill-rule="evenodd" stroke-width="0.8215"/><path d="M263.45072,201.22088l-5.39295,0.31413" fill="none" fill-rule="evenodd" stroke-width="0.8215"/><path d="M264.69868,209.37291l-6.34652,-0.12878" fill="none" fill-rule="evenodd" stroke-width="0.8215"/><path d="M258.64665,216.95324l5.42189,0.18264" fill="none" fill-rule="evenodd" stroke-width="0.8215"/><path d="M258.77252,224.42303l6.06719,0.6435" fill="none" fill-rule="evenodd" stroke-width="0.8215"/><path d="M264.36371,232.82054l-5.4653,-0.92772" fill="none" fill-rule="evenodd" stroke-width="0.8215"/></g><path d="M473.5,196.5c0,57.16147 -105.21308,103.5 -235,103.5c-129.78692,0 -235,-46.33853 -235,-103.5c0,-57.16147 105.21308,-103.5 235,-103.5c129.78692,0 235,46.33853 235,103.5z" fill="#755800" fill-rule="nonzero" stroke="none" stroke-width="none" stroke-linecap="butt" stroke-linejoin="miter"/><path d="M419.27445,195.69813c-3.39456,1.38225 -9.06609,0.55187 -12.77445,0.55187c0,0 -4.03415,0 -6.08394,-3.00925c-1.51346,0.02128 -2.96918,0.00925 -3.91606,0.00925c-7.66667,0 -15.33333,0 -23,0c-16.66379,0 -33.33726,0.17027 -50,0c-3.85134,-0.03936 -7.37575,-0.26176 -11,-1c-2.74346,-0.55883 -6.14677,-0.14372 -8.12652,-2.12348c-1.97975,-1.97975 -1.41565,-5.41768 -2.12348,-8.12652c0,-0.96576 -0.02249,-6.74772 0.09362,-7.16132c0.49936,-1.77884 1.34554,-3.43421 2.15891,-5.10127c-0.00168,-0.08497 -0.00253,-0.17077 -0.00253,-0.25743c0,-5.05337 2.8833,-7.22343 5.35965,-8.15532c-0.04563,-0.43716 -0.04563,-0.70137 -0.04563,-0.70137c0,-18.30383 0,-36.60766 0,-54.9115c0,-7.28222 -1.73735,-18.04489 0.23693,-25.06225c2.28434,-8.11947 7.4295,-13.31093 12.39854,-19.52224c4.05483,-5.06854 3.18184,-6.87439 9.27837,-10.7756c3.85599,-2.46747 8.51717,-3.38987 12.6102,-5.44031c2.12337,-1.35498 4.00356,-3.20235 6.37012,-4.06495c3.64046,-1.32693 7.52429,-1.95637 11.37328,-2.40241c0.43965,-0.05095 12.52753,-0.0431 15.04343,-0.0431c8.65734,0 18.01251,-1.39978 25.9123,3.09408c2.04232,1.16179 3.45529,3.18552 5.14907,4.814c4.31686,4.15045 10.39616,9.21174 13.6707,14.00576c1.05313,1.54181 0.82377,3.70517 1.77134,5.31402c1.0792,1.83233 3.5462,2.78328 4.19124,4.80961c0.78795,2.47527 0.67418,11.9207 0.67418,15.78868c0,10.03759 0,20.07517 0,30.11276c0,17.12294 0,34.24588 0,51.36882c0,1.87358 0.06853,5.09405 -0.09269,8.19667c1.95594,7.24894 -1.89986,16.85013 -9.12655,19.79281z" fill="#9c9b97" fill-rule="nonzero" stroke="none" stroke-width="0.5" stroke-linecap="butt" stroke-linejoin="miter"/><text transform="translate(325.5,90.31203) scale(1.34428,0.68236)" font-size="40" xml:space="preserve" fill="#030303" fill-rule="nonzero" stroke="none" stroke-width="1" stroke-linecap="butt" stroke-linejoin="miter" stroke-miterlimit="10" stroke-dasharray="" stroke-dashoffset="0" font-family="Sans Serif" font-weight="normal" text-anchor="start" style="mix-blend-mode: normal"><tspan x="0" dy="0">RIP</tspan><tspan x="0" dy="46.15px"> </tspan></text><path d="M294.75,126c0,7.25 -7.25,7.25 -7.25,7.25c-1.78416,0 -4.36411,0 -6.32004,0c0.52542,2.19204 1.13694,4.36567 1.47642,6.58868c0.88519,5.79646 0.09362,12.30689 0.09362,18.16132c0,1.61319 -0.39063,3.25306 -0.09362,4.83868c0.19408,1.03607 0.86,1.95525 1,3c0.60657,4.52664 0.09362,9.57856 0.09362,14.16132c0,0 0,7.25 -7.25,7.25c-7.25,0 -7.25,-7.25 -7.25,-7.25c0,-3.73852 0.66384,-8.16544 0.09362,-11.83868c-0.1617,-1.04162 -0.84087,-1.95799 -1,-3c-0.11611,-0.7603 -0.09362,-5.94568 -0.09362,-7.16132c0,-2.58822 0.27302,-5.46769 0.4049,-8.31904c-1.34632,-0.45498 -2.75616,-0.77967 -3.96645,-1.51374c-1.61225,-0.97787 -2.36634,-3.05835 -4,-4c-1.34661,-0.77619 -3.00657,-0.79775 -4.4811,-1.28926l0.29265,0.37205c0,0 -7.25,0 -7.25,-7.25c0,-7.25 7.25,-7.25 7.25,-7.25l4.29265,0.37205c0.98471,0.32824 3.46114,1.13504 5.33366,1.81349c-0.15231,-2.94203 0.12369,-6.14276 0.12369,-8.93553c0,-2 0,-4 0,-6v-1c0,0 0,-7.25 7.25,-7.25c7.25,0 7.25,7.25 7.25,7.25c0,1.06669 0,2.41783 0,3.75c1.91667,0 3.83333,0 5.75,0h1c0,0 7.25,0 7.25,7.25z" fill="#21bf00" fill-rule="nonzero" stroke="none" stroke-width="0.5" stroke-linecap="butt" stroke-linejoin="miter"/><path d="M269.12699,115.23119c-0.20273,0.01241 -0.41166,0.01881 -0.62699,0.01881c-7.25,0 -7.25,-7.25 -7.25,-7.25l0.55187,-5.77445c1.97456,-1.97456 3.48056,-4.57128 5.92367,-5.92367c1.6917,-0.93645 3.84292,-0.46279 5.77445,-0.55187c4.04101,-0.18638 10.72576,0.20669 12.4846,5.0077c4.88856,13.34405 -8.68987,14.4923 -16.4846,14.4923c0,0 -0.13687,0 -0.37301,-0.01881z" fill="#bfb800" fill-rule="nonzero" stroke="none" stroke-width="0.5" stroke-linecap="butt" stroke-linejoin="miter"/><path d="M268.97871,110.75957c1.43457,5.04677 -3.29383,10.81264 -10.56118,12.87842c-7.26735,2.06578 -14.32166,-0.35079 -15.75623,-5.39756c-1.43457,-5.04677 3.29383,-10.81264 10.56118,-12.87842c7.26735,-2.06578 14.32166,0.35079 15.75623,5.39756z" fill="#ffffff" fill-rule="nonzero" stroke="none" stroke-width="0" stroke-linecap="butt" stroke-linejoin="miter"/><path d="M269.06127,102.93673c-1.3181,5.07844 -8.31493,7.65665 -15.62789,5.75859c-7.31295,-1.89806 -12.17275,-7.55362 -10.85465,-12.63206c1.3181,-5.07844 8.31493,-7.65665 15.62789,-5.75859c7.31295,1.89806 12.17275,7.55362 10.85465,12.63206z" fill="#ffffff" fill-rule="nonzero" stroke="none" stroke-width="0" stroke-linecap="butt" stroke-linejoin="miter"/><path d="M276.98736,100.47436c-4.20901,3.13244 -11.27773,0.75839 -15.78845,-5.30258c-4.51071,-6.06097 -4.75529,-13.51371 -0.54628,-16.64614c4.20901,-3.13244 11.27773,-0.75839 15.78845,5.30258c4.51071,6.06097 4.75529,13.51371 0.54628,16.64614z" fill="#ffffff" fill-rule="nonzero" stroke="none" stroke-width="0" stroke-linecap="butt" stroke-linejoin="miter"/><path d="M304.35116,90.13965c2.82292,4.42256 -0.05132,11.30309 -6.41981,15.3681c-6.36849,4.06501 -13.81959,3.77515 -16.64252,-0.64741c-2.82292,-4.42256 0.05132,-11.30309 6.41981,-15.3681c6.36849,-4.06501 13.81959,-3.77515 16.64252,0.64741z" fill="#ffffff" fill-rule="nonzero" stroke="none" stroke-width="0" stroke-linecap="butt" stroke-linejoin="miter"/><path d="M302.06127,119.61174c-1.3181,5.33704 -8.31493,8.04653 -15.62789,6.05183c-7.31295,-1.9947 -12.17275,-7.93826 -10.85465,-13.2753c1.3181,-5.33704 8.31493,-8.04653 15.62789,-6.05183c7.31295,1.9947 12.17275,7.93826 10.85465,13.2753z" fill="#ffffff" fill-rule="nonzero" stroke="none" stroke-width="0" stroke-linecap="butt" stroke-linejoin="miter"/><path d="M287.5,105.5c0,7.45584 -6.49187,13.5 -14.5,13.5c-8.00813,0 -14.5,-6.04416 -14.5,-13.5c0,-7.45584 6.49187,-13.5 14.5,-13.5c8.00813,0 14.5,6.04416 14.5,13.5z" fill="#bfb800" fill-rule="nonzero" stroke="none" stroke-width="0" stroke-linecap="butt" stroke-linejoin="miter"/></g></g></svg>