<svg version="1.1" xmlns="http://www.w3.org/2000/svg" xmlns:xlink="http://www.w3.org/1999/xlink" width="155.13624" height="356.28984" viewBox="0,0,155.13624,356.28984"><g transform="translate(-58.63463,6.62802)"><g data-paper-data="{&quot;isPaintingLayer&quot;:true}" fill-rule="nonzero" stroke-miterlimit="10" stroke-dasharray="" stroke-dashoffset="0" style="mix-blend-mode: normal"><path d="M185.63875,55.27452c4.28327,-35.04182 13.51372,-62.63265 20.61677,-61.62584c7.10305,1.0068 9.38898,30.22999 5.1057,65.27182c-4.28327,35.04182 -13.51372,62.63265 -20.61677,61.62584c-7.10305,-1.0068 -9.38898,-30.22999 -5.1057,-65.27182z" fill="#ebffa0" stroke="#000000" stroke-width="0.5" stroke-linecap="butt" stroke-linejoin="miter"/><path d="M183.5,161.54722c0,48.43198 -22.60962,87.69386 -50.5,87.69386c-27.89038,0 -50.5,-39.26188 -50.5,-87.69386c0,-48.43198 22.60962,-87.69386 50.5,-87.69386c27.89038,0 50.5,39.26188 50.5,87.69386z" fill="#000000" stroke="#000000" stroke-width="0.5" stroke-linecap="butt" stroke-linejoin="miter"/><path d="M189.77941,53.61632c0,29.05919 -25.80617,52.61632 -57.6397,52.61632c-31.83353,0 -57.63971,-23.55713 -57.63971,-52.61632c0,-29.05919 25.80618,-52.61632 57.63971,-52.61632c31.83353,0 57.6397,23.55713 57.6397,52.61632z" fill="#ebffa0" stroke="#000000" stroke-width="0.5" stroke-linecap="butt" stroke-linejoin="miter"/><path d="M90.44332,75.54765c-1.96353,35.40037 -9.35019,64.03161 -16.49859,63.94963c-7.14839,-0.08197 -11.35156,-28.84609 -9.38803,-64.24647c1.96353,-35.40037 9.35019,-64.03161 16.49859,-63.94963c7.14838,0.08197 11.35156,28.84609 9.38803,64.24647z" fill="#ebffa0" stroke="#000000" stroke-width="0.5" stroke-linecap="butt" stroke-linejoin="miter"/><path d="M79.53326,284.28732c2.80333,-35.17818 10.88127,-63.32147 18.0426,-62.85981c7.16134,0.46166 10.6942,29.35345 7.89087,64.53163c-2.80333,35.17818 -10.88127,63.32147 -18.0426,62.85981c-7.16134,-0.46166 -10.6942,-29.35345 -7.89087,-64.53163z" fill="#000000" stroke="#000000" stroke-width="0.5" stroke-linecap="butt" stroke-linejoin="miter"/><path d="M151.468,286.35975c-1.58719,-35.25398 2.93307,-64.18261 10.09629,-64.61389c7.16322,-0.43128 14.25684,27.79808 15.84403,63.05207c1.58719,35.25398 -2.93307,64.18261 -10.09629,64.61389c-7.16322,0.43128 -14.25684,-27.79808 -15.84403,-63.05207z" fill="#000000" stroke="#000000" stroke-width="0.5" stroke-linecap="butt" stroke-linejoin="miter"/><path d="M196.26488,339.10712c0.5344,3.51706 -7.22928,7.03532 -17.34067,7.85827c-10.11139,0.82295 -18.74149,-1.36106 -19.2759,-4.87811c-0.5344,-3.51706 7.22928,-7.03532 17.34067,-7.85827c10.11139,-0.82295 18.74149,1.36106 19.2759,4.87811z" data-paper-data="{&quot;index&quot;:null}" fill="#000000" stroke="#000000" stroke-width="0.5" stroke-linecap="butt" stroke-linejoin="miter"/><path d="M79.72148,340.57849c0.2478,-3.03334 9.75154,-4.57689 21.2272,-3.44761c11.47566,1.12928 20.57763,4.50375 20.32983,7.5371c-0.2478,3.03334 -9.75154,4.57689 -21.2272,3.44761c-11.47566,-1.12928 -20.57763,-4.50375 -20.32983,-7.5371z" data-paper-data="{&quot;index&quot;:null}" fill="#000000" stroke="#000000" stroke-width="0.5" stroke-linecap="butt" stroke-linejoin="miter"/><path d="M178.25,112c0,2.21009 -1.02832,3.39186 -2.12804,4.02378c-0.29942,0.85799 -0.65845,1.67694 -1.26321,2.33498c-0.95002,1.03373 -2.6662,0.94543 -3.86153,1.68183c-1.01106,0.62287 -1.56265,1.94423 -2.67948,2.34784c-1.2076,0.43641 -6.06825,0.36157 -7.81775,0.36157c-10,0 -20,0 -30,0c-5.34315,0 -11.01531,0.50901 -16.33673,-0.01195c-2.34581,-0.22965 -4.65139,-0.80104 -7,-1c-2.73808,-0.23195 -5.52335,0.36488 -8.24365,-0.02364c-2.74501,-0.39205 -5.31456,-1.34214 -7.92171,-2.20816c0,0 -4.50625,-1.50208 -3.00417,-6.00833c1.50208,-4.50625 6.00833,-3.00417 6.00833,-3.00417c1.60305,0.53645 4.4417,1.55796 6.07829,1.79184c2.55946,0.36577 5.17955,-0.23501 7.75635,-0.02364c2.34914,0.1927 4.6552,0.76025 7,1c5.08199,0.51963 10.55785,-0.01195 15.66327,-0.01195c10,0 20,0 30,0c1,0 2.00371,-0.08613 3,0c0.41057,0.03549 0.81599,0.55044 1.18225,0.36157c0.62661,-0.32312 0.70792,-1.3032 1.32052,-1.65216c0.6262,-0.3567 1.55752,0.10828 2.13847,-0.31817c0.30976,-0.22738 -0.09833,-0.76221 -0.14749,-1.14333l5.50625,-3.24792c0,0 4.75,0 4.75,4.75z" fill="#676767" stroke="none" stroke-width="0.5" stroke-linecap="butt" stroke-linejoin="miter"/><path d="M85.5,141.25c1.44523,0 2.45075,0.43973 3.15032,1.0516c3.51538,0.11817 6.81472,0.44087 10.43005,0.98399c6.77581,1.01792 14.54968,-0.03559 21.41963,-0.03559c11.66666,0 23.33334,0 35,0c4.63813,0 9.83582,0.67157 14.41963,0.03559c1.60899,-0.22324 3.13826,-1.0371 4.76266,-1.03209c2.29671,0.00709 4.52141,1.03998 6.81771,0.9965c0,0 4.75,0 4.75,4.75c0,4.75 -4.75,4.75 -4.75,4.75c-1.58695,-0.02044 -3.18904,0.15827 -4.76086,-0.06134c-0.85775,-0.11984 -1.55534,-0.9461 -2.42142,-0.94216c-1.1263,0.00512 -2.12304,0.80389 -3.23734,0.96791c-4.95452,0.72925 -10.56677,0.03559 -15.58037,0.03559c-11.66666,0 -23.33334,0 -35,0c-7.31431,0 -15.33926,0.95365 -22.58037,-0.03559c-1.36172,-0.18603 -2.64088,-0.79582 -4,-1c-2.63357,-0.39563 -5.75419,0.03559 -8.41963,0.03559l-4.75,-5.75c0,0 0,-4.75 4.75,-4.75z" fill="#676767" stroke="none" stroke-width="0.5" stroke-linecap="butt" stroke-linejoin="miter"/><path d="M187.25,181c0,4.75 -4.75,4.75 -4.75,4.75c-8.66666,0 -20.33334,0 -29,0c-6,0 -12,0 -18,0c-2.9285,0 -6.37681,-0.57416 -9.23914,-0.06134c-1.03757,0.18589 -1.95563,0.85718 -3,1c-3.55393,0.48602 -7.17385,0.06134 -10.76086,0.06134c-8.66666,0 -17.33334,0 -26,0c0,0 -4.75,0 -4.75,-4.75c0,-4.75 4.75,-4.75 4.75,-4.75c8.66666,0 17.33334,0 26,0c3.07978,0 6.19363,0.51953 9.23914,0.06134c1.04236,-0.15682 1.95866,-0.83653 3,-1c3.42202,-0.53719 7.29326,-0.06134 10.76086,-0.06134c6,0 12,0 18,0c8.66666,0 17.33334,0 26,0h3c0,0 4.75,0 4.75,4.75z" fill="#676767" stroke="none" stroke-width="0.5" stroke-linecap="butt" stroke-linejoin="miter"/><path d="M194.41405,131.40282c-2.70296,3.80356 -6.79883,6.76119 -11.95072,8.62963c-9.14185,-7.90839 -10.01368,-16.59162 -10.00689,-23.87612c0.40586,-9.1943 1.84476,-26.41138 1.84476,-26.41138c10.4936,2.98437 20.89091,6.62719 31.06958,10.88559c0,0 -6.98092,25.11247 -10.95675,30.77229z" data-paper-data="{&quot;index&quot;:null}" fill="#ffffff" stroke="#000000" stroke-width="1.2" stroke-linecap="round" stroke-linejoin="round"/><path d="M62.33639,135.54463c-2.4716,-6.46003 -3.10176,-32.51713 -3.10176,-32.51713c10.91085,-1.64093 21.88323,-2.63151 32.78799,-2.96009c0,0 -2.81362,17.04646 -4.6677,26.06102c-1.77417,7.06514 -4.74224,15.27181 -15.54,20.70544c-4.53882,-3.07117 -7.78739,-6.94033 -9.47854,-11.28925z" data-paper-data="{&quot;index&quot;:null}" fill="#ffffff" stroke="#000000" stroke-width="1.2" stroke-linecap="round" stroke-linejoin="round"/><path d="M81.5,253v-65h97v65z" fill="#000000" stroke="#000000" stroke-width="0.5" stroke-linecap="butt" stroke-linejoin="miter"/><path d="M115.19303,52.39237c2.61997,7.16573 -0.41966,14.86262 -6.7892,17.19148c-6.36954,2.32886 -13.65697,-1.5922 -16.27694,-8.75793c-2.61997,-7.16573 0.41966,-14.86262 6.7892,-17.19148c6.36954,-2.32886 13.65697,1.5922 16.27694,8.75793z" fill="#ffffff" stroke="#000000" stroke-width="0.5" stroke-linecap="butt" stroke-linejoin="miter"/><path d="M157.28874,37.00114c2.61997,7.16573 -0.41966,14.86262 -6.7892,17.19148c-6.36954,2.32886 -13.65697,-1.5922 -16.27694,-8.75793c-2.61997,-7.16573 0.41966,-14.86262 6.7892,-17.19148c6.36954,-2.32886 13.65697,1.5922 16.27694,8.75793z" fill="#ffffff" stroke="#000000" stroke-width="0.5" stroke-linecap="butt" stroke-linejoin="miter"/><path d="M100.44963,58.10979c-0.5531,-1.51276 0.22486,-3.18748 1.73762,-3.74059c1.51276,-0.5531 3.18748,0.22486 3.74059,1.73762c0.5531,1.51276 -0.22486,3.18748 -1.73762,3.74059c-1.51276,0.5531 -3.18748,-0.22486 -3.74059,-1.73762z" fill="#080808" stroke="none" stroke-width="0.5" stroke-linecap="butt" stroke-linejoin="miter"/><path d="M142.91114,41.93108c-0.5531,-1.51276 0.22486,-3.18748 1.73762,-3.74059c1.51276,-0.5531 3.18748,0.22486 3.74059,1.73762c0.5531,1.51276 -0.22486,3.18748 -1.73762,3.74059c-1.51276,0.5531 -3.18748,-0.22486 -3.74059,-1.73762z" fill="#080808" stroke="none" stroke-width="0.5" stroke-linecap="butt" stroke-linejoin="miter"/><path d="M129.73179,36.02215c0,0 -1.21921,-0.11436 -2.00347,-0.98489c-0.75755,0.18101 -2.61347,0.3743 -3.44231,-1.76184c-1.05497,-2.71895 1.66398,-3.77392 1.66398,-3.77392l1.67507,-0.6185c2.30646,-0.38867 2.86572,-1.82517 5.58337,-2.05552c0.64051,-0.05429 1.89235,0.25247 3.09999,0.43248c0.78699,-0.62227 1.56068,-1.15877 2.08648,-1.39639c1.51386,-0.68415 2.65607,-0.64787 3.83654,-0.53015c1.48679,-0.37815 3.06261,-0.47995 4.56974,-0.35221c0.06678,0.00566 0.13318,0.01061 0.19921,0.01492c0.60344,-0.19519 1.20786,-0.38003 1.83471,-0.40301c0.21075,-0.00772 1.95534,0.1477 3.52517,0.29283c0.61167,0.05178 1.6236,-0.40479 1.83378,0.17164c0.27185,0.02568 0.48474,0.04584 0.61144,0.05772l1.83392,0.17202c1.60366,0.15042 2.78176,1.5724 2.63134,3.17606c-0.01709,0.1822 -0.05059,0.35891 -0.09891,0.5288c0.17601,0.27998 0.3207,0.62272 0.41798,1.04155c0.65984,2.84082 -2.18097,3.50067 -2.18097,3.50067c-2.82032,0.60878 -5.11006,-0.20874 -7.85658,-0.00775c-2.827,0.20688 -3.97236,2.24254 -6.6839,2.9853c-0.50603,0.13861 -1.05244,-0.39345 -1.55512,-0.24315c-0.55462,0.16582 -0.775,0.97037 -1.33729,1.10793c-1.83606,0.44917 -4.71836,-0.2196 -6.63368,-0.39926l-0.61131,-0.05734c0,0 -1.02475,-0.09612 -1.79962,-0.78293c-0.46948,-0.04377 -0.88727,-0.08578 -1.19957,-0.11507z" fill="#080808" stroke="none" stroke-width="0.5" stroke-linecap="butt" stroke-linejoin="miter"/><path d="M88.19892,54.2458c-1.70713,-2.3646 0.65747,-4.07174 0.65747,-4.07174c1.09713,-0.76874 1.88884,-1.90858 2.93422,-2.74633c0.45172,-0.362 1.1189,-0.37073 1.58004,-0.72065c1.03115,-0.78244 1.44043,-2.19824 2.43943,-3.02134c0.44676,-0.3681 1.1189,-0.37073 1.58004,-0.72065c1.44354,-1.09536 2.22556,-3.35083 3.65914,-4.53201c0.7486,-0.6168 1.75614,-0.96839 2.31812,-1.75899l1.28677,-1.23799c0,0 1.7112,-1.59308 3.49572,-0.39439l3.60763,-0.63951c0,0 2.73207,1.02052 1.71155,3.75259c-0.46012,1.2318 -1.26818,1.70078 -2.01688,1.84438c-2.47805,3.237 -4.90222,6.91029 -7.82247,9.61203c-0.43028,0.39809 -1.11673,0.48845 -1.48167,0.94718c-0.38224,0.48049 -0.25614,1.25 -0.64454,1.72552c-0.56378,0.69022 -1.45957,1.03318 -2.1081,1.64447c-0.53975,0.50875 -0.85582,1.23854 -1.43809,1.69802c-1.05488,0.83243 -2.37162,1.28206 -3.4553,2.07664c0,0 -2.3646,1.70713 -4.07174,-0.65747c-0.42262,-0.58538 -0.5957,-1.13047 -0.61689,-1.61934c-0.54339,-0.1356 -1.10786,-0.47874 -1.61444,-1.18041z" fill="#080808" stroke="none" stroke-width="0.5" stroke-linecap="butt" stroke-linejoin="miter"/><path d="M142.91024,63.83174c1.45554,3.98096 -2.14078,8.95449 -8.03261,11.10868c-5.89182,2.1542 -11.84804,0.67331 -13.30357,-3.30765c-1.45554,-3.98096 2.14078,-8.95449 8.03261,-11.10868c5.89182,-2.1542 11.84804,-0.67331 13.30357,3.30765z" fill="#860000" stroke="#000000" stroke-width="0.5" stroke-linecap="butt" stroke-linejoin="miter"/></g></g></svg>