<svg version="1.1" xmlns="http://www.w3.org/2000/svg" xmlns:xlink="http://www.w3.org/1999/xlink" width="178.66148" height="348.91182" viewBox="0,0,178.66148,348.91182"><g transform="translate(-35.26361,-0.75)"><g data-paper-data="{&quot;isPaintingLayer&quot;:true}" fill-rule="nonzero" stroke-miterlimit="10" stroke-dasharray="" stroke-dashoffset="0" style="mix-blend-mode: normal"><path d="M182.52362,172.68785c-2.28027,-35.22891 1.68092,-64.05188 8.84756,-64.37792c7.16664,-0.32604 14.82491,27.96832 17.10518,63.19724c2.28027,35.22891 -1.68092,64.05188 -8.84756,64.37792c-7.16664,0.32604 -14.82491,-27.96832 -17.10518,-63.19724z" fill="#ebffa0" stroke="#000000" stroke-width="0.5" stroke-linecap="butt" stroke-linejoin="miter"/><path d="M183.5,161.54722c0,48.43198 -22.60962,87.69386 -50.5,87.69386c-27.89038,0 -50.5,-39.26188 -50.5,-87.69386c0,-48.43198 22.60962,-87.69386 50.5,-87.69386c27.89038,0 50.5,39.26188 50.5,87.69386z" fill="#000000" stroke="#000000" stroke-width="0.5" stroke-linecap="butt" stroke-linejoin="miter"/><path d="M189.77941,53.61632c0,29.05919 -25.80617,52.61632 -57.6397,52.61632c-31.83353,0 -57.63971,-23.55713 -57.63971,-52.61632c0,-29.05919 25.80618,-52.61632 57.63971,-52.61632c31.83353,0 57.6397,23.55713 57.6397,52.61632z" fill="#ebffa0" stroke="#000000" stroke-width="0.5" stroke-linecap="butt" stroke-linejoin="miter"/><path d="M48.13789,160.56132c11.98958,-33.36603 27.24375,-58.69626 34.07116,-56.57663c6.8274,2.11962 2.64264,30.88643 -9.34694,64.25246c-11.98958,33.36603 -27.24375,58.69626 -34.07116,56.57663c-6.82739,-2.11962 -2.64264,-30.88643 9.34694,-64.25246z" fill="#ebffa0" stroke="#000000" stroke-width="0.5" stroke-linecap="butt" stroke-linejoin="miter"/><path d="M79.53326,284.28732c2.80333,-35.17818 10.88127,-63.32147 18.0426,-62.85981c7.16134,0.46166 10.6942,29.35345 7.89087,64.53163c-2.80333,35.17818 -10.88127,63.32147 -18.0426,62.85981c-7.16134,-0.46166 -10.6942,-29.35345 -7.89087,-64.53163z" fill="#000000" stroke="#000000" stroke-width="0.5" stroke-linecap="butt" stroke-linejoin="miter"/><path d="M151.468,286.35975c-1.58719,-35.25398 2.93307,-64.18261 10.09629,-64.61389c7.16322,-0.43128 14.25684,27.79808 15.84403,63.05207c1.58719,35.25398 -2.93307,64.18261 -10.09629,64.61389c-7.16322,0.43128 -14.25684,-27.79808 -15.84403,-63.05207z" fill="#000000" stroke="#000000" stroke-width="0.5" stroke-linecap="butt" stroke-linejoin="miter"/><path d="M196.26488,339.10712c0.5344,3.51706 -7.22928,7.03532 -17.34067,7.85827c-10.11139,0.82295 -18.74149,-1.36106 -19.2759,-4.87811c-0.5344,-3.51706 7.22928,-7.03532 17.34067,-7.85827c10.11139,-0.82295 18.74149,1.36106 19.2759,4.87811z" data-paper-data="{&quot;index&quot;:null}" fill="#000000" stroke="#000000" stroke-width="0.5" stroke-linecap="butt" stroke-linejoin="miter"/><path d="M79.72148,340.57849c0.2478,-3.03334 9.75154,-4.57689 21.2272,-3.44761c11.47566,1.12928 20.57763,4.50375 20.32983,7.5371c-0.2478,3.03334 -9.75154,4.57689 -21.2272,3.44761c-11.47566,-1.12928 -20.57763,-4.50375 -20.32983,-7.5371z" data-paper-data="{&quot;index&quot;:null}" fill="#000000" stroke="#000000" stroke-width="0.5" stroke-linecap="butt" stroke-linejoin="miter"/><path d="M178.25,112c0,2.21009 -1.02832,3.39186 -2.12804,4.02378c-0.29942,0.85799 -0.65845,1.67694 -1.26321,2.33498c-0.95002,1.03373 -2.6662,0.94543 -3.86153,1.68183c-1.01106,0.62287 -1.56265,1.94423 -2.67948,2.34784c-1.2076,0.43641 -6.06825,0.36157 -7.81775,0.36157c-10,0 -20,0 -30,0c-5.34315,0 -11.01531,0.50901 -16.33673,-0.01195c-2.34581,-0.22965 -4.65139,-0.80104 -7,-1c-2.73808,-0.23195 -5.52335,0.36488 -8.24365,-0.02364c-2.74501,-0.39205 -5.31456,-1.34214 -7.92171,-2.20816c0,0 -4.50625,-1.50208 -3.00417,-6.00833c1.50208,-4.50625 6.00833,-3.00417 6.00833,-3.00417c1.60305,0.53645 4.4417,1.55796 6.07829,1.79184c2.55946,0.36577 5.17955,-0.23501 7.75635,-0.02364c2.34914,0.1927 4.6552,0.76025 7,1c5.08199,0.51963 10.55785,-0.01195 15.66327,-0.01195c10,0 20,0 30,0c1,0 2.00371,-0.08613 3,0c0.41057,0.03549 0.81599,0.55044 1.18225,0.36157c0.62661,-0.32312 0.70792,-1.3032 1.32052,-1.65216c0.6262,-0.3567 1.55752,0.10828 2.13847,-0.31817c0.30976,-0.22738 -0.09833,-0.76221 -0.14749,-1.14333l5.50625,-3.24792c0,0 4.75,0 4.75,4.75z" fill="#676767" stroke="none" stroke-width="0.5" stroke-linecap="butt" stroke-linejoin="miter"/><path d="M85.5,141.25c1.44523,0 2.45075,0.43973 3.15032,1.0516c3.51538,0.11817 6.81472,0.44087 10.43005,0.98399c6.77581,1.01792 14.54968,-0.03559 21.41963,-0.03559c11.66666,0 23.33334,0 35,0c4.63813,0 9.83582,0.67157 14.41963,0.03559c1.60899,-0.22324 3.13826,-1.0371 4.76266,-1.03209c2.29671,0.00709 4.52141,1.03998 6.81771,0.9965c0,0 4.75,0 4.75,4.75c0,4.75 -4.75,4.75 -4.75,4.75c-1.58695,-0.02044 -3.18904,0.15827 -4.76086,-0.06134c-0.85775,-0.11984 -1.55534,-0.9461 -2.42142,-0.94216c-1.1263,0.00512 -2.12304,0.80389 -3.23734,0.96791c-4.95452,0.72925 -10.56677,0.03559 -15.58037,0.03559c-11.66666,0 -23.33334,0 -35,0c-7.31431,0 -15.33926,0.95365 -22.58037,-0.03559c-1.36172,-0.18603 -2.64088,-0.79582 -4,-1c-2.63357,-0.39563 -5.75419,0.03559 -8.41963,0.03559l-4.75,-5.75c0,0 0,-4.75 4.75,-4.75z" fill="#676767" stroke="none" stroke-width="0.5" stroke-linecap="butt" stroke-linejoin="miter"/><path d="M187.25,181c0,4.75 -4.75,4.75 -4.75,4.75c-8.66666,0 -20.33334,0 -29,0c-6,0 -12,0 -18,0c-2.9285,0 -6.37681,-0.57416 -9.23914,-0.06134c-1.03757,0.18589 -1.95563,0.85718 -3,1c-3.55393,0.48602 -7.17385,0.06134 -10.76086,0.06134c-8.66666,0 -17.33334,0 -26,0c0,0 -4.75,0 -4.75,-4.75c0,-4.75 4.75,-4.75 4.75,-4.75c8.66666,0 17.33334,0 26,0c3.07978,0 6.19363,0.51953 9.23914,0.06134c1.04236,-0.15682 1.95866,-0.83653 3,-1c3.42202,-0.53719 7.29326,-0.06134 10.76086,-0.06134c6,0 12,0 18,0c8.66666,0 17.33334,0 26,0h3c0,0 4.75,0 4.75,4.75z" fill="#676767" stroke="none" stroke-width="0.5" stroke-linecap="butt" stroke-linejoin="miter"/><path d="M174.05735,113.13606c0.25091,-4.65941 2.13121,-9.34857 5.48623,-13.68179c11.95365,1.7962 17.33248,8.66838 21.22103,14.82818c4.57227,7.98713 12.56048,23.30662 12.56048,23.30662c-10.46364,3.08776 -21.19792,5.56758 -32.07651,7.41029c0,0 -7.52548,-24.95469 -7.19122,-31.86331z" data-paper-data="{&quot;index&quot;:null}" fill="#ffffff" stroke="#000000" stroke-width="1.2" stroke-linecap="round" stroke-linejoin="round"/><path d="M91.34617,108.81838c-0.58455,6.89196 -11.35178,30.62877 -11.35178,30.62877c-10.53829,-3.26859 -20.84909,-7.14954 -30.81104,-11.59717c0,0 9.94857,-14.12531 15.53931,-21.43581c4.67081,-5.58994 10.9132,-11.68842 22.99946,-11.8841c2.75097,4.73974 3.99304,9.63677 3.62406,14.28832z" data-paper-data="{&quot;index&quot;:null}" fill="#ffffff" stroke="#000000" stroke-width="1.2" stroke-linecap="round" stroke-linejoin="round"/><path d="M81.5,253v-65h97v65z" fill="#000000" stroke="#000000" stroke-width="0.5" stroke-linecap="butt" stroke-linejoin="miter"/><path d="M156.20548,76.93344c0,2.97172 -2.97172,2.97172 -2.97172,2.97172h-1.87687c-4.17541,0 -8.86992,0.60817 -12.9885,-0.03837c-0.65149,-0.10227 -1.22475,-0.52751 -1.87687,-0.62562c-1.951,-0.29352 -4.43921,0.03837 -6.40586,0.03837c-4.79646,0 -9.59291,0 -14.38936,0c0,0 -2.97172,0 -2.97172,-2.97172c0,-2.97172 2.97172,-2.97172 2.97172,-2.97172c4.79646,0 9.59291,0 14.38936,0c2.32805,0 5.06051,-0.2758 7.35788,0.03837c0.65338,0.08936 1.22774,0.50932 1.87687,0.62562c1.28078,0.22947 2.60218,-0.03837 3.90336,-0.03837c2.71104,0 5.42208,0 8.13312,0h1.87687c0,0 2.97172,0 2.97172,2.97172z" fill="#000000" stroke="none" stroke-width="0.5" stroke-linecap="butt" stroke-linejoin="miter"/><path d="M123.82941,52.22127c0,7.77427 -5.60203,14.07655 -12.51249,14.07655c-6.91045,0 -12.51249,-6.30229 -12.51249,-14.07655c0,-7.77427 5.60204,-14.07655 12.51249,-14.07655c6.91046,0 12.51249,6.30229 12.51249,14.07655z" fill="#ffffff" stroke="#000000" stroke-width="0.5" stroke-linecap="butt" stroke-linejoin="miter"/><path d="M169.5,52.22127c0,7.77427 -5.60204,14.07655 -12.51249,14.07655c-6.91045,0 -12.51249,-6.30229 -12.51249,-14.07655c0,-7.77427 5.60204,-14.07655 12.51249,-14.07655c6.91045,0 12.51249,6.30229 12.51249,14.07655z" fill="#ffffff" stroke="#000000" stroke-width="0.5" stroke-linecap="butt" stroke-linejoin="miter"/><path d="M107.71958,52.53408c0,-1.64123 1.33048,-2.97172 2.97172,-2.97172c1.64123,0 2.97172,1.33048 2.97172,2.97172c0,1.64123 -1.33048,2.97172 -2.97172,2.97172c-1.64123,0 -2.97172,-1.33048 -2.97172,-2.97172z" fill="#080808" stroke="none" stroke-width="0.5" stroke-linecap="butt" stroke-linejoin="miter"/><path d="M154.01579,51.90845c0,-1.64123 1.33048,-2.97172 2.97172,-2.97172c1.64123,0 2.97172,1.33048 2.97172,2.97172c0,1.64123 -1.33048,2.97172 -2.97172,2.97172c-1.64123,0 -2.97172,-1.33048 -2.97172,-2.97172z" fill="#080808" stroke="none" stroke-width="0.5" stroke-linecap="butt" stroke-linejoin="miter"/><path d="M139.47002,49.24955c0,0 -1.24776,0 -2.12624,-0.80853c-0.75131,0.25572 -2.61575,0.62842 -3.65987,-1.45982c-1.32899,-2.65798 1.32899,-3.98697 1.32899,-3.98697l1.6405,-0.78686c2.30291,-0.61378 2.73359,-2.12433 5.46872,-2.61662c0.64463,-0.11603 1.94382,0.07606 3.18609,0.14376c0.73919,-0.70618 1.47304,-1.32408 1.98385,-1.61518c1.47071,-0.83813 2.63293,-0.91001 3.84171,-0.90291c1.47236,-0.52512 3.06134,-0.77834 4.60248,-0.79216c0.06829,-0.00061 0.13612,-0.0019 0.20352,-0.00382c0.59361,-0.25544 1.18921,-0.50048 1.82296,-0.58344c0.21307,-0.02789 1.99774,-0.03622 3.60414,-0.03837c0.62546,-0.00567 1.60862,-0.56515 1.8767,-0.00038c0.27823,0.00018 0.49613,0.00038 0.6258,0.00038h1.87687c1.64123,0 2.97172,1.33048 2.97172,2.97172c0,0.18647 -0.01717,0.36892 -0.05002,0.54588c0.2052,0.26729 0.3846,0.60123 0.52315,1.01688c0.93974,2.81922 -1.87948,3.75896 -1.87948,3.75896c-2.80328,0.88598 -5.20401,0.27449 -7.97122,0.73975c-2.8483,0.47889 -3.81656,2.65305 -6.49673,3.66461c-0.50017,0.18878 -1.10513,-0.299 -1.6008,-0.0987c-0.54688,0.221 -0.69389,1.05819 -1.25125,1.25125c-1.81994,0.6304 -4.80766,0.22621 -6.76785,0.22621h-0.62562c0,0 -1.04875,0 -1.90021,-0.62303c-0.48045,0.00027 -0.90829,-0.0026 -1.22791,-0.0026z" fill="#080808" stroke="none" stroke-width="0.5" stroke-linecap="butt" stroke-linejoin="miter"/><path d="M100.08556,33.9938c1.64841,-2.47262 4.12103,-0.8242 4.12103,-0.8242c1.12497,0.77315 2.49527,1.12245 3.66766,1.8216c0.5066,0.30211 0.75282,0.93583 1.25125,1.25125c1.11452,0.70529 2.61188,0.59116 3.75375,1.25125c0.51066,0.2952 0.75282,0.93583 1.25125,1.25125c1.56025,0.98735 3.992,0.92963 5.63062,1.87687c0.85567,0.49464 1.55052,1.33101 2.50554,1.58555l1.6405,0.78686c0,0 2.13077,1.06538 1.62286,3.19615l1.89674,3.21558c0,0 0,2.97172 -2.97172,2.97172c-1.33986,0 -2.07562,-0.6041 -2.47964,-1.26757c-3.97338,-1.21122 -8.34399,-2.21546 -11.96411,-4.03961c-0.5334,-0.26877 -0.86441,-0.8918 -1.4324,-1.07658c-0.59493,-0.19354 -1.28449,0.2012 -1.87687,0c-0.85986,-0.29205 -1.50662,-1.02482 -2.32134,-1.42592c-0.67806,-0.33381 -1.48737,-0.37531 -2.13357,-0.76727c-1.17071,-0.71012 -2.06937,-1.80667 -3.21421,-2.55777c0,0 -2.47262,-1.64841 -0.8242,-4.12103c0.40808,-0.61212 0.86668,-0.97168 1.32576,-1.16621c-0.06431,-0.56703 0.06196,-1.22818 0.55111,-1.96191z" fill="#080808" stroke="none" stroke-width="0.5" stroke-linecap="butt" stroke-linejoin="miter"/></g></g></svg>